<?xml version="1.0" standalone="no"?>
<!DOCTYPE svg PUBLIC "-//W3C//DTD SVG 20010904//EN"
 "http://www.w3.org/TR/2001/REC-SVG-20010904/DTD/svg10.dtd">
<svg version="1.0" xmlns="http://www.w3.org/2000/svg"
 width="724.000000pt" height="724.000000pt" viewBox="0 0 724.000000 724.000000"
 preserveAspectRatio="xMidYMid meet">
<metadata>
Created by potrace 1.11, written by Peter Selinger 2001-2013
</metadata>
<g transform="translate(0.000000,724.000000) scale(0.100000,-0.100000)"
fill="#000000" stroke="none">
<path d="M3073 6810 c-22 -13 -36 -32 -44 -61 -15 -48 -32 -58 -59 -34 -18 16
-19 15 -36 -10 -16 -24 -16 -33 -5 -84 24 -104 25 -149 6 -191 -10 -22 -21
-40 -25 -40 -3 0 -14 16 -23 35 -28 58 -84 111 -143 135 -67 27 -78 21 -78
-47 1 -79 37 -134 138 -208 l40 -29 -30 -13 c-16 -6 -46 -12 -66 -13 -33 0
-38 -4 -49 -35 -7 -19 -16 -34 -20 -33 -3 2 -29 31 -58 66 -28 34 -64 69 -79
78 -15 9 -38 25 -52 34 -36 24 -114 14 -118 -16 -2 -12 -14 -26 -27 -32 -57
-26 -38 -98 36 -139 27 -14 49 -29 49 -32 0 -3 -7 -15 -15 -25 -20 -27 -19
-53 4 -65 10 -6 54 -13 98 -15 43 -2 91 -10 106 -17 l29 -13 -45 -13 c-33 -10
-48 -21 -62 -47 -11 -20 -16 -39 -12 -43 5 -4 35 -6 68 -6 139 4 205 -63 216
-219 5 -74 3 -90 -21 -148 -15 -36 -34 -92 -42 -125 -23 -93 -35 -125 -45
-125 -5 0 -9 6 -9 14 0 8 -27 67 -60 131 l-60 117 0 126 c0 188 -7 200 -77
135 -34 -32 -41 -46 -47 -90 -4 -29 -11 -53 -15 -53 -11 0 -72 102 -93 155 -9
22 -19 67 -23 100 -11 87 -32 135 -60 135 -12 0 -30 -9 -40 -20 -24 -26 -27
-25 -49 11 -22 37 -75 64 -110 55 -30 -7 -86 -84 -86 -119 0 -14 12 -50 26
-82 20 -43 37 -64 70 -85 l43 -27 -24 -11 c-29 -13 -32 -38 -7 -68 26 -33 69
-51 156 -64 70 -12 85 -18 144 -64 76 -59 162 -143 154 -151 -3 -3 -18 -5 -34
-5 -19 0 -28 -5 -28 -16 0 -32 23 -56 73 -79 75 -33 99 -63 105 -129 4 -55 4
-55 -94 -211 -77 -121 -105 -157 -124 -161 -26 -5 -62 -16 -94 -29 -17 -7 -18
-5 -12 21 11 41 23 53 81 79 64 28 93 60 78 83 -6 9 -20 16 -32 15 -12 -2 -25
6 -32 19 -10 19 -8 24 17 42 76 55 92 75 85 104 -5 20 -15 28 -35 30 -24 3
-27 7 -21 32 7 30 -17 99 -38 112 -7 4 -26 8 -43 8 -38 0 -68 -38 -68 -87 0
-36 -7 -41 -26 -17 -8 8 -25 14 -39 12 -23 -3 -26 -8 -29 -44 -2 -33 4 -53 32
-100 20 -33 36 -67 36 -77 0 -16 -2 -16 -23 -3 -33 22 -67 10 -67 -24 0 -26
41 -80 61 -80 10 0 12 -64 3 -97 -10 -37 -20 -27 -34 35 -15 63 -23 77 -47 77
-11 0 -21 13 -27 33 -13 46 -81 114 -109 110 -17 -2 -23 -11 -25 -35 -2 -18
-7 -33 -13 -33 -5 0 -9 4 -9 8 0 18 -79 52 -123 52 -51 0 -74 -19 -68 -59 10
-76 84 -136 183 -147 32 -4 61 -11 64 -15 3 -5 -2 -9 -10 -9 -19 0 -20 -5 -5
-31 9 -18 17 -19 68 -13 89 10 98 1 106 -101 5 -55 3 -101 -4 -131 -12 -45 -3
-202 19 -362 6 -42 5 -71 -2 -87 -8 -18 -6 -29 8 -51 15 -21 19 -49 20 -118 1
-50 -3 -99 -9 -110 -6 -13 -4 -25 10 -45 17 -22 21 -49 26 -186 7 -185 24
-292 73 -461 46 -162 64 -248 64 -316 0 -67 12 -105 36 -110 15 -3 17 -19 18
-131 2 -114 0 -130 -16 -138 -38 -20 -8 -109 37 -109 15 0 21 -21 8 -33 -18
-18 -19 -225 -2 -317 6 -30 14 -96 19 -146 5 -57 17 -114 33 -152 13 -34 21
-62 16 -62 -19 0 -8 -19 13 -22 29 -4 36 -28 8 -28 -11 0 -34 -7 -50 -15 l-29
-15 -10 37 c-6 21 -11 50 -11 64 0 15 -19 172 -41 350 -27 215 -42 375 -44
474 -2 83 -4 157 -5 165 -1 8 0 22 2 30 2 11 -7 16 -32 18 l-36 3 -2 66 c-3
67 -13 93 -38 93 -19 0 -28 -19 -34 -70 -4 -36 -10 -47 -32 -58 -34 -16 -34
-21 -3 -80 27 -51 33 -86 13 -80 -21 6 -59 93 -71 162 -10 59 -1 155 20 212 2
6 -5 22 -16 35 l-21 24 -30 -33 c-16 -18 -30 -39 -30 -47 0 -8 -4 -15 -9 -15
-5 0 -11 23 -15 50 -10 77 -25 103 -55 97 -15 -3 -38 2 -52 10 -31 18 -77 11
-86 -14 -3 -9 -1 -29 5 -45 9 -24 7 -30 -11 -43 -19 -13 -19 -18 -8 -55 12
-40 60 -78 81 -65 11 7 100 -51 100 -66 0 -5 -14 -2 -31 6 -32 17 -92 22 -127
11 -47 -15 -34 -79 18 -91 23 -5 30 -12 30 -31 0 -23 2 -24 85 -24 80 0 86 -2
119 -31 20 -17 51 -56 69 -87 39 -65 83 -169 75 -177 -3 -3 -28 7 -56 22 -39
21 -62 44 -94 93 -47 71 -80 87 -86 40 -6 -48 -10 -54 -30 -38 -21 18 -109 23
-128 7 -15 -12 -19 -56 -6 -76 12 -20 60 -33 118 -33 57 0 61 -4 42 -46 -11
-23 -10 -28 7 -40 26 -19 59 -17 105 6 79 40 140 19 178 -63 88 -188 101 -224
111 -312 15 -124 15 -122 -14 -95 -17 16 -25 34 -25 57 0 51 -16 74 -45 67
-21 -5 -25 -3 -25 18 0 13 9 41 20 62 10 22 17 42 15 46 -3 4 -25 13 -51 19
-51 13 -74 4 -74 -31 0 -29 -17 -13 -45 42 -24 48 -24 48 -67 43 -65 -8 -75
-22 -56 -80 12 -39 21 -50 47 -59 32 -10 32 -10 11 -29 -47 -42 -3 -87 95 -95
l60 -5 -3 -37 c-3 -36 -3 -37 54 -55 52 -16 61 -23 96 -77 49 -76 49 -96 1
-57 -21 16 -63 36 -93 44 -83 21 -109 39 -155 103 -22 33 -48 59 -57 59 -9 0
-25 11 -35 24 -25 31 -47 19 -41 -20 3 -17 -1 -34 -9 -40 -25 -21 -13 -40 37
-61 28 -11 50 -25 50 -29 0 -20 -91 -8 -155 21 -76 34 -92 36 -123 14 -19 -13
-20 -18 -10 -37 6 -12 18 -27 26 -33 12 -9 6 -13 -30 -22 -25 -6 -51 -19 -59
-28 -12 -14 -10 -19 10 -36 14 -10 30 -17 38 -14 10 4 13 -6 13 -38 0 -58 20
-65 59 -20 17 19 31 39 31 44 0 12 73 50 96 50 11 0 14 -5 9 -17 -16 -37 -16
-60 -2 -71 12 -10 23 -6 60 22 72 55 82 58 102 36 17 -19 18 -19 47 5 16 14
41 28 55 31 38 10 99 -13 139 -52 22 -23 41 -34 51 -30 9 4 24 -1 35 -11 18
-16 19 -15 34 5 16 24 60 30 67 10 3 -9 12 -6 30 10 18 17 32 22 47 17 19 -6
21 -5 11 13 -19 35 -12 67 18 96 28 27 33 28 89 21 55 -6 61 -5 67 14 7 23 20
27 30 11 10 -16 95 -13 95 4 0 56 -49 81 -143 71 -38 -3 -76 -9 -86 -12 -9 -2
-1 9 17 26 18 17 40 31 48 31 11 0 15 6 12 18 -8 31 69 23 113 -11 34 -25 40
-27 80 -18 24 6 68 11 97 11 l52 0 0 34 c0 18 -7 39 -15 46 -8 7 -15 9 -15 6
0 -4 -7 -1 -15 7 -8 9 -20 17 -26 19 -9 3 -9 9 0 25 11 21 6 53 -8 53 -4 0
-32 -17 -62 -39 -30 -21 -65 -42 -79 -46 -24 -7 -24 -7 -9 16 9 13 35 38 58
56 33 26 54 33 111 39 72 7 91 17 71 37 -18 18 -13 24 28 41 40 15 61 40 61
71 0 21 -57 44 -95 38 -25 -3 -33 1 -47 26 -30 54 -75 33 -93 -44 -6 -27 -8
-28 -19 -12 -14 18 -33 21 -60 11 -14 -5 -16 -18 -11 -78 6 -62 4 -76 -17
-115 -13 -24 -38 -53 -57 -64 l-34 -21 7 29 c4 17 11 32 15 35 14 9 31 47 24
54 -3 3 -14 6 -24 6 -10 0 -25 13 -34 30 -11 22 -23 30 -42 30 -25 0 -26 -1
-19 -57 7 -64 -2 -87 -27 -77 -14 5 -17 20 -17 74 0 78 7 87 84 111 48 14 51
17 50 47 -1 21 3 33 15 37 9 3 29 17 44 31 54 46 10 98 -53 64 -15 -8 -21 -6
-30 10 -6 11 -19 24 -30 30 -33 17 -50 -12 -50 -86 0 -65 -12 -104 -30 -104
-25 0 2 179 34 218 49 62 66 93 66 118 0 22 -4 26 -22 21 -13 -2 -30 -8 -40
-11 -13 -6 -17 1 -23 34 -8 50 -52 79 -91 61 -21 -9 -24 -17 -24 -67 0 -45 -4
-59 -21 -73 -31 -25 -18 -73 32 -113 39 -31 39 -31 39 -105 0 -40 -4 -73 -8
-73 -14 0 -60 54 -71 83 -6 16 -11 44 -11 63 0 33 -12 50 -62 90 -18 14 -32
254 -19 319 13 69 62 142 166 248 98 100 213 193 202 163 -4 -9 -1 -29 4 -46
16 -45 51 -41 82 10 21 35 26 39 37 25 34 -41 80 2 80 76 0 58 9 66 32 32 30
-43 38 -71 49 -156 12 -97 40 -158 68 -150 41 11 56 41 54 109 -1 35 -5 74 -8
85 -5 15 -4 19 4 15 16 -10 51 -83 96 -196 20 -52 41 -99 45 -103 16 -18 75 4
92 34 16 28 19 29 40 16 35 -22 86 -29 95 -13 4 7 26 21 48 32 29 14 43 28 50
52 6 21 15 32 27 32 22 0 23 12 3 49 -21 41 -70 79 -118 91 -86 23 -84 21 -55
36 31 16 68 72 68 103 0 27 -42 45 -86 38 -18 -3 -51 -18 -75 -33 -57 -36
-115 -42 -173 -18 -25 11 -46 21 -46 24 0 3 18 18 40 33 36 25 60 71 60 114 0
20 79 35 185 36 132 0 168 -12 232 -80 39 -41 57 -54 75 -51 18 2 24 10 26 36
5 50 32 41 96 -32 62 -71 129 -111 169 -101 31 8 39 41 21 85 l-14 32 58 -7
c85 -10 192 34 223 92 25 47 -29 125 -116 164 -49 23 -153 24 -210 4 -61 -22
-66 -19 -38 24 27 41 98 81 145 81 29 0 108 -30 108 -41 0 -22 65 -41 124 -37
41 3 69 0 90 -11 42 -20 129 -26 166 -11 19 8 39 28 51 52 l20 39 -21 29 c-25
34 -97 80 -143 89 -42 9 -44 27 -5 47 69 35 99 66 139 146 33 66 39 87 34 115
-16 86 -121 115 -226 62 -62 -31 -115 -109 -154 -227 -20 -62 -26 -64 -16 -7
4 22 3 59 -2 82 l-8 43 -32 -13 c-45 -19 -99 -95 -125 -176 -33 -102 -58 -134
-112 -143 -67 -12 -168 -47 -173 -62 -3 -7 -27 -23 -54 -36 -48 -23 -143 -52
-143 -44 0 15 44 80 90 133 68 78 117 107 195 116 33 4 75 9 94 11 35 4 81 28
81 43 0 5 -10 21 -22 36 -20 26 -24 27 -95 23 -40 -2 -73 0 -73 3 0 4 23 27
50 52 34 30 63 47 88 52 22 3 67 21 102 38 49 24 65 39 71 60 5 20 4 27 -7 27
-8 0 -20 11 -26 25 -10 22 -8 29 11 49 26 27 45 88 36 116 -9 27 -39 33 -98
19 -40 -9 -52 -9 -55 0 -2 7 -14 24 -26 37 -18 22 -25 24 -48 15 -15 -6 -41
-29 -57 -51 -28 -38 -36 -65 -58 -190 l-8 -45 -34 65 c-18 36 -37 69 -41 73
-4 5 -19 -6 -34 -24 -25 -29 -27 -39 -23 -88 2 -31 10 -84 17 -119 23 -105 -6
-232 -52 -232 -4 0 -8 7 -8 17 0 30 -55 183 -68 188 -20 7 -59 -15 -71 -42
-19 -41 -12 -101 20 -196 38 -111 33 -139 -39 -210 -46 -45 -54 -49 -153 -71
-57 -13 -160 -45 -228 -70 -69 -25 -129 -46 -133 -46 -15 0 51 89 79 107 14 9
68 22 121 29 102 13 124 26 136 76 5 20 1 33 -14 48 -24 24 -35 25 -90 5 -23
-8 -46 -15 -51 -15 -31 0 21 55 117 122 86 61 125 109 131 162 5 40 3 43 -26
55 -17 8 -37 11 -45 8 -10 -4 -15 8 -20 46 -11 78 -42 142 -85 171 -44 31 -42
30 -109 11 -42 -13 -58 -24 -79 -56 -24 -36 -25 -45 -20 -112 4 -39 15 -99 27
-131 11 -33 20 -80 20 -105 l-1 -46 -15 30 c-18 34 -91 105 -108 105 -7 0 -22
-7 -35 -16 -20 -15 -22 -23 -18 -73 2 -31 16 -90 32 -131 38 -105 32 -177 -24
-264 -21 -34 -42 -71 -45 -83 -4 -12 -17 -25 -29 -29 -65 -19 -117 -48 -117
-64 0 -9 -21 -31 -47 -49 -104 -71 -224 -170 -287 -238 -37 -39 -67 -75 -66
-80 1 -4 -4 -9 -11 -12 -23 -7 -4 156 27 229 47 111 87 140 197 140 69 0 87
10 87 50 0 29 -37 51 -73 43 l-22 -6 22 21 c20 20 53 110 53 147 0 9 -5 36
-11 60 -9 34 -16 44 -36 48 -45 8 -63 -2 -63 -38 0 -18 -3 -53 -6 -78 l-7 -46
-27 20 c-19 14 -34 18 -53 14 -23 -6 -27 -13 -27 -41 0 -19 9 -52 20 -74 11
-22 20 -47 20 -56 0 -18 -64 -84 -82 -84 -12 0 -2 257 13 338 6 29 21 65 34
80 19 23 25 45 31 114 6 80 5 86 -17 106 -37 35 -58 27 -82 -28 l-15 -35 -1
50 c-1 53 22 128 49 160 21 24 50 79 50 95 0 5 -9 19 -20 30 -19 19 -22 19
-50 5 -38 -19 -37 -20 -45 12 -10 42 -45 84 -81 99 -34 14 -59 10 -84 -15 -13
-13 -16 -8 -23 41 -6 36 -5 75 3 113 10 50 22 69 101 161 79 91 95 105 134
115 48 12 54 22 31 55 -13 18 -9 28 45 110 46 69 101 167 125 222 1 2 40 10
88 19 73 13 101 25 192 79 59 35 138 75 176 90 38 14 90 40 116 58 40 27 47
36 50 69 3 36 3 37 -32 37 -20 0 -36 4 -36 10 0 5 15 34 34 63 49 76 76 163
76 242 0 71 -9 82 -53 71 -28 -7 -107 -125 -107 -159 0 -13 -5 -39 -11 -57
l-12 -32 -38 42 -39 43 -15 -36 c-10 -24 -15 -70 -15 -132 0 -52 -4 -95 -9
-95 -5 0 -14 -13 -21 -30 -16 -38 -37 -38 -45 0 -8 36 -41 80 -61 80 -26 0
-53 -77 -47 -135 7 -64 -13 -106 -61 -129 -41 -20 -76 -21 -76 -2 0 7 21 62
46 122 25 60 50 131 56 159 22 103 76 168 208 247 106 64 224 181 265 263 38
76 42 173 10 217 -43 59 -85 20 -85 -80 l0 -63 -30 23 c-37 27 -50 17 -56 -43
-5 -43 -42 -139 -53 -139 -3 0 -17 16 -30 36 -38 56 -62 45 -84 -41 -21 -76
-65 -181 -73 -172 -3 3 1 41 10 84 9 43 20 111 25 151 9 67 13 77 62 135 61
72 120 131 172 170 55 42 91 108 84 159 -3 22 -10 45 -15 50 -17 17 -62 0 -62
-22 0 -22 -30 -90 -40 -90 -4 0 -12 11 -18 25 -25 56 -61 12 -86 -106 -13 -60
-102 -212 -121 -205 -43 14 53 229 155 346 99 114 106 128 102 213 -2 27 -4
28 -34 22 -18 -4 -44 -19 -56 -34 l-24 -26 22 38 c24 40 23 88 -2 142 -14 30
-14 30 -55 5z m-223 -687 c54 -85 74 -220 45 -296 l-17 -46 -50 97 -50 97 5
87 c8 126 19 136 67 61z m-486 -1425 c-28 -34 -64 -64 -64 -53 0 29 48 85 72
85 18 0 17 -3 -8 -32z m266 -2483 c68 -34 84 -68 84 -175 1 -79 -2 -91 -39
-167 -21 -46 -43 -83 -47 -83 -10 0 -26 63 -37 150 -12 93 -22 300 -15 300 2
0 27 -11 54 -25z m180 -309 c0 -7 -17 -34 -37 -59 -21 -26 -51 -79 -66 -119
l-28 -73 5 80 c3 52 12 97 26 130 12 28 26 60 31 73 l9 23 30 -21 c17 -12 30
-27 30 -34z"/>
<path d="M4298 6669 c-27 -11 -44 -41 -33 -59 3 -5 19 -10 35 -10 15 0 54 -13
85 -30 31 -16 61 -30 65 -30 28 0 13 103 -18 119 -29 14 -105 20 -134 10z"/>
<path d="M5323 6623 c-26 -5 -76 -60 -70 -77 5 -14 129 -30 172 -22 38 8 77
42 73 64 -6 31 -100 49 -175 35z"/>
<path d="M3950 6605 c-7 -9 -19 -14 -25 -11 -15 5 -35 -13 -35 -31 0 -9 12
-11 45 -6 45 6 56 -2 33 -25 -9 -9 -6 -12 15 -12 36 0 52 31 35 68 -15 31 -49
40 -68 17z"/>
<path d="M5836 6561 c-3 -4 4 -17 15 -27 13 -11 18 -26 15 -39 -6 -24 2 -39
26 -48 12 -4 15 -12 11 -23 -5 -14 -2 -16 20 -10 22 5 27 3 27 -13 0 -14 5
-18 21 -14 14 4 25 -1 36 -16 14 -21 16 -21 29 -4 13 17 13 17 14 -4 0 -12 8
-24 18 -27 29 -10 64 -47 58 -62 -3 -8 1 -17 9 -20 21 -8 19 -22 -5 -29 -11
-4 -20 -15 -20 -26 0 -20 -33 -39 -92 -53 -22 -5 -28 -3 -28 10 0 10 5 14 15
10 8 -3 15 -1 15 5 0 5 11 15 25 21 30 14 32 33 5 48 -16 8 -31 6 -66 -9 -57
-26 -72 -19 -119 55 -37 58 -55 64 -65 23 l-6 -24 -8 22 c-15 47 -66 73 -66
34 0 -25 36 -53 89 -71 22 -7 47 -23 56 -36 8 -13 36 -37 62 -55 27 -18 72
-54 101 -81 30 -26 64 -51 76 -54 23 -5 71 19 124 64 25 21 26 23 10 36 -25
19 -22 36 6 36 29 0 88 -49 69 -56 -6 -3 -32 -21 -57 -40 -66 -50 -78 -108
-14 -71 41 23 50 14 42 -43 l-6 -48 46 -34 c76 -55 230 -130 279 -135 43 -5
45 -4 40 16 -4 16 1 27 16 37 27 19 27 40 0 47 -16 4 -25 -2 -41 -29 -14 -24
-27 -34 -44 -34 -28 0 -28 0 -10 35 20 38 11 54 -48 80 -28 13 -66 39 -85 59
l-35 36 26 27 c15 16 30 41 34 56 3 16 13 31 20 34 27 10 14 20 -28 21 -25 1
-50 10 -62 21 -12 10 -43 30 -71 44 -27 14 -59 34 -69 46 -13 14 -31 21 -58
21 -21 0 -38 3 -38 7 0 4 13 21 29 38 23 23 28 36 24 58 -3 16 -13 31 -22 34
-9 3 -26 10 -38 15 -16 8 -26 8 -37 -1 -11 -10 -25 -9 -66 3 -65 19 -102 46
-140 102 -29 42 -52 55 -64 35z"/>
<path d="M4070 6550 c0 -5 5 -10 10 -10 6 0 10 5 10 10 0 6 -4 10 -10 10 -5 0
-10 -4 -10 -10z"/>
<path d="M4115 6520 c-26 -27 -35 -30 -89 -31 -79 0 -145 -12 -128 -22 21 -14
13 -52 -18 -82 -24 -23 -33 -27 -39 -16 -7 10 -21 12 -55 7 -54 -8 -58 -3 -13
20 l32 17 -27 9 c-17 6 -52 6 -90 0 -73 -11 -91 -6 -155 43 -31 24 -56 35 -79
35 l-34 0 0 -51 0 -52 50 6 c60 7 64 -5 11 -32 -39 -21 -58 -61 -44 -97 4 -12
11 -5 27 27 15 31 33 50 59 63 43 20 116 33 118 20 1 -5 2 -30 3 -56 1 -46 0
-48 -26 -48 -19 0 -26 4 -22 14 3 8 1 17 -5 20 -6 4 -8 13 -4 21 7 20 0 19
-47 -5 -48 -25 -51 -38 -9 -47 l32 -6 -24 -18 c-13 -9 -40 -23 -61 -30 -44
-14 -46 -19 -18 -44 11 -10 26 -37 32 -59 7 -23 22 -51 35 -63 28 -27 28 -24
-1 -169 -13 -66 -27 -150 -31 -188 l-8 -68 49 28 c27 15 54 31 59 35 40 29
369 198 405 208 25 7 79 31 120 53 182 97 414 171 533 168 78 -1 82 6 37 66
-40 53 -40 76 2 72 23 -2 36 -11 48 -33 17 -31 63 -53 111 -54 14 -1 72 -10
129 -22 101 -20 166 -20 200 1 12 8 9 15 -18 43 -31 32 -32 35 -18 63 33 67
28 159 -10 209 -12 16 -16 17 -24 6 -7 -12 -12 -12 -35 3 -23 15 -40 17 -104
11 -61 -5 -93 -2 -158 14 -89 23 -133 27 -133 11 0 -5 14 -10 30 -10 22 0 30
-5 30 -17 0 -25 -12 -39 -37 -47 -19 -6 -23 -3 -23 12 0 13 -9 22 -25 26 -16
4 -25 13 -25 26 0 28 -56 29 -65 1 -3 -12 -19 -21 -43 -25 -68 -11 -87 -7
-117 24 -16 17 -35 30 -42 30 -7 0 -16 -13 -19 -30 -6 -27 -10 -30 -43 -30
-20 0 -73 -3 -118 -7 -59 -4 -83 -3 -83 5 0 7 12 15 28 18 41 10 55 24 41 40
-16 20 -22 18 -54 -16z"/>
<path d="M5140 6541 c0 -5 6 -11 13 -13 17 -7 38 2 31 13 -7 12 -44 12 -44 0z"/>
<path d="M4540 6524 c0 -8 5 -12 10 -9 6 4 8 11 5 16 -9 14 -15 11 -15 -7z"/>
<path d="M4937 6533 c-13 -12 -7 -23 13 -23 11 0 20 7 20 15 0 15 -21 21 -33
8z"/>
<path d="M5770 6510 c0 -18 3 -19 20 -10 14 8 26 7 43 -1 22 -12 22 -12 3 10
-25 28 -66 28 -66 1z"/>
<path d="M3810 6495 c0 -8 5 -15 10 -15 6 0 10 7 10 15 0 8 -4 15 -10 15 -5 0
-10 -7 -10 -15z"/>
<path d="M5196 6431 c-17 -19 -17 -21 -2 -27 17 -7 22 -39 7 -49 -5 -3 -7 -21
-4 -40 3 -21 1 -41 -6 -49 -9 -11 -9 -20 -2 -35 6 -11 11 -33 11 -48 0 -57 30
-147 56 -170 27 -25 63 -30 82 -11 18 18 25 3 15 -29 -7 -19 -16 -27 -29 -26
-34 3 -108 25 -150 44 -50 23 -107 25 -124 3 -23 -27 9 -43 176 -84 133 -33
180 -50 289 -105 72 -35 182 -87 245 -114 88 -38 116 -55 118 -70 4 -25 8 -25
-59 -5 -30 9 -81 34 -114 57 -125 85 -349 177 -429 177 -15 0 -44 11 -65 24
-59 38 -114 49 -173 37 -44 -10 -52 -9 -75 9 -15 11 -58 30 -97 42 -39 11 -75
23 -80 26 -15 8 -107 12 -138 6 -15 -3 -30 -14 -33 -24 -4 -12 -12 -17 -21
-13 -10 4 -27 -6 -44 -26 -27 -29 -32 -31 -104 -31 l-76 0 0 -46 c0 -45 0 -45
-22 -30 -29 20 -70 20 -139 0 -74 -22 -451 -215 -581 -298 -103 -66 -106 -70
-112 -111 -7 -45 -26 -68 -63 -79 -34 -11 -63 -54 -63 -95 0 -42 -31 -115 -63
-150 l-22 -24 25 13 c14 7 41 23 60 35 73 46 361 195 500 260 80 37 156 72
169 78 13 7 26 20 29 29 3 12 9 15 19 9 9 -4 37 -3 66 4 104 25 199 55 213 66
19 16 18 54 -3 74 -20 20 -56 15 -158 -22 -38 -14 -90 -32 -115 -40 -102 -33
-128 -44 -147 -62 -11 -10 -30 -22 -44 -25 -13 -4 -119 -55 -236 -114 -117
-58 -215 -103 -219 -100 -11 12 41 47 163 108 91 45 147 81 218 141 78 67 100
80 121 76 34 -6 194 25 267 53 32 12 76 39 99 61 23 21 47 39 54 39 8 0 23 14
36 30 17 24 29 30 60 30 29 0 38 4 38 18 1 14 3 14 19 -5 22 -27 81 -32 100
-9 8 10 23 13 45 9 20 -3 36 -1 40 6 12 19 28 12 24 -11 -2 -18 -12 -24 -45
-30 -101 -17 -169 -91 -134 -147 11 -17 104 -10 197 15 43 11 81 14 139 9 106
-8 279 -41 315 -60 39 -20 50 -19 50 5 0 16 7 20 35 20 38 0 46 -13 18 -29
-15 -8 -16 -12 -5 -23 10 -10 16 -10 33 0 17 11 24 11 37 -1 10 -8 50 -25 90
-36 44 -14 72 -27 72 -36 0 -21 -36 -28 -68 -11 -15 8 -62 22 -103 31 -107 23
-137 31 -199 53 -80 29 -200 52 -272 52 -50 0 -93 -10 -208 -51 -80 -28 -194
-61 -253 -74 -136 -30 -192 -63 -137 -80 37 -12 176 15 427 81 l172 45 133
-45 c151 -51 202 -62 337 -76 59 -6 112 -18 139 -31 24 -12 42 -22 40 -24 -5
-5 -558 91 -565 98 -12 12 -160 7 -231 -8 -38 -7 -93 -23 -123 -33 -30 -11
-85 -27 -124 -36 -45 -10 -76 -24 -87 -37 -20 -24 -21 -29 -9 -47 7 -12 22
-12 82 -2 41 6 99 13 129 16 30 3 73 10 95 15 22 4 66 9 97 9 74 0 108 13 109
42 1 20 2 19 14 -9 13 -28 22 -33 86 -48 117 -26 258 -43 524 -61 239 -17 320
-15 298 7 -5 5 -36 16 -68 24 -32 9 -65 21 -73 28 -28 23 46 27 126 6 103 -26
289 -46 304 -31 8 8 -5 16 -48 29 l-59 18 77 3 c76 3 78 3 94 35 28 54 35 60
53 43 9 -7 26 -17 39 -20 12 -4 22 -11 22 -16 0 -16 -21 -22 -34 -11 -16 14
-46 4 -46 -14 0 -8 6 -17 12 -21 15 -9 591 -74 598 -67 19 18 -96 43 -225 50
-108 5 -185 24 -207 50 -11 15 -11 16 5 10 29 -11 183 -21 204 -13 17 7 17 8
1 17 -9 5 -81 23 -160 39 -79 16 -163 36 -188 45 -25 10 -81 23 -125 31 -44 8
-105 23 -135 33 -30 11 -68 22 -84 26 -23 5 -27 8 -15 16 20 13 66 11 129 -6
30 -8 58 -11 63 -6 11 11 -53 37 -146 60 -56 14 -88 28 -116 53 -60 51 -51 64
19 28 22 -11 47 -20 57 -20 10 0 26 -9 36 -20 20 -23 62 -26 71 -5 7 19 26 19
26 0 0 -21 45 -48 70 -40 27 9 25 33 -4 45 -13 5 -27 14 -31 20 -11 18 -86 52
-103 45 -17 -6 -452 249 -452 265 0 15 3 14 100 -35 49 -25 92 -45 95 -45 3 0
5 7 5 15 0 24 28 18 145 -31 170 -71 240 -91 344 -97 111 -7 111 -7 -25 80
-51 32 -111 74 -135 93 l-43 35 37 -67 c33 -62 35 -68 17 -68 -28 0 -262 122
-342 178 -159 112 -186 136 -181 159 4 19 -2 24 -49 37 -29 8 -79 18 -110 22
-53 6 -58 5 -58 -13 0 -11 -8 -27 -18 -36 -17 -15 -19 -14 -34 27 -9 25 -14
47 -11 50 4 3 26 6 50 6 24 0 59 6 77 14 29 12 36 12 49 -1 10 -10 22 -13 34
-9 17 7 17 8 -2 24 -11 9 -20 26 -20 37 0 16 -12 23 -70 37 -38 10 -95 21
-125 24 -48 5 -58 3 -74 -15z"/>
<path d="M5725 6420 c3 -5 13 -10 21 -10 8 0 12 5 9 10 -3 6 -13 10 -21 10 -8
0 -12 -4 -9 -10z"/>
<path d="M5559 6333 c-1 -5 -1 -12 0 -17 1 -5 -7 -6 -19 -3 -24 6 -37 -10 -21
-26 9 -9 17 -8 33 2 16 10 22 10 28 1 6 -9 11 -7 18 7 8 14 8 23 0 31 -13 13
-37 16 -39 5z"/>
<path d="M6416 6281 c-21 -33 63 -88 172 -113 40 -8 56 -17 62 -34 5 -12 28
-37 51 -55 23 -19 55 -46 71 -61 34 -33 46 -34 64 -10 10 13 15 14 25 5 10
-10 10 -18 1 -38 -13 -28 -9 -45 10 -45 6 0 26 18 45 40 l34 40 23 -26 c20
-24 23 -25 35 -10 9 10 10 16 2 16 -6 0 -22 18 -36 40 -22 35 -28 39 -54 34
-24 -5 -32 -1 -47 21 -9 14 -40 38 -68 52 -28 14 -70 41 -93 59 -26 22 -52 34
-71 34 -16 0 -55 12 -86 26 -66 30 -130 42 -140 25z"/>
<path d="M5637 6266 c-3 -8 1 -17 9 -20 9 -4 14 1 14 14 0 23 -15 27 -23 6z"/>
<path d="M5890 6265 c0 -8 7 -15 15 -15 8 0 15 7 15 15 0 8 -7 15 -15 15 -8 0
-15 -7 -15 -15z"/>
<path d="M5626 6211 c-16 -6 -13 -11 25 -33 126 -73 189 -94 189 -64 0 16 -46
54 -95 79 -39 20 -95 28 -119 18z"/>
<path d="M4745 6160 c-8 -13 20 -24 36 -15 8 6 7 10 -2 16 -18 11 -26 11 -34
-1z"/>
<path d="M4855 6130 c3 -5 8 -10 11 -10 2 0 4 5 4 10 0 6 -5 10 -11 10 -5 0
-7 -4 -4 -10z"/>
<path d="M4762 6108 c5 -15 28 -18 29 -3 0 6 -7 12 -17 13 -10 3 -15 -1 -12
-10z"/>
<path d="M4930 6094 c-13 -32 -12 -44 1 -83 13 -38 24 -39 41 -4 17 35 66 50
113 35 55 -16 75 -6 75 37 l0 38 -57 -5 c-32 -2 -64 -9 -70 -14 -9 -7 -21 -5
-38 6 -35 23 -54 20 -65 -10z"/>
<path d="M4605 6094 c-11 -3 -30 -7 -42 -10 -39 -8 -25 -24 21 -24 25 0 57 -5
72 -11 30 -11 74 -5 74 11 0 21 -82 43 -125 34z"/>
<path d="M4794 6066 c-27 -22 -27 -24 -8 -33 33 -17 68 -23 84 -13 13 8 13 13
2 30 -7 11 -10 25 -7 30 13 20 -45 9 -71 -14z"/>
<path d="M5893 6055 c-1 -35 17 -54 72 -75 20 -8 27 -6 32 6 4 10 -10 30 -43
59 -27 24 -51 44 -55 45 -3 0 -5 -16 -6 -35z"/>
<path d="M6545 6080 c-30 -49 -34 -64 -21 -80 8 -8 16 -24 18 -35 5 -28 79
-66 130 -67 33 0 46 5 60 23 10 13 25 32 35 41 9 10 15 19 12 20 -53 32 -74
39 -103 34 -27 -5 -35 -2 -45 18 -7 13 -25 30 -40 37 -14 7 -29 15 -33 17 -3
2 -9 -2 -13 -8z"/>
<path d="M4370 6027 c-34 -17 -42 -77 -11 -77 28 0 63 37 59 62 -4 27 -16 31
-48 15z"/>
<path d="M4200 5945 c-36 -19 -119 -52 -186 -75 -67 -22 -145 -56 -175 -75
-30 -18 -75 -43 -101 -55 -26 -12 -53 -29 -59 -36 -6 -8 -49 -37 -95 -65 -86
-52 -94 -64 -76 -112 6 -15 23 -7 122 58 63 41 122 75 131 75 9 0 27 8 40 18
26 19 111 62 124 62 4 0 19 9 34 19 15 11 56 31 92 44 107 41 259 115 259 127
0 20 -20 50 -33 50 -7 -1 -41 -16 -77 -35z"/>
<path d="M7080 5932 l-22 -18 32 -27 c41 -35 50 -34 50 8 0 45 -28 63 -60 37z"/>
<path d="M5785 5911 c-7 -12 34 -41 57 -41 25 0 23 16 -4 34 -25 18 -44 20
-53 7z"/>
<path d="M6783 5900 c-21 -8 -43 -38 -43 -57 0 -5 14 -19 31 -32 29 -22 31
-22 50 -5 18 16 20 16 39 -1 11 -10 20 -21 20 -25 0 -4 -24 -12 -54 -19 -30
-7 -74 -25 -98 -41 -52 -36 -91 -38 -159 -9 -27 12 -52 19 -55 17 -3 -3 21
-22 52 -43 76 -50 126 -56 178 -21 32 21 50 26 101 26 72 0 100 20 90 62 -5
18 -2 27 9 31 9 4 16 16 16 28 0 12 5 19 13 17 17 -6 22 -122 7 -172 -11 -37
-10 -40 19 -67 17 -15 31 -35 31 -43 0 -9 9 -16 19 -16 11 0 23 -4 26 -10 3
-5 19 -10 36 -10 l29 0 0 125 c0 95 -3 125 -13 125 -7 0 -39 27 -72 60 -63 63
-98 76 -110 40 -3 -11 -10 -20 -15 -20 -22 0 -37 13 -33 29 8 32 -64 51 -114
31z"/>
<path d="M5915 5830 c17 -18 110 -59 201 -86 50 -15 67 -3 30 21 -29 19 -210
85 -233 85 -14 0 -14 -2 2 -20z"/>
<path d="M6253 5793 c-7 -2 -13 -11 -13 -18 0 -16 30 -29 42 -17 9 9 1 43 -11
41 -3 0 -12 -3 -18 -6z"/>
<path d="M4440 5766 c0 -9 5 -16 10 -16 6 0 10 4 10 9 0 6 -4 13 -10 16 -5 3
-10 -1 -10 -9z"/>
<path d="M6330 5736 c32 -39 147 -71 124 -35 -10 16 -85 49 -113 49 -19 0 -21
-3 -11 -14z"/>
<path d="M4520 5717 c-50 -25 -66 -97 -21 -97 11 0 21 -8 23 -17 2 -10 10 13
19 50 9 37 13 69 10 72 -4 2 -18 -2 -31 -8z"/>
<path d="M6226 5723 c-11 -11 -6 -23 9 -23 8 0 15 4 15 9 0 13 -16 22 -24 14z"/>
<path d="M4422 5678 c-18 -18 -15 -28 8 -28 10 0 24 9 30 20 9 17 8 20 -8 20
-10 0 -23 -5 -30 -12z"/>
<path d="M6305 5682 c19 -20 125 -62 119 -47 -6 15 -54 40 -99 51 -21 5 -27 3
-20 -4z"/>
<path d="M6510 5660 c0 -5 5 -10 10 -10 6 0 10 5 10 10 0 6 -4 10 -10 10 -5 0
-10 -4 -10 -10z"/>
<path d="M6192 5643 c5 -29 122 -83 179 -83 27 0 49 4 49 8 0 15 -92 60 -156
76 -76 20 -76 20 -72 -1z"/>
<path d="M6520 5600 c36 -11 52 -11 45 0 -3 6 -21 10 -38 9 -31 -1 -31 -1 -7
-9z"/>
<path d="M6805 5603 c-11 -3 -24 -9 -29 -14 -17 -15 49 -10 70 6 19 14 19 14
-1 14 -11 -1 -29 -3 -40 -6z"/>
<path d="M4420 5575 c0 -8 7 -15 15 -15 8 0 15 7 15 15 0 8 -7 15 -15 15 -8 0
-15 -7 -15 -15z"/>
<path d="M6181 5571 c-10 -6 -3 -12 23 -21 37 -12 58 -7 40 9 -15 15 -48 21
-63 12z"/>
<path d="M6470 5560 c-11 -7 -12 -12 -3 -21 16 -16 44 -4 37 16 -7 17 -13 18
-34 5z"/>
<path d="M6535 5541 c-7 -13 27 -31 59 -31 31 0 34 15 7 30 -25 13 -58 13 -66
1z"/>
<path d="M6330 5515 c49 -19 71 -19 46 0 -11 8 -34 15 -50 14 l-31 -1 35 -13z"/>
<path d="M6670 5510 c0 -5 5 -10 11 -10 5 0 7 5 4 10 -3 6 -8 10 -11 10 -2 0
-4 -4 -4 -10z"/>
<path d="M6473 5483 c9 -2 23 -2 30 0 6 3 -1 5 -18 5 -16 0 -22 -2 -12 -5z"/>
<path d="M6825 5475 c-5 -2 -23 -6 -38 -9 -35 -8 -27 -22 15 -28 38 -6 88 19
66 33 -13 9 -25 10 -43 4z"/>
<path d="M6580 5466 c0 -2 16 -6 35 -8 19 -2 35 0 35 4 0 4 -16 8 -35 8 -19 0
-35 -2 -35 -4z"/>
<path d="M6950 5436 c0 -40 20 -48 54 -23 29 21 16 51 -22 55 -31 3 -32 2 -32
-32z"/>
<path d="M7072 5438 c-21 -21 -13 -38 18 -38 26 0 52 23 39 34 -13 12 -47 14
-57 4z"/>
<path d="M4125 5429 c-22 -5 -78 -27 -125 -48 -47 -22 -128 -58 -180 -81 -214
-94 -486 -245 -596 -331 -34 -26 -69 -49 -80 -51 -10 -2 -20 -11 -22 -21 -4
-20 25 -34 43 -21 46 34 103 68 135 79 21 7 192 93 381 189 188 97 356 180
373 185 52 16 167 58 173 64 8 9 -7 27 -23 27 -8 0 -14 5 -14 10 0 12 -10 11
-65 -1z"/>
<path d="M6710 5394 c0 -12 88 -43 140 -49 l55 -6 -23 20 c-30 26 -172 56
-172 35z"/>
<path d="M2150 5312 c-53 -50 -54 -52 -35 -67 34 -27 58 -15 78 39 29 79 19
86 -43 28z"/>
<path d="M4185 5314 c-44 -14 -100 -29 -125 -33 -70 -13 -474 -203 -622 -294
-57 -35 -68 -46 -68 -69 0 -26 -21 -51 -27 -32 -15 41 -20 40 -138 -19 -100
-51 -121 -66 -158 -114 -82 -107 -93 -121 -112 -139 -27 -28 -102 -190 -122
-266 -16 -62 -16 -67 0 -91 30 -46 62 -13 94 97 25 85 115 234 159 263 31 20
43 10 19 -17 -16 -17 -17 -25 -7 -40 13 -21 16 -50 5 -50 -3 0 -14 7 -23 15
-15 14 -19 13 -35 -5 -10 -11 -39 -73 -65 -138 -43 -107 -171 -341 -206 -376
-31 -31 -1 -151 51 -203 28 -28 40 -33 79 -33 63 0 154 36 168 65 8 18 7 56
-4 142 -26 207 3 304 103 346 48 20 49 22 43 57 -8 49 28 92 92 110 46 13 64
11 144 -16 9 -3 22 6 32 24 29 48 223 170 312 196 30 9 42 18 44 34 2 16 10
22 27 22 40 0 75 18 133 70 76 67 198 130 268 137 62 7 78 22 89 84 7 39 21
66 29 58 3 -3 2 -19 -2 -35 -12 -41 0 -77 28 -91 21 -10 28 -9 47 9 21 20 24
20 41 5 16 -14 33 -16 110 -11 51 4 99 12 108 19 25 18 22 101 -5 128 -20 20
-33 22 -162 25 -152 4 -292 -14 -382 -49 -53 -21 -77 -24 -77 -9 0 15 52 33
180 65 89 23 133 29 193 26 71 -2 81 0 94 18 18 27 30 27 38 0 6 -19 12 -20
48 -15 49 8 55 12 39 28 -18 18 -15 28 8 28 15 0 20 7 20 25 0 21 -4 25 -22
21 -13 -3 -45 -8 -72 -11 -27 -3 -54 -9 -59 -12 -6 -3 -32 -5 -60 -4 -34 1
-66 -6 -105 -24 -44 -20 -65 -24 -97 -19 -23 3 -61 0 -86 -6 -61 -16 -278
-118 -313 -148 -62 -50 -477 -244 -492 -229 -2 2 143 82 324 179 208 111 368
190 439 216 137 50 196 79 190 95 -6 21 -69 17 -152 -9z"/>
<path d="M6960 5330 c0 -15 55 -36 117 -45 44 -6 54 -4 59 10 4 9 3 20 -2 25
-15 13 -174 23 -174 10z"/>
<path d="M4763 5300 c-40 -16 -25 -30 31 -30 30 0 58 -5 62 -11 3 -6 17 -8 29
-5 22 6 23 4 18 -34 -5 -36 -3 -40 16 -40 15 0 26 10 35 31 11 26 14 28 25 15
7 -8 10 -20 6 -25 -3 -6 2 -22 11 -36 16 -24 15 -25 -12 -36 -23 -8 -40 -7
-78 5 -26 9 -72 16 -102 16 -49 0 -55 -3 -68 -28 -12 -23 -13 -37 -4 -70 14
-56 40 -79 73 -64 19 9 38 8 85 -4 70 -18 103 -9 72 19 -10 9 -36 20 -58 25
-33 6 -40 12 -42 35 -2 15 1 27 7 27 5 0 16 2 24 6 9 3 19 -6 27 -25 10 -26
18 -31 46 -31 27 0 36 -6 49 -30 12 -23 22 -30 45 -30 25 0 36 8 60 47 17 26
30 53 30 60 0 7 -17 17 -38 22 -21 6 -46 18 -57 26 -19 15 -17 15 25 9 76 -12
276 -5 470 15 256 28 413 36 435 24 15 -9 10 -13 -33 -27 -57 -19 -80 -39 -60
-53 16 -10 432 -13 449 -2 9 5 8 14 -2 38 -10 22 -28 37 -64 53 -46 20 -72 22
-310 29 -143 3 -339 15 -435 25 -97 10 -183 15 -193 11 -9 -3 -17 -16 -17 -27
0 -25 -15 -25 -47 0 -31 24 -60 26 -85 3 -17 -15 -18 -15 -18 4 0 25 -43 43
-104 43 -23 0 -50 7 -60 15 -23 17 -205 20 -243 5z"/>
<path d="M6240 5300 c0 -9 62 -30 93 -30 26 0 21 19 -9 30 -32 13 -84 13 -84
0z"/>
<path d="M6406 5281 c-9 -14 31 -33 55 -26 11 4 18 12 16 18 -5 15 -63 21 -71
8z"/>
<path d="M5976 5272 c-31 -13 -6 -21 85 -27 80 -6 124 3 105 22 -11 11 -166
15 -190 5z"/>
<path d="M6530 5270 c0 -16 48 -31 76 -24 47 12 20 34 -42 34 -19 0 -34 -5
-34 -10z"/>
<path d="M6672 5268 c5 -15 37 -18 41 -3 1 6 -9 12 -22 13 -16 3 -22 -1 -19
-10z"/>
<path d="M6952 5254 c4 -22 178 -67 185 -48 9 24 -8 34 -55 34 -26 1 -65 7
-87 15 -50 18 -47 18 -43 -1z"/>
<path d="M6235 5250 c-18 -6 -15 -9 19 -24 43 -18 72 -21 81 -7 12 20 -67 44
-100 31z"/>
<path d="M6771 5240 c27 -16 198 -62 211 -57 15 5 -10 17 -103 46 -68 22 -139
29 -108 11z"/>
<path d="M6418 5224 c-10 -3 -18 -9 -18 -14 0 -18 135 -40 253 -40 62 0 86 -5
117 -22 39 -23 39 -23 54 -3 11 15 12 23 3 32 -24 23 -358 62 -409 47z"/>
<path d="M4793 5203 c-24 -9 -13 -23 18 -23 20 0 29 4 27 13 -5 13 -26 18 -45
10z"/>
<path d="M7060 5172 c0 -10 45 -32 65 -32 26 0 16 18 -16 29 -38 13 -49 14
-49 3z"/>
<path d="M6370 5160 c-11 -7 -9 -11 13 -19 35 -14 87 -14 87 -1 0 24 -70 39
-100 20z"/>
<path d="M6503 5103 c-23 -26 -43 -51 -43 -56 0 -17 35 -20 62 -4 27 15 29 15
35 -1 9 -23 23 -32 51 -32 13 0 44 -10 70 -22 83 -38 149 -43 107 -8 -22 19
-18 33 14 52 29 16 30 16 40 -13 10 -30 66 -71 91 -66 10 1 15 15 15 42 0 38
-1 40 -30 38 -21 -2 -38 6 -60 26 -58 55 -164 91 -268 91 -35 0 -46 -6 -84
-47z"/>
<path d="M6855 5140 c3 -5 22 -10 41 -10 22 0 34 -5 34 -14 0 -19 37 -27 50
-11 18 21 -27 45 -83 45 -30 0 -46 -4 -42 -10z"/>
<path d="M5490 5110 c-63 -4 -133 -12 -156 -18 -48 -14 -79 -44 -70 -68 8 -22
80 -16 281 25 144 30 187 43 174 54 -10 9 -122 12 -229 7z"/>
<path d="M6396 5108 c-18 -10 -21 -44 -5 -54 12 -7 60 24 66 43 5 14 -41 22
-61 11z"/>
<path d="M7029 5099 c-11 -21 0 -38 23 -39 15 0 27 37 16 48 -17 17 -26 15
-39 -9z"/>
<path d="M5164 5056 c-43 -43 -45 -66 -4 -66 24 0 36 9 60 41 16 23 27 45 24
50 -11 19 -47 8 -80 -25z"/>
<path d="M7102 5048 c5 -34 38 -37 38 -4 0 20 -5 26 -21 26 -15 0 -20 -5 -17
-22z"/>
<path d="M5857 5053 c-10 -15 27 -23 113 -23 41 0 118 -7 170 -15 119 -18 130
-18 130 0 0 8 -16 19 -37 24 -55 16 -368 27 -376 14z"/>
<path d="M5705 5040 c-8 -12 17 -23 41 -18 10 1 19 9 22 16 5 15 -54 17 -63 2z"/>
<path d="M3185 5014 c-22 -8 -89 -24 -150 -34 -60 -11 -124 -25 -142 -31 -45
-14 -86 -65 -80 -98 8 -42 -9 -69 -97 -155 -47 -44 -96 -99 -110 -120 -50 -75
-28 -147 63 -205 31 -20 51 -40 51 -51 0 -48 22 -18 81 107 74 159 121 235
196 317 56 63 61 79 25 84 -12 2 -22 5 -22 8 0 9 73 69 154 127 107 77 108 79
31 51z"/>
<path d="M5535 5025 c-5 -2 -99 -22 -207 -46 -109 -23 -198 -46 -198 -52 0
-21 166 1 315 43 171 48 199 60 140 59 -22 0 -44 -2 -50 -4z"/>
<path d="M7007 5013 c-22 -21 30 -58 68 -49 34 9 31 21 -9 40 -37 18 -49 19
-59 9z"/>
<path d="M6330 4991 c0 -19 197 -67 232 -55 23 7 23 17 -3 40 -17 15 -40 19
-125 22 -70 3 -104 1 -104 -7z"/>
<path d="M5735 4980 c-11 -18 17 -42 42 -35 20 5 23 2 23 -22 0 -16 3 -39 7
-52 6 -22 9 -23 57 -15 66 11 398 5 413 -7 6 -6 22 -7 36 -4 13 4 48 0 78 -9
30 -8 98 -22 152 -31 54 -8 126 -24 159 -36 69 -23 242 -108 351 -173 42 -24
78 -42 81 -38 3 3 6 74 6 157 l0 153 -53 36 c-57 39 -78 44 -97 21 -8 -9 -21
-13 -36 -9 -18 5 -24 2 -24 -11 0 -11 5 -15 19 -10 19 6 139 -41 129 -50 -3
-3 -17 -1 -32 5 -54 20 -63 11 -23 -24 20 -18 37 -36 37 -40 0 -3 -13 -6 -30
-6 -16 0 -30 4 -30 9 0 13 -93 80 -129 92 -17 6 -38 8 -47 5 -14 -5 -14 -8 0
-28 22 -31 113 -86 153 -94 23 -4 38 -15 48 -34 8 -16 24 -31 35 -35 23 -7 27
-25 5 -25 -24 0 -99 32 -121 52 -11 10 -30 18 -41 18 -38 0 -76 20 -126 67
-51 47 -59 49 -134 27 -19 -5 -23 -2 -23 14 0 18 -18 32 -41 32 -5 0 -9 -7 -9
-15 0 -25 -43 -17 -86 15 -42 32 -94 40 -94 15 0 -8 -9 -15 -20 -15 -11 0 -20
5 -20 11 0 7 -12 9 -33 5 -30 -6 -35 -3 -48 26 -22 52 -97 66 -336 67 -123 1
-194 -3 -198 -9z"/>
<path d="M6610 4948 c0 -19 63 -58 104 -65 l37 -6 -13 27 c-6 15 -24 34 -39
42 -35 17 -89 19 -89 2z"/>
<path d="M6845 4951 c-8 -15 3 -31 21 -31 9 0 14 7 12 17 -4 20 -24 28 -33 14z"/>
<path d="M5439 4934 c-36 -8 -119 -30 -185 -50 -99 -29 -148 -38 -294 -49 -96
-8 -206 -15 -245 -16 l-70 -1 45 -14 c25 -8 92 -19 150 -24 134 -11 249 5 460
64 86 24 187 47 225 50 l70 5 -50 -14 c-110 -33 -174 -82 -130 -99 22 -8 194
20 212 36 9 7 13 23 11 40 -4 22 -1 28 10 23 30 -11 92 -17 92 -8 0 13 -50 48
-89 61 -44 16 -129 14 -212 -4z"/>
<path d="M4498 4933 c-18 -5 -24 -30 -10 -48 12 -17 70 -55 84 -55 6 0 3 7 -8
15 -18 14 -18 14 8 15 15 0 30 -4 33 -10 9 -15 55 -12 55 4 0 7 -5 27 -11 43
-8 25 -17 32 -47 37 -41 6 -77 6 -104 -1z"/>
<path d="M4665 4920 c-10 -30 22 -82 48 -78 17 2 23 11 25 36 2 18 -2 40 -9
48 -17 21 -56 18 -64 -6z"/>
<path d="M4240 4910 c-19 -11 -47 -19 -61 -20 -54 0 -113 -32 -193 -101 -56
-49 -110 -85 -176 -116 -52 -25 -106 -53 -120 -62 -14 -10 -56 -30 -93 -45
-50 -21 -77 -40 -103 -72 l-36 -44 25 -30 c14 -16 28 -38 31 -48 13 -41 174
-58 217 -23 19 15 24 30 27 87 2 38 9 74 14 81 6 8 3 13 -11 18 -33 10 -25 23
21 36 60 16 135 55 193 101 27 22 62 42 78 45 16 3 39 20 54 39 20 27 33 34
59 34 24 0 34 -5 34 -15 0 -8 9 -15 20 -15 11 0 20 -7 20 -15 0 -13 4 -13 33
-1 17 8 64 18 102 23 62 7 70 11 73 31 4 26 9 26 -107 6 -51 -9 -95 -13 -98
-11 -11 12 9 27 45 33 20 4 45 11 55 16 20 10 23 58 5 76 -18 18 -68 14 -108
-8z"/>
<path d="M4374 4903 c-9 -35 7 -57 43 -61 24 -2 32 1 36 19 10 38 -9 69 -43
69 -24 0 -31 -5 -36 -27z"/>
<path d="M6011 4821 c-43 -43 -25 -62 82 -80 37 -6 80 -16 95 -22 38 -15 262
-50 273 -44 5 4 -5 18 -22 32 -26 22 -34 24 -55 14 -14 -6 -36 -11 -50 -11
-32 0 -74 42 -74 73 0 30 -44 46 -151 54 -69 5 -78 4 -98 -16z"/>
<path d="M5268 4818 c-20 -7 -28 -17 -28 -34 0 -37 52 -30 103 14 32 28 -18
41 -75 20z"/>
<path d="M5790 4796 c0 -4 5 -16 10 -27 12 -22 79 -27 125 -9 39 15 21 30 -33
29 -26 -1 -59 2 -74 6 -16 4 -28 4 -28 1z"/>
<path d="M6536 4771 c-9 -13 19 -32 38 -25 20 8 21 20 0 28 -22 8 -32 8 -38
-3z"/>
<path d="M5437 4750 c-216 -37 -304 -61 -292 -81 16 -25 219 8 360 58 130 46
110 53 -68 23z"/>
<path d="M4147 4747 c-15 -10 -16 -15 -5 -30 12 -16 15 -16 33 -3 18 13 18 16
5 30 -13 13 -19 14 -33 3z"/>
<path d="M5160 4740 c-12 -8 -10 -10 8 -10 13 0 20 4 17 10 -7 12 -6 12 -25 0z"/>
<path d="M5708 4738 c9 -9 15 -9 24 0 9 9 7 12 -12 12 -19 0 -21 -3 -12 -12z"/>
<path d="M350 4725 c-7 -8 -10 -31 -8 -51 4 -32 2 -35 -16 -29 -77 24 -105 28
-135 15 -24 -9 -31 -19 -31 -40 0 -19 -7 -30 -25 -38 -20 -9 -25 -19 -25 -50
0 -58 21 -79 103 -102 40 -12 78 -23 86 -26 11 -3 6 -10 -16 -24 -39 -23 -46
-35 -39 -65 7 -28 82 -61 120 -51 29 7 36 -7 36 -72 l0 -46 -44 43 c-34 33
-52 43 -79 44 -97 3 -153 -123 -101 -228 19 -39 90 -92 125 -94 8 -1 23 -7 34
-14 17 -13 15 -16 -26 -38 -52 -29 -94 -96 -85 -134 9 -35 32 -31 96 15 97 70
146 91 224 97 57 4 79 2 106 -12 l33 -17 -67 -36 c-94 -49 -120 -90 -124 -191
-4 -100 19 -144 98 -183 63 -31 57 -36 -45 -40 -62 -3 -70 -5 -73 -23 -2 -12
8 -31 22 -44 l24 -23 -35 -46 c-33 -44 -35 -50 -31 -109 2 -34 7 -65 10 -69
13 -12 70 9 104 38 26 23 38 28 47 19 30 -30 72 9 117 111 24 56 40 69 40 34
0 -14 10 -36 22 -48 20 -20 22 -20 34 -3 17 23 28 79 21 105 -5 19 0 20 61 20
37 -1 85 -8 107 -17 22 -8 67 -25 100 -36 33 -12 66 -27 73 -34 7 -7 21 -13
30 -13 13 -1 11 -6 -11 -25 -41 -36 -85 -41 -163 -16 -79 25 -122 26 -169 7
-43 -18 -44 -34 -5 -71 17 -16 30 -34 30 -40 0 -7 -23 -15 -52 -19 -29 -3 -75
-10 -103 -16 -27 -5 -73 -9 -101 -9 -62 -1 -134 -22 -169 -49 l-25 -20 25 -30
c16 -19 41 -34 71 -41 45 -12 46 -12 29 -31 -10 -11 -26 -20 -37 -20 -10 0
-18 -5 -18 -12 0 -7 -12 -29 -26 -49 -26 -38 -26 -38 -10 -93 19 -66 45 -87
115 -94 37 -3 58 1 99 22 29 15 52 33 52 41 0 8 5 15 10 15 6 0 10 -12 10 -26
0 -25 2 -26 38 -20 69 13 73 16 112 99 21 45 40 93 44 107 3 14 26 51 52 83
38 49 49 58 67 52 12 -5 48 -10 80 -12 31 -3 57 -8 57 -13 0 -13 -69 -65 -120
-90 -69 -34 -130 -88 -130 -114 0 -17 10 -25 42 -37 41 -15 43 -17 40 -52 -2
-21 2 -53 8 -71 13 -41 58 -61 114 -50 73 13 30 -33 -56 -62 -53 -17 -55 -20
-32 -52 10 -14 25 -22 45 -22 16 0 29 -4 29 -9 0 -12 -43 -42 -104 -72 -27
-13 -50 -31 -53 -39 -2 -8 -9 -24 -15 -34 -9 -17 -5 -25 21 -48 36 -32 65 -35
136 -13 27 8 50 13 50 12 1 -1 14 -27 28 -58 32 -67 77 -96 121 -79 14 5 26
17 26 26 0 12 6 14 28 10 46 -11 65 12 66 80 1 56 -2 63 -52 135 -40 56 -55
87 -58 120 -5 46 3 39 26 -23 11 -31 30 -35 63 -14 12 8 35 16 50 18 25 3 30
-2 42 -35 18 -54 62 -114 88 -121 38 -10 121 -6 146 8 27 15 81 92 81 115 0
18 -14 28 -98 71 -121 62 -233 193 -272 318 -11 35 -27 112 -35 170 -15 101
-29 142 -98 282 -12 23 -85 69 -195 121 l-43 20 36 40 c40 44 42 72 7 77 -12
2 -22 5 -22 6 0 1 13 30 29 63 26 53 29 66 20 97 -5 19 -14 38 -18 41 -12 7
-122 -36 -126 -49 -2 -6 -6 -28 -10 -48 -4 -28 -11 -37 -28 -40 -21 -3 -22 -7
-19 -75 2 -40 1 -73 -3 -73 -3 0 -24 19 -45 41 -38 41 -41 42 -89 36 -27 -3
-72 -17 -99 -31 l-49 -25 -42 21 c-76 38 -123 118 -107 184 9 36 77 106 128
132 116 57 429 56 723 -3 360 -72 708 -235 820 -383 19 -25 35 -40 35 -33 0
17 -28 70 -57 109 -13 17 -19 32 -12 32 8 0 8 4 -1 15 -16 20 -301 175 -369
201 -63 25 -117 79 -157 160 -35 72 -40 137 -19 243 15 72 16 95 7 116 -14 30
-31 32 -65 5 -26 -20 -44 -80 -50 -160 -2 -30 -6 -22 -26 50 -24 86 -26 108
-22 261 3 113 -28 190 -71 174 -23 -9 -48 -71 -48 -119 0 -78 -14 -58 -46 66
-32 122 -66 198 -104 233 -26 24 -77 22 -104 -4 -12 -12 -35 -21 -52 -21 -57
0 -76 -35 -72 -127 l3 -66 -45 -27 c-42 -24 -45 -30 -48 -72 -3 -43 0 -48 50
-102 30 -31 54 -56 53 -57 0 0 -13 -3 -28 -5 -62 -10 -76 -21 -68 -50 8 -31
36 -43 161 -70 44 -10 80 -20 80 -24 0 -3 -16 -12 -35 -19 -40 -14 -47 -44
-15 -61 11 -6 66 -20 122 -31 57 -12 117 -28 133 -36 36 -18 102 -71 165 -131
l45 -44 -40 7 c-22 4 -62 13 -90 20 -92 26 -227 45 -310 45 -82 0 -83 0 -141
43 -33 24 -76 69 -98 100 l-38 57 7 147 c10 171 9 181 -12 248 -36 115 -75
154 -115 118 -15 -13 -18 -32 -18 -107 0 -50 7 -120 15 -155 9 -35 14 -66 12
-68 -10 -9 -38 41 -67 122 -71 195 -144 309 -232 361 -33 19 -61 34 -62 34 -2
0 -9 -7 -16 -15z m262 -561 c67 -33 143 -105 173 -164 13 -25 49 -71 82 -103
l58 -57 -69 0 c-65 0 -72 2 -131 45 -114 81 -215 220 -215 297 0 31 6 30 102
-18z m730 9 c18 -21 29 -105 13 -100 -13 4 -31 43 -39 85 -6 36 3 41 26 15z
m180 -235 c12 -18 33 -42 45 -53 33 -30 96 -135 81 -135 -7 0 -31 11 -52 25
-56 34 -144 195 -107 195 5 0 20 -15 33 -32z m-147 -1034 c4 -36 5 -82 2 -102
-6 -51 -47 -142 -62 -142 -33 0 -25 209 10 250 7 8 16 25 19 38 13 40 24 23
31 -44z"/>
<path d="M4380 4733 c-39 -6 -122 -35 -117 -39 6 -7 140 27 152 37 9 9 9 9
-35 2z"/>
<path d="M6630 4729 c68 -46 223 -109 237 -96 9 10 -26 46 -62 65 -61 31 -216
60 -175 31z"/>
<path d="M5763 4700 c-27 -11 -30 -35 -5 -45 9 -3 64 -3 122 0 61 4 153 2 219
-4 136 -14 161 -4 69 29 -53 20 -88 24 -223 26 -88 2 -170 -1 -182 -6z"/>
<path d="M5285 4639 c-176 -43 -274 -61 -331 -63 -45 -2 -86 -6 -93 -10 -6 -4
-11 -24 -12 -44 0 -32 -2 -34 -9 -15 -13 33 -44 44 -112 41 l-62 -3 66 -43
c37 -24 72 -50 79 -58 14 -17 29 -9 29 17 0 24 5 24 30 -1 25 -25 51 -25 115
0 27 11 131 50 230 86 190 70 374 152 340 152 -11 0 -132 -26 -270 -59z"/>
<path d="M1594 4664 c-4 -14 -1 -37 5 -50 17 -37 14 -41 -26 -51 -33 -7 -38
-13 -41 -39 -4 -37 11 -51 63 -62 50 -10 55 -28 11 -36 -46 -9 -62 -37 -46
-77 13 -31 19 -33 118 -49 66 -9 83 -18 115 -58 10 -12 32 -29 48 -37 29 -16
66 -61 56 -71 -2 -3 -20 1 -39 9 -36 15 -65 10 -87 -17 -12 -14 -11 -19 4 -36
10 -11 30 -20 44 -20 14 0 35 -7 45 -15 11 -8 32 -15 47 -15 14 0 38 -9 53
-21 29 -23 96 -154 96 -189 0 -30 44 -159 84 -246 31 -66 68 -105 84 -89 7 7
3 307 -4 314 -2 2 -4 -41 -4 -97 0 -55 -4 -104 -10 -107 -13 -8 -67 101 -85
172 -21 81 -19 186 6 253 30 81 29 95 -3 95 -24 -1 -27 2 -21 25 3 14 12 37
19 52 23 46 11 108 -21 108 -23 0 -54 -48 -61 -95 -5 -39 -8 -43 -24 -35 -10
6 -32 10 -48 10 -32 0 -82 47 -82 76 0 19 19 57 34 66 10 7 12 145 2 155 -2 2
-19 0 -37 -4 -29 -8 -34 -14 -48 -68 -9 -33 -20 -59 -26 -59 -17 3 -45 68 -45
105 0 19 5 61 11 93 9 49 8 61 -6 82 -13 20 -22 24 -44 19 -20 -4 -32 0 -46
15 -11 12 -31 20 -51 20 -28 0 -35 -5 -40 -26z"/>
<path d="M4376 4678 l-39 -11 114 -37 c113 -37 139 -38 139 -5 0 7 10 15 22
19 22 5 22 6 5 23 -14 14 -37 18 -110 20 -51 1 -110 -3 -131 -9z"/>
<path d="M4678 4684 c-12 -11 27 -65 51 -71 34 -9 258 5 282 17 26 15 24 35
-6 48 -26 12 -316 17 -327 6z"/>
<path d="M6527 4683 c-17 -16 -3 -36 38 -54 53 -23 120 -23 120 1 0 11 -15 17
-50 20 -27 3 -62 13 -76 23 -14 9 -29 14 -32 10z"/>
<path d="M5613 4657 c-21 -12 -21 -13 -3 -37 15 -20 20 -22 34 -11 19 16 21
61 4 61 -7 -1 -23 -6 -35 -13z"/>
<path d="M5100 4640 c0 -5 5 -10 11 -10 5 0 7 5 4 10 -3 6 -8 10 -11 10 -2 0
-4 -4 -4 -10z"/>
<path d="M6310 4630 c18 -12 240 -85 289 -95 26 -6 32 -4 29 6 -7 21 -49 38
-175 70 -121 30 -171 37 -143 19z"/>
<path d="M5526 4614 c-9 -8 -16 -20 -16 -26 0 -6 -9 -3 -19 6 -25 23 -61 6
-61 -28 0 -41 24 -51 74 -32 58 22 94 60 76 81 -16 19 -34 19 -54 -1z"/>
<path d="M5865 4620 c3 -5 17 -10 30 -10 13 0 27 5 30 10 4 6 -8 10 -30 10
-22 0 -34 -4 -30 -10z"/>
<path d="M6715 4620 c-4 -6 -1 -17 5 -26 15 -18 42 0 33 22 -6 16 -29 19 -38
4z"/>
<path d="M5724 4604 c-18 -14 -16 -15 29 -11 27 3 54 10 60 16 18 18 -66 14
-89 -5z"/>
<path d="M6200 4589 c47 -10 89 -17 95 -15 18 6 -98 36 -139 35 -34 -1 -27 -4
44 -20z"/>
<path d="M6940 4598 c0 -16 30 -40 124 -97 58 -36 67 -39 73 -24 8 19 -34 58
-105 96 -65 34 -92 42 -92 25z"/>
<path d="M6792 4573 c2 -10 21 -28 43 -40 42 -24 134 -48 144 -37 11 10 -38
42 -92 59 -28 10 -56 21 -61 26 -17 15 -38 10 -34 -8z"/>
<path d="M5870 4570 c-8 -5 -25 -7 -38 -3 -12 3 -42 2 -67 -1 -35 -6 -44 -11
-47 -29 -2 -16 -18 -26 -63 -43 -141 -50 -255 -131 -255 -181 0 -22 3 -24 28
-19 15 4 39 20 53 36 14 17 33 30 42 30 24 0 22 -35 -3 -60 -23 -23 -27 -60
-7 -60 8 0 33 14 55 30 23 17 47 30 52 30 6 0 20 16 32 36 13 22 26 33 35 30
8 -3 20 -6 26 -6 7 0 1 -9 -13 -20 l-25 -20 23 0 c49 0 7 -44 -52 -53 -77 -12
-104 -57 -89 -150 5 -30 10 -37 28 -37 13 0 30 3 39 6 22 8 60 73 61 103 0 36
39 48 87 28 35 -15 36 -17 28 -51 -4 -20 -4 -39 1 -42 14 -8 11 -24 -5 -24
-24 0 -38 -26 -22 -39 21 -18 26 -49 9 -56 -20 -7 -39 9 -47 40 -6 23 -36 36
-36 16 0 -12 -132 -1 -148 12 -8 6 -22 28 -33 49 -21 41 -49 49 -91 27 -30
-16 -31 -6 -3 35 37 55 33 83 -9 51 -17 -13 -22 -12 -48 6 -15 11 -26 25 -23
30 15 24 -14 4 -70 -48 -34 -32 -78 -70 -98 -86 -20 -15 -71 -71 -113 -125
-42 -53 -92 -113 -111 -133 -33 -34 -35 -40 -28 -80 4 -24 11 -53 15 -64 7
-18 8 -17 23 10 8 17 32 46 52 65 20 19 52 67 71 107 26 54 51 87 106 138 66
61 108 93 108 81 0 -2 -15 -22 -32 -45 -80 -100 -130 -174 -192 -286 -68 -123
-251 -370 -306 -413 -16 -13 -30 -30 -30 -38 0 -8 -9 -14 -20 -14 -10 0 -33
-18 -51 -40 -18 -22 -38 -40 -45 -40 -21 0 -119 -96 -160 -157 -21 -31 -54
-71 -72 -88 -26 -24 -34 -39 -34 -67 0 -32 -3 -36 -38 -47 -20 -6 -43 -11 -49
-11 -7 0 -38 -17 -69 -38 -31 -22 -108 -65 -170 -96 -188 -96 -379 -245 -507
-396 -91 -108 -105 -135 -105 -207 0 -65 -40 -243 -70 -311 -26 -57 -25 -65 9
-223 16 -74 37 -174 46 -224 9 -49 29 -128 45 -175 15 -47 33 -115 39 -151 15
-88 43 -169 88 -248 20 -36 81 -155 134 -263 l98 -198 966 0 c912 0 965 1 965
18 0 12 17 22 61 35 219 64 558 205 567 235 7 22 -110 14 -230 -18 -62 -16
-207 -60 -323 -98 -115 -38 -230 -73 -255 -77 -41 -7 -43 -6 -31 9 10 12 22
15 39 11 15 -4 31 0 41 8 9 8 51 29 93 47 72 30 128 74 128 102 0 6 9 3 20 -7
16 -15 30 -17 75 -11 30 3 81 9 113 12 63 7 261 76 305 106 27 19 36 58 19 85
-15 23 -58 25 -117 4 -70 -25 -65 -24 -65 -8 0 28 36 49 72 42 32 -6 36 -4 47
23 10 24 10 34 0 51 -29 45 -81 49 -339 26 -125 -12 -38 13 105 29 158 18 218
32 212 49 -5 16 -53 25 -184 33 -62 4 -113 10 -113 14 0 11 164 40 220 40 51
0 90 22 90 50 0 50 -153 81 -380 76 -125 -3 -180 -19 -200 -56 -24 -44 15 -76
115 -95 94 -17 95 -45 2 -45 -118 0 -241 25 -298 59 -28 18 -75 41 -105 52
-48 18 -55 24 -64 59 -10 38 -27 63 -132 196 -39 50 -48 69 -48 101 0 45 -20
77 -60 98 l-30 15 20 33 c20 32 27 124 14 174 -12 44 -105 56 -119 15 -3 -11
-1 -69 4 -131 12 -127 43 -231 122 -400 27 -57 47 -106 45 -108 -6 -6 -40 45
-69 103 -43 84 -49 86 -174 35 -29 -11 -53 -19 -53 -17 0 11 103 66 124 66 38
0 52 25 37 63 -38 94 -45 123 -57 249 -7 76 -16 142 -19 148 -3 5 -18 10 -33
10 l-27 0 33 21 c37 24 40 33 45 144 2 49 10 94 20 114 9 19 17 46 17 61 0 15
11 47 24 71 13 24 41 89 61 144 22 60 57 128 86 169 27 39 49 76 49 83 0 7
-29 26 -65 42 -36 16 -65 36 -65 44 0 8 16 32 37 53 47 50 110 184 119 251 6
45 4 54 -11 59 -40 16 -78 -35 -125 -167 l-33 -93 -214 -220 c-118 -122 -230
-232 -250 -246 -28 -21 -42 -44 -69 -115 -64 -171 -78 -296 -39 -349 14 -19
15 -19 34 -1 22 19 51 14 51 -10 0 -10 11 -15 38 -17 44 -1 85 2 91 8 9 9 1
75 -12 101 -40 79 -17 211 55 323 41 64 148 193 155 186 6 -6 -19 -44 -92
-141 -54 -71 -63 -90 -79 -164 -17 -80 -17 -84 1 -103 17 -19 17 -20 0 -29
-23 -13 -23 -88 0 -152 15 -41 15 -49 2 -62 -12 -13 -20 -12 -58 1 -27 9 -70
14 -115 12 l-71 -3 -12 -55 c-6 -30 -18 -73 -26 -95 -8 -22 -19 -62 -23 -90
l-8 -50 -7 35 c-3 19 -9 47 -13 61 -6 21 -3 27 20 37 24 12 26 16 20 55 -31
204 10 457 95 579 13 18 111 121 219 228 241 238 313 341 345 488 11 51 -7 38
-55 -40 -133 -219 -175 -269 -335 -403 -127 -106 -215 -189 -215 -204 0 -6 -9
-15 -21 -22 -18 -9 -20 -8 -15 9 23 70 -109 -4 -164 -93 -29 -46 -60 -175 -62
-258 -1 -65 0 -72 26 -93 15 -13 40 -24 56 -24 16 0 31 -4 35 -9 8 -14 -31
-24 -57 -15 -13 4 -52 11 -88 14 -45 5 -59 10 -44 14 28 10 54 86 54 157 0
199 68 303 281 423 57 32 145 87 195 122 90 63 96 70 246 267 65 85 119 199
178 378 28 84 62 168 76 188 30 44 33 101 6 101 -42 0 -72 -54 -129 -235 -37
-117 -83 -218 -90 -198 -11 32 132 389 193 483 l29 45 3 -30 c4 -36 28 -65 53
-65 9 0 35 20 56 44 21 24 65 61 98 83 178 119 186 115 35 -14 -154 -132 -208
-197 -249 -301 -65 -166 -14 -146 119 48 21 30 59 78 84 105 l46 50 -15 -37
c-8 -21 -15 -46 -15 -58 0 -13 -11 -24 -34 -34 -37 -15 -71 -56 -109 -131 -14
-27 -37 -65 -51 -84 -16 -21 -26 -48 -26 -68 0 -27 5 -34 27 -39 25 -7 34 0
93 65 35 40 96 118 135 174 l71 101 70 21 c102 32 192 71 230 100 54 41 41
102 -30 142 -17 9 -16 12 8 48 31 45 32 57 8 78 -21 19 -54 22 -83 6 -11 -5
-28 -9 -37 -7 -14 3 -13 7 8 23 13 11 41 36 62 57 36 34 39 35 49 17 5 -10 18
-19 29 -19 21 0 44 32 32 45 -4 4 3 1 15 -6 20 -12 45 -11 178 9 268 39 318
69 203 124 -83 40 -82 43 45 68 36 7 57 16 57 25 0 20 -60 63 -119 86 -60 23
-229 43 -288 35 -24 -3 -55 -1 -69 4 -20 8 -31 7 -43 -4 -9 -7 -36 -17 -60
-21 -63 -10 -50 15 19 38 61 21 80 33 80 53 0 9 -12 14 -34 14 -59 0 -89 52
-41 70 14 5 39 20 56 32 28 21 29 24 13 35 -21 15 -24 16 -44 3z m-117 -833
c-17 -12 -53 -32 -79 -44 -125 -55 -164 -72 -164 -68 0 15 234 134 264 135 6
0 -4 -10 -21 -23z m-712 -181 c-12 -18 -21 -45 -21 -59 0 -30 -78 -184 -114
-228 -40 -47 -43 -69 -11 -96 34 -30 27 -40 -13 -19 -33 17 -52 7 -52 -27 0
-23 -27 -46 -54 -47 -15 0 -17 -6 -14 -30 4 -26 1 -30 -18 -30 -39 0 -54 -11
-54 -40 0 -31 23 -55 45 -46 9 3 19 -3 25 -14 16 -30 12 -34 -16 -16 -14 10
-30 16 -37 13 -6 -2 -19 5 -27 16 -34 41 -95 -17 -69 -65 10 -19 9 -20 -7 -13
-49 21 -73 18 -104 -14 -30 -29 -30 -31 -15 -60 21 -42 19 -46 -11 -22 -15 12
-38 21 -51 21 -32 0 -149 -64 -293 -160 -63 -42 -134 -87 -158 -99 -24 -12
-80 -59 -126 -104 -125 -124 -179 -223 -142 -260 15 -15 13 -18 -28 -36 -54
-24 -80 -67 -97 -167 -14 -80 -6 -224 16 -304 9 -34 16 -107 18 -190 2 -110 5
-141 20 -163 9 -14 17 -39 17 -55 0 -52 12 -90 29 -95 13 -3 16 -12 13 -40 -3
-26 3 -47 18 -72 15 -24 19 -40 13 -46 -21 -21 -74 96 -93 202 -6 35 -16 78
-21 96 -10 30 -53 76 -80 85 -7 2 -2 18 15 42 31 46 33 88 11 203 -17 88 -21
220 -10 338 7 72 14 92 70 200 35 66 69 139 76 162 9 33 21 48 53 67 23 14 79
61 126 106 47 45 96 86 108 91 13 5 97 51 185 102 89 52 193 108 231 125 144
67 260 168 323 282 23 41 58 91 78 110 41 39 103 138 196 315 47 88 65 114 67
97 2 -12 -6 -37 -17 -56z m-785 -1673 c-3 -16 -9 -86 -12 -158 -4 -71 -11
-135 -16 -141 -27 -36 -15 -194 16 -194 9 0 16 -20 20 -57 4 -31 16 -77 28
-102 56 -123 120 -310 124 -361 3 -47 11 -66 60 -137 61 -90 86 -113 122 -113
22 0 24 -3 19 -33 -3 -23 1 -38 17 -56 20 -23 20 -24 1 -16 -11 4 -39 10 -62
12 -41 5 -43 7 -43 38 0 30 -12 51 -94 166 -19 27 -40 75 -50 114 -9 36 -27
83 -40 103 -13 20 -27 55 -31 77 -4 22 -22 69 -40 105 -18 36 -36 85 -40 110
-10 61 -20 72 -64 64 l-36 -7 29 31 29 31 -7 98 c-5 83 -3 117 19 222 14 68
25 148 25 177 0 43 3 54 16 54 13 0 15 -6 10 -27z m194 -315 c0 -16 -3 -19
-11 -11 -6 6 -8 16 -5 22 11 17 16 13 16 -11z m-347 -289 c-6 -6 -17 -8 -24
-3 -9 5 -8 9 7 14 23 9 31 3 17 -11z m752 -889 c-3 -5 -10 -10 -16 -10 -5 0
-9 5 -9 10 0 6 7 10 16 10 8 0 12 -4 9 -10z"/>
<path d="M5326 4545 c-27 -13 -66 -27 -86 -30 -20 -3 -63 -22 -95 -41 -64 -37
-182 -94 -194 -94 -4 0 -13 -11 -19 -25 -10 -21 -9 -32 5 -58 9 -18 24 -57 34
-87 10 -31 18 -45 18 -32 1 16 7 22 25 22 15 0 53 25 104 69 44 38 98 79 120
90 22 11 42 27 45 35 4 9 23 22 44 31 20 9 52 27 71 41 28 22 33 31 27 53 -8
31 -23 51 -39 51 -6 0 -33 -11 -60 -25z"/>
<path d="M5563 4535 c-54 -27 -80 -51 -69 -62 8 -8 96 33 132 63 26 21 27 23
8 24 -11 0 -43 -11 -71 -25z"/>
<path d="M5970 4552 c0 -6 5 -14 10 -17 21 -13 8 -33 -31 -49 -87 -35 -13 -86
135 -93 73 -4 95 -2 111 11 20 16 19 16 -12 46 -20 18 -33 39 -33 55 0 14 -8
29 -19 34 -29 16 -161 26 -161 13z"/>
<path d="M6380 4551 c0 -5 7 -11 15 -15 8 -3 15 -1 15 3 0 5 -7 11 -15 15 -8
3 -15 1 -15 -3z"/>
<path d="M6694 4525 c-8 -20 4 -35 27 -35 11 0 32 -9 47 -20 15 -11 67 -33
117 -50 49 -17 105 -43 125 -59 72 -57 130 -74 130 -38 0 23 -159 114 -266
153 -55 19 -109 42 -121 50 -28 18 -52 18 -59 -1z"/>
<path d="M6354 4485 c-12 -31 23 -48 45 -21 10 12 8 17 -8 25 -26 14 -31 14
-37 -4z"/>
<path d="M7040 4450 c10 -19 77 -70 92 -70 5 0 8 9 8 20 0 22 -64 70 -93 70
-15 0 -16 -3 -7 -20z"/>
<path d="M6605 4450 c3 -5 8 -10 11 -10 2 0 4 5 4 10 0 6 -5 10 -11 10 -5 0
-7 -4 -4 -10z"/>
<path d="M5367 4409 c-37 -22 -95 -67 -130 -99 -34 -32 -96 -81 -137 -108
-102 -68 -118 -87 -131 -158 -6 -32 -17 -74 -25 -93 -22 -52 -9 -49 22 6 16
26 39 56 51 66 30 24 31 67 2 67 -18 0 -19 3 -9 15 7 9 22 12 39 9 25 -5 39 4
107 69 44 41 115 102 159 135 92 69 156 132 134 132 -7 0 -44 -18 -82 -41z"/>
<path d="M6705 4415 c17 -14 62 -37 100 -52 39 -14 106 -44 149 -65 80 -38
106 -45 106 -30 0 30 -117 94 -259 141 -115 38 -137 39 -96 6z"/>
<path d="M6470 4421 c0 -20 63 -62 88 -59 38 4 38 25 0 48 -34 20 -88 27 -88
11z"/>
<path d="M6405 4380 c-4 -6 -4 -22 -1 -36 8 -31 36 -32 36 0 0 28 -24 53 -35
36z"/>
<path d="M6610 4340 c0 -11 36 -35 68 -45 18 -5 22 -2 22 14 0 11 -9 25 -19
31 -25 13 -71 13 -71 0z"/>
<path d="M6505 4301 c-11 -18 9 -36 82 -71 63 -31 115 -42 130 -27 12 12 -27
44 -86 71 -73 32 -116 42 -126 27z"/>
<path d="M6798 4270 c13 -11 57 -38 99 -61 78 -43 93 -60 73 -83 -14 -17 0
-50 26 -60 27 -10 73 -7 109 8 27 11 35 21 35 40 0 20 -14 32 -82 71 -129 75
-199 105 -243 105 l-40 -1 23 -19z"/>
<path d="M2746 4231 c-12 -13 -16 -37 -16 -89 0 -40 4 -72 9 -72 13 0 57 59
65 87 7 21 -14 75 -33 87 -4 3 -16 -3 -25 -13z"/>
<path d="M7120 4210 c0 -5 5 -10 10 -10 6 0 10 5 10 10 0 6 -4 10 -10 10 -5 0
-10 -4 -10 -10z"/>
<path d="M6496 4201 c-3 -5 0 -14 8 -20 7 -6 16 -24 19 -39 6 -29 7 -30 164
-77 46 -13 105 -26 132 -28 47 -4 121 -46 121 -68 0 -5 -22 -9 -49 -9 -58 0
-76 -16 -62 -53 12 -32 23 -39 72 -41 36 -2 45 -8 84 -59 25 -31 45 -59 45
-62 0 -10 -36 -4 -54 10 -11 8 -30 15 -43 15 -12 0 -37 13 -55 29 -43 36 -71
51 -101 51 -13 0 -48 18 -77 40 -60 45 -79 49 -104 21 -34 -37 10 -75 134
-112 101 -30 199 -99 306 -215 47 -52 90 -94 95 -94 5 0 9 96 9 220 0 181 -2
220 -14 220 -8 0 -17 7 -20 15 -4 12 -14 14 -42 9 -34 -6 -37 -5 -31 15 6 25
-12 39 -92 71 -37 14 -57 18 -64 11 -8 -8 -19 -1 -36 19 -20 24 -38 33 -81 39
-30 5 -99 30 -154 55 -111 52 -103 49 -110 37z"/>
<path d="M5771 4192 c0 -7 -12 -18 -26 -24 -29 -13 -32 -26 -9 -35 22 -8 47
20 41 48 -2 13 -5 18 -6 11z"/>
<path d="M6777 4193 c-17 -16 -5 -42 24 -52 45 -16 79 -14 79 4 0 8 -5 15 -11
15 -5 0 -7 5 -3 11 3 6 0 15 -7 20 -16 10 -73 12 -82 2z"/>
<path d="M6475 4150 c3 -5 8 -10 11 -10 2 0 4 5 4 10 0 6 -5 10 -11 10 -5 0
-7 -4 -4 -10z"/>
<path d="M6483 4045 c-3 -9 -3 -18 0 -22 11 -10 196 -62 247 -69 60 -8 69 10
13 25 -21 6 -42 11 -47 11 -5 0 -43 16 -86 35 -85 38 -117 43 -127 20z"/>
<path d="M7110 4025 c-14 -16 -6 -35 16 -35 8 0 14 10 14 25 0 28 -12 32 -30
10z"/>
<path d="M6695 4020 c3 -5 10 -10 16 -10 5 0 9 5 9 10 0 6 -7 10 -16 10 -8 0
-12 -4 -9 -10z"/>
<path d="M6217 3989 c-29 -17 -10 -28 33 -17 22 6 37 14 34 19 -7 12 -45 11
-67 -2z"/>
<path d="M6045 3959 c-38 -5 -89 -16 -113 -25 -70 -26 -79 -73 -18 -94 59 -19
256 30 271 68 7 18 -32 63 -54 61 -9 -1 -47 -5 -86 -10z"/>
<path d="M6340 3959 c0 -14 44 -60 70 -74 58 -30 140 -9 140 35 0 36 -39 50
-128 47 -45 -1 -82 -5 -82 -8z"/>
<path d="M6303 3933 c-18 -7 -16 -33 2 -33 8 0 15 9 15 20 0 11 -1 20 -2 19
-2 0 -9 -3 -15 -6z"/>
<path d="M1857 3854 c-8 -8 3 -34 14 -34 5 0 9 9 9 20 0 19 -11 26 -23 14z"/>
<path d="M6104 3835 c-111 -25 -158 -45 -168 -70 -24 -65 23 -125 98 -125 23
0 82 14 132 31 77 28 103 32 196 33 71 1 111 5 120 14 19 19 34 15 56 -15 15
-20 40 -33 103 -51 46 -14 103 -25 126 -26 38 0 43 -3 48 -28 7 -30 94 -114
151 -144 44 -24 68 -11 72 37 3 39 -29 99 -56 106 -10 2 -26 17 -37 33 -31 46
-61 58 -95 38 -29 -16 -29 -16 -35 13 -10 46 -56 74 -190 119 -140 47 -214 54
-262 25 -28 -16 -30 -16 -77 9 -58 31 -54 31 -182 1z"/>
<path d="M6295 3653 c-11 -3 -32 -16 -46 -29 -23 -22 -29 -23 -58 -13 -40 14
-88 5 -118 -23 -51 -48 -10 -148 62 -148 27 0 65 23 65 40 0 9 9 25 21 36 17
16 22 16 29 4 6 -8 10 -23 10 -32 0 -37 66 -30 90 10 9 16 11 16 23 0 21 -27
85 -13 93 19 l6 24 12 -23 c16 -32 59 -45 98 -30 28 10 35 9 53 -8 28 -26 41
-25 70 5 46 45 19 115 -45 115 -16 0 -30 3 -30 8 0 4 -20 15 -45 25 -35 15
-51 17 -74 9 -20 -7 -32 -7 -39 0 -8 8 -15 8 -26 -1 -11 -10 -16 -9 -23 3 -15
27 -49 8 -60 -32 l-10 -37 -2 36 c-1 24 -7 39 -17 43 -9 3 -16 5 -17 5 -1 -1
-11 -3 -22 -6z"/>
<path d="M5982 3578 c-25 -25 -2 -138 28 -138 25 0 22 99 -3 134 -10 13 -15
14 -25 4z"/>
<path d="M5840 3571 c-24 -6 -250 -129 -250 -136 0 -2 4 -15 10 -29 9 -25 -2
-37 -15 -16 -3 6 -15 10 -25 10 -24 0 -182 -201 -200 -254 -11 -34 -10 -40 11
-62 l22 -24 -36 0 c-34 0 -39 -4 -56 -42 -54 -120 -83 -177 -107 -216 l-26
-42 32 -30 c18 -17 38 -30 45 -30 15 0 45 32 45 49 0 7 21 41 46 74 33 44 44
68 41 85 -3 18 3 28 29 45 38 25 41 34 19 63 -20 27 -19 32 14 39 17 3 48 20
70 36 23 16 41 26 41 23 0 -25 -136 -261 -203 -352 -102 -138 -172 -249 -198
-310 -11 -26 -31 -70 -45 -99 -38 -82 -95 -291 -97 -360 -2 -67 4 -78 44 -88
44 -11 76 27 94 113 8 40 24 90 35 112 11 21 20 57 20 79 0 25 5 41 15 44 8 4
21 32 30 64 9 32 32 109 51 172 18 62 34 123 34 135 0 13 12 31 28 43 15 11
50 62 77 113 49 90 139 190 172 190 25 0 26 51 3 125 -18 58 -20 76 -11 93 6
12 16 22 22 22 5 0 16 15 25 33 15 32 15 36 -5 75 -24 47 -25 52 -11 52 5 0
16 -13 25 -30 11 -21 23 -30 40 -30 27 0 44 35 26 53 -6 6 -11 18 -11 27 0 9
10 3 26 -17 14 -18 32 -33 39 -33 7 0 34 16 59 35 52 39 56 41 56 20 0 -8 -12
-22 -27 -32 -42 -25 -83 -65 -83 -80 0 -7 -5 -13 -11 -13 -10 0 -32 -18 -90
-72 -46 -44 7 -144 65 -122 18 7 32 47 21 64 -4 7 2 6 19 -1 21 -10 32 -8 70
15 49 29 65 61 47 94 -13 24 -15 62 -3 62 4 0 20 -16 35 -35 15 -19 32 -35 37
-35 17 0 11 71 -9 98 -30 43 -34 68 -15 96 17 28 14 56 -13 114 -16 33 -34 38
-93 23z"/>
<path d="M4791 3538 c-66 -31 -75 -45 -19 -34 31 6 97 51 88 59 -3 2 -34 -9
-69 -25z"/>
<path d="M6791 3473 c42 -99 64 -123 114 -123 69 0 13 106 -82 154 -49 25 -54
20 -32 -31z"/>
<path d="M6720 3456 c0 -7 7 -19 16 -27 13 -10 17 -10 24 1 4 7 6 19 3 27 -7
17 -43 17 -43 -1z"/>
<path d="M4587 3424 c-45 -35 -97 -118 -97 -155 0 -21 -128 -86 -230 -115 -41
-12 -75 -26 -74 -30 2 -18 80 -54 117 -54 20 0 37 -4 37 -10 0 -26 34 -3 101
68 94 97 175 195 194 232 16 32 20 86 6 94 -4 3 -29 -11 -54 -30z"/>
<path d="M7049 3428 l-23 -31 49 -44 c27 -24 53 -43 57 -43 5 0 8 26 8 58 0
53 -2 59 -29 75 -37 22 -36 22 -62 -15z"/>
<path d="M6398 3444 c-10 -3 -18 -13 -18 -22 0 -9 -3 -27 -6 -39 -6 -20 -3
-23 24 -23 20 0 36 7 46 22 l16 22 24 -23 c45 -42 182 -36 174 7 -6 33 -65 54
-156 58 -48 2 -95 1 -104 -2z"/>
<path d="M6235 3425 c-5 -2 -42 -13 -81 -24 -61 -18 -73 -25 -78 -47 l-7 -27
-24 23 c-14 13 -27 22 -29 19 -10 -11 -13 -88 -3 -98 15 -15 47 5 47 30 0 16
4 19 18 14 39 -16 51 -16 89 3 22 12 67 24 100 27 76 9 82 13 76 53 -5 31 -7
32 -52 31 -25 0 -50 -2 -56 -4z"/>
<path d="M6676 3368 c-9 -35 -8 -35 28 -42 19 -4 55 -18 81 -31 52 -28 85 -32
85 -11 0 19 -52 59 -110 85 -58 27 -76 26 -84 -1z"/>
<path d="M6960 3335 c-18 -21 -4 -51 43 -89 23 -19 60 -64 82 -100 22 -36 43
-66 48 -66 4 0 7 35 7 78 l-1 77 -65 58 c-66 58 -92 68 -114 42z"/>
<path d="M6278 3322 c-19 -4 -23 -44 -9 -92 6 -20 13 -24 34 -22 15 1 27 -2
27 -8 0 -5 15 -10 34 -10 26 0 38 6 51 27 l18 27 15 -22 c21 -32 105 -32 133
1 l20 22 -4 -39 c-3 -35 0 -39 30 -54 28 -13 39 -14 66 -4 44 16 58 15 51 -3
-12 -31 26 -14 51 22 32 47 31 53 -3 86 -24 23 -47 30 -153 48 -112 19 -316
31 -361 21z"/>
<path d="M6167 3275 c-21 -7 -40 -15 -43 -17 -2 -3 4 -23 13 -45 17 -39 19
-40 58 -35 55 7 67 29 45 86 -11 29 -19 31 -73 11z"/>
<path d="M6891 3238 c20 -38 63 -88 76 -88 21 0 24 19 8 49 -17 34 -51 61 -78
61 -15 0 -16 -3 -6 -22z"/>
<path d="M2283 3225 c5 -27 98 -406 105 -425 3 -12 5 -12 9 -1 14 36 -64 353
-103 420 -12 20 -14 21 -11 6z"/>
<path d="M6023 3206 c-31 -15 -42 -27 -43 -44 0 -21 -4 -23 -28 -17 -22 4 -42
-3 -87 -30 -32 -19 -63 -35 -68 -35 -20 0 -107 -86 -107 -107 0 -16 -5 -20
-21 -16 -13 4 -30 -3 -50 -23 -16 -15 -29 -31 -29 -36 0 -20 -67 -107 -97
-127 -58 -38 -90 -110 -61 -139 51 -51 161 86 162 200 l0 47 27 -15 c16 -8 33
-14 38 -14 6 0 36 23 66 50 30 28 60 50 65 50 6 0 15 11 22 25 6 13 24 29 41
35 39 13 37 13 37 -10 0 -11 -5 -20 -11 -20 -8 0 -10 -12 -6 -35 6 -35 -8 -49
-19 -20 -11 27 -36 16 -91 -39 -53 -55 -63 -81 -40 -105 10 -11 8 -13 -9 -9
-12 3 -29 1 -38 -4 -18 -10 -22 -43 -6 -53 6 -3 10 -13 10 -22 0 -12 -3 -13
-14 -3 -38 31 -94 -19 -117 -104 -6 -23 -24 -54 -40 -70 -30 -30 -37 -64 -17
-84 9 -9 9 -12 -2 -12 -31 0 -42 -21 -66 -124 -17 -75 -24 -130 -22 -180 3
-69 4 -71 31 -74 27 -3 39 -22 14 -22 -25 0 -50 -37 -43 -65 9 -35 40 -36 146
-4 50 15 79 18 127 13 58 -6 62 -5 79 20 14 23 16 42 11 124 -6 78 -3 113 13
180 27 111 26 115 -17 137 -21 11 -41 21 -44 23 -4 1 -14 -16 -23 -40 -13 -32
-20 -39 -27 -27 -5 7 -9 26 -9 41 0 19 -9 32 -35 48 -43 26 -37 40 15 40 39 0
41 2 71 63 18 34 56 88 86 121 30 32 61 69 70 83 9 13 34 33 57 45 23 11 67
47 98 79 52 54 60 59 99 59 l43 0 -20 -20 c-11 -11 -42 -35 -69 -53 -72 -48
-76 -59 -35 -102 19 -19 52 -40 73 -46 32 -8 36 -13 27 -25 -11 -12 -5 -14 39
-14 28 0 51 5 51 10 0 11 77 14 82 3 2 -5 1 -26 -2 -48 -4 -29 -7 -35 -12 -22
-9 22 -34 22 -47 0 -8 -15 -12 -16 -35 -3 -23 12 -31 11 -61 -3 -20 -9 -42
-17 -51 -17 -8 0 -17 -7 -21 -16 -3 -9 -38 -31 -78 -48 -78 -36 -111 -69 -121
-123 -4 -21 -14 -37 -23 -40 -38 -10 -54 -191 -26 -296 35 -136 141 -279 233
-314 26 -10 59 -32 75 -50 69 -78 195 -88 375 -28 111 37 113 38 195 120 45
45 91 98 102 118 11 21 27 40 37 43 9 3 20 14 23 25 10 29 27 11 24 -25 -4
-44 7 -56 51 -56 37 0 40 2 49 38 13 52 31 279 24 300 -17 47 -72 69 -101 40
-22 -22 -14 -82 13 -106 35 -31 33 -68 -4 -75 -15 -3 -37 -3 -49 0 -18 4 -20
10 -15 52 2 25 0 59 -6 75 -11 26 -14 28 -52 23 -23 -3 -46 -10 -51 -15 -5 -5
-11 -41 -13 -79 -3 -60 -9 -78 -42 -131 -43 -69 -64 -83 -33 -22 17 33 19 53
16 116 -3 42 -9 81 -14 86 -10 10 -168 -40 -208 -67 -52 -34 -40 -168 16 -187
6 -2 13 -26 15 -53 5 -47 3 -52 -28 -77 -31 -25 -37 -26 -70 -16 -43 13 -49
28 -12 28 45 0 95 27 95 51 0 21 -42 103 -83 162 -27 39 -41 24 -72 -78 -24
-80 -45 -117 -45 -78 0 10 9 52 20 93 27 104 26 156 -2 171 -13 7 -35 22 -50
34 -15 12 -44 26 -64 30 -21 4 -58 18 -81 32 -25 14 -52 23 -63 20 -14 -4 -20
0 -20 13 0 13 11 19 51 23 54 7 81 0 58 -13 -8 -6 0 -14 27 -26 42 -18 99 -23
127 -10 12 6 17 4 17 -8 0 -11 9 -16 29 -16 33 0 46 13 54 55 3 17 14 71 25
120 11 50 23 111 26 138 4 26 11 47 17 47 13 0 8 -99 -8 -136 -15 -39 -18 -94
-6 -159 7 -45 11 -50 37 -53 39 -5 195 18 202 29 8 13 -30 91 -54 113 -16 13
-30 17 -52 13 -16 -4 -30 -4 -30 -1 0 16 23 44 35 44 9 0 15 10 15 25 0 15 15
42 37 66 l37 41 -17 30 c-10 17 -15 33 -12 36 3 3 32 6 65 6 55 1 60 -1 60
-20 0 -12 7 -28 16 -35 9 -7 20 -24 25 -36 5 -13 20 -28 34 -33 29 -11 32 -28
8 -45 -15 -11 -13 -16 16 -60 20 -30 31 -57 29 -74 -3 -25 -2 -26 57 -26 l60
0 3 46 c4 62 -12 103 -38 96 -23 -6 -27 11 -6 27 13 9 10 22 -16 84 -30 70
-32 73 -59 67 -27 -6 -28 -6 -16 24 15 40 -11 95 -55 119 -17 9 -41 27 -53 39
-12 12 -48 32 -81 44 -32 12 -69 33 -82 46 -20 20 -34 23 -105 25 -125 4 -187
0 -202 -12 -8 -6 -15 -26 -17 -43 l-3 -32 -17 37 c-10 23 -25 38 -40 41 -19 4
-20 4 -3 6 11 0 25 11 30 22 9 19 20 22 93 24 46 2 86 6 89 8 2 3 35 -3 71
-14 90 -26 143 -25 160 1 7 12 17 18 22 15 6 -4 8 -10 5 -15 -14 -22 19 -67
75 -102 33 -21 60 -44 60 -53 0 -11 6 -15 18 -11 17 6 54 -31 81 -82 9 -16 18
-21 32 -17 22 7 24 2 8 -24 -14 -21 -6 -63 16 -85 9 -8 15 -33 15 -58 0 -25 8
-56 20 -75 25 -41 50 -165 50 -245 0 -35 -7 -107 -14 -161 -8 -54 -11 -110 -7
-125 8 -28 66 -75 85 -69 8 3 12 107 14 321 2 297 1 320 -17 362 -14 31 -26
44 -40 44 -25 0 -26 8 -5 31 34 38 8 138 -41 161 -14 6 -25 16 -25 23 0 6 -16
30 -35 52 -19 23 -35 46 -35 52 0 6 -5 11 -10 11 -6 0 -38 20 -72 45 -42 31
-72 45 -93 45 -23 0 -35 7 -44 24 -15 27 -42 42 -95 51 -34 7 -36 6 -52 -34
-22 -56 -36 -52 -28 8 6 49 6 49 -28 60 -44 15 -67 6 -74 -28 -11 -50 -18 -57
-22 -21 -6 54 -16 60 -101 60 -131 -1 -278 -50 -314 -107 -16 -24 -26 -28 -65
-29 l-46 -1 30 23 c16 13 37 24 46 24 9 0 31 12 48 27 27 22 31 31 26 56 -6
29 -5 29 12 14 29 -27 52 -22 52 11 0 29 -16 53 -34 51 -6 -1 -30 -11 -53 -23z
m152 -636 c3 -5 1 -10 -4 -10 -6 0 -11 5 -11 10 0 6 2 10 4 10 3 0 8 -4 11
-10z"/>
<path d="M6839 3180 c-9 -5 -22 -23 -28 -39 -24 -55 40 -127 89 -101 26 14 30
13 30 -9 0 -10 28 -56 63 -103 35 -46 78 -114 97 -151 19 -37 38 -67 43 -67 4
0 7 29 7 65 0 54 -3 66 -20 75 -11 6 -20 21 -20 34 0 32 -37 76 -64 76 -19 0
-22 4 -18 28 4 29 -33 84 -109 164 -39 40 -45 43 -70 28z"/>
<path d="M3950 3115 c31 -51 32 -123 2 -181 -66 -128 -291 -267 -465 -289 -50
-6 -61 -12 -87 -45 -38 -48 -53 -87 -41 -108 7 -13 3 -19 -22 -27 -30 -10 -58
-45 -71 -91 -5 -17 1 -24 34 -39 22 -10 55 -33 72 -51 l32 -32 16 21 c10 12
25 38 35 57 10 19 53 71 96 116 44 46 79 90 79 98 0 9 6 16 14 16 8 0 24 14
36 30 12 17 45 42 73 57 29 14 110 59 181 101 141 81 284 152 310 152 9 0 21
11 27 24 15 32 -14 86 -80 151 l-51 50 -89 0 c-62 1 -95 6 -107 16 -14 10 -12
4 6 -26z"/>
<path d="M6985 3140 c-10 -16 54 -110 74 -110 10 0 20 3 24 6 10 10 -12 57
-41 87 -27 28 -46 34 -57 17z"/>
<path d="M7097 3003 c-13 -12 -7 -40 11 -56 25 -23 32 -21 32 6 0 25 -32 62
-43 50z"/>
<path d="M2900 2943 c-29 -79 -53 -173 -45 -181 9 -9 36 28 91 127 45 80 47
84 29 97 -36 27 -52 17 -75 -43z"/>
<path d="M2846 2968 c-14 -20 -24 -69 -11 -57 8 8 36 79 31 79 -3 0 -12 -10
-20 -22z"/>
<path d="M2970 2818 c-68 -174 -70 -187 -35 -240 25 -38 29 -40 36 -23 12 30
120 318 125 335 4 13 -49 60 -68 60 -4 0 -30 -60 -58 -132z"/>
<path d="M3136 2850 c-88 -236 -126 -343 -126 -354 0 -7 10 -22 23 -34 24 -23
147 -82 170 -82 8 0 22 17 31 38 9 20 47 80 85 132 l68 95 -31 13 c-17 7 -72
56 -123 110 -65 69 -93 93 -97 82z"/>
<path d="M5932 2798 c-7 -7 -12 -20 -12 -30 0 -10 -4 -18 -9 -18 -6 0 -37 -25
-70 -55 -60 -56 -111 -139 -111 -182 0 -31 35 -49 67 -34 31 14 33 14 33 -4 0
-36 50 5 110 91 18 26 40 44 57 47 15 4 43 15 60 26 l33 21 -36 57 c-20 32
-44 66 -52 76 -17 20 -53 22 -70 5z"/>
<path d="M6658 2553 c-54 -58 -58 -90 -8 -63 16 9 18 6 13 -28 -4 -32 1 -45
39 -94 36 -49 48 -57 75 -58 33 0 53 21 53 55 0 55 -96 225 -127 225 -5 0 -25
-17 -45 -37z"/>
<path d="M5365 2524 c-25 -27 -73 -151 -95 -244 -7 -30 -26 -82 -42 -115 -46
-99 -35 -225 21 -225 23 0 38 17 46 55 4 17 27 89 52 160 75 219 100 354 71
383 -17 17 -26 15 -53 -14z"/>
<path d="M1935 2040 c3 -5 10 -10 16 -10 5 0 9 5 9 10 0 6 -7 10 -16 10 -8 0
-12 -4 -9 -10z"/>
<path d="M1873 1989 c-70 -22 -113 -63 -113 -109 0 -30 18 -40 75 -40 61 0
124 62 140 138 6 29 4 32 -17 31 -13 0 -51 -9 -85 -20z"/>
<path d="M5520 1897 l-95 -22 1 -85 c2 -96 24 -166 77 -238 18 -23 40 -54 50
-67 30 -41 67 -33 121 25 25 27 46 59 46 70 0 12 -16 36 -35 54 -31 29 -35 39
-35 83 0 27 3 52 6 56 4 3 21 -24 39 -61 18 -38 45 -79 61 -93 16 -13 35 -36
43 -51 7 -14 28 -34 46 -44 28 -15 36 -16 49 -5 9 8 16 21 16 30 1 14 2 14 11
-1 5 -10 9 -26 7 -35 -2 -13 11 -21 62 -35 36 -9 78 -17 93 -18 19 0 27 -4 24
-12 -2 -7 -8 -12 -13 -11 -60 11 -164 21 -184 17 -19 -4 -37 5 -78 40 -30 25
-62 46 -73 46 -11 0 -40 -21 -64 -46 -35 -36 -45 -53 -45 -79 0 -61 52 -85 96
-45 l21 21 6 -31 c9 -42 33 -49 64 -17 l26 26 16 -32 c11 -22 28 -36 52 -44
55 -18 315 -20 362 -3 36 13 37 16 37 61 0 52 1 51 -95 65 -62 8 -69 12 -54
30 8 10 16 11 29 4 10 -6 40 -10 65 -10 38 0 48 4 52 20 7 26 17 25 30 -3 11
-23 12 -23 104 -14 57 5 114 17 149 32 57 24 156 55 174 55 6 0 -14 -16 -44
-37 -30 -20 -76 -55 -102 -79 -54 -51 -83 -60 -140 -46 -47 12 -82 1 -102 -30
-29 -47 56 -83 169 -73 153 14 308 89 428 207 39 38 80 74 90 79 34 19 18 60
-36 87 l-47 25 -41 -29 c-86 -61 -84 -61 -74 -44 5 8 20 31 33 50 14 21 21 43
18 56 -4 14 1 28 14 39 30 27 44 89 28 123 -12 24 -19 27 -66 29 l-52 2 -27
-47 c-40 -71 -81 -114 -137 -146 -28 -16 -54 -34 -58 -40 -5 -8 -13 -8 -27 1
-14 9 -29 9 -58 1 -56 -15 -113 -46 -113 -62 0 -8 -13 -19 -30 -25 -19 -6 -30
-17 -30 -28 0 -19 -18 -43 -32 -43 -4 0 -8 16 -8 35 0 43 -20 55 -94 55 -128
0 -309 114 -396 249 -21 32 -46 61 -56 65 -45 19 -179 15 -274 -7z"/>
<path d="M7024 1843 c-4 -15 -13 -37 -19 -48 -7 -11 -10 -37 -8 -58 5 -33 12
-42 57 -67 86 -50 87 -48 84 83 l-3 112 -52 3 c-50 3 -53 2 -59 -25z"/>
<path d="M5225 1815 c-29 -28 -30 -43 -10 -92 10 -22 15 -68 15 -127 0 -105
17 -150 93 -253 66 -89 125 -97 174 -24 33 49 30 64 -9 56 -28 -6 -30 -5 -23
11 15 35 18 74 6 74 -7 0 -29 -11 -49 -25 -50 -34 -57 -31 -27 12 45 67 40 70
-75 47 l-35 -7 28 30 c29 32 33 53 16 102 -9 26 -8 40 10 81 12 27 21 60 21
74 0 63 -88 89 -135 41z"/>
<path d="M3260 1740 c-8 -5 -33 -10 -55 -10 -71 -1 -73 -6 -32 -122 22 -63 48
-174 67 -288 42 -241 91 -432 130 -510 17 -35 56 -99 85 -144 29 -44 75 -132
101 -193 l47 -113 84 0 c47 0 83 3 81 8 -2 4 -37 74 -76 155 -40 81 -83 165
-97 185 -72 111 -200 521 -245 787 -14 85 -60 255 -69 255 -3 0 -13 -5 -21
-10z"/>
<path d="M3048 1662 c-32 -23 -37 -31 -32 -52 4 -14 10 -43 15 -65 39 -198
160 -645 218 -804 17 -46 46 -110 64 -144 19 -34 49 -101 67 -150 l33 -87 68
0 c38 0 69 4 69 9 0 4 -8 19 -18 32 -10 13 -24 42 -30 65 -6 22 -37 81 -68
130 -31 49 -64 105 -74 124 -30 59 -68 187 -105 350 -26 113 -43 168 -65 203
-34 55 -36 65 -15 81 14 10 14 19 1 90 -22 113 -65 246 -79 245 -7 0 -29 -13
-49 -27z"/>
<path d="M2913 1614 c-17 -7 -16 -39 3 -103 18 -61 11 -102 -13 -79 -9 9 -17
45 -20 92 -6 82 -16 99 -39 70 -42 -53 -43 -57 -32 -114 5 -30 13 -59 18 -65
4 -5 8 -57 8 -115 -1 -80 4 -119 20 -165 29 -84 46 -250 38 -365 -6 -80 -3
-106 13 -160 24 -77 30 -128 16 -132 -29 -9 -54 169 -59 412 -3 146 -6 174
-24 212 -23 47 -48 183 -58 319 -4 49 -10 89 -14 89 -4 0 -18 -10 -31 -23 -24
-22 -25 -23 -17 -147 20 -319 69 -627 140 -873 l31 -107 138 0 c77 0 139 3
139 6 0 10 -71 158 -97 204 -21 35 -26 55 -24 97 3 67 -5 93 -30 93 -17 0 -19
4 -12 23 14 40 3 126 -36 280 -41 156 -57 267 -41 267 5 0 12 -12 15 -27 3
-16 28 -113 55 -218 27 -104 56 -239 65 -298 19 -123 36 -182 98 -322 l43
-100 83 -3 c99 -3 99 -20 0 183 -57 118 -80 182 -143 403 -42 144 -89 333
-106 420 -46 235 -50 247 -85 249 -17 1 -36 0 -42 -3z"/>
<path d="M7075 1488 c-23 -18 -26 -26 -20 -55 6 -32 5 -33 -18 -28 -19 5 -25
2 -30 -13 -3 -13 -15 -22 -33 -24 -23 -2 -30 -9 -32 -30 -3 -24 -5 -26 -23
-15 -15 9 -23 9 -40 -1 -26 -16 -70 -39 -181 -92 l-87 -41 -98 7 c-92 6 -99 5
-117 -15 -43 -47 34 -109 120 -96 94 14 319 86 344 110 14 13 37 27 53 30 15
4 31 12 35 19 4 6 27 21 53 34 47 24 85 72 75 98 -4 10 2 14 17 14 33 0 47 19
47 62 0 51 -27 66 -65 36z"/>
<path d="M1677 1413 c-10 -49 -21 -117 -26 -153 -5 -36 -18 -89 -30 -117 -31
-80 -42 -166 -30 -253 6 -41 14 -176 17 -300 l7 -225 492 -3 491 -2 -29 92
c-30 96 -59 306 -58 413 0 49 2 56 10 36 15 -38 38 -187 44 -281 4 -70 43
-241 59 -257 2 -2 59 -2 126 -1 l123 3 -25 30 c-14 17 -28 49 -31 72 -4 23
-17 63 -28 90 -16 34 -23 71 -24 128 -2 107 -32 331 -56 429 -12 48 -21 124
-24 198 -2 66 -6 122 -9 125 -3 3 -26 -2 -52 -11 -92 -31 -176 -20 -260 34
-19 12 -30 10 -97 -20 l-75 -34 -14 -101 c-24 -183 -12 -459 28 -610 4 -18 4
-18 -6 -3 -16 25 -49 196 -60 304 -4 52 -6 163 -3 247 4 111 3 149 -6 142 -16
-16 -31 -181 -31 -364 0 -90 -3 -161 -6 -158 -11 11 -34 168 -34 232 0 33 7
105 15 159 21 138 24 129 -37 121 -103 -13 -262 42 -317 108 -7 10 -17 17 -20
17 -4 0 -15 -39 -24 -87z"/>
<path d="M5520 1300 c-46 -50 -41 -119 11 -145 46 -24 84 -19 112 15 30 35 63
117 52 128 -4 4 -10 1 -12 -6 -3 -7 -27 -24 -54 -38 l-50 -25 3 48 c4 61 -19
69 -62 23z"/>
<path d="M7076 1298 c-20 -28 -20 -38 -2 -38 19 0 46 27 46 46 0 22 -27 17
-44 -8z"/>
<path d="M7005 1230 c-10 -11 -35 -25 -56 -30 -39 -11 -59 -37 -34 -46 48 -19
156 66 116 90 -4 3 -16 -3 -26 -14z"/>
<path d="M7085 1205 c-20 -25 -59 -57 -85 -70 -56 -28 -80 -57 -72 -87 4 -18
2 -20 -14 -13 -10 4 -29 10 -41 12 -25 6 -224 -57 -230 -73 -2 -6 1 -23 6 -37
9 -24 16 -27 57 -27 58 0 242 52 306 87 27 15 66 43 88 63 40 37 40 37 40 113
0 43 -4 77 -9 77 -5 0 -25 -20 -46 -45z"/>
<path d="M6770 1128 c-30 -11 -73 -26 -96 -32 -23 -6 -48 -17 -56 -23 -7 -7
-45 -15 -83 -18 -129 -12 -182 -35 -115 -50 54 -12 182 6 296 41 120 37 161
60 151 87 -8 22 -30 21 -97 -5z"/>
<path d="M7075 1000 c-79 -62 -59 -108 24 -55 35 22 41 30 41 60 0 19 -3 35
-7 34 -5 0 -30 -18 -58 -39z"/>
<path d="M6431 968 c-64 -35 -48 -73 36 -84 46 -6 52 -4 63 15 9 18 17 21 39
16 34 -7 51 20 26 44 -20 20 -132 26 -164 9z"/>
<path d="M6813 901 c-125 -38 -155 -64 -89 -76 24 -5 48 -1 81 14 26 12 62 21
81 21 54 0 86 17 82 43 -4 32 -45 32 -155 -2z"/>
<path d="M7058 865 c-80 -41 -196 -76 -346 -105 -225 -42 -291 -86 -127 -84
75 1 116 9 245 47 85 25 189 58 230 74 73 28 75 30 78 66 2 20 0 37 -5 37 -4
-1 -38 -16 -75 -35z"/>
<path d="M6407 853 c-4 -3 -7 -23 -7 -44 0 -33 4 -40 25 -45 14 -3 36 -3 50 0
22 6 25 12 25 51 l0 45 -43 0 c-24 0 -47 -3 -50 -7z"/>
<path d="M6589 848 c-1 -7 -1 -16 0 -20 0 -4 -10 -15 -24 -24 -36 -24 -22 -33
30 -21 43 10 46 12 43 41 -2 23 -9 32 -25 34 -14 2 -23 -2 -24 -10z"/>
<path d="M7010 723 c-52 -19 -207 -63 -343 -98 -244 -63 -317 -91 -317 -122 0
-33 160 -2 494 98 92 28 170 48 173 46 6 -6 -68 -50 -120 -72 -21 -9 -123 -40
-228 -70 -194 -56 -244 -75 -252 -97 -3 -9 -9 -8 -19 6 -22 28 -72 10 -76 -27
l-3 -27 184 0 185 0 109 73 c59 39 161 101 226 136 115 62 118 64 115 95 -2
23 -7 30 -20 28 -24 -4 -23 11 2 33 11 10 20 22 20 27 0 14 -31 7 -130 -29z
m65 -53 c-3 -5 -11 -10 -16 -10 -6 0 -7 5 -4 10 3 6 11 10 16 10 6 0 7 -4 4
-10z"/>
<path d="M7076 550 c-18 -17 -52 -37 -75 -44 -39 -14 -206 -120 -217 -137 -3
-5 56 -9 131 -9 135 0 137 0 157 26 12 14 31 30 44 34 22 9 24 15 24 85 0 87
-9 93 -64 45z"/>
<path d="M6155 501 c-33 -15 -118 -52 -188 -82 l-129 -54 120 -3 c119 -3 120
-2 208 35 87 37 89 39 89 72 0 23 -7 38 -20 47 -17 11 -28 9 -80 -15z"/>
<path d="M6228 384 c-16 -8 -28 -17 -28 -19 0 -3 23 -5 50 -5 48 0 50 1 40 20
-13 24 -25 24 -62 4z"/>
<path d="M7118 363 c7 -3 16 -2 19 1 4 3 -2 6 -13 5 -11 0 -14 -3 -6 -6z"/>
</g>
</svg>
