<?xml version="1.0" standalone="no"?>
<!DOCTYPE svg PUBLIC "-//W3C//DTD SVG 1.1//EN" "http://www.w3.org/Graphics/SVG/1.1/DTD/svg11.dtd" >
<svg xmlns="http://www.w3.org/2000/svg" xmlns:xlink="http://www.w3.org/1999/xlink" version="1.1">
<metadata>
Created by FontForge 20170731 at Sun Mar 31 16:38:14 2013
 By Aleksey,,,
Copyright (c) 2013 by Pablo Cosgaya &#38; Sergio Jime'nez. All rights reserved.
</metadata>
<defs>
<font id="Barrio-Regular" horiz-adv-x="500" >
  <font-face 
    font-family="Barrio"
    font-weight="400"
    font-stretch="normal"
    units-per-em="1000"
    panose-1="0 0 5 0 0 0 0 0 0 0"
    ascent="762"
    descent="-238"
    x-height="691"
    cap-height="707"
    bbox="-143.043 -246.043 1168 880"
    underline-thickness="50"
    underline-position="-200"
    unicode-range="U+0020-FB02"
  />
<missing-glyph 
d="M180 701q22 0 44.5 -0.5t38.5 -1t19 -0.5q36 0 76 2t56 2q27 0 39 -3q10 -3 10 -10q0 -2 -2 -8q0 -1 -3.5 -26.5t-5.5 -52.5q-7 -79 -7 -303q0 -26 -3 -116t-3 -96q0 -4 -0.5 -18t-0.5 -22q0 -15 2 -29q1 -3 1 -6q0 -4 -1 -5t-5 -2h-4q-10 -2 -36 -2q-119 0 -237 -3
q-60 0 -78 1q-17 -2 -20.5 7.5t-2.5 38.5v17q0 18 -1 165.5t-1 180.5q0 37 1 144t1 115q0 15 3.5 22t6.5 8t11 1h102zM177 652q-6 1 -16 1q-13 0 -25 -2l7 -15q28 -83 56 -124q8 -18 53 -112q45 94 53 112q28 41 56 124l6 12q-26 -2 -40 -2q-13 0 -18 1q-22 2 -29 2
q-12 2 -103 3zM394 421q0 9 -0.5 28t-0.5 27l2 112q-47 -91 -61 -127q-8 -16 -54 -119l35 -72q24 -55 73 -156v46v26v42v39q0 17 1 26q2 30 2 48q0 33 1 50zM110 378q2 -59 1 -65q-2 -32 -2 -61q0 -10 -0.5 -47t-0.5 -57q0 -35 1 -49q80 170 80 171l35 72q-46 103 -54 119
q-8 21 -52 111l-1 -20l-4 -99zM243 68q19 3 102 3h7q-23 54 -84 176q-2 4 -7 15t-9 18q-3 -7 -8.5 -18l-7.5 -15q-79 -164 -85 -179l27 -1q56 0 65 1z" />
    <glyph glyph-name="fi" unicode="fi" horiz-adv-x="587" 
d="M175 426q0 -12 -2 -28l-2 -13h22q7 0 20.5 0.5t19.5 0.5h72q63 0 93 2l23 1q3 1 19 1h19h30h27q18 -1 18 -17q0 -2 -3 -35t-4 -64q-5 -62 -5 -105q0 -22 1 -26q0 -4 1.5 -29.5t1.5 -36.5t-1 -13q-1 -3 -1 -14q0 -9 1 -27t1 -21q1 -7 -7 -9t-22 -1h-87h-3q-8 0 -12.5 2.5
t-5.5 5.5t-2 9q-2 5 2 22t4 26q0 11 6 69.5t6 65.5q0 8 2 54t2 53q0 9 2 31l1 9h-13h-65q-19 0 -34.5 0.5t-22.5 1t-11 0.5h-53q-25 0 -39 -1v-97q0 -72 -3 -117q-2 -26 -2 -51q0 -15 0.5 -36t0.5 -23q0 -11 -5 -13t-18 -2h-69q-5 0 -7.5 1.5t-3.5 5.5t-1.5 7t-0.5 10v11
q-2 16 -2 47q0 15 0.5 44.5t0.5 39.5q0 22 2 91t2 78q0 8 -2 36t-2 52q0 22 1.5 49t1.5 39v90q0 10 2 36t2 36v4q0 10 3.5 13t10.5 3q4 0 16 -1t18 -1q19 0 65.5 2t58.5 2h24q33 0 70 -1h95q15 0 47.5 -1t43.5 -1q18 0 18 -13v-74v-50v-8q0 -8 -2.5 -10.5t-12.5 -2.5
q-7 0 -49 3t-52 3h-186q-18 0 -42 -2l-21 -2q-1 -6 -1 -18v-93z" />
    <glyph glyph-name="fl" unicode="fl" horiz-adv-x="1000" 
d="M983 129q0 -12 5 -63t5 -55q0 -1 1 -3v-2q0 -8 -23 -8q-8 0 -92.5 1.5t-104.5 1.5q-13 0 -77.5 -3t-85.5 -3q-5 0 -10.5 0.5t-6.5 0.5q-6 1 -23 1q-13 0 -40.5 -1t-35.5 -1q-7 0 -10.5 0.5t-5 3.5t-2 4.5t0 8t0.5 9.5q0 7 3 87t3 92q0 8 -2.5 55.5t-2.5 65.5q0 12 1 15
q3 16 10 141l-56 1q-67 2 -68 2q-9 1 -21 1h-106q-18 0 -42 -2l-21 -2q-1 -6 -1 -18v-33q0 -12 -2 -28l-2 -13h22q7 0 20.5 0.5t19.5 0.5h72q22 0 53 2t40 2q20 0 20 -12q0 -13 -5 -29q-1 -11 -14 -11q-4 0 -18 0.5t-22 0.5q-6 0 -44.5 1t-48.5 1h-53q-25 0 -39 -1v-97
q0 -72 -3 -117q-2 -26 -2 -51q0 -15 0.5 -36t0.5 -23q0 -11 -5 -13t-18 -2h-69q-5 0 -7.5 1.5t-3.5 5.5t-1.5 7t-0.5 10v11q-2 16 -2 47q0 15 0.5 44.5t0.5 39.5q0 22 2 91t2 78q0 8 -2 36t-2 52q0 22 1.5 49t1.5 39v90q0 10 2 36t2 36v4q0 10 3.5 13t10.5 3q4 0 16 -1
t18 -1q19 0 65.5 2t58.5 2l109 -1q42 0 85 -1l59 -1h17h5h7l26 -1h9q6 0 6 -8q0 2 -2 -43t-3.5 -95.5t-1.5 -63.5l-1 -143q0 -6 1 -41t1 -52q0 -21 -1 -26v-7.5v-6.5v-4q0 -4 1 -5l24 -2q32 -2 53 -1q18 0 92 1t93 1q22 0 84.5 -2t67.5 -2q11 -1 11 -6q0 -1 -1 -5t-1 -6v-46
z" />
    <glyph glyph-name="f_f" unicode="ff" horiz-adv-x="768" 
d="M564 704h3h-1h-2zM758 584v-8q0 -8 -2.5 -10.5t-12.5 -2.5q-7 0 -49 3t-52 3h-79q-18 0 -42 -2l-21 -2q-1 -6 -1 -18v-121q0 -12 -2 -28l-2 -13h22q7 0 20.5 0.5t19.5 0.5h45q22 0 53 2t40 2q20 0 20 -12q0 -13 -5 -29q-1 -11 -14 -11q-4 0 -18 0.5t-22 0.5q-6 0 -44.5 1
t-48.5 1h-26q-25 0 -39 -1v-97q0 -72 -3 -117q-2 -26 -2 -51q0 -15 0.5 -36t0.5 -23q0 -11 -5 -13t-18 -2h-69q-5 0 -7.5 1.5t-3.5 5.5t-1.5 7t-0.5 10v11q-2 16 -2 47q0 15 0.5 44.5t0.5 39.5q0 39 4 163q-28 2 -47 2h-110q0 -26 1 -38q0 -11 0.5 -33t0.5 -30
q0 -17 -1.5 -49t-1.5 -49l1 -108q0 -23 -23 -23q-5 0 -23 2q-9 1 -37 1q-17 0 -43.5 -0.5t-29.5 -0.5q-5 0 -8 1l-4.5 1.5t-2.5 3.5t-1 3.5v5v5.5l-1 53q0 4 -1 30.5t-1 51.5q0 22 3 53t3 52t-0.5 56.5t-0.5 57.5q0 25 1.5 62t1.5 44q0 46 -2 128q0 30 18 30q4 0 13 -1
t15 -1q13 0 71.5 2t68.5 2q5 0 12 0.5t21.5 1t29.5 0.5q17 0 30.5 1t20.5 1.5t10 0.5h17q2 24 2 33v4q0 10 3.5 13t10.5 3q4 0 16 -1t18 -1q19 0 65 2t58 2q19 0 28 -1h55q15 0 47.5 -1t43.5 -1q18 0 18 -13q0 -2 -0.5 -7.5t-0.5 -9.5l1 -67v-20zM237 390q21 0 31 1
q8 0 22 0.5t18 0.5q47 0 81 2l-1 30q0 22 1.5 53t1.5 43v53h-13q-21 0 -42 -1l-47 -3q-26 -2 -45 -2l-3 -18q-2 -22 -2 -25q0 -10 -0.5 -29.5t-0.5 -39.5q-1 -20 -1 -41v-24z" />
    <glyph glyph-name=".notdef" 
d="M180 701q22 0 44.5 -0.5t38.5 -1t19 -0.5q36 0 76 2t56 2q27 0 39 -3q10 -3 10 -10q0 -2 -2 -8q0 -1 -3.5 -26.5t-5.5 -52.5q-7 -79 -7 -303q0 -26 -3 -116t-3 -96q0 -4 -0.5 -18t-0.5 -22q0 -15 2 -29q1 -3 1 -6q0 -4 -1 -5t-5 -2h-4q-10 -2 -36 -2q-119 0 -237 -3
q-60 0 -78 1q-17 -2 -20.5 7.5t-2.5 38.5v17q0 18 -1 165.5t-1 180.5q0 37 1 144t1 115q0 15 3.5 22t6.5 8t11 1h102zM177 652q-6 1 -16 1q-13 0 -25 -2l7 -15q28 -83 56 -124q8 -18 53 -112q45 94 53 112q28 41 56 124l6 12q-26 -2 -40 -2q-13 0 -18 1q-22 2 -29 2
q-12 2 -103 3zM394 421q0 9 -0.5 28t-0.5 27l2 112q-47 -91 -61 -127q-8 -16 -54 -119l35 -72q24 -55 73 -156v46v26v42v39q0 17 1 26q2 30 2 48q0 33 1 50zM110 378q2 -59 1 -65q-2 -32 -2 -61q0 -10 -0.5 -47t-0.5 -57q0 -35 1 -49q80 170 80 171l35 72q-46 103 -54 119
q-8 21 -52 111l-1 -20l-4 -99zM243 68q19 3 102 3h7q-23 54 -84 176q-2 4 -7 15t-9 18q-3 -7 -8.5 -18l-7.5 -15q-79 -164 -85 -179l27 -1q56 0 65 1z" />
    <glyph glyph-name=".null" horiz-adv-x="0" 
 />
    <glyph glyph-name="nonmarkingreturn" horiz-adv-x="333" 
 />
    <glyph glyph-name="space" unicode=" " horiz-adv-x="300" 
 />
    <glyph glyph-name="exclam" unicode="!" horiz-adv-x="242" 
d="M47 673q0 39 20 39q5 0 8 -1q4 0 36.5 0.5t57.5 -1.5q22 -3 22 -16q0 -3 -1.5 -10.5t-1.5 -11.5q-3 -34 -4 -63q-1 -44 -9 -169q0 -10 -0.5 -28t-0.5 -26t0.5 -22.5t0.5 -20.5q3 -39 2 -43t-1 -21q0 -16 1 -48.5t1 -38.5q1 -13 -7.5 -16.5t-22.5 -2.5h-51q-8 0 -13 2
t-7 7.5t-2.5 9t-1.5 12.5q-2 10 -2 45v40l-2 78q-1 71 -12 174q-10 99 -10 110v22zM125 123q32 0 48.5 -21.5t16.5 -45.5q0 -7 -1 -10q0 -17 -21.5 -39t-48.5 -22q-25 0 -43.5 22.5t-18.5 52.5q0 9 1 14q9 49 67 49z" />
    <glyph glyph-name="quotedbl" unicode="&#x22;" horiz-adv-x="373" 
d="M136 750q13 0 13 -23q0 -7 -2.5 -22t-2.5 -22q0 -45 -4 -76v-121q0 -45 -9 -45h-59q-8 0 -8 36v112q4 29 4 53q0 22 -4 27v54q4 16 8 21.5t15 5.5h49zM301 750q13 0 13 -23q-5 -13 -5 -44q0 -8 -2 -33.5t-2 -42.5v-130q0 -36 -8 -36h-55q-5 0 -8 0.5t-4 3.5l-1.5 4.5t0 7
t0.5 7.5v259q0 27 22 27h50z" />
    <glyph glyph-name="numbersign" unicode="#" horiz-adv-x="663" 
d="M492 515q9 0 11 11q0 1 1 4l1 6q8 64 22 102q4 24 17 18q1 0 6 1t13 1.5t17 0.5q9 -1 9 -6q0 -3 -5 -13.5t-7 -18.5q-2 -10 -7 -35.5t-8 -44t-3 -23.5q0 -8 10 -8q2 0 6.5 0.5t7.5 0.5q8 0 43 7q2 1 4 1q10 0 10 -12q-1 -1 -2 -4.5t-2 -9.5t-3 -10q-4 -15 -21 -15h-50
q-14 0 -14 -21q-7 -15 -14 -81q-25 -100 -25 -127q-2 -8 -2 -9q0 -5 13 -5q2 -2 13 -2q17 0 47 5q7 0 11 -3t4 -6t-1 -5q0 -3 -1.5 -14.5t-1.5 -17.5q-3 -8 -11 -8q-2 0 -6 0.5t-5 0.5q-5 0 -29.5 -2t-30.5 -2q-10 3 -12 -2t-2 -22v-4q-18 -100 -25 -127q0 -11 -4.5 -14.5
t-9.5 0.5q-4 0 -12 -1t-11 -1q-4 0 -12 2q-8 0 -8 7q0 4 3.5 15.5t4.5 16.5q21 119 21 124q0 2 0.5 4t0.5 3q0 3 -1 5t-3 2.5t-4 0.5t-5.5 -0.5t-5.5 -0.5q-5 1 -21 1q-9 0 -27.5 -0.5t-25.5 -0.5q-14 0 -50.5 1.5t-40.5 1.5q-2 1 -5 1q-13 0 -13 -15q0 -8 -8 -46
q-13 -69 -13 -113q0 -14 -10 -14q-2 0 -8.5 1.5t-10.5 1.5q-12 2 -24 2q-25 0 -68 -5q-16 0 -16 10q0 2 1 6t1 5q4 10 10 46q2 10 5 56t3 53q0 1 1 3q0 5 -12 5h-53q-9 0 -9 4q0 5 2 9q1 3 5 10.5t6 14.5q4 14 18 14q7 -3 34 -3q15 0 15 18q0 1 3 23t3 37q4 19 11 72t7 66
q0 5 -1 8.5t-3 4.5t-3 1h-3h-39q-11 0 -11 10q2 4 4 9t4 9q6 14 10 18q3 0 16 1.5t19 1.5q5 0 8.5 2t4.5 3.5t4 9t4 10.5q15 85 15 106q0 13 6 19.5t12.5 7.5t20.5 1h60q9 0 42 -7q13 -1 13 -9q0 -3 -1 -6t-2.5 -6.5t-2.5 -6.5q-10 -38 -14 -64q-1 -10 -4.5 -26.5
t-3.5 -19.5t1 -10q0 -5 10 -5q2 0 8.5 0.5t10.5 0.5q21 0 77 8h96zM492 444q0 4 1.5 11t1.5 10q0 11 -14 11q-10 0 -46.5 -5.5t-49.5 -5.5q-16 -2 -32 -2q-15 0 -31 2q-12 4 -27 4q-11 0 -12 -4q-2 -6 -5.5 -24t-5.5 -25q0 -14 -7 -68t-11 -63q-7 -35 -7 -39v-5
q0 -11 15 -13q10 0 57 1.5t60 1.5q21 -3 60 -3q9 0 13.5 4t7.5 17q0 1 4.5 51t9.5 63q10 60 18 81z" />
    <glyph glyph-name="dollar" unicode="$" 
d="M276 438q91 -43 142 -96.5t60 -145.5q1 -8 1 -22q0 -165 -201 -197q0 -14 4 -21v-17q-4 0 -4 -2q-1 -1 0 -2q-2 0 -5 -1.5t-4 -1.5h-28q-16 0 -22 7q-3 0 -11 8q-1 2 -1 10q0 10 1 17v3q-79 0 -142 54q-44 32 -44 51q0 13 17 35q6 6 9 6q6 0 12 -6q25 -28 66.5 -48
t85.5 -22v63q0 16 1.5 46.5t1.5 47.5v104q-15 10 -47.5 29.5t-45.5 27.5q-93 64 -93 159q0 80 70 147q45 33 103 46v12q0 19 -4 30q0 13 10 13q19 0 27 4h14q20 0 20 -20v-35q106 -13 180 -86q10 -11 10 -27q0 -12 -4 -21q-1 -13 -10 -21.5t-21 -6.5q-9 3 -29.5 26.5
t-53 46.5t-72.5 27q0 -57 3 -88q0 -72 4 -107v-26zM205 654q-65 -28 -65 -86q0 -59 68 -95v55q0 16 -1.5 38t-1.5 28v60zM278 54q26 9 50 39q18 27 18 52q0 51 -70 115v-89q2 -58 2 -81v-36z" />
    <glyph glyph-name="percent" unicode="%" horiz-adv-x="725" 
d="M583 715q2 0 8.5 1t9.5 1q12 0 7 -11q0 -24 -17 -41q-4 -8 -16 -24t-16 -25q-9 -15 -30.5 -55t-35.5 -59q-78 -123 -122 -204q-29 -44 -78.5 -132t-60.5 -106q-2 -3 -9 -21t-16 -28q-8 -8 -49 -8q-16 0 -8 8q0 5 4 13t4 12q17 34 33 49q20 33 70 120.5t77 132.5
q80 135 147 238q7 15 28 52t29 54q2 2 8.5 15t16.5 18h16zM199 273q-41 0 -66 8q-30 15 -49 33q-44 45 -57 114q-3 20 -3 39q0 47 20 109q29 72 89 98q21 6 40 6q39 0 91 -31q16 -15 33 -49q4 -8 8 -24.5t8 -24.5q9 -41 9 -106q0 -74 -9 -98q-36 -74 -114 -74zM158 371
l37 -1q20 20 20 42q3 18 3 34q0 29 -11 80q-2 2 -8.5 15t-15.5 18q-6 2 -9 2q-18 0 -32 -26q-11 -22 -11 -62q0 -10 1 -28t1 -25q0 -13 7 -28t18 -21zM696 272q7 -47 7 -82q0 -38 -5 -64q-18 -67 -41 -90q-22 -21 -38.5 -31t-43.5 -13q-6 0 -48 5q-58 9 -99 80
q-25 59 -25 131q0 77 33 130q17 29 46.5 48t61.5 19q10 0 15 -1q30 0 60 -18t48 -43q16 -24 29 -71zM608 142q4 15 4 34q0 14 -2.5 39.5t-2.5 33.5q0 26 -9.5 49.5t-30.5 23.5q-29 0 -47.5 -23.5t-18.5 -50.5q-6 -30 -6 -61q0 -29 6 -61q0 -19 15.5 -38t33.5 -19q15 0 25 6
t16.5 19.5t9.5 21.5t7 26z" />
    <glyph glyph-name="ampersand" unicode="&#x26;" horiz-adv-x="580" 
d="M553 83q10 -8 10 -22q0 -7 -6 -12q-2 -1 -6.5 -6.5t-14.5 -10.5q-6 -7 -12 -7q-5 0 -10 3.5t-10.5 10.5t-6.5 8q-3 2 -8.5 9t-8.5 10l-11 13q-20 -21 -51 -40q-68 -39 -150 -39q-51 0 -93.5 15t-64.5 37q-61 47 -61 167q0 56 52 116q23 27 53 50q-25 19 -44 47
q-44 61 -44 145q0 44 14.5 76.5t32 47.5t43.5 23.5t39 9.5t28 1q63 0 106.5 -46t43.5 -129q0 -70 -53 -139q-21 -28 -52 -54l78 -78q10 -7 69 -66l48 -53l10 15q12 21 17 38q7 22 7 52q0 29 1.5 35.5t9.5 9.5q12 4 22 4q8 0 16.5 -7t9.5 -16q1 -8 1 -13q0 -1 -0.5 -4
t-0.5 -10.5v-19.5q0 -28 -26 -78q-9 -20 -26 -45l21 -21zM128 595q0 -33 1 -49.5t9 -39t25 -42.5q10 -10 20 -21t13.5 -14.5t8 -6t10.5 -2.5q19 0 62 47t43 93q0 54 -25.5 88t-70.5 34q-32 0 -64 -23t-32 -64zM416 104q3 4 3 9q0 7 -20 27q-118 118 -131 140q-6 5 -21.5 22
t-28 28t-20.5 11q-6 0 -28.5 -17.5t-45.5 -50t-23 -63.5q-3 -45 13 -79q38 -79 145 -79q34 0 60.5 3.5t41.5 7.5t26.5 11.5t15.5 11.5t9 11z" />
    <glyph glyph-name="quotesingle" unicode="'" horiz-adv-x="205" 
d="M141 746q14 0 14 -22q-1 -15 -1 -40q0 -7 -2 -31t-2 -40l-1 -121q0 -30 -9 -33t-28 -3q-11 0 -31 2q-15 3 -15 25v238q0 25 25 25h50z" />
    <glyph glyph-name="parenleft" unicode="(" horiz-adv-x="370" 
d="M310 730q16 0 16 -6q0 -7 -19 -21q-12 -8 -24.5 -18t-36 -39t-40 -63.5t-29.5 -92.5t-13 -125q0 -65 18 -130t38.5 -106.5t51.5 -84t41.5 -53.5t23.5 -24q7 -7 7 -12t-10 -5q-8 0 -34.5 -4t-37.5 -4q-38 0 -57 14l-15 9q-16 9 -28.5 21t-32.5 33.5t-35.5 56t-30.5 80
t-23 113t-8 147.5q0 61 13.5 113t34.5 86t40.5 57.5t37.5 39t20 18.5q5 8 15 8q6 0 18 -4t17 -4h82z" />
    <glyph glyph-name="parenright" unicode=")" horiz-adv-x="383" 
d="M148 743q5 0 17.5 4t18.5 4q10 0 17 -8q1 -1 28.5 -28t52 -58.5t47 -97t22.5 -142.5q0 -384 -174 -475q-4 -2 -5 -3q-20 -14 -59 -14q-11 0 -38 3.5t-36 3.5q-11 0 -11 5t8 13q1 1 17 19t34.5 41t42 62t41.5 80.5t31 98t13 113.5q0 85 -18.5 154.5t-47.5 109.5t-47 58
t-35 29q-20 15 -20 22q0 6 17 6h84z" />
    <glyph glyph-name="asterisk" unicode="*" horiz-adv-x="518" 
d="M255 615q5 0 8.5 6t8 17.5t6.5 16.5q1 6 10 21.5t20 33t14 22.5q6 13 15 13q4 0 14 -5q13 -13 53 -28q12 -4 12 -13q0 -4 -2 -8.5t-5.5 -10t-4.5 -8.5q-6 -15 -24 -48t-25 -41q-12 -12 12 -13q10 -1 24 1h84q19 0 19 -12q0 -4 -2 -8v-65q0 -13 -20 -13q-7 0 -12 1
q-10 0 -51 -1.5t-50 -1.5q-11 -3 -11 -8t16 -25q1 -2 13 -22l22.5 -37.5t16.5 -24.5q2 -3 2 -8q0 -10 -14 -17q-36 -22 -57 -32q-6 -2 -8 -2q-5 0 -8 2.5t-7.5 10.5t-5.5 9q-13 29 -31 52q-16 37 -25 37q-3 0 -5 -4t-4.5 -12t-5.5 -13q-26 -52 -37 -67q-6 -10 -19 -10
q-11 0 -17 5q-9 5 -31.5 12.5t-29.5 11.5q-9 8 -9 13q0 2 1 4.5t2 5.5l2 6q2 4 10 14.5t15 21.5q5 10 18 30q21 36 11 38q-3 0 -11.5 -1t-13.5 -1t-13 2q-7 0 -38.5 -4t-41.5 -4q-16 0 -16 36q0 6 -2 28t-2 33q0 5 1.5 8t4 5t7 2.5t7 0.5h8.5h8h77q16 0 16 4l-8 12
q-6 24 -25 49q-18 29 -23 48q-8 15 23 30q1 1 2 1.5t2 0.5l45 28q4 4 7 4q5 0 13 -12q4 -4 9 -13t11.5 -22t11.5 -21q2 -4 9.5 -18.5t11.5 -21.5z" />
    <glyph glyph-name="plus" unicode="+" 
d="M198 489q-2 10 -2 35q0 47 7 57q9 3 17 3q5 1 50 1q6 1 10 -0.5t6.5 -5t4 -7t2 -9.5t0.5 -9.5v-9.5v-8q0 -4 0.5 -20t0.5 -26q2 -34 2 -42q0 -10 0.5 -24t0.5 -20q0 -14 -1 -23v-9q0 -9 2 -14q0 -2 25 -4h39q27 4 99 4q26 0 26 -28v-52q0 -22 -26 -22h-149
q-11 -4 -11 -20q0 -4 0.5 -12t0.5 -13l1 -65q1 -7 1 -36q1 -17 1 -38q0 -39 -20 -45q-3 0 -27.5 2t-35.5 2q-23 0 -23 35v169q0 19 -23 19q-10 0 -24 -3q-7 0 -53.5 -2t-57.5 -2q-12 0 -15 3.5t-3 16.5q-2 8 -4 26t-4 27q-4 38 20 38q3 0 20 0.5t28 0.5q19 0 27 -1
q9 0 38.5 -1.5t35.5 1.5q4 1 6.5 2.5t4 4.5t2.5 6t1 8v9v11v12v78z" />
    <glyph glyph-name="comma" unicode="," horiz-adv-x="183" 
d="M156 130q12 0 12 -7q0 -3 -3 -9q-5 -20 -9 -32q-1 -6 -8 -25t-11 -32q-6 -15 -16 -53t-10 -43q-1 -1 -3.5 -7t-5.5 -11t-6 -7q-6 -2 -28 -2q-23 0 -33 2q-5 0 -7.5 1t-3.5 3t-1.5 4t0 6t0.5 6l24 88l17 61l13 38q5 19 28 19h51z" />
    <glyph glyph-name="hyphen" unicode="-" 
d="M430 317q5 0 7 -2t2.5 -3.5t0 -6t-0.5 -5.5v-52q0 -8 -11 -8q-2 0 -7 0.5t-8 0.5q-2 0 -27.5 -1.5t-40.5 -1.5q-5 0 -13.5 -0.5t-28 -1t-44.5 -0.5h-43.5t-28 -0.5t-12.5 -0.5q-9 -2 -33 -2q-14 0 -35 1t-25 1q-6 0 -9.5 0.5t-5.5 1t-2.5 2.5t-1 3t0 4t0.5 5q0 4 -1.5 19
t-2.5 24.5t0 15.5q0 6 11 6q3 0 15 -2h72q20 0 34 1q30 2 98 2h140z" />
    <glyph glyph-name="period" unicode="." horiz-adv-x="235" 
d="M118 136q76 0 76 -89q0 -24 -23.5 -41.5t-52.5 -17.5q-30 0 -51 20.5t-21 59.5q0 68 72 68z" />
    <glyph glyph-name="slash" unicode="/" horiz-adv-x="329" 
d="M322 709q5 -1 5 -14q0 -23 -12 -50q-58 -153 -64 -175q-7 -20 -40.5 -122t-42.5 -122q-76 -211 -78 -225q-2 -11 -6 -17.5t-5.5 -7.5l-10.5 -7q-7 -8 -23 -8q-11 0 -27 4t-16 11q0 2 2 10q3 4 14 29q3 9 20 54.5t34 95t25 79.5q13 38 55 153t45 123q27 56 46 140
q15 46 33 53q34 0 46 -4z" />
    <glyph glyph-name="zero" unicode="0" 
d="M248 4q-93 5 -118 18t-53 64q-27 50 -38 95q-9 44 -9 193q0 188 43 258q29 45 73 66q46 22 131 23q110 -16 145 -78t41 -133q6 -70 6 -163q0 -96 -13 -171q-12 -79 -66.5 -125.5t-141.5 -46.5zM268 663q-30 0 -67 -21q-36 -19 -56 -59q-18 -36 -18 -78q0 -13 1 -57.5
t1 -76.5l2 -97q3 -82 31 -116q40 -48 50 -62q21 -28 68 -28q29 0 60.5 21.5t54.5 61.5q22 37 22 95q0 26 -1 60.5t-1 42.5q2 76 2 100q0 59 -4 88q-8 61 -25 91q-18 32 -52 35q-22 2 -34 2q-10 0 -34 -2zM281 416q51 0 51 -65q0 -18 -16 -30.5t-35 -12.5q-20 0 -34.5 15
t-14.5 43q0 50 49 50z" />
    <glyph glyph-name="one" unicode="1" 
d="M102 559q-32 -7 -38 -7q-11 0 -11 5q-3 5 -3 12q-1 39 2 51q4 10 26 19q98 5 211 61q13 4 25 4q23 0 23 -13q0 -3 -3 -120l-6 -92v-70l3 -61q2 -32 2 -88q1 -11 1 -51t1.5 -76.5t5.5 -55.5q119 -5 119 -14l3 -43q2 -21 -25 -20q-54 2 -73 4q-17 2 -56 4q-48 -3 -129 -6
q-6 0 -19 0.5t-20 0.5q-35 0 -79 -3q-10 0 -15 29v9q0 22 12 25q61 8 111 20q49 -1 49 22q1 16 1 43q0 32 -1 57v90q1 49 -2 94q0 9 -0.5 25t-0.5 25t0.5 26t0.5 25l3 97z" />
    <glyph glyph-name="two" unicode="2" 
d="M276 720q69 0 113 -46.5t44 -107.5q0 -14 -2 -29t-4 -25.5t-8 -25.5t-8.5 -22t-11.5 -22.5t-11 -19t-12.5 -20t-10.5 -17.5q-13 -21 -56 -79t-80 -106t-40 -51q-7 -7 -9 -10t1 -5h16q16 -1 29 -1q23 0 35 1q125 0 176 4q9 1 15.5 0t9.5 -2.5t4.5 -6t2 -6.5t0 -8t-0.5 -8
v-20v-29.5v-26.5q0 -19 -8 -23.5t-31 -4.5q-7 0 -49 -1t-65 -1q-29 0 -38 1q-7 0 -67 0.5t-91 0.5q-49 0 -54 -1q-4 -1 -14 -1q-19 0 -19 11q0 9 24 38q5 6 72 91t91 114q4 5 22 26l27 31.5t26 33t27.5 39.5t23.5 41t23 48q11 28 11 56q0 50 -32.5 83t-70.5 33
q-57 0 -121 -26q-15 -7 -42 -37l-27 -30q-4 -2 -5 -2t-9 6q-2 2 -8.5 6t-8.5 6q-6 6 -1 13q18 24 49 56q21 21 79 51.5t94 30.5z" />
    <glyph glyph-name="three" unicode="3" 
d="M128 706q20 0 66 4t74 4q32 0 85 -1t55 -1q9 0 10.5 -9t1.5 -36l-1 -123q0 -6 -1 -10.5t-5.5 -9t-6.5 -7t-10.5 -9t-12.5 -9.5q-27 -19 -105 -79q-4 -4 -15 -13t-17 -14q-2 -2 -10 -8t-13 -9q-12 -8 -12 -13q0 -4 3 -4h40q60 0 109 -7q12 -2 27 -8.5t35.5 -21.5
t33.5 -46.5t13 -73.5q0 -45 -12 -78q-1 -2 -4.5 -12t-4.5 -13t-4 -11.5t-5 -11.5t-5.5 -10.5t-6.5 -11.5l-7.5 -10t-9.5 -10.5t-11 -9.5t-13 -10q-38 -22 -62 -30q-34 -13 -127 -13q-26 0 -52 14t-43.5 33.5t-33 43t-22.5 38t-11 24.5q-5 9 -5 16q0 4 8 9q1 2 21 11q2 1 5 1
q8 0 11 -14q0 -1 5 -15t12.5 -31t18.5 -33q42 -64 136 -64q21 0 44.5 6t37 12t30.5 15l17 9q20 11 41.5 54.5t21.5 101.5q-4 64 -45 98q-30 25 -106 25q-31 0 -108 -11q-26 -4 -45 -4h-2q-6 0 -7 6q-1 5 -1 19q0 2 0.5 3.5t2.5 3.5t4 3.5t6 5t8 6.5q18 18 178 146q4 4 4 7
q0 7 -41 7q-9 0 -108 -2t-109 -2q-5 0 -8 1.5t-4.5 3t-2 6t-0.5 7v8.5v9q0 4 0.5 37t0.5 55q0 11 -0.5 28t-0.5 22q0 20 24 20q7 0 22.5 -2t23.5 -2z" />
    <glyph glyph-name="four" unicode="4" 
d="M367 721q5 0 9 2q6 -1 16 -2t11.5 -2.5t4 -6.5t2.5 -17q0 -1 -3.5 -100.5t-3.5 -264.5q0 -22 3 -28.5t11 -6.5q1 0 17.5 1.5t25.5 1.5q5 0 6.5 -5t1.5 -15t1 -14q0 -2 1 -4v-1q0 -11 -10 -11h-5q-3 0 -15 -1t-20 -1q-18 0 -18 -25v-5q-1 9 -1 15q-4 0 -4 -196v-10
q0 -7 -2.5 -11.5t-9.5 -6t-10.5 -2t-12.5 0t-10 0.5q-8 0 -10 5.5t-2 30.5v48q5 102 5 129t-22 27q-3 0 -43 -2.5t-64 -2.5q-9 0 -22.5 1t-23.5 1q-23 0 -67 -2t-51 -2q-23 0 -23 25q0 14 2 21.5t6.5 13t19 24.5t31.5 44q15 23 25.5 36t38 47t71.5 94q32 45 57.5 83
t37.5 55.5t15 21.5q12 17 27 17h7zM346 500q0 9 0.5 41t1 58.5t0.5 24.5q0 6 1.5 18t1.5 19q0 1 -0.5 1t-0.5 1v1q-2 0 -57 -88l-66 -92q-24 -33 -40.5 -54.5t-27 -34t-15.5 -18.5q-13 -20 -26.5 -35t-21 -20.5t-12 -12.5t-4.5 -16q0 -7 5 -7q1 0 8 2t16 2q6 0 24 -1t27 -1
q3 0 17.5 1t38.5 1.5t50 0.5h52q18 0 22 19.5t4 94.5v45z" />
    <glyph glyph-name="five" unicode="5" 
d="M133 387q26 24 43 32q53 27 116 30q151 -7 177 -135q6 -50 4 -72q-1 -17 -6 -40q-1 -3 -4 -21t-5 -27.5t-7.5 -30t-11 -33t-15 -31.5t-20.5 -31.5t-27 -26.5t-34 -22t-42 -13.5t-52 -5.5q-55 0 -96 17.5t-61.5 41t-33 58t-14.5 58t-3 51.5t-1 30q-2 10 -2 26q0 28 13 28
q4 0 27.5 0.5t38.5 0.5q14 0 17 -5t3 -19q0 -12 1 -19q3 -23 27 -39.5t66 -16.5q39 0 83 38q21 19 26 35t5 51q-8 64 -64 68q-45 -3 -69 -11t-42 -23q-20 -16 -30 -15q-27 0 -60 1h-32q-10 0 -10 33q0 8 2.5 28.5t2.5 30.5q2 21 -2.5 133t-4.5 133q0 45 46 45q6 0 16.5 -1
t14.5 -1q22 0 68 2t59 2q12 1 46 1q27 0 78.5 -1t64.5 -1q34 0 34 -23q0 -2 -0.5 -8t-0.5 -9q0 -10 -2 -47.5t-2 -49.5q0 -21 -30 -21q-9 0 -29 2q-6 1 -29 1q-30 0 -102 -2t-86 -2q-28 0 -37 -9.5t-9 -27.5q0 -9 -2 -65q0 -24 -1 -31v-41z" />
    <glyph glyph-name="six" unicode="6" 
d="M303 382q68 0 124 -42.5t56 -117.5q0 -71 -19 -122.5t-43.5 -76t-63 -38.5t-61.5 -16t-56 -2q-32 0 -68 20t-72 60.5t-60 116.5t-24 173t25.5 172t63.5 114.5t75 58.5t67 19q37 0 70.5 -15t54.5 -34t39.5 -45.5t25 -39t12.5 -26.5q4 -10 4 -14q0 -19 -26 -30
q-16 -8 -103 -72q-7 -4 -14 -4q-14 0 -14 17q-1 1 -4.5 9t-7.5 13.5t-16.5 10.5t-31.5 5q-38 0 -48 -74q-5 -37 -5 -73q10 15 28 26q42 27 92 27zM252 137q24 0 37.5 29t13.5 60q0 22 -18 36t-32 14q-23 0 -40.5 -20t-17.5 -46q0 -28 15 -50.5t42 -22.5z" />
    <glyph glyph-name="seven" unicode="7" 
d="M296 413q17 24 40 62q27 39 59.5 92t32.5 57q0 3 -4 3q-2 0 -9.5 -2t-12.5 -1q-33 3 -68 3q-29 0 -128.5 -9.5t-117.5 -12.5q-10 -2 -14 -2q-17 0 -17 16q0 3 0.5 11.5t0.5 13.5q0 10 -1 14v2q0 15 19 17q3 0 42 2t62 2q16 0 64.5 2t69.5 2q20 0 27 -1q22 -2 43 -2
q24 0 61.5 1.5t40.5 1.5q4 0 6.5 -1.5t3.5 -4.5l2 -6t1 -8v-9v-10v-10q0 -11 -5.5 -25t-10.5 -21.5t-22 -32.5q-22 -28 -102 -144h72q20 2 25 -4.5t5 -23.5v-75q0 -12 -7.5 -16.5t-29.5 -4.5h-50l-36 3q-14 2 -31 2q-4 0 -14.5 -0.5t-16.5 -0.5q-22 -33 -82 -133.5
t-61 -101.5q-7 -12 -19 -31.5t-18.5 -30.5t-10.5 -13q-1 -1 -4 -1t-5.5 2.5l-7.5 7.5t-10 8q-7 4 -7 11q0 6 16 30l93 155q11 23 59 97h-13q-60 0 -86 -6q-13 0 -13 23v70q0 33 19 33h170z" />
    <glyph glyph-name="eight" unicode="8" 
d="M364 392q31 -16 58 -44q58 -62 58 -146q0 -96 -67.5 -152t-171.5 -56q-110 0 -165.5 49.5t-55.5 135.5q0 85 95 164q42 33 96 57l-10 10q-1 1 -27 25q-3 2 -17 10.5t-22.5 17t-19.5 23.5t-17 38t-6 54q0 75 57.5 114.5t123.5 39.5q23 0 49.5 -7t56 -22.5t49 -47
t19.5 -74.5q0 -75 -42 -141q-16 -28 -41 -48zM142 595q0 -70 64 -128q28 -25 66 -42q29 13 55 33q55 45 55 94q0 61 -30.5 97t-86.5 36q-39 0 -81 -27t-42 -63zM273 35q63 0 108.5 55.5t45.5 111.5q0 76 -74 126q-33 24 -73 37q-57 -23 -102 -51q-43 -26 -72 -63.5
t-29 -80.5q0 -37 12.5 -63t30 -39.5t46 -21.5t51.5 -9.5t56 -1.5z" />
    <glyph glyph-name="nine" unicode="9" 
d="M250 717q52 0 94.5 -30.5t66.5 -74.5t40.5 -97.5t22 -94t5.5 -69.5q0 -170 -39 -237q-16 -30 -29 -49t-36.5 -45t-54.5 -39t-69 -13t-69.5 12.5t-55.5 36.5t-37 42.5t-31 47.5q-15 26 -15 45q0 15 9 22.5t17 7.5q6 0 19 1.5t24 1.5q13 0 21.5 -7.5t16 -18.5t18 -21.5
t32 -18t52.5 -7.5q71 0 91 94q11 41 9 95q-20 -23 -41 -41q-49 -41 -79 -41q-17 0 -29 0.5t-35.5 4.5t-41 11.5t-38.5 23.5t-34.5 37.5t-23 56.5t-9.5 78q0 65 17.5 117t43 83t58 51t59.5 27.5t51 7.5zM334 430v5q0 21 -0.5 34.5t-6.5 37.5t-16.5 38.5t-33 26t-53.5 11.5
q-37 0 -71 -34t-34 -94q0 -61 33 -90.5t74 -29.5q35 0 69.5 30.5t38.5 64.5z" />
    <glyph glyph-name="colon" unicode=":" horiz-adv-x="244" 
d="M122 313q-36 0 -59 28t-23 58q0 29 22.5 52.5t56.5 23.5q31 0 53.5 -22t22.5 -54q0 -34 -18 -60t-55 -26zM122 147q84 0 84 -99q0 -26 -24.5 -44.5t-54.5 -18.5q-33 0 -56 22.5t-23 64.5q0 41 22 58t52 17z" />
    <glyph glyph-name="semicolon" unicode=";" horiz-adv-x="231" 
d="M153 433q28 0 48.5 -20t20.5 -50q0 -31 -16.5 -55.5t-48.5 -24.5q-33 0 -55 26.5t-22 53.5q0 28 20.5 49t52.5 21zM161 144q6 0 11.5 -4.5t5.5 -10.5q0 -4 -3 -10q-1 -5 -5 -21.5t-6 -22.5q-1 -7 -8 -22t-11 -29q-29 -94 -29 -110q-9 -22 -21 -25q-7 -3 -22 -3
q-13 0 -33 3q-10 0 -16 14t-6 25l26 81l32 113q6 22 33 22h52z" />
    <glyph glyph-name="less" unicode="&#x3c;" 
d="M229 158q-15 14 -37 32q-70 61 -101 83q-58 38 -54 65q-1 11 46 57q55 53 79 75q20 20 55.5 45t49.5 41q6 7 15 18.5t14 17.5t11 12.5t11 9.5t9 3h54q43 1 58 -3q18 -4 18 -17q0 -3 -2 -9q-28 -43 -70 -79q-26 -23 -40 -39l-52 -52q-34 -31 -53 -43q-21 -15 -41 -40
q15 -19 34 -38q11 -10 49 -48t56 -52q24 -18 50 -47q16 -17 30 -31.5t21.5 -21t8.5 -8.5q6 -9 6 -15q0 -8 -9 -11q-1 0 -6 -0.5t-16 -0.5h-27h-31.5t-25.5 -0.5t-12 -0.5q-5 0 -9.5 4t-13.5 15t-15 17q-14 15 -32 32z" />
    <glyph glyph-name="equal" unicode="=" 
d="M321 472q31 0 77 2t54 2q15 0 19.5 -4t6.5 -18q0 -4 0.5 -17.5t0.5 -22.5q0 -24 -3 -31t-11 -7q-3 0 -11.5 1t-15.5 1h-129q-42 0 -74 2q-8 1 -34.5 3t-32.5 4q-11 0 -62 -2.5t-61 -2.5q-3 -1 -7 -1q-11 0 -16 22q-1 5 -1 15q0 4 0.5 14.5t0.5 17.5q0 24 17 24q4 0 14 -2
h268zM433 228q2 0 5.5 0.5t5.5 0.5q10 0 15 -3.5t5 -6v-11.5v-44q0 -10 -7 -13.5t-30 -3.5q-15 0 -69.5 2t-74.5 2h-149q-72 0 -89 -4q-13 0 -13 17v40q0 24 19 24h382z" />
    <glyph glyph-name="greater" unicode="&#x3e;" 
d="M220 129q-12 -12 -28.5 -31t-26 -28t-14.5 -9l-49 1q-6 0 -16.5 0.5t-12.5 0.5q-9 3 -9 11q0 6 6 15q1 2 8.5 9t21.5 21t29 31q29 30 51 47q57 45 104 111q19 19 34 38q-20 26 -42 40q-19 13 -52 43l-20 20l-19.5 19.5l-12.5 12.5q-15 18 -41 39q-17 15 -37.5 37
t-30.5 31q-2 6 -2 9q0 13 18 17q11 3 42 3h30q4 0 9 -3t11 -9.5t11 -12.5t14 -17.5t15 -18.5q14 -16 49.5 -41t55.5 -45q32 -28 78 -75q48 -45 47 -57q2 -16 -14 -32q-18 -18 -40 -33q-31 -22 -101 -83q-27 -21 -38 -32z" />
    <glyph glyph-name="question" unicode="?" horiz-adv-x="396" 
d="M247 723q53 0 92 -54t39 -143q0 -49 -28.5 -96.5t-60.5 -79.5q-40 -39 -40 -108q0 -38 -7 -51q-5 -18 -19 -24q-28 -8 -36 -8q-16 0 -28 11q-21 9 -21 17q-3 12 -3 28q0 10 1.5 36.5t1.5 41.5q0 33 51 103t53 75q17 31 17 58q0 28 -19 47q-33 27 -63 27q-12 0 -29 -5
q-20 -9 -57 -42q-4 -3 -11 1.5t-22.5 20t-21.5 20.5q-2 2 -5 6t-7 10t-4.5 10t2.5 7q29 32 58 51q40 26 70.5 33.5t96.5 7.5zM185 123q32 0 48.5 -21.5t16.5 -45.5q0 -7 -1 -10q0 -17 -21.5 -39t-48.5 -22q-25 0 -43.5 22.5t-18.5 52.5q0 9 1 14q9 49 67 49z" />
    <glyph glyph-name="at" unicode="@" horiz-adv-x="745" 
d="M443 143q-38 -46 -113 -46t-116.5 62.5t-41.5 137.5q0 62 34.5 114t59.5 61q1 0 32 13t58 21t48 8q37 0 86 -7.5t65 -18.5q14 -8 14 -25q0 -7 -2.5 -22t-3.5 -20q-1 -12 -11 -73t-12 -77q-1 -6 -1 -19q0 -66 39 -66q33 0 52 44t19 130q0 158 -128 209q-45 20 -117 20
q-77 0 -143 -20q-22 -9 -38 -17.5t-40.5 -30t-40 -48t-27.5 -72.5t-12 -104q0 -57 20 -106.5t49.5 -81.5t63 -55.5t60.5 -33.5t42 -10q67 0 112 16q51 17 74 51q8 6 12 6q5 0 16 -9q4 -2 16 -14.5t18 -16.5q8 -10 8 -12q0 -5 -8 -13q-11 -11 -68 -37.5t-83 -26.5
q-6 0 -28.5 -0.5t-37.5 -0.5q-98 0 -136 16q-51 20 -118 115q-3 4 -15.5 20t-20 29.5t-18 37t-15.5 56.5t-5 74q0 67 23.5 132.5t44.5 96.5t37 47q13 13 38 29t76.5 33.5t105.5 17.5q140 0 212 -46q44 -24 86 -91t42 -114t-7.5 -116t-15.5 -93q-5 -12 -6 -15t-7.5 -15.5
t-13.5 -18t-17.5 -13.5t-26 -11.5t-34.5 -3.5q-48 0 -73 44q-12 22 -16 45zM486 386q5 15 7 33q1 6 1 18q-7 5 -23 10q-32 10 -77 10q-58 0 -101 -41t-43 -102q0 -65 25.5 -102.5t67.5 -37.5q40 0 82 33.5t49 58.5q4 18 7 64t5 56z" />
    <glyph glyph-name="A" unicode="A" horiz-adv-x="507" 
d="M36 69q1 3 4 12.5l6 19t4 17.5q5 24 19 73q31 107 32 115q4 16 14 50t12 45q2 8 27 103q19 62 23 70q29 87 31 98q7 24 14.5 36t20.5 12q1 0 2.5 -0.5t3 -2.5l3 -4t3 -5t2.5 -5.5t3 -7t3 -8t3.5 -8.5t3.5 -9q5 -11 12.5 -38t15 -53.5t8.5 -31.5q2 -10 26 -78.5t26 -74.5
q2 -5 25 -66.5t29 -76.5q35 -106 41 -128q4 -14 40 -109q3 -7 3 -10q0 -4 -11 -4h-56q-8 0 -11 9q-4 11 -11 36q-9 25 -12 45q-9 43 -21 68q-9 19 -16 43l-9 29q-3 8 -5.5 11.5t-4.5 4t-6 0.5q-21 0 -31 -1q-34 -2 -43 -2q-8 -1 -74 -1h-61h-2q-6 0 -9 -11l-2 -10l-4 -19
q-3 -8 -12.5 -53t-10.5 -49q-2 -20 -9 -33l-10 -32q-3 -8 -7 -26q-8 -8 -11 -9h-20q-9 0 -5 13q0 3 1 5l1 5q1 5 3 9zM306 311q13 0 13 7q0 4 -7 22q-4 9 -17.5 54t-18.5 59q-28 84 -35 124q-15 53 -20 53q-1 0 -16 -49q-16 -69 -38 -136q-15 -74 -33 -120q-2 -6 -2 -7
q0 -4 2 -6t5.5 -3t6.5 -1h8h6q5 0 28 1t30 1q12 2 34 2q11 0 30.5 -0.5t23.5 -0.5z" />
    <glyph glyph-name="B" unicode="B" horiz-adv-x="512" 
d="M302 348q16 -6 28.5 -11t44 -24.5t52.5 -41.5t38.5 -59.5t17.5 -81.5q0 -136 -229 -134h-6q-21 0 -84.5 -1.5t-73.5 -1.5q-28 0 -28 38l1 222v48q0 38 3 69q1 27 2.5 124.5t3.5 112.5q1 8 1 28q0 35 -3 50q-1 2 -1 5q0 6 11 9q10 3 53 8.5t78 5.5q45 0 78.5 -7t64 -25.5
t47 -56.5t16.5 -93q0 -96 -58 -150q-25 -23 -57 -33zM193 399q0 -9 -1 -18t-1 -11q0 -9 7 -9q5 0 16.5 1.5t34 6t44 16t42 28t33 45.5t12.5 65q0 55 -14.5 89.5t-44.5 49t-55.5 18.5t-68.5 4l-2 -64q-2 -72 -2 -107v-114zM224 15q98 0 147 31.5t49 84.5q0 134 -115 182
q-51 19 -115 18q-1 -3 -1 -8q-1 -5 -1 -23q0 -12 2 -61t2 -57q0 -9 -1 -21t-1 -25t2 -55t2 -50q0 -5 1 -8t2.5 -5t5 -2.5t5.5 -0.5h7.5h8.5z" />
    <glyph glyph-name="C" unicode="C" horiz-adv-x="528" 
d="M467 134q3 -1 8.5 -3.5t8 -4t5.5 -3.5t4.5 -4t1.5 -5q0 -5 -3 -11q-8 -14 -19 -27.5t-35 -36.5t-62 -37t-83 -14q-101 0 -178.5 106.5t-77.5 259.5q0 149 72.5 249.5t161.5 100.5q39 0 72 -10.5t54.5 -27t32.5 -27.5t18 -21q11 -15 11 -21t-11 -16q-46 -36 -66 -63
q-20 -26 -31 -26q-7 0 -16 10q-1 2 -6.5 8t-7.5 7.5t-6.5 6.5t-7 7t-7 5t-8 4.5t-8 2.5t-9.5 1q-41 0 -74.5 -52t-33.5 -163q0 -57 14 -98.5t35 -60.5t38.5 -27.5t30.5 -8.5q31 0 70 39q12 12 15 12q5 0 12 -4z" />
    <glyph glyph-name="D" unicode="D" horiz-adv-x="577" 
d="M171 698q42 2 68 2q32 0 67.5 -8.5t79 -34.5t77 -66t56.5 -112t23 -164q0 -62 -16 -112t-40 -82t-57.5 -55.5t-63 -35t-62 -18.5t-49.5 -8.5t-30 -1.5q-21 0 -73 -1t-63 -1q-19 0 -19 34q0 5 0.5 13.5t0.5 12.5q0 12 -1.5 48.5t-1.5 46.5q0 3 -2.5 52t-2.5 96
q0 39 4 103.5t4 104.5q0 48 -1 107.5t-1 62.5q0 6 4 9.5t13 4.5t15.5 1.5t19 0t15.5 -0.5zM241 214q27 13 50 36q50 48 50 114q0 63 -48 101q-21 16 -47 24q2 -22 2 -34q0 -18 -2 -53.5t-2 -51.5q0 -26 -2 -84q-1 -17 -1 -52z" />
    <glyph glyph-name="E" unicode="E" horiz-adv-x="525" 
d="M63 232q0 28 3.5 71t3.5 84t-2.5 78.5t-2.5 65.5q0 63 3 147q0 22 19 22q3 0 8 -0.5t7 -0.5q4 0 28 -1.5t50 -1.5q22 0 76.5 4.5t73.5 4.5q23 0 63.5 -2t47.5 -2q13 0 17 -6t4 -22q0 -9 2 -34t2 -42q0 -20 -3 -37q-1 -15 -14 -15q-4 0 -12 2.5t-10 2.5q-15 3 -87 3
q-12 0 -38 1t-38 1q-18 0 -27 -1q-30 -2 -53 -2q-14 0 -33 0.5t-20 0.5q-8 0 -9 -3.5t-1 -16.5q0 -6 -1.5 -41t-1.5 -55v-59q0 -21 1 -32q8 -1 27 -1q17 -1 70 -1q20 0 58 2t48 2q14 0 29.5 -1.5t19.5 -1.5q13 0 13 -12q0 -2 -1 -11t-1 -20q0 -9 0.5 -24.5t0.5 -28.5
q0 -16 -9 -16q-2 0 -8 1.5t-10 1.5q-2 0 -32.5 1t-67.5 1q-28 0 -55 -2t-43.5 -4t-19.5 -2q-11 0 -13 1q-5 0 -6 1v-100q7 0 11 1q3 0 12.5 0.5t15.5 0.5q9 0 51 0.5t67 0.5q16 0 60.5 -1t65.5 -1q10 0 24.5 0.5t17.5 0.5q20 0 20 -21q0 -3 -0.5 -10t-0.5 -10
q0 -9 -0.5 -31.5t-0.5 -38.5q0 -7 -1.5 -11.5t-3.5 -7t-7.5 -3t-8.5 -1t-12.5 0t-14.5 0.5q-15 0 -83 1t-93 1q-28 0 -92 -2t-66 -2q-1 0 -3 -0.5t-3 -0.5q-8 0 -8 17q-1 11 -1 37q0 5 -1 18t-1 25v137z" />
    <glyph glyph-name="F" unicode="F" horiz-adv-x="476" 
d="M237 342q0 -26 1 -38q0 -11 0.5 -33t0.5 -30q0 -17 -1.5 -49t-1.5 -49l1 -118q0 -23 -23 -23q-5 0 -23 2q-9 1 -37 1q-17 0 -43.5 -0.5t-29.5 -0.5q-5 0 -8 1l-4.5 1.5t-2.5 3.5t-1 3.5v5v5.5l-1 53q0 4 -1 35.5t-1 56.5q0 21 3 52t3 53q0 21 -0.5 56.5t-0.5 57.5t1.5 67
t1.5 69q0 56 -2 138q0 30 18 30q4 0 13 -1t15 -1q12 0 71 2t69 2t56 3t57 3l84 -1q23 0 23 -15v-50q0 -9 -3.5 -10.5t-14.5 -1.5q-3 0 -35 1t-52 1q-38 0 -74 -4l-49 -3l-3 -18q-2 -22 -2 -35q0 -10 -0.5 -39.5t-0.5 -49.5q0 -10 -0.5 -27t-0.5 -24v-24q21 0 31 1
q9 0 26 0.5t22 0.5q12 0 40 1t39 1q27 0 27 -17q0 -6 -0.5 -17t-0.5 -16q0 -8 -4.5 -11t-18.5 -3q-8 0 -33 1t-37 1h-93z" />
    <glyph glyph-name="G" unicode="G" horiz-adv-x="592" 
d="M342 294q-24 4 -35 5q-19 2 -19 14q0 7 8 39q3 11 7 16t8 5h10q2 0 15 -2t31 -4l36 -4q13 -2 62.5 -9t67.5 -8q17 -1 23 -18q2 -10 1 -17q-6 -95 -32 -163t-63.5 -101t-73 -47t-72.5 -14q-23 0 -53 7t-70.5 30.5t-73 60t-55.5 103t-23 151.5q0 98 22 172t52 112.5
t70.5 62t69 29t56.5 5.5q42 0 79 -14t57.5 -30t40.5 -41t23.5 -32l9.5 -19q3 -6 8 -21t7 -19q1 -2 1 -5q0 -2 -0.5 -3t-2 -2t-3.5 -2t-5.5 -2.5t-6.5 -3.5q-3 -1 -31.5 -16.5t-40.5 -20.5q-11 -7 -31.5 -20.5t-23.5 -15.5q-6 -5 -19 -13q-5 -3 -8 -3q-6 -2 -8 -2q-4 0 -6 3
t-4.5 8t-4.5 7q-1 1 -6 8.5t-8.5 12t-11 9t-16.5 4.5q-30 0 -47 -46.5t-17 -97.5q0 -89 14 -119q16 -32 49 -33q40 0 56 50q7 21 7 50z" />
    <glyph glyph-name="H" unicode="H" horiz-adv-x="682" 
d="M259 392q12 0 34.5 -1t39.5 -1.5t30 -0.5q78 0 119 1q49 0 75 1v30q0 9 -0.5 28t-0.5 27q0 20 3 121t3 105q1 9 11 9q2 0 6 -0.5t5 -0.5q4 -1 15 -1q12 0 17 -2q10 -3 10 -10q0 -2 -2 -8q0 -1 -3.5 -30t-5.5 -56q-7 -79 -7 -303q0 -26 -3 -116t-3 -96q0 -4 -0.5 -18
t-0.5 -22q0 -15 2 -29q1 -3 1 -6q0 -4 -1 -5t-5 -2h-4q-10 -2 -36 -2q-8 0 -8 10l1 145v1v26v42v39v74l-81 -2q-43 -1 -116 -1h-94q-38 0 -59 1q0 -17 -1 -26q-2 -32 -2 -61q0 -9 -0.5 -47t-0.5 -61q0 -79 5 -104q2 -12 2 -15q0 -6 -2 -10t-3.5 -6t-6.5 -3t-7 -1h-8.5h-7.5
q-35 2 -80 -3q-17 -2 -20.5 7.5t-2.5 38.5v17q0 18 -1 165.5t-1 180.5q0 37 1 144t1 115q0 20 4.5 25.5t14.5 5.5q3 0 10.5 -0.5t11.5 -0.5q5 0 23 2q5 1 17 1q9 0 25 -1t23 -1q5 0 8.5 -1.5t5 -6t2 -6.5t0 -8.5t-0.5 -7.5q0 -46 -4 -119l-4 -99l-3 -59z" />
    <glyph glyph-name="I" unicode="I" horiz-adv-x="153" 
d="M116 668q-3 -22 -5 -113q0 -27 -4 -139t-4 -137q0 -202 6 -252q1 -6 1 -14q0 -11 -10 -16q-6 -4 -31 -4h-7q-11 0 -14 0.5t-4 4.5t0 13q1 14 1 24q0 15 2 159.5t2 181.5q0 26 2.5 94t4 124t0.5 66q0 4 -0.5 11t-0.5 10q0 26 16 26q3 0 16 -0.5t21 -0.5q10 0 10 -14
q0 -3 -1 -11.5t-1 -12.5z" />
    <glyph glyph-name="J" unicode="J" horiz-adv-x="491" 
d="M98 345q0 -141 29.5 -191.5t84.5 -50.5q58 0 85.5 42.5t27.5 87.5q0 24 1.5 142t1.5 134q-2 30 -2 66q0 20 0.5 53.5t0.5 43.5q-2 25 5 31.5t20 6.5q1 0 17 2t26 2q11 0 16 -1q17 -1 21 -6.5t3 -26.5l-2 -306v-42.5t-1 -76t-11.5 -87.5t-29 -86.5t-56.5 -62.5t-91 -26
q-62 0 -109 23t-71 53.5t-38.5 70.5t-17.5 64t-3 43q0 23 1 72.5t1 56.5q0 9 1.5 13t5 4.5t8.5 -0.5q11 0 62 7q8 1 12.5 -2.5t5 -10t0 -13t-2 -15.5t-1.5 -14z" />
    <glyph glyph-name="K" unicode="K" horiz-adv-x="620" 
d="M143 3q-5 0 -28.5 -1.5t-33.5 -1.5t-12 1q-7 0 -7 6q0 3 4 15q2 6 -1.5 31t-3.5 35q0 32 3 164t6 149q3 27 3 100q0 38 -1 47q-1 8 -1 42q0 78 5 98q1 10 11 10q3 0 10 -1.5t10 -1.5q7 0 34 -1t40 0h6q5 0 7.5 -1t4 -3.5t1.5 -3.5v-6v-6v-59v-41q0 -117 -4 -149
q-2 -22 -2 -35q0 -6 0.5 -17t0.5 -16l2 -34l16 17q5 6 29 30q29 26 94 100q20 29 93 102q93 103 94 105q10 15 21 17h28q7 -1 7 -7q0 -4 -5 -9q-58 -58 -63 -62q-10 -9 -58.5 -68t-57.5 -72q-26 -29 -63 -68l-54 -56q7 -9 20 -23.5t15 -17.5q28 -35 53 -59q11 -11 66 -76.5
t65 -74.5q11 -9 41.5 -46.5t32.5 -39.5q3 -5 3 -8q0 -8 -17 -8q-6 0 -62.5 -1.5t-66.5 -1.5q-21 0 -39 18q-7 6 -50 62.5t-53 67.5q-18 16 -53 59l-36 41q0 -30 -1 -43q-2 -46 -2 -64q0 -5 -0.5 -30t-0.5 -39q0 -38 3 -48q1 -3 1 -7q0 -10 -14 -10h-40z" />
    <glyph glyph-name="L" unicode="L" horiz-adv-x="524" 
d="M394 51l119 -1h2q4 0 5.5 -1t2 -2.5t0 -4.5t-0.5 -5q-1 -4 0.5 -17t1.5 -18q0 -3 -0.5 -5t-2.5 -3t-3.5 -1.5t-4.5 -0.5h-5h-6h-7q-6 0 -69 4.5t-83 4.5q-19 0 -133 -4.5t-120 -4.5q-22 0 -22 20v78q0 18 2 169t2 166q0 17 -4.5 132t-4.5 129q0 17 13 17q5 0 17 -3t19 -3
q28 -4 67 -4q27 0 51 3q14 2 20.5 -2t6.5 -9.5t-1.5 -17t-1.5 -17.5q0 -5 -3 -78.5t-3 -98.5t1.5 -122t1.5 -103q0 -9 -1 -55t-1 -54q0 -1 -0.5 -8t-0.5 -12q0 -4 0.5 -13.5t0.5 -14.5l2 -35z" />
    <glyph glyph-name="M" unicode="M" horiz-adv-x="704" 
d="M165 436q-2 -48 -2 -68q0 -15 -1 -97t-1 -100l-1 -156q0 -5 -1 -7.5t-4.5 -3.5t-6 -1.5t-8.5 0t-8 0.5q-6 0 -23.5 -1.5t-24.5 -1.5q-15 0 -17.5 6.5t-1.5 27.5q0 7 -1.5 85t-1.5 101q0 21 5 109t5 105q0 19 1 96.5t1 91.5q0 6 -0.5 25t-0.5 29q0 35 5 40q3 3 7 3l8 -2
q8 -2 16 -1q9 1 25 1q19 0 28 -2q5 -2 8.5 -6.5t6 -11.5t4 -13.5t3.5 -16.5l3 -15q10 -52 59 -159q14 -24 37.5 -77.5t33.5 -84.5q4 -11 16 -38t16 -38l21 -47q29 57 42 83l65 130q14 27 47.5 94.5t44.5 88.5q53 106 70 106q8 0 8 -13q0 -8 -4 -29t-5 -28q-4 -27 -4 -240
q0 -131 -7 -203q-2 -26 -2 -77q0 -19 0.5 -41.5t0.5 -38v-17.5v-5q0 -5 -1 -7.5t-2 -2.5h-3h-2q-3 0 -12 -1t-13 -1q-7 1 -7 19q0 161 2 179q7 70 7 170q0 4 2 92l2 72q-7 -10 -12 -21q-10 -17 -19 -37q-80 -161 -87 -173q-9 -17 -45.5 -92t-42.5 -90q-26 -61 -30 -61
q-3 0 -17 23q-17 25 -46 109q-6 16 -45 88.5t-44 84.5q-10 20 -27 67q-11 24 -17 44z" />
    <glyph glyph-name="N" unicode="N" horiz-adv-x="676" 
d="M263 497q0 -19 1 -51t1.5 -56t0.5 -39q0 -39 2 -136t2 -107q0 -16 2 -53t2 -43v-2q0 -16 -19 -16q-4 0 -28.5 -2t-38.5 -2q-12 0 -47.5 -1t-49.5 -1q-8 0 -13 1.5t-8 5t-4 5.5t-2 8.5t-1 7.5q-4 18 -4 44q0 24 1 41q0 158 7 221q1 14 5.5 75t8 113t3.5 70q0 79 3 118
q2 27 28 27q5 0 14 -1t12 -1q7 0 38 0.5t47 0.5q38 0 49 -20q3 -7 13.5 -29t24.5 -53t24 -52t54 -118t57 -123q6 -12 23.5 -46t26.5 -52l31 -61l-2 58l-4 98v30q0 55 2 111q0 16 -1 70.5t-1 73.5l4 96q0 15 15 15q5 0 20 -3q8 -2 35 -2q13 0 13 -9q0 -2 -1 -9t-1 -11
q0 -5 -1.5 -131.5t-1.5 -156.5q0 -4 -0.5 -13.5t-0.5 -15.5q0 -31 3 -97t3 -83q0 -25 2.5 -97t2.5 -78v-2q0 -20 -19 -18q-3 1 -12 1q-4 0 -17 -1t-17 0q-9 1 -12 3.5t-11 16.5q-1 2 -36 87t-46 109q-22 42 -111 241q-20 41 -45 87l-29 52z" />
    <glyph glyph-name="O" unicode="O" horiz-adv-x="544" 
d="M273 714q52 0 92 -16.5t64 -48t39.5 -65t22 -81t8.5 -81.5t2 -79q0 -58 -13 -119t-38 -117.5t-69.5 -92.5t-100.5 -36q-53 0 -94 20t-65.5 55t-41 73t-24 85t-10 79.5t-2.5 66.5q0 82 15.5 147t39.5 103.5t56 63.5t61 34t58 9zM272 232q27 0 40 30t13 72q0 40 -12.5 70
t-33.5 30q-25 0 -37.5 -34.5t-12.5 -74.5q0 -93 43 -93z" />
    <glyph glyph-name="P" unicode="P" horiz-adv-x="520" 
d="M355 701q69 -4 114.5 -56t45.5 -156q0 -52 -19 -90t-47 -56t-52.5 -25.5t-44.5 -7.5q-27 0 -91 -6q-37 -4 -60 -5q-2 -92 -2 -125q0 -130 3 -141q4 -15 -9 -23.5t-24 -3.5q-3 1 -17 1q-30 0 -64 -4q-11 -1 -17 3.5t-7.5 11.5t-1.5 18q0 7 1 53.5t1 70.5q0 8 4 194t4 255
q0 36 -1 43q-2 22 -2 26q0 28 12 26q18 -2 63 -2l39 1q39 1 71 1q53 0 101 -3zM250 385q27 -3 74 -3q37 0 69 22t32 79q0 114 -98 133q-75 15 -118 12q0 -28 -1 -42q-2 -56 -5 -80q-4 -35 -2 -79l2 -39z" />
    <glyph glyph-name="Q" unicode="Q" horiz-adv-x="669" 
d="M615 26q14 -13 14 -19q0 -5 -8 -5h-14.5t-22.5 -0.5t-24 -0.5q-17 0 -25.5 5.5t-18.5 21.5q-3 6 -20 28q-59 -57 -149 -57q-186 0 -264 163q-33 69 -41 164q0 91 18.5 161t46.5 111.5t67 67.5t74.5 35t74.5 9q67 0 119 -22t82.5 -55t50 -75.5t26.5 -79.5t7 -72
q0 -184 -68 -295q59 -72 75 -85zM386 204q-20 27 -11 27q8 0 56 5q10 1 17 -2.5t9.5 -8t6.5 -14t6 -13.5q3 -6 31 -40q53 90 53 198q0 41 -4.5 78t-19.5 79t-39.5 71.5t-68 49.5t-100.5 20q-26 0 -62.5 -16.5t-76 -48.5t-67 -91.5t-27.5 -134.5q0 -155 65.5 -232.5
t182.5 -77.5q71 0 123 52z" />
    <glyph glyph-name="R" unicode="R" horiz-adv-x="547" 
d="M420 184q77 -138 90 -156q14 -22 14 -29q0 -6 -19 -6q-8 0 -56 -1.5t-57 -1.5q-8 0 -12.5 6.5t-13.5 28t-17 37.5q-20 36 -69 135l-51 99q1 -13 3.5 -59.5t4.5 -69.5q6 -134 10 -148q1 -4 1 -10q0 -22 -29 -17q-14 2 -67 -3t-62 -5q-13 0 -17.5 5t-4.5 17q0 3 0.5 10.5
t0.5 12.5q0 4 -4 97.5t-4 141.5q0 40 3 55q5 25 5 141q0 121 -4 183q-1 8 -1 22q0 6 0.5 11t1.5 8.5t2.5 5.5t2.5 3.5t3.5 2t3.5 0.5h4h4q3 0 24 2.5t51.5 5t56.5 2.5q112 0 168.5 -57.5t56.5 -149.5q0 -73 -47 -140q-20 -29 -46 -52zM223 429q15 0 27 6q28 13 28 53
q0 57 -32 57q-11 0 -19 -8q-1 -1 -0.5 -10t1 -21t-0.5 -25q-4 -17 -4 -35q0 -2 -0.5 -5t-0.5 -4t0.5 -4t0.5 -4z" />
    <glyph glyph-name="S" unicode="S" horiz-adv-x="576" 
d="M268 717q143 0 252 -109q4 -4 4 -9q0 -2 -6 -14q-2 -2 -15.5 -22.5t-19.5 -27.5q-2 -3 -5 -7t-4.5 -5.5t-4 -3t-6.5 -1.5q-3 0 -21.5 16t-42 35.5t-55 35.5t-56.5 16q-13 0 -21.5 -1.5t-19.5 -7.5t-17 -21t-6 -39q0 -23 10.5 -42t32.5 -33t35 -20.5t39 -17.5
q1 -1 16.5 -7.5t22 -9.5t24 -12.5t27 -17t25.5 -21t25.5 -26.5t21 -32t18 -39.5t11 -47t4.5 -55.5q0 -96 -72 -144t-199 -48q-39 0 -72.5 8t-56 19t-41.5 26t-28.5 26.5t-17 22t-8.5 11.5q-4 5 -4 10q0 3 8 13q13 18 38 43q4 4 8 4q3 0 6 -2.5t8 -8.5t7 -8q59 -59 134 -59
q94 0 94 69t-109 147q-8 6 -35 20.5t-49 29.5t-46 37t-38 53t-14 67q0 60 40.5 110.5t90 75t88.5 24.5z" />
    <glyph glyph-name="T" unicode="T" horiz-adv-x="542" 
d="M142 700q13 0 61 1.5t68 1.5q11 0 76 -1.5t97 -1.5q30 0 39 1q16 0 26 -4.5t12.5 -10t1.5 -10.5q-3 -30 -3 -76q0 -28 3 -76q0 -27 -35 -27h-176l-2 -103q-1 -17 -1 -85q0 -49 0.5 -118t1.5 -119t1 -54v-5q0 -6 -1.5 -9t-3.5 -3.5t-7 -0.5h-3h-68h-5.5t-4 1t-3 1.5
t-2 2.5t-1 3.5t-0.5 4.5v5.5v7v8.5q0 11 5 157t5 175q0 22 -1.5 70.5t-1.5 60.5q-30 0 -71.5 -0.5t-71.5 -1.5t-34 -1q-26 0 -20 23l1 53q2 52 2 79q0 24 -1 29v7q0 15 18 15h99z" />
    <glyph glyph-name="U" unicode="U" horiz-adv-x="488" 
d="M109 691l-3 -402v-1q0 -88 32 -145t81 -57q44 0 63.5 25.5t19.5 53.5q0 6 2.5 94.5t2.5 132.5q0 24 2.5 97t2.5 106q0 49 -4 69q-3 12 -3 19t1.5 11.5t6 6.5t6.5 2.5t8 0.5l6 -1h17h29h25q4 0 7.5 -0.5t5.5 -1t3.5 -2t2.5 -2t1.5 -4t0.5 -4t0.5 -5t0.5 -5.5q2 -22 2 -54
q0 -22 -1 -32q-1 -13 1 -58.5t4 -126t1 -161.5q-1 -67 -19 -116.5t-48.5 -76t-64.5 -39t-73 -12.5q-64 0 -103 42.5t-55 94.5q-14 46 -14 171q0 57 3 76q2 14 2 93q0 126 -4 182q-1 6 -1 16q0 13 3.5 19t7.5 5.5t8 -1.5q2 0 5.5 -0.5t5.5 -0.5q3 0 8.5 1t9.5 1q5 0 5 -11z
" />
    <glyph glyph-name="V" unicode="V" horiz-adv-x="567" 
d="M300 341q9 40 16 91q1 18 26.5 118.5t23.5 122.5q-1 11 0.5 18t2.5 11t6 6t7 2.5t9.5 0t8.5 -0.5q95 0 119 -3q19 -3 19 -12q0 -5 -3 -16q-5 -14 -24 -98q-37 -189 -58 -264q-11 -44 -31 -163t-23 -129q-5 -17 -15 -17q-2 0 -7 0.5t-9 0.5q-8 0 -73.5 -4t-77.5 -4
q-16 0 -20.5 8.5t-7.5 29.5q-12 50 -72 275q-9 33 -47 199t-41 177q-2 8 -2 10q0 7 5.5 8t18 -1t18.5 -2q10 0 53.5 2t57.5 2q13 1 20 -3t9 -9.5t5 -18.5t24 -157q5 -32 27 -140l22 -99z" />
    <glyph glyph-name="W" unicode="W" horiz-adv-x="677" 
d="M240 344l10 28q3 7 31 108q4 14 14.5 46t23 67.5t14.5 41.5q26 66 38 66q8 0 9.5 -2t4.5 -15q1 -5 4.5 -17.5t5.5 -24.5q40 -104 48 -124l31 -67l18 -40q2 6 4 9l10 25q3 10 8.5 46.5t11.5 57.5q4 15 18.5 58t16.5 56q4 35 24 35q16 4 36 4q10 0 13 -1q12 0 12 -9
q0 -2 -2 -12q-3 -8 -9 -30.5t-12 -38.5q-5 -16 -26 -94.5t-26 -95.5q-6 -24 -13 -70.5t-7 -54.5q0 -24 -14 -58q-7 -18 -23.5 -111t-18.5 -97q-1 -4 -1.5 -9t-1 -8.5t-1.5 -7t-2.5 -5t-3.5 -1.5q-8 0 -11.5 4t-9.5 17q-8 10 -41 97q-7 18 -42 117q-6 21 -20 57l-14 37
l-14 -28q-5 -12 -38 -94q-6 -18 -16.5 -58.5t-19 -76t-9.5 -37.5q-3 -12 -9.5 -23.5t-11.5 -11.5q-11 0 -17 21q-2 3 -17 68t-21 80q-7 18 -35 115q-4 11 -18 59.5t-29 104t-19 67.5q-5 16 -21 77.5t-20 74.5t-4 20q0 5 7 5h31q17 0 24 1l11 2q6 -1 9 0t5.5 -4.5t3.5 -9.5
t3 -14q44 -148 62 -193q19 -59 35 -98l17 -44z" />
    <glyph glyph-name="X" unicode="X" horiz-adv-x="623" 
d="M391 543q47 77 72 111q6 8 20 34t22 31q18 8 36 8q17 0 25.5 -6t4.5 -17q-5 -15 -31 -50q-12 -15 -39.5 -57t-32.5 -49q-22 -32 -98 -183q-7 -10 -7 -17q0 -5 7 -21q3 -7 12 -21t20.5 -32.5t17.5 -28.5q42 -76 69 -112q45 -69 73 -121q4 -7 4 -11q0 -7 -18 -7l-63 1
q-4 0 -7 3t-5 7l-6.5 13l-8.5 17q-6 12 -29.5 45t-30.5 49q-32 62 -80 136q-7 10 -12 10q-4 0 -13 -12q-5 -6 -30.5 -40.5t-35.5 -46.5q-14 -18 -37.5 -57t-31.5 -59q-9 -19 -24.5 -38t-24.5 -23q-8 -2 -17 -2q-18 0 -36 5q-9 3 -9 9q0 5 15 29q5 9 24.5 36t45 62t33.5 46
q14 18 45.5 67t40.5 60q12 17 12 31q0 10 -7 24q-4 8 -38 67.5t-43 76.5q-9 18 -59.5 96.5t-53.5 84.5q-7 11 -7 18q0 11 14 9q8 -1 26.5 0.5t24.5 1.5q8 0 13.5 -5.5t15.5 -22.5t15 -23q48 -76 66 -107q18 -32 53 -90q16 -27 31 -49q5 0 8.5 4t7.5 13t6 13z" />
    <glyph glyph-name="Y" unicode="Y" horiz-adv-x="511" 
d="M203 -1q-6 -1 -40 -1q-20 -1 -37 -1q-12 0 -12 6q0 2 2 5.5t2 5.5q1 2 16.5 45t18.5 52q0 2 27 74q1 3 4 9t4 9t2 7t0.5 7t-1.5 6q-2 4 -12.5 38.5t-16.5 48.5q-6 15 -15 46t-14 44q-50 137 -77 224q-4 13 -12 30t-8 23q0 11 30 13q4 1 16 1q15 0 24 -1q33 0 41 -1
t10.5 -3.5t2.5 -8.5t1 -9q10 -35 26 -83q27 -85 31 -94q13 -30 28 -76q2 -5 5 -14.5t6 -17.5t5 -16l8 25q6 22 14 43l11 30l10 26l10 26q8 22 12 29q19 38 37 115q2 8 5 14t5 9t7 4.5t6.5 1.5h8.5h6q54 0 63 -1q21 -3 21 -10q0 -1 -2 -9q-1 -2 -16.5 -48t-24.5 -68
q-35 -81 -87 -224q-8 -24 -49.5 -127t-43.5 -111q-3 -8 -6 -22.5t-5.5 -30.5t-3.5 -20q-2 -11 -6 -16t-10 -4h-27z" />
    <glyph glyph-name="Z" unicode="Z" horiz-adv-x="641" 
d="M357 625l-106 1q-8 0 -29.5 -1t-31.5 -1q-14 0 -18 1q-9 2 -71 2h-42q-5 0 -8 1.5t-3.5 2.5t0 4.5t0.5 4.5q0 10 -3 39q0 5 1 8.5t5 4.5t6.5 1.5t8.5 0t9 -0.5q15 0 59.5 2t66.5 2t90.5 -2t77.5 -2h59q86 0 100 2q2 0 4 0.5t3 0.5q13 -3 13 -16q0 -39 -9 -52
q-112 -162 -138 -198q-72 -102 -122 -168l-95 -130q28 -4 41 -5q31 -4 72 -4q22 0 56 1t53 1q22 0 89.5 3t76.5 3q5 0 8.5 -1.5t5.5 -3t3 -5.5l1.5 -6t0.5 -7.5v-7.5q0 -7 -1 -35.5t-1 -37.5v-6q0 -10 -2 -12t-12 -3q-5 -1 -28 -2t-47 -5q-14 -2 -58 -2q-25 0 -70.5 1
t-56.5 1h-245q-9 0 -15.5 1.5t-9.5 3t-4.5 6t-2 6.5t0 8t0.5 8q0 6 2.5 42.5t2.5 45.5q0 6 4 13t9 13t15 17t15 17q115 152 138 190q14 24 107 148q15 22 36 65l18 39q-6 0 -9 1z" />
    <glyph glyph-name="bracketleft" unicode="[" horiz-adv-x="313" 
d="M269 26h6q12 0 12 -13v-70q0 -11 -4 -15t-17 -4q-3 0 -29 2t-58 2h-77h-5q-4 0 -26 2q-16 1 -16 12q0 3 2 31q11 92 12 199q1 30 1 91q0 47 -1 109t-1 65q0 8 -1.5 59t-1.5 74q0 22 1 26q1 5 1 27q0 18 -1 54.5t-1 41.5q-1 15 7 19t23 3h60h42l54 3l27 3q4 0 6.5 -2t3 -5
t1 -5.5t0 -6t-0.5 -4.5v-24q0 -16 -13 -16h-79q-11 0 -18 -1l-2 -18q-4 -24 -4 -56q0 -22 -6 -140t-6 -132q0 -13 -2 -107.5t-2 -107.5q0 -20 -2 -62l-2 -34h117z" />
    <glyph glyph-name="backslash" unicode="\" horiz-adv-x="328" 
d="M7 725q12 4 46 4q18 -7 33 -53q2 -19 17 -65t29 -75q3 -8 45 -123t55 -153q8 -30 25 -79.5t34 -95t20 -54.5q11 -25 14 -29q2 -8 2 -10q0 -7 -16 -11q-14 -4 -26 -4q-16 0 -24 8l-4 3q-4 2 -4.5 2.5t-3.5 2.5t-3.5 4t-2 5t-2.5 6.5t-2 8.5q-2 9 -78 225q-9 20 -42.5 122
t-40.5 122q-6 22 -64 175q-12 27 -12 50q0 13 5 14z" />
    <glyph glyph-name="bracketright" unicode="]" horiz-adv-x="312" 
d="M45 645h-6q-12 0 -12 13v70q0 11 4 15t17 4q3 0 29 -2t58 -2h77h5q4 0 26 -2q16 -1 16 -12q0 -3 -2 -31q-11 -92 -12 -199q-1 -30 -1 -91q0 -48 1 -110t1 -64q0 -8 1.5 -59t1.5 -74q0 -22 -1 -26q-1 -5 -1 -27q0 -18 1 -54.5t1 -41.5q1 -15 -7 -19t-23 -3h-60h-42l-54 -3
l-27 -3q-4 0 -6.5 2t-3 5t-1 5.5t0 6t0.5 4.5v24q0 16 13 16h79q11 0 18 1l2 18q4 24 4 56q0 22 6 140t6 132q0 13 2 107.5t2 107.5q0 20 2 62l2 34h-117z" />
    <glyph glyph-name="asciicircum" unicode="^" horiz-adv-x="364" 
d="M302 313q1 -1 6 -10.5t8 -15t8 -17t7.5 -20t4.5 -19.5t1 -21q-5 -47 -14 -47q-11 0 -30 22q-12 8 -32 38q-9 13 -18 33q-24 66 -47 99q-34 -55 -43 -75q-4 -11 -16 -33.5t-17 -34.5q-27 -44 -58 -44q-4 0 -12 2q-29 0 -29 51q0 7 7.5 24t18.5 37t13 25q2 4 17 26.5
t33 61.5q23 37 53 81q11 11 20 11q8 2 10 2q3 0 6 -1t5.5 -3t4.5 -4.5t5.5 -7t5.5 -7.5t6 -10t7 -11q10 -23 34 -67z" />
    <glyph glyph-name="underscore" unicode="_" horiz-adv-x="565" 
d="M445 -22q21 0 32 -1q26 0 26 -22q0 -38 -2 -49q-3 -7 -13 -7q-5 0 -21 3t-26 3q-64 -2 -150 -2h-49q-13 0 -46.5 -2t-47.5 -2l-59 -4q-22 0 -22 18q0 3 0.5 7.5t0.5 5.5v29q0 22 29 22h110l197 1h41z" />
    <glyph glyph-name="grave" unicode="`" horiz-adv-x="247" 
d="M134 753q-22 10 -39.5 14t-22.5 7q-46 13 -50 23q-3 6 -3 11q0 14 19 22q14 8 22 8q5 0 31 -8q47 -20 86 -29q1 -1 11 -4.5t16.5 -6.5t13.5 -9t9 -13q2 -10 2 -13q0 -9 -4.5 -12.5t-13 -3t-20.5 1.5q-11 -1 -35 4z" />
    <glyph glyph-name="a" unicode="a" horiz-adv-x="584" 
d="M209 654q8 31 20 64q6 15 14 7q5 -3 13 -28q3 -12 53 -120q20 -41 43 -107q6 -17 22 -53t36 -78t27 -59q16 -35 86 -170q42 -85 47 -90q5 -10 5 -13q0 -8 -18 -8h-72q-2 0 -4.5 2t-4.5 5.5t-3.5 7t-3.5 9.5t-4 9q-16 31 -39 103q-2 7 -6.5 17t-10.5 22.5t-8 17.5
q-6 20 -18 20q-4 0 -18 -1.5t-22 -1.5q-8 -2 -50.5 -2.5t-56.5 -1.5q-9 -1 -32 -1h-34l-19 1q-7 0 -13 -22q0 -1 -9.5 -41t-11.5 -51l-11 -43l-8 -29q-5 -19 -13 -19h-59q-5 0 -5 4q0 2 4 14q8 19 14 38q37 124 44 162q9 50 37 129q4 16 26 96q19 70 38 131zM308 350
q5 1 12 1t9 1t2 3t-3 8q-22 38 -48 113q-5 13 -11 28t-9 23.5t-4 10.5q-10 21 -13 21q-2 0 -12 -38q-18 -58 -26 -88q-2 -9 -6.5 -21.5t-9.5 -26.5t-6 -18q-3 -11 -3 -16q0 -6 9 -6q91 0 119 5z" />
    <glyph glyph-name="b" unicode="b" horiz-adv-x="552" 
d="M317 384q55 -6 99 -33q100 -63 100 -211q0 -39 -17 -67.5t-40 -43t-55 -23t-53.5 -10.5t-43.5 -2q-32 0 -120 -3.5t-98 -3.5q-26 0 -26 21v44q0 6 3 72.5t3 92.5q0 23 -1.5 122.5t-1.5 120.5q0 24 5 80.5t5 66.5q0 14 -2 49t-2 42q0 13 18 13q3 0 8 -0.5t7 -0.5q5 0 21 2
t27 2q3 0 39.5 -1.5t98.5 -1.5q182 0 182 -175q0 -82 -78 -124q-33 -19 -78 -28zM104 612q-1 -15 -1 -42q0 -11 -2 -53t-2 -47q0 -11 3.5 -13t16.5 -2q7 0 32.5 -1.5t37.5 -1.5q9 0 39 1.5t49 1.5q95 0 95 76q0 82 -133 102q-37 6 -82 6q-15 0 -51 -2zM278 59q129 0 129 98
q0 40 -14 70.5t-35 45.5t-36.5 22t-26.5 9q-16 2 -91.5 7t-85.5 5q-16 0 -20 -2.5t-4 -9.5q0 -3 0.5 -21t0.5 -38q0 -17 -1.5 -47t-1.5 -43q0 -15 -0.5 -40t-0.5 -30q0 -10 2.5 -13t8.5 -3l52 -2q14 0 57.5 -4t66.5 -4z" />
    <glyph glyph-name="c" unicode="c" horiz-adv-x="574" 
d="M292 720q34 0 63.5 -7t48 -16t36 -24t25 -25t18 -25t12.5 -17q10 -13 10 -20q0 -2 -1 -4.5t-2 -4t-4 -3.5l-4.5 -3t-5 -3.5t-5.5 -3.5q-5 -4 -39.5 -30.5t-42.5 -31.5q-5 -3 -8 -3q-5 0 -8 2.5t-7.5 9t-5.5 7.5l-8 9q-8 9 -13 13.5t-16.5 9.5t-23.5 5q-64 0 -64 -178
q0 -66 12 -111t26.5 -60.5t28.5 -15.5q20 0 30.5 9t18.5 34q8 24 26 24q5 0 14 -2.5t11 -2.5q30 -11 116 -26q14 -3 14 -24q0 -10 -1 -15q-1 -13 -8 -35q-55 -167 -222 -167q-34 0 -68.5 11t-72 39t-65.5 70t-46.5 111.5t-18.5 156.5q0 73 12 130.5t33 94t45.5 62t54.5 38
t54.5 17.5t50.5 5z" />
    <glyph glyph-name="d" unicode="d" horiz-adv-x="571" 
d="M84 1q-21 0 -14 16q1 3 1 8q0 2 -0.5 11t-0.5 18q0 5 -1.5 105.5t-1.5 140.5q0 36 0.5 109t0.5 92q0 23 -2.5 83.5t-2.5 72.5q2 41 11 41h3q3 0 8.5 -1.5t9.5 -1.5t20 1t23 1t20 -0.5t19 -0.5q56 0 101 -5q1 0 11.5 -1t16 -2t17.5 -4t23 -8t25.5 -13t31.5 -20.5t35 -28.5
q59 -52 78 -123.5t19 -157.5q0 -71 -33.5 -156.5t-84.5 -119.5q-48 -31 -119 -43.5t-112 -12.5h-102zM234 552q-3 -49 -3 -135q0 -32 3 -83t3 -70q0 -7 -0.5 -53.5t-0.5 -75.5q-1 -30 -1 -96q69 -4 126 25q127 65 127 269q0 200 -125 276q-55 33 -125 34z" />
    <glyph glyph-name="e" unicode="e" horiz-adv-x="511" 
d="M94 346q-2 -18 -2 -32q0 -12 2 -28t2 -28l1 -119q0 -9 -0.5 -26t-0.5 -24q-1 -9 -1 -25q13 -1 38 -1q21 -1 65 -1q19 0 53.5 -1t52.5 -1q19 0 52 1.5t45 1.5q15 0 38 -1t26 -1q8 0 9.5 -3.5t1.5 -12.5q0 -4 -1 -14.5t-1 -16.5q0 -12 -21 -12q-11 0 -18 1q-27 3 -109 3
q-50 0 -72 -1q-17 -1 -56 -1q-30 0 -77 1t-54 1q-23 0 -23 15q0 2 0.5 7.5t0.5 8.5q1 4 1 9q0 2 -0.5 7.5t-1 18t-0.5 31.5q0 30 -2.5 101t-2.5 105q0 37 4 113.5t4 93.5q0 116 -3 153q-1 11 3.5 16.5t14 6.5t19 0.5t22.5 -2t20 -1.5q13 0 75.5 3t92.5 3t98.5 -1.5
t75.5 -1.5q6 0 10 -1.5t5.5 -5.5t2 -5.5t-0.5 -7.5v-7v-11q0 -23 -4 -23t-13 1.5t-19 1.5h-160l-124 1q-6 0 -45 -3l-23 -2l-2 -27q-1 -15 -1 -47q0 -15 2 -40.5t2 -36.5v-40q0 -16 1 -25q9 -1 27 -1h40q7 0 29.5 2t39.5 2q18 0 46 -2t32 -2t21 1.5t31 1.5q9 0 34 -1.5
t35 -1.5q11 0 15 1q1 0 3 0.5t3 0.5q15 0 12 -13q-1 -3 -1.5 -17.5t-0.5 -18.5q-1 -10 -6 -10q-3 -1 -9 -1q-4 0 -60 5.5t-78 5.5q-85 0 -125 -3q-13 -2 -59 -2q-19 0 -28 1z" />
    <glyph glyph-name="f" unicode="f" horiz-adv-x="465" 
d="M67 602q0 10 2 36t2 36v4q0 10 3.5 13t10.5 3q4 0 16 -1t18 -1q19 0 65.5 2t58.5 2l109 -1q15 0 47.5 -1t43.5 -1q18 0 18 -13q0 -2 -0.5 -7.5t-0.5 -9.5l1 -117v-50v-8q0 -8 -2.5 -10.5t-12.5 -2.5q-7 0 -49 3t-52 3h-106q-18 0 -42 -2l-21 -2q-1 -6 -1 -18v-33
q0 -12 -2 -28l-2 -13h22q7 0 20.5 0.5t19.5 0.5h72q22 0 53 2t40 2q20 0 20 -12q0 -13 -5 -29q-1 -11 -14 -11q-4 0 -18 0.5t-22 0.5q-6 0 -44.5 1t-48.5 1h-53q-25 0 -39 -1v-97q0 -72 -3 -117q-2 -26 -2 -51q0 -15 0.5 -36t0.5 -23q0 -11 -5 -13t-18 -2h-69q-5 0 -7.5 1.5
t-3.5 5.5t-1.5 7t-0.5 10v11q-2 16 -2 47q0 15 0.5 44.5t0.5 39.5q0 22 2 91t2 78q0 8 -2 36t-2 52q0 22 1.5 49t1.5 39v90z" />
    <glyph glyph-name="g" unicode="g" horiz-adv-x="533" 
d="M281 266q9 0 104.5 2.5t100.5 2.5q19 0 17 -33q0 -9 -0.5 -20.5t-5.5 -37.5t-13 -49t-25 -50.5t-40.5 -47t-61 -33t-83.5 -13.5q-75 0 -130.5 60.5t-80 146.5t-24.5 180q0 134 71 234t164 100q35 0 63 -7.5t46.5 -20t29.5 -23.5t20.5 -23.5t11.5 -14.5q8 -9 8 -19
q0 -12 -9 -21q-20 -20 -47 -39q-5 -3 -9 -3q-9 0 -18 9q-1 1 -7 7.5t-11.5 13t-16.5 15t-21.5 14.5t-25 10.5t-28.5 4.5q-41 0 -73 -47t-45.5 -105t-13.5 -111q0 -39 8.5 -82.5t25.5 -86t49.5 -70.5t73.5 -28q72 0 110 56q17 25 21 57h-29q-9 0 -24.5 0.5t-20.5 0.5l-101 1
q-17 0 -17 16v39q0 6 1 9t3 4.5t3 1.5h4h46z" />
    <glyph glyph-name="h" unicode="h" horiz-adv-x="638" 
d="M252 430h16q15 -1 27 -1q21 0 39 2q6 1 19 1q14 0 21 -1l23 -2l3 30l3 48q0 13 2 90t2 85q1 15 4 20t14 6q10 0 56 6q8 1 29 1q32 0 53 -3q7 -1 10.5 -3t4.5 -3t1.5 -8t1.5 -10q0 -6 -3.5 -69t-3.5 -81q0 -15 -6 -88.5t-6 -93.5t1 -98.5t1 -99.5q0 -112 4 -137v-2
q0 -5 -1 -8.5t-4 -5t-4.5 -2t-5.5 0t-5 0.5q-8 2 -20 2q-4 0 -26 -2q-28 -3 -90 -3h-2q-4 0 -7 1t-4.5 2t-2 4t-0.5 4.5v6v6.5q0 94 -4 142q-2 38 -2 74q-1 15 -1 46h-29q-9 0 -24 -0.5t-19 -0.5q-2 0 -8 -0.5t-10 -0.5q-3 0 -9.5 0.5t-10.5 0.5q-15 0 -24 1l-3 -63
q-3 -35 -3 -91v-51q0 -54 2 -65q-1 -4 0.5 -7t-1.5 -5t-3.5 -3t-4.5 -1.5t-5.5 -0.5h-6h-6.5q-5 0 -17 1.5t-22.5 2t-18.5 0.5q-6 0 -37 -2.5t-44 -3.5q-14 -2 -18.5 6.5t-4.5 21.5q0 5 1.5 50.5t1.5 60.5q0 5 1 64t1 93q0 40 -1 51q-3 23 -3 60q0 20 1 55t1 45q0 19 4.5 98
t4.5 87q0 14 12 14q2 0 6.5 -0.5t6.5 -0.5q20 -4 75 -4q13 0 39.5 1t31.5 1h1q8 0 8 -18q0 -2 0.5 -21.5t1 -48t0.5 -51.5q0 -32 -2 -86z" />
    <glyph glyph-name="i" unicode="i" horiz-adv-x="243" 
d="M65 625v42q0 39 20 39q5 0 8 -1q5 0 35 0.5t44 -1.5q22 -3 22 -16q0 -3 -1.5 -10.5t-1.5 -11.5q-11 -85 -12 -175q-1 -26 -1 -80q0 -42 1 -96t1 -56q0 -7 1.5 -52t1.5 -65q0 -19 -1 -23t-1 -23q0 -16 1 -47.5t1 -37.5q1 -13 -7.5 -16.5t-22.5 -2.5h-91q-8 0 -13 2t-7 7.5
t-2.5 9t-1.5 12.5q-2 8 2 38t4 47q0 20 6.5 123t6.5 115q0 13 2 95t2 94q0 16 2 54z" />
    <glyph glyph-name="j" unicode="j" horiz-adv-x="393" 
d="M310 699q18 0 24.5 -5.5t6.5 -22.5q0 -8 -2.5 -51t-2.5 -67q0 -143 -6 -237q-1 -12 0 -51t1 -70.5t-7 -72.5t-21.5 -69t-45 -48t-74.5 -20q-45 0 -78.5 19.5t-50 45t-26 59t-11.5 51.5t-2 33q0 68 -4 137q-1 15 1 23.5t8 11.5t10.5 3t13 -1t12.5 -1q10 -1 29.5 0.5
t34.5 1.5q9 0 14.5 -1.5t7.5 -6.5t3 -7t0.5 -11.5t-0.5 -10.5q0 -5 1 -27t1 -37q0 -19 -1 -29q-1 -8 -1 -26q0 -75 38 -75q25 0 25 135q0 35 -2 96t-2 77l-1 227q0 28 26 28q3 0 11 -0.5t11 -0.5h59z" />
    <glyph glyph-name="k" unicode="k" horiz-adv-x="601" 
d="M208 110q0 -11 2.5 -49t2.5 -47q0 -4 -1 -7t-2 -4.5t-3.5 -2t-4 -0.5h-4.5h-4q-4 0 -24.5 1.5t-28.5 1.5q-7 0 -40 -1.5t-37 -1.5q-7 0 -8.5 4t-1.5 15v4l-1 245v94q0 119 -2 141q-1 12 -1 38q0 15 0.5 38t0.5 28l1 79q0 9 10 9q4 0 11.5 -1.5t10.5 -1.5l114 -1
q16 0 16 -14q0 -1 0.5 -16.5t0.5 -32.5q0 -14 -5.5 -68t-5.5 -70v-66q0 -27 1 -42q13 15 24 30l37 48q13 16 56 76t52 73q2 2 27.5 34.5t29.5 42.5q2 6 6 9t6.5 3.5t9 1t7.5 0.5q4 0 11 0.5t16 1.5t15 1h4q18 0 18 -7q0 -4 -10 -14q-17 -17 -97 -118q-13 -19 -59.5 -82
t-56.5 -75t-30.5 -46t-20.5 -38q0 -3 2.5 -6.5t10.5 -11t13 -12.5q22 -27 76 -81q3 -3 23 -25t43.5 -47.5t38.5 -39.5t35.5 -35t38 -39.5t18.5 -19.5q2 -2 2 -4q0 -11 -20 -7q-5 0 -39 -1.5t-44 -1.5q-25 -1 -39 11q-2 2 -9 8.5t-14 13.5t-14 15q-30 32 -69 71
q-7 7 -27 24.5t-30 26.5l-38 32v-84z" />
    <glyph glyph-name="l" unicode="l" horiz-adv-x="579" 
d="M567 129q0 -12 5 -63t5 -55q0 -1 1 -3v-2q0 -8 -23 -8q-7 0 -92 1.5t-105 1.5q-13 0 -77.5 -3t-85.5 -3q-5 0 -10.5 0.5t-6.5 0.5q-6 1 -23 1q-13 0 -41 -1t-35 -1t-10.5 0.5t-5 3.5t-2 4.5t0 8t0.5 9.5q0 7 3 87t3 92q0 8 -2.5 55.5t-2.5 65.5q0 -17 2 6l10 189l-1 113
q0 4 -1 30t-1 34v1q0 3 1.5 5t4.5 2.5t6 0.5t7 -0.5t6 -0.5q3 0 14 -0.5t24 -0.5h9q6 0 6 -8q0 -2 -3.5 -97.5t-3.5 -112.5l-1 -143q0 -6 1 -41t1 -52q0 -21 -1 -26v-18q0 -4 1 -5l24 -2q32 -2 53 -1q18 0 92 1t93 1q22 0 84.5 -2t67.5 -2q11 -1 11 -6q0 -1 -1 -5t-1 -6v-46
z" />
    <glyph glyph-name="m" unicode="m" horiz-adv-x="690" 
d="M122 434q-1 -21 -1 -64q0 -142 -4 -198q-1 -14 -1 -57v-63l1 -38v-3q0 -9 -3.5 -13t-10.5 -3q-5 2 -17.5 2h-14.5q-5 0 -5 7q0 1 0.5 7.5t0.5 10.5q0 6 -2.5 140t-2.5 165q0 149 6 219t6 137v4q0 9 2 12.5t4.5 3t6.5 -0.5h8q16 0 25 1q17 0 20 -29q3 -33 31 -120
q10 -31 51.5 -139t55.5 -139q13 -33 35 -101l22 -68l13 23l28 55q3 6 55.5 107t66.5 134q12 29 40.5 89t34.5 76q1 4 5.5 16t7 20.5t7 21t8.5 21l8 17t8 13t7 4.5q8 0 8 -23q0 -12 -2.5 -43.5t-3.5 -40.5q-3 -52 -3 -192q0 -161 -5 -226l-1 -163v-3q0 -10 -11 -10
q-27 0 -35 1q-5 1 -5 8q0 2 0.5 7.5t0.5 9.5q0 183 7 270q1 24 1 101q0 42 -1 64q-21 -37 -25 -46q-8 -14 -21 -40t-18 -34q-11 -21 -48 -97t-42 -86q-8 -14 -26 -49t-35 -68.5t-19 -37.5q-15 -33 -29 -33q-3 0 -5 0.5t-3 1.5t-2 3.5t-2 4t-2 6t-2 6.5q-48 135 -53 146
q-52 120 -65 168q-4 11 -15 45.5t-16 49.5q-19 55 -22 67z" />
    <glyph glyph-name="n" unicode="n" horiz-adv-x="597" 
d="M343 623q0 62 1 77q0 10 4 16t14.5 8.5t14.5 2.5h18q65 0 110 8q13 1 19.5 -3.5t6.5 -15t-2 -26.5q-2 -15 -2 -199v-226q0 -157 6 -253l1 3q0 -16 -16 -16q-7 0 -12 1q-4 1 -16 1q-11 0 -38.5 -2t-38.5 -2q-19 0 -28.5 8t-19.5 29q-4 8 -16.5 34.5t-26.5 54t-27 50.5
q-13 22 -66 121l-44 83v-38v-22v-26v-22q0 -205 6 -237q1 -5 1 -12t-2.5 -10.5t-6.5 -3.5h-10q-34 0 -78 -6q-15 -2 -19.5 5t-3.5 31q0 13 -1.5 58.5t-3.5 115t-3 118.5q0 44 2.5 139t2.5 131q0 46 -3 67q-2 18 -2 23q0 19 7 25.5t19 5.5q25 -2 59 6q11 2 22 2q3 0 16 -1
t30 -1q12 0 22.5 -5.5t19.5 -16.5t14.5 -20t14 -24.5t11.5 -20.5q12 -22 29 -47l15 -23v55z" />
    <glyph glyph-name="o" unicode="o" horiz-adv-x="639" 
d="M437 698q46 -31 80.5 -82t51 -103.5t23.5 -92t7 -64.5q0 -19 -1.5 -42t-8.5 -60.5t-18.5 -71t-33.5 -70t-51 -63t-74.5 -43.5t-100.5 -17q-166 0 -236 193q-31 87 -35 194q0 134 80 238.5t179 104.5h16h16.5h15t15 -0.5t13.5 -1.5t14.5 -2t12.5 -2.5t13 -3.5t11 -5t11 -6
zM306 45q72 0 120.5 44.5t69 112.5t20.5 154q0 126 -54.5 215t-141.5 89h-11h-10.5h-9.5t-10 -0.5l-9 -1.5t-9 -2.5t-8.5 -3.5t-9 -5t-8 -6.5t-8.5 -8.5l-6 -6q-117 -114 -117 -261q0 -62 11 -117t34 -101.5t63 -74t94 -27.5z" />
    <glyph glyph-name="p" unicode="p" horiz-adv-x="555" 
d="M74 673q0 11 2.5 15.5t5 5t11.5 0.5q10 0 58 5t73 5q84 0 122.5 -2t80 -14t62.5 -37q2 -3 9 -11t10 -11.5t9 -11.5t9 -13.5t7.5 -14t7 -15.5t5 -16.5t3.5 -19.5t1 -21q0 -150 -171 -209q-80 -27 -171 -28l-2 -109l-2 -141q0 -30 -24 -30q-4 0 -11.5 1t-10.5 1
q-8 0 -38.5 -2t-38.5 -2q-19 0 -19 32q0 5 2 95t2 121v274q0 40 4 87zM209 332q39 -2 75 3q82 6 121 25q70 33 70 122q0 38 -8 79q-14 76 -134 92q-27 4 -64 4q-16 0 -54 -2z" />
    <glyph glyph-name="q" unicode="q" horiz-adv-x="590" 
d="M404 49q-11 -16 -25 -25q-42 -26 -87 -23q-22 2 -48 9.5t-64 31.5t-67.5 60.5t-51 104t-21.5 153.5t21 152.5t51 103t67 59.5t63.5 30t46.5 7q61 0 108 -34t73 -90.5t38.5 -118.5t12.5 -127q0 -103 -63 -215q71 -86 86 -101q11 -11 11 -17t-13 -6l-74 1q-21 0 -32 18
l-28 32l-3 -4zM384 216q20 33 20 82q0 11 0.5 35.5t0.5 37.5q0 44 -3.5 76t-14.5 64.5t-35 49.5t-60 17q-45 0 -90 -59t-45 -155q0 -97 37.5 -154t79.5 -57q21 0 41 7q-10 11 -19.5 22t-17 20t-9.5 11q-10 16 -10 21q0 9 12 7q2 -1 9 -1q8 0 32.5 2t32.5 2q10 0 13.5 -0.5
t7 -6t6.5 -8.5z" />
    <glyph glyph-name="r" unicode="r" horiz-adv-x="561" 
d="M116 402q-4 -30 -2 -72q5 -55 5 -316q0 -25 -40 -25q-3 0 -5.5 1.5t-3.5 5.5l-1.5 6t-1 8t-0.5 7q-2 16 -2 47q0 20 1 30q5 110 5 430q0 114 -3 134q-1 8 -1 21q0 15 4.5 19t13.5 4q3 0 63.5 -1.5t84.5 -1.5q22 0 48.5 -3.5t61.5 -12.5t57.5 -30.5t22.5 -52.5
q0 -33 -18 -59t-43.5 -40t-57.5 -23t-55 -11.5t-42 -2.5q-13 0 -14 1q1 -1 151 -202t171 -222q27 -27 27 -37q0 -2 -5 -7q-9 -6 -45 -6h-15.5t-11 1.5t-7 2t-5 4t-3.5 4.5t-3.5 7t-3.5 8q-3 7 -29.5 41.5t-63 82.5t-56.5 77q-19 28 -105 137l-69 86zM117 505q33 0 50 1
q58 2 90 8q46 8 69.5 22t23.5 44q0 29 -42.5 46.5t-80.5 17.5q-25 1 -70 1h-34z" />
    <glyph glyph-name="s" unicode="s" horiz-adv-x="503" 
d="M408 594q-76 55 -130 55q-69 0 -104.5 -31.5t-35.5 -79.5q0 -41 29.5 -70t77.5 -55q5 -2 40.5 -15.5t58.5 -26.5t53 -37t46 -61.5t16 -85.5q0 -61 -25.5 -102.5t-67.5 -60.5t-79 -26t-77 -7q-39 0 -79 17t-57.5 30t-26.5 22q-10 9 -5 18q0 1 3.5 7t6 10.5t6 8.5t6.5 4h2
q4 0 20 -16q13 -13 51 -29.5t63 -16.5q21 0 39.5 3t47 13t45.5 36t17 66q0 16 -7.5 30.5t-26 28.5t-33 23t-45 25.5t-44.5 24.5q-70 40 -109.5 86t-39.5 121q0 92 73.5 147t157.5 55q23 0 46 -5t40 -11.5t33.5 -16t26 -16t18.5 -14.5l9 -7q10 -7 10 -14q0 -4 -4 -8
q-2 -2 -7 -10t-10 -14t-9 -6q-5 0 -13 5z" />
    <glyph glyph-name="t" unicode="t" horiz-adv-x="578" 
d="M437 663q0 -36 -1.5 -179.5t-1.5 -177.5q0 -47 8 -151t8 -118q0 -6 -0.5 -11t-3 -8.5t-5 -6t-7.5 -3.5t-9.5 -2t-12.5 -1t-14.5 0.5t-17 0.5h-18.5q-35 0 -128 2t-98 2q-10 0 -10 20q0 8 2 31t2 36q-2 26 -2 91q0 229 9 335q2 26 2 70q0 49 -3 74q-11 1 -18 1
q-9 0 -43.5 -1t-39.5 -1q-8 0 -8 16q0 3 0.5 10.5t0.5 11.5q0 13 11 13q3 0 11 -1t13 -1l213 1q32 0 141 1.5t117 1.5q6 0 9.5 -1.5t5 -5.5t2 -6.5t0 -9t-0.5 -9.5q1 -13 -5 -18t-19 -5q-5 0 -18.5 -0.5t-27 -0.5h-39.5h-4z" />
    <glyph glyph-name="u" unicode="u" horiz-adv-x="624" 
d="M257 298v-18.5t3 -20t8.5 -23t17.5 -14.5t29 -7q67 0 67 94q0 7 2 73t2 101q0 28 -1 38q0 28 -3 90.5t-3 71.5q0 18 5 25t19 7h127q2 0 7 0.5t8 0.5q22 0 25 -30q2 -17 2 -118q0 -46 -0.5 -124t-0.5 -91q0 -21 -3 -47.5t-11 -69t-26 -80.5t-44.5 -73t-71 -56t-100.5 -21
q-49 0 -88.5 10.5t-65 25.5t-45 38t-29.5 42t-17 44.5t-8.5 38t-2.5 29.5q-1 10 -1 40q0 29 2.5 121.5t1.5 121.5q0 39 -1.5 100t-1.5 65v9.5v9t1 7t3.5 6t6.5 3t11 1.5q34 -2 52 -2q11 0 33 2t36 2q10 0 24 -0.5t16 -0.5q6 0 9.5 -2.5t4 -6t1.5 -12.5v-400z" />
    <glyph glyph-name="v" unicode="v" horiz-adv-x="521" 
d="M63 703h3q8 0 11.5 -2t4.5 -9l2 -6q6 -14 19 -72q6 -25 38 -124t38 -126q9 -40 47 -153q12 -38 21 -62q7 -16 8 -18q22 71 45 120q20 37 68 193q9 24 36.5 90t30.5 75q5 11 16 45t13 38q3 14 16 9q5 -2 25 -2q6 0 6 -3q0 -2 -4 -10q-20 -53 -34 -77q-10 -18 -48 -127.5
t-49 -144.5q-7 -16 -40.5 -111t-38.5 -109q-6 -16 -14.5 -39t-16 -42.5t-7.5 -20.5q-3 -12 -13 -12q-3 0 -5 0.5t-2.5 1.5l-1.5 3t-2 3q-1 2 -11 35t-22.5 72t-17.5 53l-68 192q-5 14 -29.5 94.5t-28.5 92.5q-5 11 -18.5 65t-16.5 63q-4 11 -4 18q0 5 9 7h35z" />
    <glyph glyph-name="w" unicode="w" horiz-adv-x="771" 
d="M273 335q7 4 16.5 19t19.5 35t13 25q1 2 30.5 48.5t34.5 59.5q20 31 34 31q7 0 9.5 -3.5t4.5 -14t4 -16.5q1 -12 9 -47.5t12 -57.5q8 -31 19 -55q4 -11 11 -24q2 9 6 18l12 31q1 8 13 45.5t18 61.5q8 33 28 97.5t28 84.5q2 7 5 12t5 7.5t7.5 3.5t8 1h10h9.5h82
q20 0 20 -12q0 -3 -1.5 -9.5t-1.5 -8.5q-2 -6 -13 -41.5t-22 -65.5q-2 -6 -55 -186q-4 -16 -24.5 -101t-26.5 -110q-13 -44 -35 -101.5t-31 -57.5q-19 0 -34 52q-23 47 -52 145q-4 16 -31 102l-21 60q-5 -13 -7 -16q-2 -6 -8.5 -19l-8.5 -17l-69 -135q-49 -114 -52 -123
q-20 -52 -41 -52q-16 0 -20 27q-16 47 -21 73q-4 28 -33.5 149.5t-32.5 139.5q-3 11 -27 116t-32 130q-5 23 -5 32q0 18 19 23q8 0 41 3t52 3q7 0 12 -0.5t8.5 -2.5t5.5 -3t3.5 -5t2 -5.5t1.5 -7t1 -6.5q1 -6 6.5 -34t11.5 -53q4 -14 15.5 -53t21 -71.5t11.5 -44.5
q3 -9 6 -29.5t6.5 -33.5t8.5 -13h3z" />
    <glyph glyph-name="x" unicode="x" horiz-adv-x="594" 
d="M239 509q8 0 27 56.5t23 85.5q7 44 35 44q7 0 27 2t31 2q67 0 86 -7q14 -4 14 -21q0 -15 -11 -35q-6 -12 -20.5 -51.5t-30 -83t-18.5 -52.5q-43 -96 -43 -114q0 -4 0.5 -8t2.5 -8.5t3.5 -7t5 -7.5t5 -7t6.5 -8.5t7 -8.5q6 -9 76 -122.5t78 -124.5q11 -12 11 -22
q0 -7 -11 -7q-7 0 -31 -1t-29 -1t-9 7t-9.5 21.5t-10.5 22.5q-12 16 -75 122q-46 77 -54 77q-3 0 -5.5 -5t-6.5 -20t-7 -23q-7 -15 -36.5 -98.5t-30.5 -86.5q-9 -21 -33 -21q-8 0 -13 1q-11 0 -67 1t-67 1t-11 12q0 14 10 36q3 7 29 63.5t35 77.5q7 17 19 48.5t24 64.5
t14 37q31 78 31 84q0 5 -1.5 9.5t-3 7t-6 8.5t-8.5 11q-42 58 -66 106q-6 15 -28.5 53t-30.5 48q-6 9 -6 15q0 10 12 10q6 1 20 0t21 -1q20 0 35 -27q2 -4 14 -27t23 -43.5t16 -26.5q4 -5 12.5 -20t15.5 -26.5t10 -11.5z" />
    <glyph glyph-name="y" unicode="y" horiz-adv-x="529" 
d="M153 585q21 -66 49 -130q13 -30 28 -76q2 -5 5 -14.5t6 -17.5t5 -16l8 25l15 43q33 98 56 147q28 81 36 115q2 8 5 14t5 9t7.5 4.5t6.5 1.5h7h7q1 0 21 0.5t33 0.5q25 0 43 -2q21 -3 21 -10q0 -1 -2 -9q-1 -2 -16.5 -48t-24.5 -68q-7 -20 -42.5 -111t-43.5 -113
q-17 -40 -53.5 -133t-39.5 -105q-3 -8 -6 -22.5t-5.5 -30.5t-3.5 -20q-3 -12 -6.5 -16.5t-9.5 -3.5l-59 -1q-7 0 -39 -0.5t-40 -0.5q-13 0 -13 6q0 2 2 5.5t2 5.5l36 97q2 9 13 38t13 36q2 4 5.5 11.5t4 9.5t2 8.5t-1.5 8.5q-2 4 -13 38.5t-17 48.5q-6 15 -15 46t-14 44
q-31 76 -77 224q-3 11 -8 22.5t-8 18.5t-3 12q0 11 30 13q15 1 50 -1q7 -1 9.5 -3.5t3 -8.5t1.5 -9z" />
    <glyph glyph-name="z" unicode="z" horiz-adv-x="562" 
d="M417 645q-69 0 -88 1q-7 0 -86.5 1.5t-121.5 1.5q-43 0 -61 -2q-38 -3 -38 14q0 20 4 39q1 9 12 9q5 0 17 -2.5t19 -2.5l98 1q13 0 53 -0.5t56 -0.5q104 0 135 -3q57 -5 81 -5q16 0 21 1q2 0 4 0.5t3 0.5q5 0 7 -1.5t2.5 -3t0 -5t-0.5 -4.5q0 -9 -4 -37q-1 -9 -8.5 -19.5
t-23.5 -28t-23 -26.5q-39 -52 -103 -148q-14 -22 -112 -150q-75 -98 -81 -106q-1 -1 -40 -61l-26 -43q47 -1 127 -1h60.5t54.5 -0.5t24 -0.5q8 0 43.5 -2t45.5 -2l66 1h2q7 0 7 -10q0 -1 0.5 -13t0.5 -19q0 -12 -13 -12q-3 0 -15 2q-29 5 -64 3q-10 0 -111.5 -2.5
t-121.5 -2.5q-149 0 -174 -3h-6q-5 0 -8 1t-4 3.5t-1.5 4t0 5t0.5 4.5q0 15 18 41q1 2 34.5 47.5t65.5 89t43 55.5q11 13 79 100.5t94 119.5q33 40 77 108l40 63h-60z" />
    <glyph glyph-name="braceleft" unicode="{" horiz-adv-x="274" 
d="M220 713q0 -13 -8 -16t-27 -3q-61 -9 -61 -83q0 -28 21 -65.5t21 -88.5q0 -57 -32 -103q-13 -19 -32 -33q20 -10 32 -25q32 -38 32 -93q0 -31 -7 -74t-7 -84q0 -73 94 -73q10 0 10 -13q0 -5 2 -20.5t2 -19.5q0 -17 -14 -17q-1 0 -7 -1t-22.5 -2.5t-42.5 -1.5
q-39 0 -73.5 42.5t-34.5 86.5q0 26 11 86.5t11 93.5q0 31 -12 52t-23 28t-19 7q-14 0 -14 12q0 3 1.5 11.5t1.5 18.5q0 22 7 22q14 0 30.5 18.5t16.5 53.5q0 19 -17.5 74.5t-17.5 133.5q0 63 56 102t108 39q5 0 8.5 -1t4.5 -4t1.5 -5t0 -6.5t-0.5 -6.5v-42z" />
    <glyph glyph-name="bar" unicode="|" horiz-adv-x="206" 
d="M146 -80v-52q0 -23 -5 -34.5t-9.5 -12.5t-12.5 0q-18 -1 -48 1q-21 2 -21 20q0 4 1.5 13.5t1.5 14.5q11 103 12 216q1 33 1 99q0 52 -1 119t-1 70q0 8 -1.5 64t-1.5 81q0 24 1 28q1 6 1 30q0 20 -1 59t-1 45q-1 16 7 20.5t22 3.5h59q10 0 15 -6t6 -12.5t2 -20.5
q2 -10 -2 -47t-4 -58q0 -24 -6 -152t-6 -143q0 -16 -2 -118t-2 -116q0 -21 -2 -67z" />
    <glyph glyph-name="braceright" unicode="}" horiz-adv-x="257" 
d="M52 713v10q0 10 13 10q49 0 101 -35.5t52 -94.5q0 -71 -16.5 -123t-16.5 -70q0 -32 15.5 -49t27.5 -17q6 0 6 -12q0 -10 2 -21t2 -14v-2q0 -11 -14 -11q-8 0 -18 -6t-20.5 -25.5t-10.5 -48.5q0 -31 9.5 -86.5t9.5 -79.5q0 -41 -31 -80t-68 -39q-15 0 -27 0.5t-18.5 0.5
t-11 0.5t-7 1t-3.5 0.5q-13 0 -13 16q0 3 1.5 15.5t1.5 18.5v5q0 11 10 11h3q84 -2 84 67q0 38 -7 78t-7 68q0 52 30 86q13 15 30 24q-17 14 -30 31q-30 42 -30 95q0 46 20 81t20 62q0 68 -56 76q-18 0 -25.5 2.5t-7.5 14.5v40z" />
    <glyph glyph-name="asciitilde" unicode="~" horiz-adv-x="558" 
d="M491 336q0 -21 -29 -21q-11 0 -38.5 8.5t-43.5 8.5q-31 -2 -72 -8.5t-59 -8.5q-14 -1 -48.5 -5.5t-62.5 -4.5q-89 2 -82 31q0 39 2 50q2 5 10 7q5 1 14.5 -2t25.5 -8.5t30 -8.5q34 0 89 11q53 12 148 12q45 0 80 -6q16 -1 24.5 -5t10 -8t1.5 -11.5v-9.5v-21z" />
    <glyph glyph-name="exclamdown" unicode="&#xa1;" horiz-adv-x="218" 
d="M104 588q-32 0 -48.5 21.5t-16.5 45.5q0 7 1 10q0 17 21.5 39t48.5 22q25 0 43.5 -22.5t18.5 -52.5q0 -9 -1 -14q-9 -49 -67 -49zM152 343q2 -114 5 -172q5 -114 4 -133q0 -19 1 -26v-1q0 -11 -21 -11q-20 1 -66 1q-22 3 -22 16q0 3 1.5 10.5t1.5 11.5q1 7 1 26
q0 24 -1 38q0 49 10 168q2 46 2 61q0 7 -0.5 18.5t-0.5 16.5q-2 41 -1 44q1 4 1 21q1 9 1 31q0 13 -0.5 33t-0.5 23v3q0 11 5 14t18 2q4 0 11.5 -0.5t10.5 -0.5q4 0 12 0.5t11 0.5q15 0 17 -31q2 -12 2 -26q0 -17 -2 -59v-79z" />
    <glyph glyph-name="cent" unicode="&#xa2;" 
d="M410 471q-17 -21 -31 -21q-10 0 -17 7q-34 35 -63 45q-7 -170 -7 -216l1 -77q14 0 27 5q20 9 51 28q17 13 27 13q5 0 20 -11q33 -22 48 -48q6 -16 -18 -43q-27 -30 -60 -46q-35 -16 -92 -23q0 -36 2 -50q1 -6 1 -14q0 -11 -10 -16q-6 -4 -31 -4h-7q-11 0 -14 0.5t-4 4.5
t0 13q1 14 1 24v45q-35 6 -63 14q-69 22 -104 85.5t-36 182.5q2 128 70 189q61 55 144 61q2 38 0 48q0 4 -0.5 10.5t-0.5 9.5q0 23 16 23q2 0 15 -0.5t22 -0.5q10 0 10 -12q0 -3 -1 -10.5t-1 -11.5q-2 -14 -4 -56q90 -8 137 -55q10 -10 10 -23q0 -11 -7 -22zM161 344
q0 -104 75 -129q2 136 2 168q0 14 1.5 58t1.5 63q-23 -9 -45 -30q-35 -35 -35 -130z" />
    <glyph glyph-name="sterling" unicode="&#xa3;" 
d="M371 60l103 -1h2q7 0 6 -9v-4q-1 -4 0.5 -17t1.5 -18q0 -4 -1 -6t-4 -3t-5 -1h-7.5h-7.5q-6 0 -60.5 4.5t-71.5 4.5q-53 0 -115 -5l-47 -2l-38 -2h-108q-4 0 -4 18t4 66q0 3 35 18t35 53q0 80 1 108v9q-10 0 -26 1t-19 1q-5 0 -8 0.5t-5 1t-2.5 2.5t-0.5 3v4v5
q0 4 -1.5 18t-2.5 23.5t0 15.5q0 6 10 6q3 0 13 -2h43v30q0 202 78 287q21 22 47 37q23 13 68 23q30 0 55 -7t41.5 -16t31 -24t21.5 -25t16 -24.5t11 -17.5q8 -11 8 -20t-19 -22q-3 -3 -32.5 -30t-38.5 -32q-3 -3 -7 -3t-6.5 3t-6 8.5t-5.5 7.5q-25 37 -53 37
q-55 0 -55 -178l1 -31h109q9 0 9 -8q0 -1 -0.5 -4t-0.5 -5v-50q0 -8 -9 -8q-2 0 -6.5 0.5t-7.5 0.5q-2 0 -25 -1.5t-36 -1.5l-31 -1v-20q0 -9 -1 -55t-1 -54q-5 -45 -17 -64q-8 -11 -26 -19l97 -2z" />
    <glyph glyph-name="currency" unicode="&#xa4;" 
d="M462 91q4 -4 7 -7.5t4 -5t1.5 -2.5t1.5 -1.5l2 -1t5 -1.5q4 -8 4 -10q0 -4 -9 -8q-10 -8 -22 -8q-9 0 -14 4q-15 5 -27 22q-1 3 -8.5 12t-21 26t-23.5 29q-51 -31 -127 -31q-63 0 -109 28l-7 -8q-9 -11 -21 -28t-13 -19q-32 -36 -41 -36q-14 0 -32 9q-2 1 0.5 9t10 19.5
t16.5 19.5q9 11 52 62q-24 25 -41 63q-22 51 -27 117q0 79 58 142q-23 28 -42 50q-9 8 -16.5 19.5t-10 19.5t-0.5 9q18 9 32 9q9 0 41 -36q3 -4 12.5 -18t16.5 -24q54 39 111 39q81 0 108 -13q24 -13 41 -27q39 47 41 52q12 17 27 22q5 4 14 4q12 0 22 -8q9 -4 9 -8
q0 -2 -4 -10q-5 -2 -6 -2.5t-2 -1.5t-4 -5t-9 -10q-3 -4 -9.5 -12.5t-19.5 -24t-26 -31.5q28 -37 40.5 -79.5t12.5 -67.5q0 -102 -60 -164q14 -18 29.5 -36.5t22.5 -27t10 -13.5zM232 169q71 0 105.5 47t34.5 116q0 65 -37 112t-94 47q-46 0 -62 -15q-16 -10 -31.5 -24.5
t-33 -46.5t-17.5 -68q0 -70 33 -119t102 -49z" />
    <glyph glyph-name="yen" unicode="&#xa5;" 
d="M431 229q2 0 5.5 0.5t4.5 0.5q10 0 14.5 -3.5t5 -6.5t0.5 -11v-45q0 -10 -7 -13.5t-30 -3.5q-10 0 -49 1.5t-60 1.5q-11 1 -27 1q-19 -53 -20 -59q-4 -10 -8.5 -40.5t-4.5 -32.5q-2 -11 -5.5 -16t-8.5 -4h-10q-4 0 -14 -0.5t-16 -0.5h-46q-7 0 -19.5 -0.5t-15.5 -0.5
q-10 0 -10 6q0 1 0.5 3t1.5 4.5t1 3.5q1 2 5.5 15.5t10 31t8.5 29.5l7 21q1 9 10 36l2 4h-40q-53 0 -69 -4q-14 0 -14 17v41q0 13 4 18.5t16 5.5h119q0 3 -2 9t-9.5 34.5t-10.5 38.5l-3 7h-3q-68 -4 -97 -4q-3 -1 -7 -1q-13 0 -15 23q-2 10 -2 15q0 4 1 14.5t1 17.5
q0 24 15 24q3 0 15 -2h68l-13 40q-27 100 -53 181q-3 13 -10.5 30t-7.5 23q0 11 27 13q14 1 43 -1q6 -1 8.5 -3t3 -4.5t0.5 -6v-7.5q1 -3 5 -17.5t9 -32.5t9 -33q11 -38 43 -131q8 -20 25 -76q3 -9 8 -27t6 -21q3 16 7 25q2 11 12 43q2 7 13.5 42t21.5 65.5t14 40.5
q21 42 32 115q7 29 24 29h10q1 0 17.5 0.5t28.5 0.5q21 0 39 -2q18 -3 18 -10q0 -3 -2 -9q-1 -3 -14 -48.5t-22 -67.5q-4 -10 -16.5 -49.5t-20.5 -61.5l-14 -40l22 2q48 2 53 2q15 0 19.5 -4t5.5 -18q0 -4 1 -17.5t1 -22.5t-2 -23q-1 -16 -12 -16q-3 0 -11.5 1t-14.5 1h-94
l-4 -12l-16 -45q-2 -8 -8 -24h117z" />
    <glyph glyph-name="brokenbar" unicode="&#xa6;" horiz-adv-x="210" 
d="M63 694q0 11 10 11q2 0 6 -0.5t5 -0.5h53q9 0 9 -10q0 -2 -0.5 -7.5t-0.5 -8.5q0 -2 2 -30t2 -42q0 -2 0.5 -27.5t0.5 -61.5q0 -26 0.5 -46t1 -29t0.5 -13q4 -12 4 -34q0 -14 -2 -36.5t-2 -26.5q0 -7 -0.5 -11t-3 -6t-3.5 -2.5t-5.5 0t-6.5 0.5q-8 0 -27 -2.5t-26 -2.5
q-6 0 -8 1q-8 0 -8 12q0 2 2 14v76q0 5 -2 35q-1 15 -1 103v145zM60 204q0 11 10 11q2 0 6 -0.5t5 -0.5h63q9 0 9 -10q0 -2 -0.5 -7.5t-0.5 -8.5q0 -2 2 -30t2 -42q0 -2 0.5 -27.5t0.5 -61.5q0 -26 0.5 -46t1 -29t0.5 -13q4 -12 4 -34q0 -14 -2 -36.5t-2 -26.5
q0 -7 -0.5 -11t-3 -6t-3.5 -2.5t-6 0t-6 0.5q-5 0 -23 -1.5t-29.5 -2.5t-18.5 0q-8 0 -8 12q0 2 2 14v76q0 6 -2 36q-1 15 -1 102v145z" />
    <glyph glyph-name="section" unicode="&#xa7;" horiz-adv-x="447" 
d="M382 639q-11 -14 -17 -24h-2q-1 0 -15 12q-9 9 -38 21.5t-48 12.5q-7 -1 -26.5 -1.5t-27.5 -2t-18.5 -10t-15.5 -24.5q-1 -4 -1 -12q0 -15 5 -26.5t17 -21.5t22 -16t31 -16.5t33 -17.5q56 -32 85.5 -67t29.5 -97q0 -52 -14 -78q-9 -18 -22 -31q12 -8 23 -22
q15 -25 16 -77q-5 -55 -17 -76q-11 -21 -31 -41q-34 -34 -100 -34q-84 0 -157 48q-18 12 -32 23.5t-21 18.5l-7 6q-4 4 -4 7l5 10q1 1 10 16t14 20q2 2 4.5 5.5t4.5 5t5 1.5q2 0 7.5 -4.5t19 -16t27.5 -22.5q26 -20 57.5 -34.5t50.5 -14.5t30.5 2.5t20.5 14t8 32.5
q-6 19 -20 34t-22 20.5t-32.5 16t-26.5 11.5q-74 38 -99 77.5t-30 113.5q0 47 14 69t28 36q-10 18 -15 29q-10 26 -10 62q0 43 18.5 73t48.5 43.5t57 18.5t57 5q28 0 58.5 -12.5t44 -22.5t19.5 -16q5 -5 5 -8v-6zM322 278q5 18 5 32q-4 54 -82 93q-7 4 -27 11.5t-32 12.5
q-10 4 -30 14q-14 -14 -15 -32q-1 -6 -1 -15q0 -28 20 -53q21 -22 87 -46q35 -11 69 -29z" />
    <glyph glyph-name="dieresis" unicode="&#xa8;" horiz-adv-x="455" 
d="M283 778q0 62 74 62q19 0 31 -18.5t12 -43.5q0 -22 -16.5 -38t-46.5 -16q-54 0 -54 54zM174 782q0 -28 -20.5 -45t-41.5 -17q-22 0 -40 16t-18 42q0 21 15.5 38t38.5 17q26 0 46 -13.5t20 -37.5z" />
    <glyph glyph-name="copyright" unicode="&#xa9;" horiz-adv-x="748" 
d="M513 662q55 -27 96 -72.5t60.5 -93t28 -83t8.5 -59.5q0 -17 -2 -37.5t-10 -54t-21.5 -64t-40 -63.5t-61 -56.5t-88.5 -39t-119 -15.5q-197 0 -280 173q-36 78 -42 176q0 121 94.5 215t213.5 94q45 0 64.5 -0.5t49.5 -5t49 -14.5zM358 74q86 0 144 40.5t81.5 101
t23.5 138.5q0 115 -64.5 195t-167.5 80h-8q-26 0 -39 -1t-31 -7t-33 -18q-1 -1 -14 -10.5t-19 -14.5t-20 -17.5t-22.5 -22.5t-21 -25t-20 -31t-15 -34.5t-11 -40t-3.5 -44.5q0 -44 8 -84.5t26 -78.5t45 -65.5t68.5 -44t92.5 -16.5zM365 463q-23 0 -42 -29.5t-19 -92.5
q0 -31 8 -54.5t20 -34t21.5 -15.5t17.5 -5q6 0 12.5 3t10.5 5.5t10 7.5t7 6q6 9 15 5q4 -4 23.5 -13.5t24.5 -13.5q15 -7 16 -10q0 -2 -3 -7q-6 -11 -15 -23t-36 -27t-61 -15q-56 0 -100 60t-44 145t41 141.5t91 56.5q41 0 67 -17.5t33 -31.5q7 -7 7 -11q0 -3 -7 -9
q-26 -20 -37 -36q-12 -14 -17 -14t-10 5q-1 1 -6 7t-6.5 7t-5.5 4.5t-8 4.5t-8 1z" />
    <glyph glyph-name="ordfeminine" unicode="&#xaa;" horiz-adv-x="308" 
d="M117 682q7 28 10 32q3 7 7 3q5 -5 6 -14q0 -1 11 -26t16 -34q10 -21 21 -53q4 -9 43 -95q27 -59 43 -85q8 -21 23 -45q3 -5 3 -7q0 -4 -9 -4h-36q-4 0 -10 17q-9 14 -20 51l-12 29q-4 10 -9 10q-4 0 -20 -2q-40 0 -54 -2h-42q-5 0 -7 -11q0 -2 -5 -21t-5 -25
q-2 -11 -6 -21l-4 -15q-1 -9 -6 -9h-30q-5 0 0 9q0 1 2.5 6.5t4.5 12.5q1 7 10 38t12 43q4 21 18 64q8 27 13 48l19 66zM115 571q-4 -13 -11 -33q-5 -11 3 -11q51 0 59 3q11 1 11 2q1 1 -1 4q0 1 -10.5 24.5t-13.5 32.5q-6 13 -12 31q-4 10 -6 10q-1 0 -2 -2.5t-2 -8
t-2 -8.5z" />
    <glyph glyph-name="guillemotleft" unicode="&#xab;" horiz-adv-x="616" 
d="M309 298q-23 39 -26 58q13 20 31 42q9 10 37 49q22 30 27 41q9 23 27 53q6 10 10 23t8 17q3 5 6.5 16.5t7 17t8.5 5.5q15 0 34 -1h38q6 0 16.5 -0.5t12.5 -0.5q12 0 12 -6q0 -5 -9 -16q-5 -5 -59 -95t-63 -98q-23 -30 -38 -72q17 -31 45 -60q23 -33 45.5 -67t35.5 -55
t15 -24q15 -22 15 -32t-12 -13q-11 -3 -28 -3q-38 0 -49 5t-22 30q-15 28 -35 55q-9 13 -46 65zM222 74q-5 0 -9 6t-9 16.5t-9 16.5q-3 3 -8.5 16t-13.5 23q-11 15 -34 54q-4 9 -32 41q-24 28 -44 48q-13 13 -36 43q2 22 43 93q43 71 49 88q16 38 22 63q6 35 33 35q6 0 24 1
t28 1q65 0 84 -5q14 -3 14 -16q0 -12 -11 -29l-13 -26q-14 -26 -26 -42q-4 -5 -21.5 -31t-35.5 -47l-36 -46l-32 -42q15 -27 28 -44q5 -5 146 -193q11 -10 11 -17q0 -5 -11 -5q-2 0 -12.5 -0.5t-16.5 -0.5q-18 0 -38 -1h-34z" />
    <glyph glyph-name="logicalnot" unicode="&#xac;" 
d="M433 394q24 2 29.5 -3t5.5 -17v-54q0 -1 -2 -39q-1 -9 -1 -30q0 -19 1.5 -65.5t1.5 -68.5q2 -17 -62 -18q-22 -3 -38 -3q-31 0 -31 13q2 56 2 87q0 53 -3 110q-23 1 -77 1h-116q-80 0 -99 -4q-11 0 -13 4t-2 13v50q0 24 21 24h383z" />
    <glyph glyph-name="softhyphen" unicode="&#xad;" 
d="M430 317q5 0 7 -2t2.5 -3.5t0 -6t-0.5 -5.5v-52q0 -8 -11 -8q-2 0 -7 0.5t-8 0.5q-2 0 -27.5 -1.5t-40.5 -1.5q-5 0 -13.5 -0.5t-28 -1t-44.5 -0.5h-43.5t-28 -0.5t-12.5 -0.5q-9 -2 -33 -2q-14 0 -35 1t-25 1q-6 0 -9.5 0.5t-5.5 1t-2.5 2.5t-1 3t0 4t0.5 5q0 4 -1.5 19
t-2.5 24.5t0 15.5q0 6 11 6q3 0 15 -2h72q20 0 34 1q30 2 98 2h140z" />
    <glyph glyph-name="registered" unicode="&#xae;" horiz-adv-x="747" 
d="M235 44q-55 27 -96 72.5t-60.5 93t-28 83t-8.5 59.5q0 17 2 37.5t10 54t21.5 64t40 63.5t61 56.5t88.5 39t119 15.5q197 0 280 -173q36 -78 42 -176q0 -121 -94.5 -215t-213.5 -94q-45 0 -64.5 0.5t-49.5 5t-49 14.5zM379 623q-128 0 -191 -78t-63 -196q0 -114 66 -192.5
t172 -78.5h8q26 0 39.5 1t31.5 7t33 18q150 97 150 236q0 54 -13.5 102.5t-41 90t-77 66t-114.5 24.5zM359 257q1 -13 2.5 -33t2 -31.5t1.5 -13.5v-4q0 -8 -3 -10t-12 -1q-2 1 -8 1q-9 0 -32 -2.5t-28 -2.5q-9 0 -10.5 5t-0.5 19q0 2 -2 52.5t-2 75.5q0 22 1 27q4 13 4 83
q0 68 -3 88q0 3 -0.5 7t-0.5 5q0 7 1.5 10.5t3.5 4t5 0.5h2t12.5 1.5t27.5 3t30 1.5q58 0 88 -30.5t30 -78.5q0 -37 -24 -74q-9 -13 -25 -27q8 -15 22 -40.5t15 -26.5q33 -62 48 -83q7 -11 7 -15q0 -3 -10 -3l-60 -2q-4 0 -6 3.5t-7 15t-9 19.5q-10 18 -37 71l-27 52z
M352 395q8 0 14 3q15 6 15 28q0 31 -17 31q-5 0 -10 -5v-6v-10.5v-12.5q-2 -16 -2 -19v-9z" />
    <glyph glyph-name="macron" unicode="&#xaf;" horiz-adv-x="357" 
d="M309 831q2 0 4 0.5t3 0.5q11 0 11 -17v-30q0 -13 -22 -13q-8 0 -39.5 1.5t-44.5 1.5h-132q-46 0 -51 -3q-8 0 -8 13v27q0 19 11 19h268z" />
    <glyph glyph-name="degree" unicode="&#xb0;" horiz-adv-x="357" 
d="M121 462q-41 21 -60 61t-19 63q0 11 2 24t10.5 34t22.5 36.5t41.5 27.5t64.5 12q45 0 74.5 -20.5t40.5 -49.5q15 -32 18 -71q0 -49 -39.5 -86.5t-87.5 -37.5q-53 0 -68 7zM185 679q-41 0 -62.5 -27t-21.5 -65q0 -37 22.5 -63.5t56.5 -26.5q25 0 35 8q52 33 52 79
q0 39 -21 67t-61 28z" />
    <glyph glyph-name="plusminus" unicode="&#xb1;" 
d="M203 606q-2 16 -2 38q0 26 8 44q13 4 53 4q6 1 11 -0.5t7.5 -5.5t4.5 -7t2.5 -9.5t0.5 -9v-10.5v-7q0 -5 1.5 -27t1.5 -31t0.5 -29t0.5 -29q0 -19 -1 -28v-9q0 -9 2 -14q0 -3 48 -4q57 4 112 4q13 0 20 -5.5t8 -10t1 -12.5v-51q0 -22 -29 -22h-144q-13 -4 -13 -21
q0 -45 2.5 -84.5t2.5 -58.5q0 -37 -22 -44q-3 0 -19.5 2t-29.5 2q-12 0 -18 6.5t-6.5 12t-0.5 15.5v149q0 19 -27 19q-11 0 -26 -3q-19 0 -52.5 -2t-49.5 -2q-14 0 -17 3.5t-3 16.5q-2 8 -4 25.5t-4 26.5q-1 3 -1 9q0 29 22 29h15q16 1 27 1q19 0 26 -1q2 0 21.5 -1t31.5 -1
q15 0 23 2q4 1 7.5 2.5t5 4.5t2.5 5.5t1.5 8t0 9.5t-0.5 11v12v77zM428 97q17 1 25.5 -1.5t10 -6.5t1.5 -12v-54q0 -10 -8.5 -13.5t-35.5 -3.5h-36l-43 2q-30 2 -79 2h-105q-84 0 -104 -4q-11 0 -13 4t-2 13v50q0 24 22 24h367z" />
    <glyph glyph-name="twosuperior" unicode="&#xb2;" horiz-adv-x="341" 
d="M54 648q-8 4 0 12q1 1 3.5 4.5t8 9t13.5 12.5q28 21 101 33q51 0 75 -24q24 -23 24 -53q0 -9 -1 -16.5t-3.5 -15.5t-4.5 -13t-7 -13t-7 -11t-8 -11.5t-7 -10.5q-3 -5 -33 -39q-8 -12 -22 -26.5t-24.5 -23t-12.5 -9.5q-7 -7 -4 -7h3h4h7h12h39q49 0 62 2q4 0 7.5 -0.5
t5.5 -1.5l3 -1.5t1.5 -2.5t0.5 -3v-3.5v-3.5v-57q0 -9 -4.5 -11.5t-18.5 -2.5q-3 0 -24.5 -0.5t-34.5 -0.5q-21 0 -28 1h-121q-1 0 -3.5 -0.5t-4.5 -0.5q-10 0 -10 6v4t0.5 4.5t1 8t0.5 12.5q44 55 81 92q4 4 19.5 20t24 25.5t21 27.5t21.5 36q6 15 6 28q0 19 -8 29
q-11 19 -38 19q-20 0 -59 -13q-7 -3 -15.5 -11t-15 -14t-8.5 -6q-4 1 -10 11z" />
    <glyph glyph-name="threesuperior" unicode="&#xb3;" horiz-adv-x="371" 
d="M213 527q21 0 47 -4q19 0 45 -18.5t26 -57.5q0 -28 -13 -51t-24.5 -33t-18.5 -12q-46 -23 -121 -23q-18 0 -34.5 6.5t-28.5 18t-20.5 21t-15.5 20.5t-8 12q-6 10 2 13q1 0 3 1t6.5 4t11.5 6q1 1 3 1q4 0 8 -8q3 -14 23 -41q22 -26 82 -26q42 0 84 21q32 16 32 70
q0 22 -21.5 37.5t-55.5 15.5q-12 -1 -35.5 -2.5t-40.5 -2.5t-26 -1t-10 1q-5 -1 -6 3q-1 7 -1 16q0 1 14 12q20 10 116 74q3 3 3 4q0 3 -27 3l-142 -2q-3 0 -5 1t-3 2t-1.5 3.5t-0.5 3.5v4.5v4.5q0 2 0.5 19t0.5 28q0 18 -1 24q0 12 16 12q4 0 14.5 -1t15.5 -1q13 0 43.5 2
t48.5 2q21 0 55 -0.5t36 -0.5q8 0 8 -19v-4v-87q-47 -25 -68 -40q-2 -2 -21 -14l-14 -9q-9 -3 -9 -6q0 -2 2 -2h26z" />
    <glyph glyph-name="acute" unicode="&#xb4;" horiz-adv-x="238" 
d="M152 830q21 7 35 7q16 2 20 2q22 0 17 -28q-7 -22 -49 -34q-48 -15 -85 -33q-25 -9 -32 -9q-10 0 -21 7q-20 7 -20 22q0 2 2 10q1 5 20 13.5t30 11.5q6 3 22.5 8t38.5 15z" />
    <glyph glyph-name="paragraph" unicode="&#xb6;" horiz-adv-x="606" 
d="M537 702h14q13 0 16 -4t3 -16v-20q0 -10 -5.5 -13.5t-22.5 -3.5q-12 0 -50 2q-3 1 -14 1v-25q-4 -124 -4 -207q0 -25 4 -135.5t4 -137.5q2 -90 5 -111q0 -4 1 -12.5t1 -11.5q0 -14 -10 -14q-9 0 -21 -0.5t-15 -0.5q-16 0 -16 27q0 3 0.5 9.5t0.5 9.5q1 10 -0.5 65.5
t-4 123t-2.5 92.5v45q0 176 -4 259v25h-83v-46q0 -69 4 -252.5t4 -190.5q0 -24 1 -70.5t1 -53.5q0 -33 -21 -33q-6 0 -27.5 2t-28.5 1q-11 -5 -24 3.5t-9 23.5q3 15 3 50v91q0 64 7 183l-43 4q-46 6 -64 6q-15 0 -32.5 6.5t-37.5 21.5t-33.5 47.5t-13.5 77.5q0 89 33 134
t81 48q39 3 83 3q57 0 75 -3l33 2q13 1 47 1q42 0 67 -1z" />
    <glyph glyph-name="periodcentered" unicode="&#xb7;" horiz-adv-x="235" 
d="M117 426q76 0 76 -89q0 -24 -23.5 -41.5t-52.5 -17.5q-30 0 -51 20.5t-21 59.5q0 68 72 68z" />
    <glyph glyph-name="cedilla" unicode="&#xb8;" horiz-adv-x="293" 
d="M158 31q-27 -36 -33 -55q17 9 48 9q62 0 62 -70q0 -15 -7 -27t-10.5 -15.5t-13.5 -11.5q-5 -5 -15 -11q-22 -10 -63 -10q-25 0 -46 5.5t-21 13.5q0 12 8 49q0 4 3 4q2 0 5 -1.5t8.5 -5t10.5 -6.5q19 -6 38 -6q14 1 17 1.5t10 3t9.5 7.5t4.5 14q0 33 -24 33q-9 0 -20 -7
t-13 -7q-30 0 -31 8q0 8 7 36q3 19 15 49h51z" />
    <glyph glyph-name="onesuperior" unicode="&#xb9;" horiz-adv-x="236" 
d="M97 652q-21 -4 -46.5 -10.5t-27.5 -6.5t-10 2q-1 2 -1 6q-1 7 -1 15q0 9 3 12.5t14 7.5q43 2 109 31q10 2 13 2q14 0 14 -7q0 -13 -0.5 -32t-0.5 -28q-4 -32 -4 -81q0 -23 1 -31t1 -44q0 -67 5 -91q60 -3 60 -7q0 -3 1 -9.5t1 -9.5q0 -14 -15 -13q-14 0 -35 2t-31 2
l-74 -3q-20 1 -54 -1q-7 0 -9 15v5q0 10 6 12q34 6 51 10h6q21 0 23 10q1 8 1 22q-1 5 -1 28q0 74 -2 92q0 4 -0.5 13t-0.5 13t0.5 12.5t0.5 12.5z" />
    <glyph glyph-name="ordmasculine" unicode="&#xba;" horiz-adv-x="363" 
d="M123 365q-42 29 -61.5 83.5t-19.5 87.5q0 15 2 32.5t10.5 46.5t22.5 50.5t42.5 38t66.5 16.5q86 0 118 -97q15 -42 18 -97q0 -67 -40 -119t-90 -52q-54 0 -69 10zM188 630q-31 0 -47 -27t-16 -66q0 -37 16.5 -64t42.5 -27q20 0 27 8q38 38 38 80q0 40 -15 68t-46 28z" />
    <glyph glyph-name="guillemotright" unicode="&#xbb;" horiz-adv-x="616" 
d="M360 619q20 1 35 1q5 0 9 -6t9 -16.5t9 -16.5q4 -4 9 -16.5t13 -23.5q12 -15 34 -53q4 -9 32 -41q36 -42 43 -49q21 -21 37 -42q-2 -23 -44 -93q-41 -70 -49 -88q-16 -43 -21 -63q-6 -35 -33 -35q-6 0 -24 -1t-28 -1q-65 0 -84 5q-14 3 -14 16q0 12 11 29q0 1 13.5 26.5
t24.5 40.5q2 3 21 30.5t37 48.5q28 35 35 45l33 43q-15 27 -28 44q-5 5 -146 193q-11 13 -11 17q0 5 11 5q2 0 12.5 0.5t16.5 0.5h37zM137 74q-19 1 -37 1q-6 0 -16.5 0.5t-12.5 0.5q-12 0 -12 6t9 16q5 5 59 95t63 98q23 30 38 72q-16 31 -45 60q-23 33 -45.5 67t-35.5 55
t-15 24q-15 22 -15 32t12 13q11 3 28 3q38 0 49 -5t22 -30q15 -28 35 -55q23 -31 45 -65q27 -38 44 -67q24 -36 27 -57q-18 -27 -32 -43q-21 -26 -37 -48q-18 -26 -26 -41q-10 -24 -28 -54q-5 -9 -9 -22t-8 -17q-3 -5 -6.5 -16.5t-7 -17t-8.5 -5.5h-35z" />
    <glyph glyph-name="onequarter" unicode="&#xbc;" horiz-adv-x="725" 
d="M611 706q3 -3 3 -9q0 -22 -21 -52q-62 -101 -98 -175q-6 -12 -37.5 -73.5t-56.5 -108t-36 -62.5q-7 -13 -36.5 -67t-55.5 -101t-29 -57q-6 -16 -10 -21.5t-18 -15.5q-8 -3 -20 -3q-13 0 -31 4q-13 7 -8 19q2 5 18 31q2 5 53.5 97t69.5 132q54 106 153 276q35 54 73 140
q22 46 43 53q1 0 5.5 0.5t7.5 0.5q14 0 31 -8zM154 652q-21 -4 -46.5 -10.5t-27.5 -6.5t-10 2q-1 2 -1 6q-1 7 -1 15q0 9 3 12.5t14 7.5q43 2 109 31q10 2 13 2q14 0 14 -7q0 -13 -0.5 -32t-0.5 -28q-4 -32 -4 -81q0 -23 1 -31t1 -44q0 -67 5 -91q60 -3 60 -7q0 -3 1 -9.5
t1 -9.5q0 -14 -15 -13q-14 0 -35 2t-31 2l-74 -3q-20 1 -54 -1q-8 0 -9 15v5q0 10 6 12q34 6 51 10h6q21 0 23 10q1 8 1 22q-1 5 -1 28q0 74 -2 92q0 4 -0.5 13t-0.5 13t0.5 12.5t0.5 12.5zM614 355h4q5 0 7.5 -0.5t4 -3.5t1.5 -9l-2 -49q-2 -49 -2 -129q0 -17 7 -17
q1 0 8.5 0.5t12.5 0.5q3 0 5 -17v-2q0 -15 -5 -15h-2q-2 0 -7.5 -0.5t-9.5 -0.5q-9 0 -9 -15l-1 6v1v-11q-1 -12 -1 -24q0 -10 -0.5 -22t-0.5 -20v-8v-5q0 -8 -8 -10h-37q-5 0 -5 18v23q0 9 0.5 16t0.5 8t0.5 8t0.5 21t-11 14q-1 0 -21 -1.5t-31 -1.5q-4 0 -10.5 0.5
t-11.5 0.5q-22 0 -33 -1l-37 -1q-11 0 -11 20q0 8 1 11.5t2.5 6.5t9.5 12.5t16 22.5q7 11 12 17.5t18.5 23t34.5 45.5q15 22 28 41t18.5 27t7.5 10q6 9 13 9h43zM576 247l1 60q0 3 1 9t1 9l-1 1v1q-7 -10 -27 -43l-33 -45q-22 -34 -40 -52q-6 -11 -12.5 -18t-10 -9.5t-6 -6
t-2.5 -7.5t2 -4q1 0 4 1t8 1q3 0 11.5 -0.5t13.5 -0.5q1 0 8.5 0.5t19 1t23.5 0.5h26q9 0 10.5 11t2.5 66v25z" />
    <glyph glyph-name="onehalf" unicode="&#xbd;" horiz-adv-x="725" 
d="M576 706q3 -3 3 -9q0 -22 -21 -52q-62 -101 -98 -175q-6 -12 -37.5 -73.5t-56.5 -108t-36 -62.5q-7 -13 -36.5 -67t-55.5 -101t-29 -57q-6 -16 -10 -21.5t-18 -15.5q-7 -3 -20 -3t-31 4q-13 7 -8 19q2 5 18 31q2 5 53.5 97t69.5 132q54 106 153 276q35 54 73 140
q22 46 43 53q1 0 5.5 0.5t7.5 0.5q14 0 31 -8zM129 652q-21 -4 -46.5 -10.5t-27.5 -6.5t-10 2q-1 2 -1 6q-1 7 -1 15q0 9 3 12.5t14 7.5q43 2 109 31q10 2 13 2q14 0 14 -7q0 -13 -0.5 -32t-0.5 -28q-4 -32 -4 -81q0 -23 1 -31t1 -44q0 -67 5 -91q60 -3 60 -7q0 -3 1 -9.5
t1 -9.5q0 -14 -15 -13q-14 0 -35 2t-31 2l-74 -3q-20 1 -54 -1q-7 0 -9 15v5q0 10 6 12q34 6 51 10h6q21 0 23 10q1 8 1 22q-1 5 -1 28q0 74 -2 92q0 4 -0.5 13t-0.5 13t0.5 12.5t0.5 12.5zM449 289q-8 4 0 12q1 1 3.5 4.5t8 9t13.5 12.5q28 21 101 33q51 0 75 -24
q24 -22 24 -53q0 -9 -1 -16.5t-3.5 -15.5t-4.5 -13t-7 -13t-7 -11t-8 -11.5t-7 -10.5q-3 -5 -33 -39q-8 -12 -22 -26.5t-24.5 -23t-12.5 -9.5q-7 -7 -4 -7h26h39q49 0 62 2q4 0 7.5 -0.5t5.5 -1.5l3 -1.5t1.5 -2.5t0.5 -3v-3.5v-3.5v-57q0 -9 -4.5 -11.5t-18.5 -2.5
q-3 0 -24.5 -0.5t-34.5 -0.5q-21 0 -28 1h-121q-1 0 -3.5 -0.5t-4.5 -0.5q-10 0 -10 6v4t0.5 4.5t1 8t0.5 12.5q44 55 81 92q4 4 19.5 20t24 25.5t21 27.5t21.5 36q6 15 6 28q0 19 -8 29q-11 19 -38 19q-20 0 -59 -13q-7 -3 -15.5 -11t-15 -14t-8.5 -6q-4 1 -10 11z" />
    <glyph glyph-name="threequarters" unicode="&#xbe;" horiz-adv-x="725" 
d="M631 706q3 -3 3 -9q0 -22 -21 -52q-62 -101 -98 -175q-6 -12 -37.5 -73.5t-56.5 -108t-36 -62.5q-7 -13 -36.5 -67t-55.5 -101t-29 -57q-6 -16 -10 -21.5t-18 -15.5q-8 -3 -20 -3q-13 0 -31 4q-13 7 -8 19q2 5 18 31q2 5 53.5 97t69.5 132q54 106 153 276q35 54 73 140
q22 46 43 53q1 0 5.5 0.5t7.5 0.5q14 0 31 -8zM192 527q21 0 47 -4q19 0 45 -18.5t26 -57.5q0 -28 -13 -51t-24.5 -33t-18.5 -12q-46 -23 -121 -23q-18 0 -34.5 6.5t-28.5 18t-20.5 21t-15.5 20.5t-8 12q-6 10 2 13q1 0 3 1t6.5 4t11.5 6q1 1 3 1q4 0 8 -8q3 -14 23 -41
q22 -26 82 -26q42 0 84 21q32 16 32 70q0 22 -21.5 37.5t-55.5 15.5q-12 -1 -35.5 -2.5t-40.5 -2.5t-26 -1t-10 1q-4 -1 -6 3q-1 7 -1 16q0 1 14 12q20 10 116 74q3 3 3 4q0 3 -27 3l-142 -2q-3 0 -5 1t-3 2t-1.5 3.5t-0.5 3.5v4.5v4.5q0 2 0.5 19t0.5 28q0 18 -1 24
q0 12 16 12q4 0 14.5 -1t15.5 -1q13 0 43.5 2t48.5 2q21 0 55 -0.5t36 -0.5q8 0 8 -19v-4v-87q-47 -25 -68 -40q-2 -2 -21 -14l-14 -9q-9 -3 -9 -6q0 -2 2 -2h26zM659 355h4q5 0 7.5 -0.5t4 -3.5t1.5 -9l-2 -49q-2 -49 -2 -129q0 -17 7 -17q1 0 8.5 0.5t12.5 0.5q3 0 5 -17
v-2q0 -15 -5 -15h-2q-2 0 -7.5 -0.5t-9.5 -0.5q-9 0 -9 -15l-1 6v1l-1 -11v-24v-22v-20l-1 -8v-5q0 -8 -8 -10h-37q-5 0 -5 18v23q0 9 0.5 16t0.5 8t0.5 8t0.5 21t-11 14q-1 0 -21 -1.5t-31 -1.5q-4 0 -11 0.5t-11 0.5q-22 0 -33 -1l-37 -1q-11 0 -11 20q0 8 1 11.5t2.5 6.5
t9.5 12.5t16 22.5q7 11 12 17.5t18.5 23t34.5 45.5q15 22 28 41t18.5 27t7.5 10q6 9 13 9h43zM621 247l1 60q0 3 1 9t1 9l-1 1v1q-7 -10 -27 -43l-33 -45q-22 -34 -40 -52q-6 -11 -12.5 -18t-10 -9.5t-6 -6t-2.5 -7.5t2 -4q1 0 4 1t8 1q3 0 11.5 -0.5t13.5 -0.5q1 0 8.5 0.5
t19 1t23.5 0.5h26q9 0 10.5 11t2.5 66v25z" />
    <glyph glyph-name="questiondown" unicode="&#xbf;" horiz-adv-x="366" 
d="M193 585q-32 0 -48.5 21.5t-16.5 45.5q0 7 1 10q0 17 21.5 39t48.5 22q25 0 43.5 -22.5t18.5 -52.5q0 -9 -1 -14q-9 -49 -67 -49zM151 -15q-53 0 -92 54t-39 143q0 49 28.5 96.5t60.5 79.5q40 39 40 108q0 38 7 51q5 18 19 24q14 3 18 3q5 0 16 -3q21 -6 21 -20
q3 -12 3 -28q0 -10 -1.5 -36.5t-1.5 -41.5q0 -33 -51 -103t-53 -75q-26 -40 -26 -78q0 -31 19 -67q26 -27 58 -27q19 0 43 8q24 11 68 54q4 4 10 4q11 0 34 -21q2 -2 5 -6t7 -10t4.5 -10t-2.5 -7q-29 -32 -58 -51q-43 -27 -71 -33q-27 -8 -66 -8z" />
    <glyph glyph-name="Agrave" unicode="&#xc0;" horiz-adv-x="506" 
d="M232 760q-22 10 -39.5 14t-22.5 7q-46 13 -50 23q-3 6 -3 11q0 14 19 22q14 8 22 8q5 0 31 -8q47 -20 86 -29q1 -1 11 -4.5t16.5 -6.5t13.5 -9t9 -13q2 -10 2 -13q0 -9 -4.5 -12.5t-13 -3t-20.5 1.5q-11 -1 -35 4zM36 69q1 3 4 12.5l6 19t4 17.5q5 24 19 73
q31 107 32 115q4 16 14 50t12 45q2 8 27 103q19 62 23 70q29 87 31 98q7 24 14.5 36t20.5 12q1 0 2.5 -0.5t3 -2.5l3 -4t3 -5t2.5 -5.5t3 -7t3 -8t3.5 -8.5t3.5 -9q5 -11 12.5 -38t15 -53.5t8.5 -31.5q2 -10 26 -78.5t26 -74.5q2 -5 25 -66.5t29 -76.5q35 -106 41 -128
q4 -14 40 -109q3 -7 3 -10q0 -4 -11 -4h-56q-8 0 -11 9q-4 11 -11 36q-9 25 -12 45q-9 43 -21 68q-9 19 -16 43l-9 29q-3 8 -5.5 11.5t-4.5 4t-6 0.5q-21 0 -31 -1q-34 -2 -43 -2q-8 -1 -74 -1h-61h-2q-6 0 -9 -11l-2 -10l-4 -19q-3 -8 -12.5 -53t-10.5 -49q-2 -20 -9 -33
l-10 -32q-3 -8 -7 -26q-8 -8 -11 -9h-20q-9 0 -5 13q0 3 1 5l1 5q1 5 3 9zM306 311q13 0 13 7q0 4 -7 22q-4 9 -17.5 54t-18.5 59q-28 84 -35 124q-15 53 -20 53q-1 0 -16 -49q-16 -69 -38 -136q-15 -74 -33 -120q-2 -6 -2 -7q0 -4 2 -6t5.5 -3t6.5 -1h8h6q5 0 28 1t30 1
q12 2 34 2q11 0 30.5 -0.5t23.5 -0.5z" />
    <glyph glyph-name="Aacute" unicode="&#xc1;" horiz-adv-x="506" 
d="M299 825q21 7 35 7q16 2 20 2q22 0 17 -28q-7 -22 -49 -34q-48 -15 -85 -33q-25 -9 -32 -9q-10 0 -21 7q-20 7 -20 22q0 2 2 10q1 5 20 13.5t30 11.5q6 3 22.5 8t38.5 15zM36 69q1 3 4 12.5l6 19t4 17.5q5 24 19 73q31 107 32 115q4 16 14 50t12 45q2 8 27 103
q19 62 23 70q29 87 31 98q7 24 14.5 36t20.5 12q1 0 2.5 -0.5t3 -2.5l3 -4t3 -5t2.5 -5.5t3 -7t3 -8t3.5 -8.5t3.5 -9q5 -11 12.5 -38t15 -53.5t8.5 -31.5q2 -10 26 -78.5t26 -74.5q2 -5 25 -66.5t29 -76.5q35 -106 41 -128q4 -14 40 -109q3 -7 3 -10q0 -4 -11 -4h-56
q-8 0 -11 9q-4 11 -11 36q-9 25 -12 45q-9 43 -21 68q-9 19 -16 43l-9 29q-3 8 -5.5 11.5t-4.5 4t-6 0.5q-21 0 -31 -1q-34 -2 -43 -2q-8 -1 -74 -1h-61h-2q-6 0 -9 -11l-2 -10l-4 -19q-3 -8 -12.5 -53t-10.5 -49q-2 -20 -9 -33l-10 -32q-3 -8 -7 -26q-8 -8 -11 -9h-20
q-9 0 -5 13q0 3 1 5l1 5q1 5 3 9zM306 311q13 0 13 7q0 4 -7 22q-4 9 -17.5 54t-18.5 59q-28 84 -35 124q-15 53 -20 53q-1 0 -16 -49q-16 -69 -38 -136q-15 -74 -33 -120q-2 -6 -2 -7q0 -4 2 -6t5.5 -3t6.5 -1h8h6q5 0 28 1t30 1q12 2 34 2q11 0 30.5 -0.5t23.5 -0.5z" />
    <glyph glyph-name="Acircumflex" unicode="&#xc2;" horiz-adv-x="506" 
d="M116 778q29 15 48 29q40 23 52 26q9 4 18 4q4 1 11 1q10 0 38 -15q11 -8 67 -43q37 -23 34 -34q-4 -15 -16 -15q-8 0 -27 7l-27 7q-17 7 -35 18l-32 15l-46 -21q-19 -10 -57 -21q-19 -3 -38 -3q-24 0 -24 16q0 8 7 12zM36 69q1 3 4 12.5l6 19t4 17.5q5 24 19 73
q31 107 32 115q4 16 14 50t12 45q2 8 27 103q19 62 23 70q29 87 31 98q7 24 14.5 36t20.5 12q1 0 2.5 -0.5t3 -2.5l3 -4t3 -5t2.5 -5.5t3 -7t3 -8t3.5 -8.5t3.5 -9q5 -11 12.5 -38t15 -53.5t8.5 -31.5q2 -10 26 -78.5t26 -74.5q2 -5 25 -66.5t29 -76.5q35 -106 41 -128
q4 -14 40 -109q3 -7 3 -10q0 -4 -11 -4h-56q-8 0 -11 9q-4 11 -11 36q-9 25 -12 45q-9 43 -21 68q-9 19 -16 43l-9 29q-3 8 -5.5 11.5t-4.5 4t-6 0.5q-21 0 -31 -1q-34 -2 -43 -2q-8 -1 -74 -1h-61h-2q-6 0 -9 -11l-2 -10l-4 -19q-3 -8 -12.5 -53t-10.5 -49q-2 -20 -9 -33
l-10 -32q-3 -8 -7 -26q-8 -8 -11 -9h-20q-9 0 -5 13q0 3 1 5l1 5q1 5 3 9zM306 311q13 0 13 7q0 4 -7 22q-4 9 -17.5 54t-18.5 59q-28 84 -35 124q-15 53 -20 53q-1 0 -16 -49q-16 -69 -38 -136q-15 -74 -33 -120q-2 -6 -2 -7q0 -4 2 -6t5.5 -3t6.5 -1h8h6q5 0 28 1t30 1
q12 2 34 2q11 0 30.5 -0.5t23.5 -0.5z" />
    <glyph glyph-name="Atilde" unicode="&#xc3;" horiz-adv-x="506" 
d="M409 787q0 -16 -23 -16q-9 0 -31 6t-35 6q-27 -1 -61.5 -5.5t-43.5 -5.5q-12 -1 -28.5 -3t-30.5 -3.5t-31 -1.5q-66 0 -66 23v13q0 16 2 23q1 5 7 5q3 0 10.5 -2t20.5 -5.5t26 -6.5q22 0 72 9q45 8 119 8q39 0 64 -4q13 -1 20 -4t8 -6.5t1 -7.5v-7v-15zM36 69q1 3 4 12.5
l6 19t4 17.5q5 24 19 73q31 107 32 115q4 16 14 50t12 45q2 8 27 103q19 62 23 70q29 87 31 98q7 24 14.5 36t20.5 12q1 0 2.5 -0.5t3 -2.5l3 -4t3 -5t2.5 -5.5t3 -7t3 -8t3.5 -8.5t3.5 -9q5 -11 12.5 -38t15 -53.5t8.5 -31.5q2 -10 26 -78.5t26 -74.5q2 -5 25 -66.5
t29 -76.5q35 -106 41 -128q4 -14 40 -109q3 -7 3 -10q0 -4 -11 -4h-56q-8 0 -11 9q-4 11 -11 36q-9 25 -12 45q-9 43 -21 68q-9 19 -16 43l-9 29q-3 8 -5.5 11.5t-4.5 4t-6 0.5q-21 0 -31 -1q-34 -2 -43 -2q-8 -1 -74 -1h-61h-2q-6 0 -9 -11l-2 -10l-4 -19q-3 -8 -12.5 -53
t-10.5 -49q-2 -20 -9 -33l-10 -32q-3 -8 -7 -26q-8 -8 -11 -9h-20q-9 0 -5 13q0 3 1 5l1 5q1 5 3 9zM306 311q13 0 13 7q0 4 -7 22q-4 9 -17.5 54t-18.5 59q-28 84 -35 124q-15 53 -20 53q-1 0 -16 -49q-16 -69 -38 -136q-15 -74 -33 -120q-2 -6 -2 -7q0 -4 2 -6t5.5 -3
t6.5 -1h8h6q5 0 28 1t30 1q12 2 34 2q11 0 30.5 -0.5t23.5 -0.5z" />
    <glyph glyph-name="Adieresis" unicode="&#xc4;" horiz-adv-x="506" 
d="M306 778q0 62 74 62q19 0 31 -18.5t12 -43.5q0 -22 -16.5 -38t-46.5 -16q-54 0 -54 54zM197 782q0 -28 -20.5 -45t-41.5 -17q-22 0 -40 16t-18 42q0 21 15.5 38t38.5 17q26 0 46 -13.5t20 -37.5zM36 69q1 3 4 12.5l6 19t4 17.5q5 24 19 73q31 107 32 115q4 16 14 50
t12 45q2 8 27 103q19 62 23 70q29 87 31 98q7 24 14.5 36t20.5 12q1 0 2.5 -0.5t3 -2.5l3 -4t3 -5t2.5 -5.5t3 -7t3 -8t3.5 -8.5t3.5 -9q5 -11 12.5 -38t15 -53.5t8.5 -31.5q2 -10 26 -78.5t26 -74.5q2 -5 25 -66.5t29 -76.5q35 -106 41 -128q4 -14 40 -109q3 -7 3 -10
q0 -4 -11 -4h-56q-8 0 -11 9q-4 11 -11 36q-9 25 -12 45q-9 43 -21 68q-9 19 -16 43l-9 29q-3 8 -5.5 11.5t-4.5 4t-6 0.5q-21 0 -31 -1q-34 -2 -43 -2q-8 -1 -74 -1h-61h-2q-6 0 -9 -11l-2 -10l-4 -19q-3 -8 -12.5 -53t-10.5 -49q-2 -20 -9 -33l-10 -32q-3 -8 -7 -26
q-8 -8 -11 -9h-20q-9 0 -5 13q0 3 1 5l1 5q1 5 3 9zM306 311q13 0 13 7q0 4 -7 22q-4 9 -17.5 54t-18.5 59q-28 84 -35 124q-15 53 -20 53q-1 0 -16 -49q-16 -69 -38 -136q-15 -74 -33 -120q-2 -6 -2 -7q0 -4 2 -6t5.5 -3t6.5 -1h8h6q5 0 28 1t30 1q12 2 34 2
q11 0 30.5 -0.5t23.5 -0.5z" />
    <glyph glyph-name="Aring" unicode="&#xc5;" horiz-adv-x="506" 
d="M36 69q1 3 4 12.5l6 19t4 17.5q5 24 19 73q31 107 32 115q4 16 14 50t12 45q2 8 27 103q19 62 23 70q29 87 31 98q4 16 11 30q-43 20 -43 62q1 19 10 38q15 38 62 38q25 0 42 -9t24 -22.5t9.5 -23t2.5 -17.5q0 -13 -10.5 -34.5t-32.5 -32.5q-7 -3 -23 -5l10 -26
q5 -11 12.5 -38t15 -53.5t8.5 -31.5q2 -10 26 -78.5t26 -74.5q2 -5 25 -66.5t29 -76.5q35 -106 41 -128q4 -14 40 -109q3 -7 3 -10q0 -4 -11 -4h-56q-8 0 -11 9q-4 11 -11 36q-9 25 -12 45q-9 43 -21 68q-9 19 -16 43l-9 29q-3 8 -5.5 11.5t-4.5 4t-6 0.5q-21 0 -31 -1
q-34 -2 -43 -2q-8 -1 -74 -1h-61h-2q-6 0 -9 -11l-2 -10l-4 -19q-3 -8 -12.5 -53t-10.5 -49q-2 -20 -9 -33l-10 -32q-3 -8 -7 -26q-8 -8 -11 -9h-20q-9 0 -5 13q0 3 1 5l1 5q1 5 3 9zM253 790q-13 0 -20.5 -6.5t-7.5 -15.5t7.5 -15.5t17.5 -6.5h7l4 1l5 3q5 3 8.5 7t3.5 11
q0 8 -7 15t-18 7zM306 311q13 0 13 7q0 2 -1 5t-3 8t-3 9q-4 9 -17.5 54t-18.5 59q-28 84 -35 124q-15 53 -20 53q-1 0 -16 -49q-16 -69 -38 -136q-15 -74 -33 -120q-2 -6 -2 -7q0 -4 2 -6t5.5 -3t6.5 -1h8h6q5 0 28 1t30 1q12 2 34 2q11 0 30.5 -0.5t23.5 -0.5z" />
    <glyph glyph-name="AE" unicode="&#xc6;" horiz-adv-x="886" 
d="M548 700q45 5 73 5q23 0 64 -2t48 -2q18 0 25 -1q10 0 12 -27q0 -13 1 -34.5t1 -32.5q0 -33 -1 -46q1 -7 -1 -11t-7 -4.5t-9 0.5t-9.5 3t-7.5 2q-16 3 -88 3q-13 0 -38 1t-38 1q-18 0 -27 -1t-30 -1h-76q-9 0 -9 -7q0 -1 2 -13q0 -3 8 -96l7 -59q1 -9 5 -32q8 -1 27 -1
q9 -1 31 -1h39q20 0 58 2t48 2q14 0 29.5 -1.5t19.5 -1.5q1 0 5 0.5t5 0.5q14 0 14 -24v-20q-2 -18 -2 -21q0 -4 1 -14t1 -18v-6q0 -7 -3 -9t-11 0t-12 2q-2 0 -32.5 1t-67.5 1q-28 0 -54.5 -2t-43 -4t-19.5 -2q-11 0 -13 1q-5 0 -6 1l12 -100q7 0 11 1q3 0 12.5 0.5
t15.5 0.5q9 0 50.5 0.5t66.5 0.5q16 0 61 -1t66 -1q28 0 37 1q19 1 26 -5.5t10 -21.5v-84q-1 -6 0 -10t-2 -6.5t-4 -4t-6.5 -2t-9 -0.5t-11 0.5t-12.5 0.5q-15 0 -83.5 1t-93.5 1q-26 0 -43 -1l-141 -2q-8 0 -9 9q-2 12 -4 36q-1 9 -2.5 25t-4.5 35q-1 17 -7 60l-6 65
q-2 8 -4 11.5t-3.5 4t-5.5 0.5q-21 0 -31 -1q-34 -2 -43 -2q-5 -1 -29 -1h-107h-2q-5 0 -11 -11l-4 -10l-8 -19q-4 -8 -22.5 -53t-21.5 -49q-8 -22 -15 -33q-2 -2 -4.5 -7t-5.5 -12.5t-6 -12.5l-12 -26q-2 -5 -3 -6t-3 -2t-7 -1h-20q-6 0 -6 4q0 1 4 9q0 1 2 5l7 14
q2 6 8 19.5t8 17.5q1 2 10.5 20t13.5 29q4 13 33 73q42 82 55 115q8 19 27 57l19 38l48 103q31 60 37 70q1 2 10 17.5t14 26.5l15 29l12 25q22 48 45 48q7 0 10 -15q0 -4 1 -6l20 -2q11 -1 51 -1q23 0 36 1zM370 311q14 0 14 9q0 2 -1.5 9t-1.5 11l-1 20q-2 19 -4 32l-4 33
l-4 28q-9 93 -9 124q-1 6 -2.5 21t-3 23.5t-3.5 8.5q-3 0 -26 -49l-14 -27q-48 -103 -52 -109q-46 -101 -58 -120q-3 -6 -3 -9t1.5 -5t5 -2.5t6 -0.5h7.5h6h11q9 0 26 1t21 1q4 1 17 1h72z" />
    <glyph glyph-name="Ccedilla" unicode="&#xc7;" horiz-adv-x="509" 
d="M467 164q3 -1 8.5 -3.5t8 -4t5.5 -3.5t4.5 -4t1.5 -5q0 -5 -3 -11q-8 -14 -19 -27.5t-35 -36.5t-62 -37t-83 -14q-14 0 -20 1q-18 -24 -23 -41q17 9 48 9q62 0 62 -70q0 -15 -7 -27t-10.5 -15.5t-13.5 -11.5q-5 -5 -15 -11q-22 -10 -63 -10q-25 0 -46 5.5t-21 13.5
q0 12 8 49q0 4 3 4q2 0 5 -1.5t8.5 -5t10.5 -6.5q19 -6 38 -6q14 1 17 1.5t10 3t9.5 7.5t4.5 14q0 33 -24 33q-8 0 -19.5 -7t-13.5 -7q-30 0 -31 8q0 8 7 36q2 15 14 46q-65 24 -115 93q-36 49 -57.5 116t-21.5 135q0 58 21 122.5t54 110.5t75 71.5t84 25.5q39 0 72 -10.5
t54.5 -27t32.5 -27.5t18 -21q11 -15 11 -21t-11 -16q-46 -36 -66 -63q-20 -26 -31 -26q-7 0 -16 10q-1 2 -6.5 8t-7.5 7.5t-6.5 6.5t-7 7t-7 5t-8 4.5t-8 2.5t-9.5 1q-39 0 -71 -46q-37 -58 -37 -149q0 -50 14 -89t34 -59t39 -29.5t31 -7.5q31 0 70 39q12 12 15 12
q5 0 12 -4z" />
    <glyph glyph-name="Egrave" unicode="&#xc8;" horiz-adv-x="504" 
d="M267 759q-22 10 -39.5 14t-22.5 7q-46 13 -50 23q-3 6 -3 11q0 14 19 22q14 8 22 8q5 0 31 -8q47 -20 86 -29q1 -1 11 -4.5t16.5 -6.5t13.5 -9t9 -13q2 -10 2 -13q0 -9 -4.5 -12.5t-13 -3t-20.5 1.5q-11 -1 -35 4zM63 232q0 28 3.5 71t3.5 84t-2.5 78.5t-2.5 65.5
q0 63 3 147q0 22 19 22q3 0 8 -0.5t7 -0.5q4 0 28 -1.5t50 -1.5q22 0 76.5 4.5t73.5 4.5q23 0 63.5 -2t47.5 -2q13 0 17 -6t4 -22q0 -9 2 -34t2 -42q0 -20 -3 -37q-1 -15 -14 -15q-4 0 -12 2.5t-10 2.5q-15 3 -87 3q-12 0 -38 1t-38 1q-18 0 -27 -1q-30 -2 -53 -2
q-14 0 -33 0.5t-20 0.5q-8 0 -9 -3.5t-1 -16.5q0 -6 -1.5 -41t-1.5 -55v-59q0 -21 1 -32q8 -1 27 -1q17 -1 70 -1q20 0 58 2t48 2q14 0 29.5 -1.5t19.5 -1.5q13 0 13 -12q0 -2 -1 -11t-1 -20q0 -9 0.5 -24.5t0.5 -28.5q0 -16 -9 -16q-2 0 -8 1.5t-10 1.5q-2 0 -32.5 1
t-67.5 1q-28 0 -55 -2t-43.5 -4t-19.5 -2q-11 0 -13 1q-5 0 -6 1v-100q7 0 11 1q3 0 12.5 0.5t15.5 0.5q9 0 51 0.5t67 0.5q16 0 60.5 -1t65.5 -1q10 0 24.5 0.5t17.5 0.5q20 0 20 -21q0 -3 -0.5 -10t-0.5 -10q0 -9 -0.5 -31.5t-0.5 -38.5q0 -7 -1.5 -11.5t-3.5 -7t-7.5 -3
t-8.5 -1t-12.5 0t-14.5 0.5q-15 0 -83 1t-93 1q-28 0 -92 -2t-66 -2q-1 0 -3 -0.5t-3 -0.5q-8 0 -8 17q-1 11 -1 37q0 5 -1 18t-1 25v137z" />
    <glyph glyph-name="Eacute" unicode="&#xc9;" horiz-adv-x="504" 
d="M293 826q21 7 35 7q16 2 20 2q22 0 17 -28q-7 -22 -49 -34q-48 -15 -85 -33q-25 -9 -32 -9q-10 0 -21 7q-20 7 -20 22q0 2 2 10q1 5 20 13.5t30 11.5q6 3 22.5 8t38.5 15zM63 232q0 28 3.5 71t3.5 84t-2.5 78.5t-2.5 65.5q0 63 3 147q0 22 19 22q3 0 8 -0.5t7 -0.5
q4 0 28 -1.5t50 -1.5q22 0 76.5 4.5t73.5 4.5q23 0 63.5 -2t47.5 -2q13 0 17 -6t4 -22q0 -9 2 -34t2 -42q0 -20 -3 -37q-1 -15 -14 -15q-4 0 -12 2.5t-10 2.5q-15 3 -87 3q-12 0 -38 1t-38 1q-18 0 -27 -1q-30 -2 -53 -2q-14 0 -33 0.5t-20 0.5q-8 0 -9 -3.5t-1 -16.5
q0 -6 -1.5 -41t-1.5 -55v-59q0 -21 1 -32q8 -1 27 -1q17 -1 70 -1q20 0 58 2t48 2q14 0 29.5 -1.5t19.5 -1.5q13 0 13 -12q0 -2 -1 -11t-1 -20q0 -9 0.5 -24.5t0.5 -28.5q0 -16 -9 -16q-2 0 -8 1.5t-10 1.5q-2 0 -32.5 1t-67.5 1q-28 0 -55 -2t-43.5 -4t-19.5 -2
q-11 0 -13 1q-5 0 -6 1v-100q7 0 11 1q3 0 12.5 0.5t15.5 0.5q9 0 51 0.5t67 0.5q16 0 60.5 -1t65.5 -1q10 0 24.5 0.5t17.5 0.5q20 0 20 -21q0 -3 -0.5 -10t-0.5 -10q0 -9 -0.5 -31.5t-0.5 -38.5q0 -7 -1.5 -11.5t-3.5 -7t-7.5 -3t-8.5 -1t-12.5 0t-14.5 0.5q-15 0 -83 1
t-93 1q-28 0 -92 -2t-66 -2q-1 0 -3 -0.5t-3 -0.5q-8 0 -8 17q-1 11 -1 37q0 5 -1 18t-1 25v137z" />
    <glyph glyph-name="Ecircumflex" unicode="&#xca;" horiz-adv-x="504" 
d="M150 778q29 15 48 29q40 23 52 26q9 4 18 4q4 1 11 1q10 0 38 -15q11 -8 67 -43q37 -23 34 -34q-4 -15 -16 -15q-8 0 -27 7l-27 7q-17 7 -35 18l-32 15l-46 -21q-19 -10 -57 -21q-20 -3 -38 -3q-24 0 -24 16q0 8 7 12zM63 232q0 28 3.5 71t3.5 84t-2.5 78.5t-2.5 65.5
q0 63 3 147q0 22 19 22q3 0 8 -0.5t7 -0.5q4 0 28 -1.5t50 -1.5q22 0 76.5 4.5t73.5 4.5q23 0 63.5 -2t47.5 -2q13 0 17 -6t4 -22q0 -9 2 -34t2 -42q0 -20 -3 -37q-1 -15 -14 -15q-4 0 -12 2.5t-10 2.5q-15 3 -87 3q-12 0 -38 1t-38 1q-18 0 -27 -1q-30 -2 -53 -2
q-14 0 -33 0.5t-20 0.5q-8 0 -9 -3.5t-1 -16.5q0 -6 -1.5 -41t-1.5 -55v-59q0 -21 1 -32q8 -1 27 -1q17 -1 70 -1q20 0 58 2t48 2q14 0 29.5 -1.5t19.5 -1.5q13 0 13 -12q0 -2 -1 -11t-1 -20q0 -9 0.5 -24.5t0.5 -28.5q0 -16 -9 -16q-2 0 -8 1.5t-10 1.5q-2 0 -32.5 1
t-67.5 1q-28 0 -55 -2t-43.5 -4t-19.5 -2q-11 0 -13 1q-5 0 -6 1v-100q7 0 11 1q3 0 12.5 0.5t15.5 0.5q9 0 51 0.5t67 0.5q16 0 60.5 -1t65.5 -1q10 0 24.5 0.5t17.5 0.5q20 0 20 -21q0 -3 -0.5 -10t-0.5 -10q0 -9 -0.5 -31.5t-0.5 -38.5q0 -7 -1.5 -11.5t-3.5 -7t-7.5 -3
t-8.5 -1t-12.5 0t-14.5 0.5q-15 0 -83 1t-93 1q-28 0 -92 -2t-66 -2q-1 0 -3 -0.5t-3 -0.5q-8 0 -8 17q-1 11 -1 37q0 5 -1 18t-1 25v137z" />
    <glyph glyph-name="Edieresis" unicode="&#xcb;" horiz-adv-x="504" 
d="M324 778q0 62 74 62q19 0 31 -18.5t12 -43.5q0 -22 -16.5 -38t-46.5 -16q-54 0 -54 54zM215 782q0 -28 -20.5 -45t-41.5 -17q-22 0 -40 16t-18 42q0 21 15.5 38t38.5 17q26 0 46 -13.5t20 -37.5zM63 232q0 28 3.5 71t3.5 84t-2.5 78.5t-2.5 65.5q0 63 3 147q0 22 19 22
q3 0 8 -0.5t7 -0.5q4 0 28 -1.5t50 -1.5q22 0 76.5 4.5t73.5 4.5q23 0 63.5 -2t47.5 -2q13 0 17 -6t4 -22q0 -9 2 -34t2 -42q0 -20 -3 -37q-1 -15 -14 -15q-4 0 -12 2.5t-10 2.5q-15 3 -87 3q-12 0 -38 1t-38 1q-18 0 -27 -1q-30 -2 -53 -2q-14 0 -33 0.5t-20 0.5
q-8 0 -9 -3.5t-1 -16.5q0 -6 -1.5 -41t-1.5 -55v-59q0 -21 1 -32q8 -1 27 -1q17 -1 70 -1q20 0 58 2t48 2q14 0 29.5 -1.5t19.5 -1.5q13 0 13 -12q0 -2 -1 -11t-1 -20q0 -9 0.5 -24.5t0.5 -28.5q0 -16 -9 -16q-2 0 -8 1.5t-10 1.5q-2 0 -32.5 1t-67.5 1q-28 0 -55 -2
t-43.5 -4t-19.5 -2q-11 0 -13 1q-5 0 -6 1v-100q7 0 11 1q3 0 12.5 0.5t15.5 0.5q9 0 51 0.5t67 0.5q16 0 60.5 -1t65.5 -1q10 0 24.5 0.5t17.5 0.5q20 0 20 -21q0 -3 -0.5 -10t-0.5 -10q0 -9 -0.5 -31.5t-0.5 -38.5q0 -7 -1.5 -11.5t-3.5 -7t-7.5 -3t-8.5 -1t-12.5 0
t-14.5 0.5q-15 0 -83 1t-93 1q-28 0 -92 -2t-66 -2q-1 0 -3 -0.5t-3 -0.5q-8 0 -8 17q-1 11 -1 37q0 5 -1 18t-1 25v137z" />
    <glyph glyph-name="Igrave" unicode="&#xcc;" horiz-adv-x="176" 
d="M78 753q-22 10 -39.5 14t-22.5 7q-46 13 -50 23q-3 6 -3 11q0 14 19 22q14 8 22 8q5 0 31 -8q47 -20 86 -29q1 -1 11 -4.5t16.5 -6.5t13.5 -9t9 -13q2 -10 2 -13q0 -9 -4.5 -12.5t-13 -3t-20.5 1.5q-11 -1 -35 4zM116 668q-3 -22 -5 -113q0 -27 -4 -139t-4 -137
q0 -202 6 -252q1 -6 1 -14q0 -11 -10 -16q-6 -4 -31 -4h-7q-11 0 -14 0.5t-4 4.5t0 13q1 14 1 24q0 15 2 159.5t2 181.5q0 26 2.5 94t4 124t0.5 66q0 4 -0.5 11t-0.5 10q0 26 16 26q3 0 16 -0.5t21 -0.5q10 0 10 -14q0 -3 -1 -11.5t-1 -12.5z" />
    <glyph glyph-name="Iacute" unicode="&#xcd;" horiz-adv-x="176" 
d="M127 826q21 7 35 7q16 2 20 2q22 0 17 -28q-7 -22 -49 -34q-48 -15 -85 -33q-25 -9 -32 -9q-10 0 -21 7q-20 7 -20 22q0 2 2 10q1 5 20 13.5t30 11.5q6 3 22.5 8t38.5 15zM116 668q-3 -22 -5 -113q0 -27 -4 -139t-4 -137q0 -202 6 -252q1 -6 1 -14q0 -11 -10 -16
q-6 -4 -31 -4h-7q-11 0 -14 0.5t-4 4.5t0 13q1 14 1 24q0 15 2 159.5t2 181.5q0 26 2.5 94t4 124t0.5 66q0 4 -0.5 11t-0.5 10q0 26 16 26q3 0 16 -0.5t21 -0.5q10 0 10 -14q0 -3 -1 -11.5t-1 -12.5z" />
    <glyph glyph-name="Icircumflex" unicode="&#xce;" horiz-adv-x="176" 
d="M-41 779q29 15 48 29q40 23 52 26q9 4 18 4q4 1 11 1q10 0 38 -15q11 -8 67 -43q37 -23 34 -34q-4 -15 -16 -15q-8 0 -27 7l-27 7q-17 7 -35 18l-32 15l-46 -21q-19 -10 -57 -21q-19 -3 -38 -3q-24 0 -24 16q0 7 8 12zM116 668q-3 -22 -5 -113q0 -27 -4 -139t-4 -137
q0 -202 6 -252q1 -6 1 -14q0 -11 -10 -16q-6 -4 -31 -4h-7q-11 0 -14 0.5t-4 4.5t0 13q1 14 1 24q0 15 2 159.5t2 181.5q0 26 2.5 94t4 124t0.5 66q0 4 -0.5 11t-0.5 10q0 26 16 26q3 0 16 -0.5t21 -0.5q10 0 10 -14q0 -3 -1 -11.5t-1 -12.5z" />
    <glyph glyph-name="Idieresis" unicode="&#xcf;" horiz-adv-x="176" 
d="M153 778q0 62 74 62q19 0 31 -18.5t12 -43.5q0 -22 -16.5 -38t-46.5 -16q-54 0 -54 54zM44 782q0 -28 -20.5 -45t-41.5 -17q-22 0 -40 16t-18 42q0 21 15.5 38t38.5 17q26 0 46 -13.5t20 -37.5zM116 668q-3 -22 -5 -113q0 -27 -4 -139t-4 -137q0 -202 6 -252q1 -6 1 -14
q0 -11 -10 -16q-6 -4 -31 -4h-7q-11 0 -14 0.5t-4 4.5t0 13q1 14 1 24q0 15 2 159.5t2 181.5q0 26 2.5 94t4 124t0.5 66q0 4 -0.5 11t-0.5 10q0 26 16 26q3 0 16 -0.5t21 -0.5q10 0 10 -14q0 -3 -1 -11.5t-1 -12.5z" />
    <glyph glyph-name="Eth" unicode="&#xd0;" horiz-adv-x="616" 
d="M205 698q42 2 68 2q32 0 67.5 -8.5t79 -34.5t77 -66t56.5 -112t23 -164q0 -62 -16 -112t-40 -82t-57.5 -55.5t-63 -35t-62 -18.5t-49.5 -8.5t-30 -1.5q-21 0 -73 -1t-63 -1q-19 0 -19 34q0 5 0.5 13.5t0.5 12.5q0 12 -1.5 48.5t-1.5 46.5q0 3 -2.5 52t-2.5 96v7
q-32 2 -38 2q-5 0 -8 0.5t-5 1t-2.5 2.5t-0.5 3v4v5q0 4 -1.5 18.5t-2.5 24t0 15.5q0 6 10 6q3 0 13 -2h38q5 95 5 121q0 48 -1 107.5t-1 62.5q0 6 4 9.5t13 4.5t15.5 1.5t19 0t15.5 -0.5zM383 325q0 -8 -9 -8q-2 0 -6.5 0.5t-7.5 0.5q-2 0 -25.5 -1.5t-37.5 -1.5h-20
q0 -33 -1 -49q-1 -17 -1 -204q95 32 169 95q48 59 57 107q9 50 9 100q-7 109 -101 203q-66 51 -129 56q2 -60 2 -143q0 -48 -1 -60l-2 -27h96q9 0 9 -8q0 -1 -0.5 -4t-0.5 -5v-51z" />
    <glyph glyph-name="Ntilde" unicode="&#xd1;" horiz-adv-x="676" 
d="M545 787q0 -16 -23 -16q-9 0 -31 6t-35 6q-27 -1 -61.5 -5.5t-43.5 -5.5q-12 -1 -28.5 -3t-30.5 -3.5t-31 -1.5q-66 0 -66 23v13q0 16 2 23q1 5 7 5q3 0 10.5 -2t20.5 -5.5t26 -6.5q22 0 72 9q45 8 119 8q39 0 64 -4q13 -1 20 -4t8 -6.5t1 -7.5v-7v-15zM263 497
q0 -19 1 -51t1.5 -56t0.5 -39q0 -39 2 -136t2 -107q0 -16 2 -53t2 -43v-2q0 -16 -19 -16q-4 0 -28.5 -2t-38.5 -2q-12 0 -47.5 -1t-49.5 -1q-8 0 -13 1.5t-8 5t-4 5.5t-2 8.5t-1 7.5q-4 18 -4 44q0 24 1 41q0 158 7 221q1 14 5.5 75t8 113t3.5 70q0 79 3 118q2 27 28 27
q5 0 14 -1t12 -1q7 0 38 0.5t47 0.5q38 0 49 -20q3 -7 13.5 -29t24.5 -53t24 -52t54 -118t57 -123q6 -12 23.5 -46t26.5 -52l31 -61l-2 58l-4 98v30q0 55 2 111q0 16 -1 70.5t-1 73.5l4 96q0 15 15 15q5 0 20 -3q8 -2 35 -2q13 0 13 -9q0 -2 -1 -9t-1 -11q0 -5 -1.5 -131.5
t-1.5 -156.5q0 -4 -0.5 -13.5t-0.5 -15.5q0 -31 3 -97t3 -83q0 -25 2.5 -97t2.5 -78v-2q0 -20 -19 -18q-3 1 -12 1q-4 0 -17 -1t-17 0q-9 1 -12 3.5t-11 16.5q-1 2 -36 87t-46 109q-22 42 -111 241q-20 41 -45 87l-29 52z" />
    <glyph glyph-name="Ograve" unicode="&#xd2;" horiz-adv-x="508" 
d="M286 753q-22 10 -39.5 14t-22.5 7q-46 13 -50 23q-3 6 -3 11q0 14 19 22q14 8 22 8q5 0 31 -8q47 -20 86 -29q1 -1 11 -4.5t16.5 -6.5t13.5 -9t9 -13q2 -10 2 -13q0 -9 -4.5 -12.5t-13 -3t-20.5 1.5q-11 -1 -35 4zM273 714q52 0 92 -16.5t64 -48t39.5 -65t22 -81
t8.5 -81.5t2 -79q0 -58 -13 -119t-38 -117.5t-69.5 -92.5t-100.5 -36q-53 0 -94 20t-65.5 55t-41 73t-24 85t-10 79.5t-2.5 66.5q0 82 15.5 147t39.5 103.5t56 63.5t61 34t58 9zM272 232q27 0 40 30t13 72q0 40 -12.5 70t-33.5 30q-25 0 -37.5 -34.5t-12.5 -74.5
q0 -93 43 -93z" />
    <glyph glyph-name="Oacute" unicode="&#xd3;" horiz-adv-x="508" 
d="M313 825q21 7 35 7q16 2 20 2q22 0 17 -28q-7 -22 -49 -34q-48 -15 -85 -33q-25 -9 -32 -9q-10 0 -21 7q-20 7 -20 22q0 2 2 10q1 5 20 13.5t30 11.5q6 3 22.5 8t38.5 15zM273 714q52 0 92 -16.5t64 -48t39.5 -65t22 -81t8.5 -81.5t2 -79q0 -58 -13 -119t-38 -117.5
t-69.5 -92.5t-100.5 -36q-53 0 -94 20t-65.5 55t-41 73t-24 85t-10 79.5t-2.5 66.5q0 82 15.5 147t39.5 103.5t56 63.5t61 34t58 9zM272 232q27 0 40 30t13 72q0 40 -12.5 70t-33.5 30q-25 0 -37.5 -34.5t-12.5 -74.5q0 -93 43 -93z" />
    <glyph glyph-name="Ocircumflex" unicode="&#xd4;" horiz-adv-x="508" 
d="M155 779q29 15 48 29q40 23 52 26q9 4 18 4q4 1 11 1q10 0 38 -15q11 -8 67 -43q37 -23 34 -34q-4 -15 -16 -15q-8 0 -27 7l-27 7q-17 7 -35 18l-32 15l-46 -21q-19 -10 -57 -21q-19 -3 -38 -3q-24 0 -24 16q0 8 7 12zM273 714q52 0 92 -16.5t64 -48t39.5 -65t22 -81
t8.5 -81.5t2 -79q0 -58 -13 -119t-38 -117.5t-69.5 -92.5t-100.5 -36q-53 0 -94 20t-65.5 55t-41 73t-24 85t-10 79.5t-2.5 66.5q0 82 15.5 147t39.5 103.5t56 63.5t61 34t58 9zM272 232q27 0 40 30t13 72q0 40 -12.5 70t-33.5 30q-25 0 -37.5 -34.5t-12.5 -74.5
q0 -93 43 -93z" />
    <glyph glyph-name="Otilde" unicode="&#xd5;" horiz-adv-x="508" 
d="M447 787q0 -16 -23 -16q-9 0 -31 6t-35 6q-27 -1 -61.5 -5.5t-43.5 -5.5q-12 -1 -28.5 -3t-30.5 -3.5t-31 -1.5q-66 0 -66 23v13q0 16 2 23q1 5 7 5q3 0 10.5 -2t20.5 -5.5t26 -6.5q22 0 72 9q45 8 119 8q39 0 64 -4q13 -1 20 -4t8 -6.5t1 -7.5v-7v-15zM273 714
q52 0 92 -16.5t64 -48t39.5 -65t22 -81t8.5 -81.5t2 -79q0 -58 -13 -119t-38 -117.5t-69.5 -92.5t-100.5 -36q-53 0 -94 20t-65.5 55t-41 73t-24 85t-10 79.5t-2.5 66.5q0 82 15.5 147t39.5 103.5t56 63.5t61 34t58 9zM272 232q27 0 40 30t13 72q0 40 -12.5 70t-33.5 30
q-25 0 -37.5 -34.5t-12.5 -74.5q0 -93 43 -93z" />
    <glyph glyph-name="Odieresis" unicode="&#xd6;" horiz-adv-x="508" 
d="M340 778q0 62 74 62q19 0 31 -18.5t12 -43.5q0 -22 -16.5 -38t-46.5 -16q-54 0 -54 54zM231 782q0 -28 -20.5 -45t-41.5 -17q-22 0 -40 16t-18 42q0 21 15.5 38t38.5 17q26 0 46 -13.5t20 -37.5zM273 714q52 0 92 -16.5t64 -48t39.5 -65t22 -81t8.5 -81.5t2 -79
q0 -58 -13 -119t-38 -117.5t-69.5 -92.5t-100.5 -36q-53 0 -94 20t-65.5 55t-41 73t-24 85t-10 79.5t-2.5 66.5q0 82 15.5 147t39.5 103.5t56 63.5t61 34t58 9zM272 232q27 0 40 30t13 72q0 40 -12.5 70t-33.5 30q-25 0 -37.5 -34.5t-12.5 -74.5q0 -93 43 -93z" />
    <glyph glyph-name="multiply" unicode="&#xd7;" 
d="M131 232q13 10 27 25.5t22 26t7 11.5q-6 10 -13 16q-19 17 -51 56q-7 6 -46 50l-40 48q-20 11 -20 30q0 9 9 20q30 30 39 36q8 0 27.5 -18t32.5 -36l92 -102q5 -5 11.5 -12.5t11 -11.5t8.5 -4t12 6q7 4 19 17.5t26 29t20 21.5q6 8 46 52q30 32 44 43q6 8 15 8
q12 0 22 -15q5 -8 13.5 -20.5t12.5 -19.5q7 -9 7 -13q0 -5 -9 -14q-4 -4 -63 -64q-60 -62 -66 -66q-30 -26 -30 -39q0 -6 4 -11l101 -108l38 -39q12 -8 12 -22q0 -10 -8 -18q-16 -17 -31 -39q-8 -5 -15 -5q-11 0 -28 17l-33 35q-27 32 -40 45q-39 43 -45 51q-3 3 -7 8
t-6.5 7.5t-6.5 5t-8 2.5t-8 -3l-78 -83l-69 -71q-14 -14 -23 -14q-6 0 -11 5l-31 33q-8 13 -8 16q0 8 12 24l51 52z" />
    <glyph glyph-name="Oslash" unicode="&#xd8;" horiz-adv-x="575" 
d="M509 645l-29 -48q38 -84 38 -254q0 -58 -13 -119t-38 -117.5t-69.5 -92.5t-100.5 -36q-87 0 -142 55q-3 -6 -7 -13.5t-6 -12t-3 -6.5q-2 -6 -4.5 -10t-4 -6.5t-5 -5.5t-4.5 -3.5t-5.5 -3.5t-5.5 -3q-9 -8 -26 -8q-13 0 -25 4q-14 3 -14 9q0 2 4 12l4 4t2 2.5t1.5 2.5
t4 6.5t9.5 13.5l44 74q-54 98 -54 268q0 82 15.5 147t39.5 103.5t56 63.5t61 34t58 9q93 0 149 -56l1 2q24 46 45 53q34 0 45 -4q7 -2 -0.5 -23t-20.5 -41zM181 314q0 -57 5 -97l14 27q146 250 163 276l2 3q-28 47 -66 47q-31 0 -55 -25.5t-37 -65.5t-19.5 -82t-6.5 -83z
M282 96q44 0 73 36.5t40 88t11 114.5t-13 114q-105 -192 -126 -223l-54 -92q25 -38 69 -38z" />
    <glyph glyph-name="Ugrave" unicode="&#xd9;" horiz-adv-x="405" 
d="M187 753q-22 10 -39.5 14t-22.5 7q-46 13 -50 23q-3 6 -3 11q0 14 19 22q14 8 22 8q5 0 31 -8q47 -20 86 -29q1 -1 11 -4.5t16.5 -6.5t13.5 -9t9 -13q2 -10 2 -13q0 -9 -4.5 -12.5t-13 -3t-20.5 1.5q-11 -1 -35 4zM109 691l-3 -402v-1q0 -88 32 -145t81 -57
q44 0 63.5 25.5t19.5 53.5q0 6 2.5 94.5t2.5 132.5q0 24 2.5 97t2.5 106q0 49 -4 69q-3 12 -3 19t1.5 11.5t6 6.5t6.5 2.5t8 0.5l6 -1h17h29h25q4 0 7.5 -0.5t5.5 -1t3.5 -2t2.5 -2t1.5 -4t0.5 -4t0.5 -5t0.5 -5.5q2 -22 2 -54q0 -22 -1 -32q-1 -13 1 -58.5t4 -126t1 -161.5
q-1 -67 -19 -116.5t-48.5 -76t-64.5 -39t-73 -12.5q-64 0 -103 42.5t-55 94.5q-14 46 -14 171q0 57 3 76q2 14 2 93q0 126 -4 182q-1 6 -1 16q0 13 3.5 19t7.5 5.5t8 -1.5q2 0 5.5 -0.5t5.5 -0.5q3 0 8.5 1t9.5 1q5 0 5 -11z" />
    <glyph glyph-name="Uacute" unicode="&#xda;" horiz-adv-x="405" 
d="M254 825q21 7 35 7q16 2 20 2q22 0 17 -28q-7 -22 -49 -34q-48 -15 -85 -33q-25 -9 -32 -9q-10 0 -21 7q-20 7 -20 22q0 2 2 10q1 5 20 13.5t30 11.5q6 3 22.5 8t38.5 15zM109 691l-3 -402v-1q0 -88 32 -145t81 -57q44 0 63.5 25.5t19.5 53.5q0 6 2.5 94.5t2.5 132.5
q0 24 2.5 97t2.5 106q0 49 -4 69q-3 12 -3 19t1.5 11.5t6 6.5t6.5 2.5t8 0.5l6 -1h17h29h25q4 0 7.5 -0.5t5.5 -1t3.5 -2t2.5 -2t1.5 -4t0.5 -4t0.5 -5t0.5 -5.5q2 -22 2 -54q0 -22 -1 -32q-1 -13 1 -58.5t4 -126t1 -161.5q-1 -67 -19 -116.5t-48.5 -76t-64.5 -39t-73 -12.5
q-64 0 -103 42.5t-55 94.5q-14 46 -14 171q0 57 3 76q2 14 2 93q0 126 -4 182q-1 6 -1 16q0 13 3.5 19t7.5 5.5t8 -1.5q2 0 5.5 -0.5t5.5 -0.5q3 0 8.5 1t9.5 1q5 0 5 -11z" />
    <glyph glyph-name="Ucircumflex" unicode="&#xdb;" horiz-adv-x="405" 
d="M120 778q29 15 48 29q40 23 52 26q9 4 18 4q4 1 11 1q10 0 38 -15q11 -8 67 -43q37 -23 34 -34q-4 -15 -16 -15q-8 0 -27 7l-27 7q-17 7 -35 18l-32 15l-46 -21q-19 -10 -57 -21q-20 -3 -38 -3q-24 0 -24 16q0 8 7 12zM109 691l-3 -402v-1q0 -88 32 -145t81 -57
q44 0 63.5 25.5t19.5 53.5q0 6 2.5 94.5t2.5 132.5q0 24 2.5 97t2.5 106q0 49 -4 69q-3 12 -3 19t1.5 11.5t6 6.5t6.5 2.5t8 0.5l6 -1h17h29h25q4 0 7.5 -0.5t5.5 -1t3.5 -2t2.5 -2t1.5 -4t0.5 -4t0.5 -5t0.5 -5.5q2 -22 2 -54q0 -22 -1 -32q-1 -13 1 -58.5t4 -126t1 -161.5
q-1 -67 -19 -116.5t-48.5 -76t-64.5 -39t-73 -12.5q-64 0 -103 42.5t-55 94.5q-14 46 -14 171q0 57 3 76q2 14 2 93q0 126 -4 182q-1 6 -1 16q0 13 3.5 19t7.5 5.5t8 -1.5q2 0 5.5 -0.5t5.5 -0.5q3 0 8.5 1t9.5 1q5 0 5 -11z" />
    <glyph glyph-name="Udieresis" unicode="&#xdc;" horiz-adv-x="405" 
d="M294 778q0 62 74 62q19 0 31 -18.5t12 -43.5q0 -22 -16.5 -38t-46.5 -16q-54 0 -54 54zM185 782q0 -28 -20.5 -45t-41.5 -17q-22 0 -40 16t-18 42q0 21 15.5 38t38.5 17q26 0 46 -13.5t20 -37.5zM109 691l-3 -402v-1q0 -88 32 -145t81 -57q44 0 63.5 25.5t19.5 53.5
q0 6 2.5 94.5t2.5 132.5q0 24 2.5 97t2.5 106q0 49 -4 69q-3 12 -3 19t1.5 11.5t6 6.5t6.5 2.5t8 0.5l6 -1h17h29h25q4 0 7.5 -0.5t5.5 -1t3.5 -2t2.5 -2t1.5 -4t0.5 -4t0.5 -5t0.5 -5.5q2 -22 2 -54q0 -22 -1 -32q-1 -13 1 -58.5t4 -126t1 -161.5q-1 -67 -19 -116.5
t-48.5 -76t-64.5 -39t-73 -12.5q-64 0 -103 42.5t-55 94.5q-14 46 -14 171q0 57 3 76q2 14 2 93q0 126 -4 182q-1 6 -1 16q0 13 3.5 19t7.5 5.5t8 -1.5q2 0 5.5 -0.5t5.5 -0.5q3 0 8.5 1t9.5 1q5 0 5 -11z" />
    <glyph glyph-name="Yacute" unicode="&#xdd;" horiz-adv-x="496" 
d="M288 825q21 7 35 7q16 2 20 2q22 0 17 -28q-7 -22 -49 -34q-48 -15 -85 -33q-25 -9 -32 -9q-10 0 -21 7q-20 7 -20 22q0 2 2 10q1 5 20 13.5t30 11.5q6 3 22.5 8t38.5 15zM203 -1q-6 -1 -40 -1q-20 -1 -37 -1q-12 0 -12 6q0 2 2 5.5t2 5.5q1 2 16.5 45t18.5 52q0 2 27 74
q1 3 4 9t4 9t2 7t0.5 7t-1.5 6q-2 4 -12.5 38.5t-16.5 48.5q-6 15 -15 46t-14 44q-50 137 -77 224q-4 13 -12 30t-8 23q0 11 30 13q4 1 16 1q15 0 24 -1q33 0 41 -1t10.5 -3.5t2.5 -8.5t1 -9q10 -35 26 -83q27 -85 31 -94q13 -30 28 -76q2 -5 5 -14.5t6 -17.5t5 -16l8 25
q6 22 14 43l11 30l10 26l10 26q8 22 12 29q19 38 37 115q2 8 5 14t5 9t7 4.5t6.5 1.5h8.5h6q54 0 63 -1q21 -3 21 -10q0 -1 -2 -9q-1 -2 -16.5 -48t-24.5 -68q-35 -81 -87 -224q-8 -24 -49.5 -127t-43.5 -111q-3 -8 -6 -22.5t-5.5 -30.5t-3.5 -20q-2 -11 -6 -16t-10 -4h-27z
" />
    <glyph glyph-name="Thorn" unicode="&#xde;" horiz-adv-x="519" 
d="M146 4q-15 0 -39 -1t-25 -1q-11 0 -11 25q0 5 2 27q1 7 1 43q0 69 -4 255t-4 194q0 24 -1 70.5t-1 53.5q0 11 1.5 18t7.5 11.5t17 3.5q34 -4 64 -4q14 0 17 1q11 5 24 -3.5t9 -23.5q-3 -9 -3 -39q0 -39 2 -71q23 -1 60 -5q64 -6 91 -6q20 0 44.5 -7.5t52.5 -25.5t47 -56
t19 -90q0 -104 -45.5 -156t-114.5 -56q-30 -2 -97 -2h-62q0 -9 -0.5 -27.5t-0.5 -27.5q0 -10 0.5 -28t0.5 -27q1 -9 1 -22q0 -22 -7 -23h-46zM203 435q-2 -44 2 -79q3 -24 5 -80q1 -14 1 -42q43 -3 118 12q98 19 98 133q0 57 -32 79t-69 22q-47 0 -74 -3l-47 -3z" />
    <glyph glyph-name="germandbls" unicode="&#xdf;" horiz-adv-x="603" 
d="M237 342q0 -26 1 -38q0 -11 0.5 -33t0.5 -30q0 -17 -1.5 -49t-1.5 -49l1 -118q0 -23 -23 -23q-5 0 -23 2q-9 1 -37 1q-17 0 -43.5 -0.5t-29.5 -0.5q-5 0 -8 1l-4.5 1.5t-2.5 3.5t-1 3.5v5v5.5l-1 53q0 4 -1 35.5t-1 56.5q0 21 3 52t3 53q0 21 -0.5 56.5t-0.5 57.5t1.5 67
t1.5 69q0 40 -1 49q0 2 -0.5 7.5t-0.5 8.5t0.5 9t0.5 10q1 23 23.5 49t66.5 45q61 18 94 18q69 0 113 -11q30 -6 38 -9q40 -12 67 -51q18 -36 16 -74q-3 -31 -31 -68q-17 -20 -61 -32q-22 -8 -32 -24q-4 -9 -4 -18q0 -5 2.5 -9.5t4.5 -6.5t8.5 -8t8.5 -8q10 -9 42 -32
q2 -1 21.5 -11t31.5 -16.5t31.5 -23.5t30.5 -35.5t20 -49t9 -66.5q0 -44 -12 -77t-29.5 -51.5t-41.5 -29.5t-44 -14.5t-41 -3.5q-25 0 -51.5 14.5t-41.5 28.5t-16 19q-8 8 -3 16q0 4 6 15.5t8 11.5h2q1 0 13 -14q8 -12 33.5 -27t43.5 -15q13 0 26 3t32 12t30.5 32.5
t11.5 58.5q0 14 -4.5 26.5t-18.5 26.5t-21.5 20t-31 23.5t-29.5 21.5q-47 37 -74 78.5t-27 107.5q1 40 16 56q18 18 50 28q34 10 34 38q-9 30 -24 39.5t-45 9.5q-4 0 -12 -0.5t-13 -0.5q-24 -1 -39 -23q-14 -20 -16 -58v-64q0 -10 -0.5 -27t-0.5 -24z" />
    <glyph glyph-name="agrave" unicode="&#xe0;" horiz-adv-x="585" 
d="M246 754q-22 10 -39.5 14t-22.5 7q-46 13 -50 23q-3 6 -3 11q0 14 19 22q14 8 22 8q5 0 31 -8q47 -20 86 -29q1 -1 11 -4.5t16.5 -6.5t13.5 -9t9 -13q2 -10 2 -13q0 -9 -4.5 -12.5t-13 -3t-20.5 1.5q-11 -1 -35 4zM209 654q8 31 20 64q6 15 14 7q5 -3 13 -28
q3 -12 53 -120q20 -41 43 -107q6 -17 22 -53t36 -78t27 -59q16 -35 86 -170q42 -85 47 -90q5 -10 5 -13q0 -8 -18 -8h-72q-2 0 -4.5 2t-4.5 5.5t-3.5 7t-3.5 9.5t-4 9q-16 31 -39 103q-2 7 -6.5 17t-10.5 22.5t-8 17.5q-6 20 -18 20q-4 0 -18 -1.5t-22 -1.5
q-8 -2 -50.5 -2.5t-56.5 -1.5q-9 -1 -32 -1h-34l-19 1q-7 0 -13 -22q0 -1 -9.5 -41t-11.5 -51l-11 -43l-8 -29q-5 -19 -13 -19h-59q-5 0 -5 4q0 2 4 14q8 19 14 38q37 124 44 162q9 50 37 129q4 16 26 96q19 70 38 131zM308 350q5 1 12 1t9 1t2 3t-3 8q-22 38 -48 113
q-5 13 -11 28t-9 23.5t-4 10.5q-10 21 -13 21q-2 0 -12 -38q-18 -58 -26 -88q-2 -9 -6.5 -21.5t-9.5 -26.5t-6 -18q-3 -11 -3 -16q0 -6 9 -6q91 0 119 5z" />
    <glyph glyph-name="aacute" unicode="&#xe1;" horiz-adv-x="585" 
d="M288 830q21 7 35 7q16 2 20 2q22 0 17 -28q-7 -22 -49 -34q-48 -15 -85 -33q-25 -9 -32 -9q-10 0 -21 7q-20 7 -20 22q0 2 2 10q1 5 20 13.5t30 11.5q6 3 22.5 8t38.5 15zM209 654q8 31 20 64q6 15 14 7q5 -3 13 -28q3 -12 53 -120q20 -41 43 -107q6 -17 22 -53t36 -78
t27 -59q16 -35 86 -170q42 -85 47 -90q5 -10 5 -13q0 -8 -18 -8h-72q-2 0 -4.5 2t-4.5 5.5t-3.5 7t-3.5 9.5t-4 9q-16 31 -39 103q-2 7 -6.5 17t-10.5 22.5t-8 17.5q-6 20 -18 20q-4 0 -18 -1.5t-22 -1.5q-8 -2 -50.5 -2.5t-56.5 -1.5q-9 -1 -32 -1h-34l-19 1q-7 0 -13 -22
q0 -1 -9.5 -41t-11.5 -51l-11 -43l-8 -29q-5 -19 -13 -19h-59q-5 0 -5 4q0 2 4 14q8 19 14 38q37 124 44 162q9 50 37 129q4 16 26 96q19 70 38 131zM308 350q5 1 12 1t9 1t2 3t-3 8q-22 38 -48 113q-5 13 -11 28t-9 23.5t-4 10.5q-10 21 -13 21q-2 0 -12 -38
q-18 -58 -26 -88q-2 -9 -6.5 -21.5t-9.5 -26.5t-6 -18q-3 -11 -3 -16q0 -6 9 -6q91 0 119 5z" />
    <glyph glyph-name="acircumflex" unicode="&#xe2;" horiz-adv-x="585" 
d="M121 779q29 15 48 29q40 23 52 26q9 4 18 4q4 1 11 1q10 0 38 -15q11 -8 67 -43q37 -23 34 -34q-4 -15 -16 -15q-8 0 -27 7l-27 7q-17 7 -35 18l-32 15l-46 -21q-19 -10 -57 -21q-20 -3 -38 -3q-24 0 -24 16q0 8 7 12zM209 654q8 31 20 64q6 15 14 7q5 -3 13 -28
q3 -12 53 -120q20 -41 43 -107q6 -17 22 -53t36 -78t27 -59q16 -35 86 -170q42 -85 47 -90q5 -10 5 -13q0 -8 -18 -8h-72q-2 0 -4.5 2t-4.5 5.5t-3.5 7t-3.5 9.5t-4 9q-16 31 -39 103q-2 7 -6.5 17t-10.5 22.5t-8 17.5q-6 20 -18 20q-4 0 -18 -1.5t-22 -1.5
q-8 -2 -50.5 -2.5t-56.5 -1.5q-9 -1 -32 -1h-34l-19 1q-7 0 -13 -22q0 -1 -9.5 -41t-11.5 -51l-11 -43l-8 -29q-5 -19 -13 -19h-59q-5 0 -5 4q0 2 4 14q8 19 14 38q37 124 44 162q9 50 37 129q4 16 26 96q19 70 38 131zM308 350q5 1 12 1t9 1t2 3t-3 8q-22 38 -48 113
q-5 13 -11 28t-9 23.5t-4 10.5q-10 21 -13 21q-2 0 -12 -38q-18 -58 -26 -88q-2 -9 -6.5 -21.5t-9.5 -26.5t-6 -18q-3 -11 -3 -16q0 -6 9 -6q91 0 119 5z" />
    <glyph glyph-name="atilde" unicode="&#xe3;" horiz-adv-x="585" 
d="M431 787q0 -16 -23 -16q-9 0 -31 6t-35 6q-27 -1 -61.5 -5.5t-43.5 -5.5q-12 -1 -28.5 -3t-30.5 -3.5t-31 -1.5q-66 0 -66 23v13q0 16 2 23q1 5 7 5q3 0 10.5 -2t20.5 -5.5t26 -6.5q22 0 72 9q45 8 119 8q39 0 64 -4q13 -1 20 -4t8 -6.5t1 -7.5v-7v-15zM209 654
q8 31 20 64q6 15 14 7q5 -3 13 -28q3 -12 53 -120q20 -41 43 -107q6 -17 22 -53t36 -78t27 -59q16 -35 86 -170q42 -85 47 -90q5 -10 5 -13q0 -8 -18 -8h-72q-2 0 -4.5 2t-4.5 5.5t-3.5 7t-3.5 9.5t-4 9q-16 31 -39 103q-2 7 -6.5 17t-10.5 22.5t-8 17.5q-6 20 -18 20
q-4 0 -18 -1.5t-22 -1.5q-8 -2 -50.5 -2.5t-56.5 -1.5q-9 -1 -32 -1h-34l-19 1q-7 0 -13 -22q0 -1 -9.5 -41t-11.5 -51l-11 -43l-8 -29q-5 -19 -13 -19h-59q-5 0 -5 4q0 2 4 14q8 19 14 38q37 124 44 162q9 50 37 129q4 16 26 96q19 70 38 131zM308 350q5 1 12 1t9 1t2 3
t-3 8q-22 38 -48 113q-5 13 -11 28t-9 23.5t-4 10.5q-10 21 -13 21q-2 0 -12 -38q-18 -58 -26 -88q-2 -9 -6.5 -21.5t-9.5 -26.5t-6 -18q-3 -11 -3 -16q0 -6 9 -6q91 0 119 5z" />
    <glyph glyph-name="adieresis" unicode="&#xe4;" horiz-adv-x="585" 
d="M292 778q0 62 74 62q19 0 31 -18.5t12 -43.5q0 -22 -16.5 -38t-46.5 -16q-54 0 -54 54zM183 782q0 -28 -20.5 -45t-41.5 -17q-22 0 -40 16t-18 42q0 21 15.5 38t38.5 17q26 0 46 -13.5t20 -37.5zM209 654q8 31 20 64q6 15 14 7q5 -3 13 -28q3 -12 53 -120q20 -41 43 -107
q6 -17 22 -53t36 -78t27 -59q16 -35 86 -170q42 -85 47 -90q5 -10 5 -13q0 -8 -18 -8h-72q-2 0 -4.5 2t-4.5 5.5t-3.5 7t-3.5 9.5t-4 9q-16 31 -39 103q-2 7 -6.5 17t-10.5 22.5t-8 17.5q-6 20 -18 20q-4 0 -18 -1.5t-22 -1.5q-8 -2 -50.5 -2.5t-56.5 -1.5q-9 -1 -32 -1h-34
l-19 1q-7 0 -13 -22q0 -1 -9.5 -41t-11.5 -51l-11 -43l-8 -29q-5 -19 -13 -19h-59q-5 0 -5 4q0 2 4 14q8 19 14 38q37 124 44 162q9 50 37 129q4 16 26 96q19 70 38 131zM308 350q5 1 12 1t9 1t2 3t-3 8q-22 38 -48 113q-5 13 -11 28t-9 23.5t-4 10.5q-10 21 -13 21
q-2 0 -12 -38q-18 -58 -26 -88q-2 -9 -6.5 -21.5t-9.5 -26.5t-6 -18q-3 -11 -3 -16q0 -6 9 -6q91 0 119 5z" />
    <glyph glyph-name="aring" unicode="&#xe5;" horiz-adv-x="585" 
d="M270 701q-11 -5 -37 -5q-27 0 -48.5 20.5t-21.5 47.5q1 19 10 38q15 38 62 38q25 0 42 -9t24 -22.5t9.5 -23t2.5 -17.5q0 -13 -10.5 -34.5t-32.5 -32.5zM240 790q-13 0 -20.5 -6.5t-7.5 -15.5t7.5 -15.5t17.5 -6.5h7l4 1l5 3q5 3 8.5 7t3.5 11q0 8 -7 15t-18 7zM523 110
q42 -85 47 -90q5 -10 5 -13q0 -8 -18 -8h-72q-2 0 -4.5 2t-4.5 5.5t-3.5 7t-3.5 9.5t-4 9q-16 31 -39 103q-2 7 -6.5 17t-10.5 22.5t-8 17.5q-6 20 -18 20q-4 0 -18 -1.5t-22 -1.5q-8 -2 -50.5 -2.5t-56.5 -1.5q-9 -1 -32 -1h-34l-19 1q-7 0 -13 -22q0 -1 -9.5 -41
t-11.5 -51l-11 -43l-8 -29q-5 -19 -13 -19h-59q-5 0 -5 4q0 2 4 14q8 19 14 38l21 75q8 25 13 29q7 6 10 22q4 20 10 39t15 40t12 30q4 16 26 96q19 70 38 131l25 80q8 31 20 64q6 15 14 7q1 -1 7.5 -11t18.5 -17q3 -12 53 -120q20 -41 43 -107q15 -38 40 -92
q9 -19 24.5 -43t20.5 -35q7 -15 14 -24t18 -32zM308 294q5 1 12 1t9 1t2 3t-3 8q-22 38 -48 113q-5 13 -11 28t-9 23.5t-4 10.5q-10 21 -13 21q-2 0 -12 -38q-18 -58 -26 -88l-22 -66q-3 -11 -3 -16q0 -6 9 -6q91 0 119 5z" />
    <glyph glyph-name="ae" unicode="&#xe6;" horiz-adv-x="974" 
d="M949 644q0 -13 -4 -13q-5 0 -13.5 1.5t-18.5 1.5h-190q-12 0 -35 0.5t-33 0.5h-26q-6 0 -45 -3l-23 -2l-2 -27q-1 -7 -1 -24v-23q0 -15 2 -40.5t2 -36.5v-40q0 -16 1 -25q9 -1 27 -1h40q7 0 29.5 2t39.5 2q19 0 47 -2t31 -2q4 0 21 1.5t31 1.5q9 0 34 -1.5t35 -1.5
q11 0 15 1q1 0 3 0.5t3 0.5q15 0 12 -13q-1 -3 -1.5 -17.5t-0.5 -18.5v-2q-10 -8 -15 -9q-4 0 -60 5.5t-78 5.5q-85 0 -125 -3q-20 -2 -31 -2h-28q-19 0 -28 1l-3 -16q-2 -18 -2 -32q0 -12 2 -28t2 -28v-23q0 -10 0.5 -32.5t0.5 -34.5v-29q0 -9 -0.5 -26t-0.5 -24
q-1 -9 -1 -25q13 -1 38 -1q11 -1 33 -1h32q19 0 53.5 -1t52.5 -1q19 0 52 1.5t45 1.5q16 0 38 -1t26 -1q8 0 9.5 -3.5t1.5 -12.5q0 -4 -1 -14.5t-1 -16.5q0 -12 -21 -12q-11 0 -18 1q-27 3 -109 3q-50 0 -72 -1l-122 -5q-29 -1 -53 -1h-72q-6 0 -8 33q-1 4 -1 20v31
q0 13 -0.5 31.5t-0.5 20.5q0 9 -2 31.5t-2 25.5v5q0 15 -11 15q-4 0 -18.5 -1.5t-22.5 -1.5q-8 -2 -51 -2.5t-57 -1.5q-7 -1 -25 -1h-26q-9 0 -21 0.5t-13 0.5q-7 0 -21 -22q-7 -9 -55 -92q-3 -6 -12.5 -21.5t-12.5 -21.5l-18 -29q-11 -19 -20 -19h-59q-4 0 -4 3q0 2 9 15
q14 16 28 38q3 5 45 71t56 91q30 56 84 129q10 17 28 45t32 51l85 131l54 80q19 31 43 64q12 15 17 7q3 -5 3 -12v-21q10 -2 13 -2q4 0 13 1.5t15 1.5q8 0 26 -2t26 -2q13 0 75.5 3t92.5 3t98.5 -1.5t75.5 -1.5q6 0 10 -1.5t5.5 -5.5t2 -5.5t0.5 -7.5l-1 -7v-21zM424 350
q4 1 8.5 1h6.5t4.5 0.5t3 2t1 3.5t0.5 6q-7 42 -7 113q-1 13 -1.5 28.5t0 22t-0.5 11.5q-1 21 -5 21q-2 0 -26 -38q-3 -4 -27 -40.5t-30 -47.5q-13 -21 -46 -66l-10 -18q0 -4 8 -4q89 0 121 5z" />
    <glyph glyph-name="ccedilla" unicode="&#xe7;" horiz-adv-x="576" 
d="M530 263q14 -3 14 -24q0 -10 -1 -15q-1 -13 -8 -35q-55 -167 -222 -167h-11q-22 -29 -26 -46q17 9 48 9q62 0 62 -70q0 -15 -7 -27t-10.5 -15.5t-13.5 -11.5q-5 -5 -15 -11q-22 -10 -63 -10q-25 0 -46 5.5t-21 13.5q0 12 8 49q0 4 3 4q2 0 5 -1.5t8.5 -5t10.5 -6.5
q19 -6 38 -6q14 1 17 1.5t10 3t9.5 7.5t4.5 14q0 33 -24 33q-8 0 -19 -7t-14 -7q-30 0 -31 8q0 8 7 36q2 15 14 47q-70 20 -119 73q-96 105 -96 291q0 85 26 159.5t65 107.5q65 60 159 60q34 0 63.5 -7t48 -16t36 -24t25 -25t18 -25t12.5 -17q10 -13 10 -20q0 -2 -1 -4.5
t-2 -4t-4 -3.5l-4.5 -3t-5 -3.5t-5.5 -3.5q-5 -4 -39.5 -30.5t-42.5 -31.5q-5 -3 -8 -3q-5 0 -8 2.5t-7.5 9t-5.5 7.5l-8 9q-8 9 -13 13.5t-16.5 9.5t-23.5 5q-29 0 -45 -35q-19 -43 -19 -123q0 -76 24 -130q18 -40 43 -40q20 0 30.5 9t18.5 34q8 24 26 24q5 0 14 -2.5
t11 -2.5q30 -11 116 -26z" />
    <glyph glyph-name="egrave" unicode="&#xe8;" horiz-adv-x="544" 
d="M262 753q-22 10 -39.5 14t-22.5 7q-46 13 -50 23q-3 6 -3 11q0 14 19 22q14 8 22 8q5 0 31 -8q47 -20 86 -29q1 -1 11 -4.5t16.5 -6.5t13.5 -9t9 -13q2 -10 2 -13q0 -9 -4.5 -12.5t-13 -3t-20.5 1.5q-11 -1 -35 4zM94 346q-2 -18 -2 -32q0 -12 2 -28t2 -28l1 -119
q0 -9 -0.5 -26t-0.5 -24q-1 -9 -1 -25q13 -1 38 -1q21 -1 65 -1q19 0 53.5 -1t52.5 -1q19 0 52 1.5t45 1.5q15 0 38 -1t26 -1q8 0 9.5 -3.5t1.5 -12.5q0 -4 -1 -14.5t-1 -16.5q0 -12 -21 -12q-11 0 -18 1q-27 3 -109 3q-50 0 -72 -1q-17 -1 -56 -1q-30 0 -77 1t-54 1
q-23 0 -23 15q0 2 0.5 7.5t0.5 8.5q1 4 1 9q0 2 -0.5 7.5t-1 18t-0.5 31.5q0 30 -2.5 101t-2.5 105q0 37 4 113.5t4 93.5q0 116 -3 153q-1 11 3.5 16.5t14 6.5t19 0.5t22.5 -2t20 -1.5q13 0 75.5 3t92.5 3t98.5 -1.5t75.5 -1.5q6 0 10 -1.5t5.5 -5.5t2 -5.5t-0.5 -7.5v-7
v-11q0 -23 -4 -23t-13 1.5t-19 1.5h-160l-124 1q-6 0 -45 -3l-23 -2l-2 -27q-1 -15 -1 -47q0 -15 2 -40.5t2 -36.5v-40q0 -16 1 -25q9 -1 27 -1h40q7 0 29.5 2t39.5 2q18 0 46 -2t32 -2t21 1.5t31 1.5q9 0 34 -1.5t35 -1.5q11 0 15 1q1 0 3 0.5t3 0.5q15 0 12 -13
q-1 -3 -1.5 -17.5t-0.5 -18.5q-1 -10 -6 -10q-3 -1 -9 -1q-4 0 -60 5.5t-78 5.5q-85 0 -125 -3q-13 -2 -59 -2q-19 0 -28 1z" />
    <glyph glyph-name="eacute" unicode="&#xe9;" horiz-adv-x="544" 
d="M322 830q21 7 35 7q16 2 20 2q22 0 17 -28q-7 -22 -49 -34q-48 -15 -85 -33q-25 -9 -32 -9q-10 0 -21 7q-20 7 -20 22q0 2 2 10q1 5 20 13.5t30 11.5q6 3 22.5 8t38.5 15zM94 346q-2 -18 -2 -32q0 -12 2 -28t2 -28l1 -119q0 -9 -0.5 -26t-0.5 -24q-1 -9 -1 -25
q13 -1 38 -1q21 -1 65 -1q19 0 53.5 -1t52.5 -1q19 0 52 1.5t45 1.5q15 0 38 -1t26 -1q8 0 9.5 -3.5t1.5 -12.5q0 -4 -1 -14.5t-1 -16.5q0 -12 -21 -12q-11 0 -18 1q-27 3 -109 3q-50 0 -72 -1q-17 -1 -56 -1q-30 0 -77 1t-54 1q-23 0 -23 15q0 2 0.5 7.5t0.5 8.5q1 4 1 9
q0 2 -0.5 7.5t-1 18t-0.5 31.5q0 30 -2.5 101t-2.5 105q0 37 4 113.5t4 93.5q0 116 -3 153q-1 11 3.5 16.5t14 6.5t19 0.5t22.5 -2t20 -1.5q13 0 75.5 3t92.5 3t98.5 -1.5t75.5 -1.5q6 0 10 -1.5t5.5 -5.5t2 -5.5t-0.5 -7.5v-7v-11q0 -23 -4 -23t-13 1.5t-19 1.5h-160
l-124 1q-6 0 -45 -3l-23 -2l-2 -27q-1 -15 -1 -47q0 -15 2 -40.5t2 -36.5v-40q0 -16 1 -25q9 -1 27 -1h40q7 0 29.5 2t39.5 2q18 0 46 -2t32 -2t21 1.5t31 1.5q9 0 34 -1.5t35 -1.5q11 0 15 1q1 0 3 0.5t3 0.5q15 0 12 -13q-1 -3 -1.5 -17.5t-0.5 -18.5q-1 -10 -6 -10
q-3 -1 -9 -1q-4 0 -60 5.5t-78 5.5q-85 0 -125 -3q-13 -2 -59 -2q-19 0 -28 1z" />
    <glyph glyph-name="ecircumflex" unicode="&#xea;" horiz-adv-x="544" 
d="M162 778q29 15 48 29q40 23 52 26q9 4 18 4q4 1 11 1q10 0 38 -15q11 -8 67 -43q37 -23 34 -34q-4 -15 -16 -15q-8 0 -27 7l-27 7q-17 7 -35 18l-32 15l-46 -21q-19 -10 -57 -21q-19 -3 -38 -3q-24 0 -24 16q0 8 7 12zM94 346q-2 -18 -2 -32q0 -12 2 -28t2 -28l1 -119
q0 -9 -0.5 -26t-0.5 -24q-1 -9 -1 -25q13 -1 38 -1q21 -1 65 -1q19 0 53.5 -1t52.5 -1q19 0 52 1.5t45 1.5q15 0 38 -1t26 -1q8 0 9.5 -3.5t1.5 -12.5q0 -4 -1 -14.5t-1 -16.5q0 -12 -21 -12q-11 0 -18 1q-27 3 -109 3q-50 0 -72 -1q-17 -1 -56 -1q-30 0 -77 1t-54 1
q-23 0 -23 15q0 2 0.5 7.5t0.5 8.5q1 4 1 9q0 2 -0.5 7.5t-1 18t-0.5 31.5q0 30 -2.5 101t-2.5 105q0 37 4 113.5t4 93.5q0 116 -3 153q-1 11 3.5 16.5t14 6.5t19 0.5t22.5 -2t20 -1.5q13 0 75.5 3t92.5 3t98.5 -1.5t75.5 -1.5q6 0 10 -1.5t5.5 -5.5t2 -5.5t-0.5 -7.5v-7
v-11q0 -23 -4 -23t-13 1.5t-19 1.5h-160l-124 1q-6 0 -45 -3l-23 -2l-2 -27q-1 -15 -1 -47q0 -15 2 -40.5t2 -36.5v-40q0 -16 1 -25q9 -1 27 -1h40q7 0 29.5 2t39.5 2q18 0 46 -2t32 -2t21 1.5t31 1.5q9 0 34 -1.5t35 -1.5q11 0 15 1q1 0 3 0.5t3 0.5q15 0 12 -13
q-1 -3 -1.5 -17.5t-0.5 -18.5q-1 -10 -6 -10q-3 -1 -9 -1q-4 0 -60 5.5t-78 5.5q-85 0 -125 -3q-13 -2 -59 -2q-19 0 -28 1z" />
    <glyph glyph-name="edieresis" unicode="&#xeb;" horiz-adv-x="544" 
d="M396 724q-54 0 -54 54q0 62 74 62q19 0 31 -18.5t12 -43.5q0 -22 -16.5 -38t-46.5 -16zM171 720q-22 0 -40 16t-18 42q0 21 15.5 38t38.5 17q26 0 46 -13.5t20 -37.5q0 -28 -20.5 -45t-41.5 -17zM47 573q0 17 -1.5 44t-1.5 35q0 21 29 21q8 0 25.5 -2t24.5 -2
q13 0 75.5 3t92.5 3t98.5 -1.5t75.5 -1.5q6 0 10 -1.5t5.5 -5.5t2 -5.5t-0.5 -7.5v-7v-11q0 -23 -4 -23t-13 1.5t-19 1.5h-160l-124 1q-6 0 -45 -3l-23 -2l-2 -27q-1 -11 -1 -30q0 -14 2 -39t2 -35v-40q0 -16 1 -25q9 -1 27 -1h40q7 0 29.5 2t39.5 2q18 0 46 -2t32 -2
t21 1.5t31 1.5q9 0 34 -1.5t35 -1.5q11 0 15 1q1 0 3 0.5t3 0.5q15 0 12 -13q-1 -3 -1.5 -17.5t-0.5 -18.5q-1 -10 -6 -10q-3 -1 -9 -1q-4 0 -60 5.5t-78 5.5q-85 0 -125 -3q-13 -2 -59 -2q-19 0 -28 1l-3 -16q-2 -18 -2 -32q0 -12 2 -28t2 -28l1 -119q0 -9 -0.5 -26
t-0.5 -24q-1 -9 -1 -25q13 -1 38 -1q21 -1 65 -1q19 0 53.5 -1t52.5 -1q19 0 52 1.5t45 1.5q15 0 38 -1t26 -1q8 0 9.5 -3.5t1.5 -12.5q0 -4 -1 -14.5t-1 -16.5q0 -12 -21 -12q-11 0 -18 1q-27 3 -109 3q-50 0 -72 -1q-17 -1 -56 -1q-30 0 -77 1t-54 1q-23 0 -23 15
q0 2 0.5 7.5t0.5 8.5q1 4 1 9q0 2 -0.5 7.5t-1 18t-0.5 31.5q0 30 -2.5 101t-2.5 105q0 37 4 113.5t4 93.5v57z" />
    <glyph glyph-name="igrave" unicode="&#xec;" horiz-adv-x="257" 
d="M98 753q-22 10 -39.5 14t-22.5 7q-46 13 -50 23q-3 6 -3 11q0 14 19 22q14 8 22 8q5 0 31 -8q47 -20 86 -29q1 -1 11 -4.5t16.5 -6.5t13.5 -9t9 -13q2 -10 2 -13q0 -9 -4.5 -12.5t-13 -3t-20.5 1.5q-11 -1 -35 4zM65 625v42q0 39 20 39q5 0 8 -1q5 0 35 0.5t44 -1.5
q22 -3 22 -16q0 -3 -1.5 -10.5t-1.5 -11.5q-11 -85 -12 -175q-1 -26 -1 -80q0 -42 1 -96t1 -56q0 -7 1.5 -52t1.5 -65q0 -19 -1 -23t-1 -23q0 -16 1 -47.5t1 -37.5q1 -13 -7.5 -16.5t-22.5 -2.5h-91q-8 0 -13 2t-7 7.5t-2.5 9t-1.5 12.5q-2 8 2 38t4 47q0 20 6.5 123
t6.5 115q0 13 2 95t2 94q0 16 2 54z" />
    <glyph glyph-name="iacute" unicode="&#xed;" horiz-adv-x="257" 
d="M162 830q21 7 35 7q16 2 20 2q22 0 17 -28q-7 -22 -49 -34q-48 -15 -85 -33q-25 -9 -32 -9q-10 0 -21 7q-20 7 -20 22q0 2 2 10q1 5 20 13.5t30 11.5q6 3 22.5 8t38.5 15zM67 625v42q0 39 20 39q5 0 8 -1q5 0 35 0.5t44 -1.5q22 -3 22 -16q0 -3 -1.5 -10.5t-1.5 -11.5
q-11 -85 -12 -175q-1 -26 -1 -80q0 -42 1 -96t1 -56q0 -7 1.5 -52t1.5 -65q0 -19 -1 -23t-1 -23q0 -16 1 -47.5t1 -37.5q1 -13 -7.5 -16.5t-22.5 -2.5h-91q-8 0 -13 2t-7 7.5t-2.5 9t-1.5 12.5q-2 8 2 38t4 47q0 20 6.5 123t6.5 115q0 13 2 95t2 94q0 16 2 54z" />
    <glyph glyph-name="icircumflex" unicode="&#xee;" horiz-adv-x="257" 
d="M-1 778q29 15 48 29q40 23 52 26q9 4 18 4q4 1 11 1q10 0 38 -15q11 -8 67 -43q37 -23 34 -34q-4 -15 -16 -15q-8 0 -27 7l-27 7q-17 7 -35 18l-32 15l-46 -21q-19 -10 -57 -21q-19 -3 -38 -3q-24 0 -24 16q0 7 8 12zM67 625v42q0 39 20 39q5 0 8 -1q5 0 35 0.5t44 -1.5
q22 -3 22 -16q0 -3 -1.5 -10.5t-1.5 -11.5q-11 -85 -12 -175q-1 -26 -1 -80q0 -42 1 -96t1 -56q0 -7 1.5 -52t1.5 -65q0 -19 -1 -23t-1 -23q0 -16 1 -47.5t1 -37.5q1 -13 -7.5 -16.5t-22.5 -2.5h-91q-8 0 -13 2t-7 7.5t-2.5 9t-1.5 12.5q-2 8 2 38t4 47q0 20 6.5 123
t6.5 115q0 13 2 95t2 94q0 16 2 54z" />
    <glyph glyph-name="idieresis" unicode="&#xef;" horiz-adv-x="257" 
d="M194 778q0 62 74 62q19 0 31 -18.5t12 -43.5q0 -22 -16.5 -38t-46.5 -16q-54 0 -54 54zM85 782q0 -28 -20.5 -45t-41.5 -17q-22 0 -40 16t-18 42q0 21 15.5 38t38.5 17q26 0 46 -13.5t20 -37.5zM67 625v42q0 39 20 39q5 0 8 -1q5 0 35 0.5t44 -1.5q22 -3 22 -16
q0 -3 -1.5 -10.5t-1.5 -11.5q-11 -85 -12 -175q-1 -26 -1 -80q0 -42 1 -96t1 -56q0 -7 1.5 -52t1.5 -65q0 -19 -1 -23t-1 -23q0 -16 1 -47.5t1 -37.5q1 -13 -7.5 -16.5t-22.5 -2.5h-91q-8 0 -13 2t-7 7.5t-2.5 9t-1.5 12.5q-2 8 2 38t4 47q0 20 6.5 123t6.5 115q0 13 2 95
t2 94q0 16 2 54z" />
    <glyph glyph-name="eth" unicode="&#xf0;" horiz-adv-x="577" 
d="M171 698q42 2 68 2q32 0 67.5 -8.5t79 -34.5t77 -66t56.5 -112t23 -164q0 -62 -16 -112t-40 -82t-57.5 -55.5t-63 -35t-62 -18.5t-49.5 -8.5t-30 -1.5q-21 0 -73 -1t-63 -1q-19 0 -19 34q0 5 0.5 13.5t0.5 12.5q0 12 -1.5 48.5t-1.5 46.5q0 3 -2.5 52t-2.5 96v25h-1
q-46 0 -51 -3q-8 0 -8 13v27q0 19 11 19h52q5 100 5 127q0 48 -1 107.5t-1 62.5q0 6 4 9.5t13 4.5t15.5 1.5t19 0t15.5 -0.5zM299 338q0 -13 -22 -13q-7 0 -18.5 0.5t-28 1.5t-24.5 1l-3 -62q-2 -34 -2 -52q59 8 91 20q73 27 74 129q0 83 -73 111q-39 13 -84 14q3 -16 3 -36
q0 -24 -4 -68h73q2 0 4 0.5t3 0.5q11 0 11 -17v-30z" />
    <glyph glyph-name="ntilde" unicode="&#xf1;" horiz-adv-x="572" 
d="M487 787q0 -16 -23 -16q-9 0 -31 6t-35 6q-27 -1 -61.5 -5.5t-43.5 -5.5q-12 -1 -28.5 -3t-30.5 -3.5t-31 -1.5q-66 0 -66 23v13q0 16 2 23q1 5 7 5q3 0 10.5 -2t20.5 -5.5t26 -6.5q22 0 72 9q45 8 119 8q39 0 64 -4q13 -1 20 -4t8 -6.5t1 -7.5v-7v-15zM343 623
q0 62 1 77q0 10 4 16t14.5 8.5t14.5 2.5h18q65 0 110 8q13 1 19.5 -3.5t6.5 -15t-2 -26.5q-2 -15 -2 -199v-226q0 -157 6 -253l1 3q0 -16 -16 -16q-7 0 -12 1q-4 1 -16 1q-11 0 -38.5 -2t-38.5 -2q-19 0 -28.5 8t-19.5 29q-4 8 -16.5 34.5t-26.5 54t-27 50.5q-13 22 -66 121
l-44 83v-38v-22v-26v-22q0 -205 6 -237q1 -5 1 -12t-2.5 -10.5t-6.5 -3.5h-10q-34 0 -78 -6q-15 -2 -19.5 5t-3.5 31q0 13 -1.5 58.5t-3.5 115t-3 118.5q0 44 2.5 139t2.5 131q0 46 -3 67q-2 18 -2 23q0 19 7 25.5t19 5.5q25 -2 59 6q11 2 22 2q3 0 16 -1t30 -1
q12 0 22.5 -5.5t19.5 -16.5t14.5 -20t14 -24.5t11.5 -20.5q12 -22 29 -47l15 -23v55z" />
    <glyph glyph-name="ograve" unicode="&#xf2;" horiz-adv-x="609" 
d="M316 753q-22 10 -39.5 14t-22.5 7q-46 13 -50 23q-3 6 -3 11q0 14 19 22q14 8 22 8q5 0 31 -8q47 -20 86 -29q1 -1 11 -4.5t16.5 -6.5t13.5 -9t9 -13q2 -10 2 -13q0 -9 -4.5 -12.5t-13 -3t-20.5 1.5q-11 -1 -35 4zM437 698q46 -31 80.5 -82t51 -103.5t23.5 -92t7 -64.5
q0 -19 -1.5 -42t-8.5 -60.5t-18.5 -71t-33.5 -70t-51 -63t-74.5 -43.5t-100.5 -17q-166 0 -236 193q-31 87 -35 194q0 134 80 238.5t179 104.5h16h16.5h15t15 -0.5t13.5 -1.5t14.5 -2t12.5 -2.5t13 -3.5t11 -5t11 -6zM306 45q72 0 120.5 44.5t69 112.5t20.5 154
q0 126 -54.5 215t-141.5 89h-11h-10.5h-9.5t-10 -0.5l-9 -1.5t-9 -2.5t-8.5 -3.5t-9 -5t-8 -6.5t-8.5 -8.5l-6 -6q-117 -114 -117 -261q0 -62 11 -117t34 -101.5t63 -74t94 -27.5z" />
    <glyph glyph-name="oacute" unicode="&#xf3;" horiz-adv-x="609" 
d="M366 830q21 7 35 7q16 2 20 2q22 0 17 -28q-7 -22 -49 -34q-48 -15 -85 -33q-25 -9 -32 -9q-10 0 -21 7q-20 7 -20 22q0 2 2 10q1 5 20 13.5t30 11.5q6 3 22.5 8t38.5 15zM437 698q46 -31 80.5 -82t51 -103.5t23.5 -92t7 -64.5q0 -19 -1.5 -42t-8.5 -60.5t-18.5 -71
t-33.5 -70t-51 -63t-74.5 -43.5t-100.5 -17q-166 0 -236 193q-31 87 -35 194q0 134 80 238.5t179 104.5h16h16.5h15t15 -0.5t13.5 -1.5t14.5 -2t12.5 -2.5t13 -3.5t11 -5t11 -6zM306 45q72 0 120.5 44.5t69 112.5t20.5 154q0 126 -54.5 215t-141.5 89h-11h-10.5h-9.5
t-10 -0.5l-9 -1.5t-9 -2.5t-8.5 -3.5t-9 -5t-8 -6.5t-8.5 -8.5l-6 -6q-117 -114 -117 -261q0 -62 11 -117t34 -101.5t63 -74t94 -27.5z" />
    <glyph glyph-name="ocircumflex" unicode="&#xf4;" horiz-adv-x="609" 
d="M210 778q29 15 48 29q40 23 52 26q9 4 18 4q4 1 11 1q10 0 38 -15q11 -8 67 -43q37 -23 34 -34q-4 -15 -16 -15q-8 0 -27 7l-27 7q-17 7 -35 18l-32 15l-46 -21q-19 -10 -57 -21q-19 -3 -38 -3q-24 0 -24 16q0 8 7 12zM437 698q46 -31 80.5 -82t51 -103.5t23.5 -92
t7 -64.5q0 -19 -1.5 -42t-8.5 -60.5t-18.5 -71t-33.5 -70t-51 -63t-74.5 -43.5t-100.5 -17q-166 0 -236 193q-31 87 -35 194q0 134 80 238.5t179 104.5h16h16.5h15t15 -0.5t13.5 -1.5t14.5 -2t12.5 -2.5t13 -3.5t11 -5t11 -6zM306 45q72 0 120.5 44.5t69 112.5t20.5 154
q0 126 -54.5 215t-141.5 89h-11h-10.5h-9.5t-10 -0.5l-9 -1.5t-9 -2.5t-8.5 -3.5t-9 -5t-8 -6.5t-8.5 -8.5l-6 -6q-117 -114 -117 -261q0 -62 11 -117t34 -101.5t63 -74t94 -27.5z" />
    <glyph glyph-name="otilde" unicode="&#xf5;" horiz-adv-x="609" 
d="M509 787q0 -16 -23 -16q-9 0 -31 6t-35 6q-27 -1 -61.5 -5.5t-43.5 -5.5q-12 -1 -28.5 -3t-30.5 -3.5t-31 -1.5q-66 0 -66 23v13q0 16 2 23q1 5 7 5q3 0 10.5 -2t20.5 -5.5t26 -6.5q22 0 72 9q45 8 119 8q39 0 64 -4q13 -1 20 -4t8 -6.5t1 -7.5v-7v-15zM437 698
q46 -31 80.5 -82t51 -103.5t23.5 -92t7 -64.5q0 -19 -1.5 -42t-8.5 -60.5t-18.5 -71t-33.5 -70t-51 -63t-74.5 -43.5t-100.5 -17q-166 0 -236 193q-31 87 -35 194q0 134 80 238.5t179 104.5h16h16.5h15t15 -0.5t13.5 -1.5t14.5 -2t12.5 -2.5t13 -3.5t11 -5t11 -6zM306 45
q72 0 120.5 44.5t69 112.5t20.5 154q0 126 -54.5 215t-141.5 89h-11h-10.5h-9.5t-10 -0.5l-9 -1.5t-9 -2.5t-8.5 -3.5t-9 -5t-8 -6.5t-8.5 -8.5l-6 -6q-117 -114 -117 -261q0 -62 11 -117t34 -101.5t63 -74t94 -27.5z" />
    <glyph glyph-name="odieresis" unicode="&#xf6;" horiz-adv-x="609" 
d="M393 778q0 62 74 62q19 0 31 -18.5t12 -43.5q0 -22 -16.5 -38t-46.5 -16q-54 0 -54 54zM284 782q0 -28 -20.5 -45t-41.5 -17q-22 0 -40 16t-18 42q0 21 15.5 38t38.5 17q26 0 46 -13.5t20 -37.5zM437 698q46 -31 80.5 -82t51 -103.5t23.5 -92t7 -64.5q0 -19 -1.5 -42
t-8.5 -60.5t-18.5 -71t-33.5 -70t-51 -63t-74.5 -43.5t-100.5 -17q-166 0 -236 193q-31 87 -35 194q0 134 80 238.5t179 104.5h16h16.5h15t15 -0.5t13.5 -1.5t14.5 -2t12.5 -2.5t13 -3.5t11 -5t11 -6zM306 45q72 0 120.5 44.5t69 112.5t20.5 154q0 126 -54.5 215t-141.5 89
h-11h-10.5h-9.5t-10 -0.5l-9 -1.5t-9 -2.5t-8.5 -3.5t-9 -5t-8 -6.5t-8.5 -8.5l-6 -6q-117 -114 -117 -261q0 -62 11 -117t34 -101.5t63 -74t94 -27.5z" />
    <glyph glyph-name="divide" unicode="&#xf7;" 
d="M251 475q-84 0 -84 99q0 26 24.5 44.5t54.5 18.5q33 0 56 -22.5t23 -64.5q0 -41 -22 -58t-52 -17zM441 392q17 1 25.5 -1.5t9.5 -6t1 -12.5v-52q0 -10 -8.5 -13.5t-34.5 -3.5q-7 0 -58.5 2t-114.5 2h-121q-85 0 -101 -4q-16 0 -16 17v49q0 12 4.5 17.5t17.5 5.5h396z
M251 227q36 0 59 -28t23 -58q0 -29 -22.5 -52.5t-56.5 -23.5q-31 0 -53.5 22t-22.5 54q0 34 18 60t55 26z" />
    <glyph glyph-name="oslash" unicode="&#xf8;" horiz-adv-x="655" 
d="M538 607q39 -62 57 -135t18 -116q0 -19 -1.5 -42t-8.5 -60.5t-18.5 -71t-33.5 -70t-51 -63t-74.5 -43.5t-100.5 -17q-93 0 -155 60q-24 -36 -30 -48q-2 -5 -4.5 -8.5t-5 -6.5t-3.5 -5t-4.5 -4t-4.5 -2.5l-5 -2.5t-5 -3q-9 -8 -26 -8q-11 0 -25 4q-13 3 -13 9q0 4 5 12
q2 1 3.5 2.5t2 1.5t1.5 1t1 1.5t1.5 2.5t2.5 4t4 6.5t7 9.5l57 84q-24 37 -40 83q-31 87 -35 194q0 134 80 238.5t179 104.5h16h16.5h15t15 -0.5t13.5 -1.5t14.5 -2t12.5 -2.5t13 -3.5t11 -5t11 -6q23 -15 46 -38q11 19 25.5 34.5t23.5 18.5q34 0 45 -4q6 -2 -3 -23.5
t-24 -40.5zM118 365q0 -132 44 -217q38 58 60 96q24 38 101.5 152t83.5 124q25 32 51 75q-52 65 -124 65h-11h-10.5h-9.5t-10 -0.5l-9 -1.5t-9 -2.5t-8.5 -3.5t-9 -5t-8 -6.5t-8.5 -8.5l-6 -6q-117 -114 -117 -261zM320 45q72 0 120.5 44.5t69 112.5t20.5 154q0 103 -38 185
q-37 -56 -46 -71q-14 -21 -78.5 -123t-79.5 -121q-47 -68 -88 -131q48 -50 120 -50z" />
    <glyph glyph-name="ugrave" unicode="&#xf9;" horiz-adv-x="590" 
d="M287 753q-22 10 -39.5 14t-22.5 7q-46 13 -50 23q-3 6 -3 11q0 14 19 22q14 8 22 8q5 0 31 -8q47 -20 86 -29q1 -1 11 -4.5t16.5 -6.5t13.5 -9t9 -13q2 -10 2 -13q0 -9 -4.5 -12.5t-13 -3t-20.5 1.5q-11 -1 -35 4zM257 298v-18.5t3 -20t8.5 -23t17.5 -14.5t29 -7
q67 0 67 94q0 7 2 73t2 101q0 28 -1 38q0 28 -3 90.5t-3 71.5q0 18 5 25t19 7h127q2 0 7 0.5t8 0.5q22 0 25 -30q2 -17 2 -118q0 -46 -0.5 -124t-0.5 -91q0 -21 -3 -47.5t-11 -69t-26 -80.5t-44.5 -73t-71 -56t-100.5 -21q-49 0 -88.5 10.5t-65 25.5t-45 38t-29.5 42
t-17 44.5t-8.5 38t-2.5 29.5q-1 10 -1 40q0 29 2.5 121.5t1.5 121.5q0 39 -1.5 100t-1.5 65v9.5v9t1 7t3.5 6t6.5 3t11 1.5q34 -2 52 -2q11 0 33 2t36 2q10 0 24 -0.5t16 -0.5q6 0 9.5 -2.5t4 -6t1.5 -12.5v-400z" />
    <glyph glyph-name="uacute" unicode="&#xfa;" horiz-adv-x="590" 
d="M353 830q21 7 35 7q16 2 20 2q22 0 17 -28q-7 -22 -49 -34q-48 -15 -85 -33q-25 -9 -32 -9q-10 0 -21 7q-20 7 -20 22q0 2 2 10q1 5 20 13.5t30 11.5q6 3 22.5 8t38.5 15zM257 298v-18.5t3 -20t8.5 -23t17.5 -14.5t29 -7q67 0 67 94q0 7 2 73t2 101q0 28 -1 38
q0 28 -3 90.5t-3 71.5q0 18 5 25t19 7h127q2 0 7 0.5t8 0.5q22 0 25 -30q2 -17 2 -118q0 -46 -0.5 -124t-0.5 -91q0 -21 -3 -47.5t-11 -69t-26 -80.5t-44.5 -73t-71 -56t-100.5 -21q-49 0 -88.5 10.5t-65 25.5t-45 38t-29.5 42t-17 44.5t-8.5 38t-2.5 29.5q-1 10 -1 40
q0 29 2.5 121.5t1.5 121.5q0 39 -1.5 100t-1.5 65v9.5v9t1 7t3.5 6t6.5 3t11 1.5q34 -2 52 -2q11 0 33 2t36 2q10 0 24 -0.5t16 -0.5q6 0 9.5 -2.5t4 -6t1.5 -12.5v-400z" />
    <glyph glyph-name="ucircumflex" unicode="&#xfb;" horiz-adv-x="590" 
d="M195 778q29 15 48 29q40 23 52 26q9 4 18 4q4 1 11 1q10 0 38 -15q11 -8 67 -43q37 -23 34 -34q-4 -15 -16 -15q-8 0 -27 7l-27 7q-17 7 -35 18l-32 15l-46 -21q-19 -10 -57 -21q-20 -3 -38 -3q-24 0 -24 16q0 8 7 12zM257 298v-18.5t3 -20t8.5 -23t17.5 -14.5t29 -7
q67 0 67 94q0 7 2 73t2 101q0 28 -1 38q0 28 -3 90.5t-3 71.5q0 18 5 25t19 7h127q2 0 7 0.5t8 0.5q22 0 25 -30q2 -17 2 -118q0 -46 -0.5 -124t-0.5 -91q0 -21 -3 -47.5t-11 -69t-26 -80.5t-44.5 -73t-71 -56t-100.5 -21q-49 0 -88.5 10.5t-65 25.5t-45 38t-29.5 42
t-17 44.5t-8.5 38t-2.5 29.5q-1 10 -1 40q0 29 2.5 121.5t1.5 121.5q0 39 -1.5 100t-1.5 65v9.5v9t1 7t3.5 6t6.5 3t11 1.5q34 -2 52 -2q11 0 33 2t36 2q10 0 24 -0.5t16 -0.5q6 0 9.5 -2.5t4 -6t1.5 -12.5v-400z" />
    <glyph glyph-name="udieresis" unicode="&#xfc;" horiz-adv-x="590" 
d="M375 778q0 62 74 62q19 0 31 -18.5t12 -43.5q0 -22 -16.5 -38t-46.5 -16q-54 0 -54 54zM266 782q0 -28 -20.5 -45t-41.5 -17q-22 0 -40 16t-18 42q0 21 15.5 38t38.5 17q26 0 46 -13.5t20 -37.5zM257 298v-18.5t3 -20t8.5 -23t17.5 -14.5t29 -7q67 0 67 94q0 7 2 73
t2 101q0 28 -1 38q0 28 -3 90.5t-3 71.5q0 18 5 25t19 7h127q2 0 7 0.5t8 0.5q22 0 25 -30q2 -17 2 -118q0 -46 -0.5 -124t-0.5 -91q0 -21 -3 -47.5t-11 -69t-26 -80.5t-44.5 -73t-71 -56t-100.5 -21q-49 0 -88.5 10.5t-65 25.5t-45 38t-29.5 42t-17 44.5t-8.5 38t-2.5 29.5
q-1 10 -1 40q0 29 2.5 121.5t1.5 121.5q0 39 -1.5 100t-1.5 65v9.5v9t1 7t3.5 6t6.5 3t11 1.5q34 -2 52 -2q11 0 33 2t36 2q10 0 24 -0.5t16 -0.5q6 0 9.5 -2.5t4 -6t1.5 -12.5v-400z" />
    <glyph glyph-name="yacute" unicode="&#xfd;" horiz-adv-x="508" 
d="M273 830q21 7 35 7q16 2 20 2q22 0 17 -28q-7 -22 -49 -34q-48 -15 -85 -33q-25 -9 -32 -9q-10 0 -21 7q-20 7 -20 22q0 2 2 10q1 5 20 13.5t30 11.5q6 3 22.5 8t38.5 15zM153 585q21 -66 49 -130q13 -30 28 -76q2 -5 5 -14.5t6 -17.5t5 -16l8 25l15 43q33 98 56 147
q28 81 36 115q2 8 5 14t5 9t7.5 4.5t6.5 1.5h7h7q1 0 21 0.5t33 0.5q25 0 43 -2q21 -3 21 -10q0 -1 -2 -9q-1 -2 -16.5 -48t-24.5 -68q-7 -20 -42.5 -111t-43.5 -113q-17 -40 -53.5 -133t-39.5 -105q-3 -8 -6 -22.5t-5.5 -30.5t-3.5 -20q-3 -12 -6.5 -16.5t-9.5 -3.5l-59 -1
q-7 0 -39 -0.5t-40 -0.5q-13 0 -13 6q0 2 2 5.5t2 5.5l36 97q2 9 13 38t13 36q2 4 5.5 11.5t4 9.5t2 8.5t-1.5 8.5q-2 4 -13 38.5t-17 48.5q-6 15 -15 46t-14 44q-31 76 -77 224q-3 11 -8 22.5t-8 18.5t-3 12q0 11 30 13q15 1 50 -1q7 -1 9.5 -3.5t3 -8.5t1.5 -9z" />
    <glyph glyph-name="thorn" unicode="&#xfe;" horiz-adv-x="552" 
d="M76 503q0 49 1 112q2 95 17 95q8 -1 22 -1q40 0 44 -1q8 -1 24.5 1.5t30.5 0.5q9 0 8 -67q3 -52 3 -96q84 0 122.5 -2t80 -14t62.5 -37q3 -3 13.5 -16t14.5 -18t12 -18t11.5 -23t6.5 -26t3 -33q0 -94 -49 -147.5t-122 -71.5q-82 -8 -171 -8q-5 -27 -5 -74l1 -31v1
q0 -30 -24 -30q-4 0 -11.5 1t-10.5 1q-8 0 -38.5 -2t-38.5 -2q-19 0 -19 32q0 1 2 36.5t2 50.5v234q0 40 4 87zM211 185q13 0 38 -3.5t37 -3.5q10 1 31 1.5t34 1.5t29 4t27 8q70 21 70 121q0 43 -8 90q-14 76 -134 92q-27 4 -64 4q-16 0 -54 -2z" />
    <glyph glyph-name="ydieresis" unicode="&#xff;" horiz-adv-x="508" 
d="M315 778q0 62 74 62q19 0 31 -18.5t12 -43.5q0 -22 -16.5 -38t-46.5 -16q-54 0 -54 54zM206 782q0 -28 -20.5 -45t-41.5 -17q-22 0 -40 16t-18 42q0 21 15.5 38t38.5 17q26 0 46 -13.5t20 -37.5zM153 585q21 -66 49 -130q13 -30 28 -76q2 -5 5 -14.5t6 -17.5t5 -16l8 25
l15 43q33 98 56 147q28 81 36 115q2 8 5 14t5 9t7.5 4.5t6.5 1.5h7h7q1 0 21 0.5t33 0.5q25 0 43 -2q21 -3 21 -10q0 -1 -2 -9q-1 -2 -16.5 -48t-24.5 -68q-7 -20 -42.5 -111t-43.5 -113q-17 -40 -53.5 -133t-39.5 -105q-3 -8 -6 -22.5t-5.5 -30.5t-3.5 -20
q-3 -12 -6.5 -16.5t-9.5 -3.5l-59 -1q-7 0 -39 -0.5t-40 -0.5q-13 0 -13 6q0 2 2 5.5t2 5.5l36 97q2 9 13 38t13 36q2 4 5.5 11.5t4 9.5t2 8.5t-1.5 8.5q-2 4 -13 38.5t-17 48.5q-6 15 -15 46t-14 44q-31 76 -77 224q-3 11 -8 22.5t-8 18.5t-3 12q0 11 30 13q15 1 50 -1
q7 -1 9.5 -3.5t3 -8.5t1.5 -9z" />
    <glyph glyph-name="Amacron" unicode="&#x100;" horiz-adv-x="507" 
d="M372 831q2 0 4 0.5t3 0.5q11 0 11 -17v-30q0 -13 -22 -13q-8 0 -39.5 1.5t-44.5 1.5h-132q-46 0 -51 -3q-8 0 -8 13v27q0 19 11 19h268zM36 69q1 3 4 12.5l6 19t4 17.5q5 24 19 73q31 107 32 115q4 16 14 50t12 45q2 8 27 103q19 62 23 70q29 87 31 98q7 24 14.5 36
t20.5 12q1 0 2.5 -0.5t3 -2.5l3 -4t3 -5t2.5 -5.5t3 -7t3 -8t3.5 -8.5t3.5 -9q5 -11 12.5 -38t15 -53.5t8.5 -31.5q2 -10 26 -78.5t26 -74.5q2 -5 25 -66.5t29 -76.5q35 -106 41 -128q4 -14 40 -109q3 -7 3 -10q0 -4 -11 -4h-56q-8 0 -11 9q-4 11 -11 36q-9 25 -12 45
q-9 43 -21 68q-9 19 -16 43l-9 29q-3 8 -5.5 11.5t-4.5 4t-6 0.5q-21 0 -31 -1q-34 -2 -43 -2q-8 -1 -74 -1h-61h-2q-6 0 -9 -11l-2 -10l-4 -19q-3 -8 -12.5 -53t-10.5 -49q-2 -20 -9 -33l-10 -32q-3 -8 -7 -26q-8 -8 -11 -9h-20q-9 0 -5 13q0 3 1 5l1 5q1 5 3 9zM306 311
q13 0 13 7q0 4 -7 22q-4 9 -17.5 54t-18.5 59q-28 84 -35 124q-15 53 -20 53q-1 0 -16 -49q-16 -69 -38 -136q-15 -74 -33 -120q-2 -6 -2 -7q0 -4 2 -6t5.5 -3t6.5 -1h8h6q5 0 28 1t30 1q12 2 34 2q11 0 30.5 -0.5t23.5 -0.5z" />
    <glyph glyph-name="amacron" unicode="&#x101;" horiz-adv-x="584" 
d="M370 831q2 0 4 0.5t3 0.5q11 0 11 -17v-30q0 -13 -22 -13q-8 0 -39.5 1.5t-44.5 1.5h-132q-46 0 -51 -3q-8 0 -8 13v27q0 19 11 19h268zM209 654q8 31 20 64q6 15 14 7q5 -3 13 -28q3 -12 53 -120q20 -41 43 -107q6 -17 22 -53t36 -78t27 -59q16 -35 86 -170
q42 -85 47 -90q5 -10 5 -13q0 -8 -18 -8h-72q-2 0 -4.5 2t-4.5 5.5t-3.5 7t-3.5 9.5t-4 9q-16 31 -39 103q-2 7 -6.5 17t-10.5 22.5t-8 17.5q-6 20 -18 20q-4 0 -18 -1.5t-22 -1.5q-8 -2 -50.5 -2.5t-56.5 -1.5q-9 -1 -32 -1h-34l-19 1q-7 0 -13 -22q0 -1 -9.5 -41
t-11.5 -51l-11 -43l-8 -29q-5 -19 -13 -19h-59q-5 0 -5 4q0 2 4 14q8 19 14 38q37 124 44 162q9 50 37 129q4 16 26 96q19 70 38 131zM308 350q5 1 12 1t9 1t2 3t-3 8q-22 38 -48 113q-5 13 -11 28t-9 23.5t-4 10.5q-10 21 -13 21q-2 0 -12 -38q-18 -58 -26 -88
q-2 -9 -6.5 -21.5t-9.5 -26.5t-6 -18q-3 -11 -3 -16q0 -6 9 -6q91 0 119 5z" />
    <glyph glyph-name="Abreve" unicode="&#x102;" horiz-adv-x="507" 
d="M390 832q0 -41 -21 -57q-13 -11 -39 -24q-25 -13 -96 -13q-81 5 -100 15q-20 11 -27 27q-14 32 -15 56q0 3 29 3q21 0 25 -1.5t4 -8.5q4 -19 16 -27q11 -7 66 -10q26 0 61 9q35 10 37 30q4 6 27 7q33 -2 33 -6zM36 69q1 3 4 12.5l6 19t4 17.5q5 24 19 73q31 107 32 115
q4 16 14 50t12 45q2 8 27 103q19 62 23 70q29 87 31 98q7 24 14.5 36t20.5 12q1 0 2.5 -0.5t3 -2.5l3 -4t3 -5t2.5 -5.5t3 -7t3 -8t3.5 -8.5t3.5 -9q5 -11 12.5 -38t15 -53.5t8.5 -31.5q2 -10 26 -78.5t26 -74.5q2 -5 25 -66.5t29 -76.5q35 -106 41 -128q4 -14 40 -109
q3 -7 3 -10q0 -4 -11 -4h-56q-8 0 -11 9q-4 11 -11 36q-9 25 -12 45q-9 43 -21 68q-9 19 -16 43l-9 29q-3 8 -5.5 11.5t-4.5 4t-6 0.5q-21 0 -31 -1q-34 -2 -43 -2q-8 -1 -74 -1h-61h-2q-6 0 -9 -11l-2 -10l-4 -19q-3 -8 -12.5 -53t-10.5 -49q-2 -20 -9 -33l-10 -32
q-3 -8 -7 -26q-8 -8 -11 -9h-20q-9 0 -5 13q0 3 1 5l1 5q1 5 3 9zM306 311q13 0 13 7q0 4 -7 22q-4 9 -17.5 54t-18.5 59q-28 84 -35 124q-15 53 -20 53q-1 0 -16 -49q-16 -69 -38 -136q-15 -74 -33 -120q-2 -6 -2 -7q0 -4 2 -6t5.5 -3t6.5 -1h8h6q5 0 28 1t30 1q12 2 34 2
q11 0 30.5 -0.5t23.5 -0.5z" />
    <glyph glyph-name="abreve" unicode="&#x103;" horiz-adv-x="584" 
d="M388 832q0 -41 -21 -57q-13 -11 -39 -24q-25 -13 -96 -13q-81 5 -100 15q-20 11 -27 27q-14 32 -15 56q0 3 29 3q21 0 25 -1.5t4 -8.5q4 -19 16 -27q11 -7 66 -10q26 0 61 9q35 10 37 30q4 6 27 7q33 -2 33 -6zM182 543q6 18 13 41t11 34q7 25 20 61q6 14 14 6
q5 -3 13 -26q4 -17 52 -113q23 -45 42 -102q6 -16 21.5 -49.5t35.5 -74.5t27 -55q43 -86 85 -161q5 -9 14.5 -28.5t17.5 -34.5t14 -22q5 -8 5 -12q0 -8 -18 -8h-71q-4 0 -6.5 4.5t-6.5 13.5t-6 13q-22 48 -39 98q-2 5 -11.5 25t-12.5 28q-3 12 -7 15.5t-11 3.5q-6 0 -40 -2
q-8 -2 -49.5 -2.5t-55.5 -1.5q-9 -1 -32 -1q-14 0 -32.5 0.5t-19.5 0.5q-8 0 -12 -16q-1 -3 -1 -5t-5 -21t-9.5 -38.5t-5.5 -27.5l-11 -41l-8 -27q-6 -18 -13 -18h-58q-5 0 -5 4q0 1 4 13q9 20 14 36q30 91 43 153q9 48 37 122q15 58 25 91zM304 331q5 1 12 1q8 1 9.5 2.5
t-1.5 8.5q-15 25 -48 107q-6 12 -11 26t-8 22.5t-4 10.5q-2 3 -3.5 7t-2.5 6t-2 3.5t-2.5 2.5t-2.5 1t-12 -36q-4 -10 -14.5 -45t-11.5 -39q-5 -21 -21 -62q-3 -9 -3 -14q0 -7 9 -7q87 0 117 5z" />
    <glyph glyph-name="Aogonek" unicode="&#x104;" horiz-adv-x="507" 
d="M468 0q0 -5 -2 -18.5t-3 -19.5t-1 -18q0 -40 20 -41q27 -2 44.5 4t25 12.5t9.5 6.5q6 0 13 -9t7 -16q0 -19 -40 -44.5t-68 -27.5q-40 -1 -60 16t-22 64q0 19 9 46q6 19 14 37l6 12q0 1 -2 5q-4 11 -11 36q-9 25 -12 45q-9 43 -21 68q-9 19 -16 43l-9 29q-3 8 -5.5 11.5
t-4.5 4t-6 0.5q-21 0 -31 -1q-34 -2 -43 -2q-8 -1 -74 -1h-61h-2q-6 0 -9 -11l-2 -10l-4 -19q-3 -8 -12.5 -53t-10.5 -49q-2 -20 -9 -33l-10 -32q-3 -8 -7 -26q-8 -8 -11 -9h-20q-9 0 -5 13q0 3 1 5l1 5q1 5 3 9l9 37q1 3 4 12.5l6 19t4 17.5q5 24 19 73q31 107 32 115
q4 16 14 50t12 45q2 8 27 103q19 62 23 70q29 87 31 98q7 24 14.5 36t20.5 12q1 0 2.5 -0.5t3 -2.5l3 -4t3 -5t2.5 -5.5t3 -7t3 -8t3.5 -8.5t3.5 -9q5 -11 12.5 -38t15 -53.5t8.5 -31.5q2 -10 26 -78.5t26 -74.5q2 -5 25 -66.5t29 -76.5q35 -106 41 -128q4 -14 40 -109
q3 -7 3 -10q0 -4 -11 -4h-17zM306 311q13 0 13 7q0 3 -7 22q-4 9 -17.5 54t-18.5 59q-28 84 -35 124q-15 53 -20 53q-1 0 -16 -49q-16 -69 -38 -136q-15 -74 -33 -120q-2 -6 -2 -7q0 -4 2 -6t5.5 -3t6.5 -1h8h6q5 0 28 1t30 1q12 2 34 2q11 0 30.5 -0.5t23.5 -0.5z" />
    <glyph glyph-name="aogonek" unicode="&#x105;" horiz-adv-x="584" 
d="M528 -1q0 -5 -2 -17t-3 -20q-1 -6 -1 -18q0 -40 20 -41q27 -2 44.5 4t25 12.5t9.5 6.5q6 0 13 -9t7 -16q0 -19 -40 -44.5t-68 -27.5q-40 -1 -60 16t-22 64q0 19 9 46q7 19 14 37l5 10q-1 1 -14 30q-16 31 -39 103q-2 7 -6.5 17t-10.5 22.5t-8 17.5q-6 20 -18 20
q-4 0 -18 -1.5t-22 -1.5q-8 -2 -50.5 -2.5t-56.5 -1.5q-9 -1 -32 -1h-34l-19 1q-7 0 -13 -22q0 -1 -9.5 -41t-11.5 -51l-11 -43l-8 -29q-5 -19 -13 -19h-59q-5 0 -5 4q0 2 4 14q8 19 14 38q37 124 44 162q9 50 37 129q4 16 26 96q19 70 38 131l25 80q8 31 20 64q6 15 14 7
q5 -3 13 -28q3 -12 53 -120q20 -41 43 -107q6 -17 22 -53t36 -78t27 -59q16 -35 86 -170q42 -85 47 -90q5 -10 5 -13q0 -8 -18 -8h-29zM308 350q5 1 12 1t9 1t2 3t-3 8q-22 38 -48 113q-5 13 -11 28t-9 23.5t-4 10.5q-10 21 -13 21q-2 0 -12 -38q-18 -58 -26 -88
q-2 -9 -6.5 -21.5t-9.5 -26.5t-6 -18q-3 -11 -3 -16q0 -6 9 -6q91 0 119 5z" />
    <glyph glyph-name="Cacute" unicode="&#x106;" horiz-adv-x="528" 
d="M329 830q21 7 35 7q16 2 20 2q22 0 17 -28q-7 -22 -49 -34q-48 -15 -85 -33q-25 -9 -32 -9q-10 0 -21 7q-20 7 -20 22q0 2 2 10q1 5 20 13.5t30 11.5q6 3 22.5 8t38.5 15zM467 134q3 -1 8.5 -3.5t8 -4t5.5 -3.5t4.5 -4t1.5 -5q0 -5 -3 -11q-8 -14 -19 -27.5t-35 -36.5
t-62 -37t-83 -14q-101 0 -178.5 106.5t-77.5 259.5q0 149 72.5 249.5t161.5 100.5q39 0 72 -10.5t54.5 -27t32.5 -27.5t18 -21q11 -15 11 -21t-11 -16q-46 -36 -66 -63q-20 -26 -31 -26q-7 0 -16 10q-1 2 -6.5 8t-7.5 7.5t-6.5 6.5t-7 7t-7 5t-8 4.5t-8 2.5t-9.5 1
q-41 0 -74.5 -52t-33.5 -163q0 -57 14 -98.5t35 -60.5t38.5 -27.5t30.5 -8.5q31 0 70 39q12 12 15 12q5 0 12 -4z" />
    <glyph glyph-name="cacute" unicode="&#x107;" horiz-adv-x="574" 
d="M331 830q21 7 35 7q16 2 20 2q22 0 17 -28q-7 -22 -49 -34q-48 -15 -85 -33q-25 -9 -32 -9q-10 0 -21 7q-20 7 -20 22q0 2 2 10q1 5 20 13.5t30 11.5q6 3 22.5 8t38.5 15zM292 720q34 0 63.5 -7t48 -16t36 -24t25 -25t18 -25t12.5 -17q10 -13 10 -20q0 -2 -1 -4.5t-2 -4
t-4 -3.5l-4.5 -3t-5 -3.5t-5.5 -3.5q-5 -4 -39.5 -30.5t-42.5 -31.5q-5 -3 -8 -3q-5 0 -8 2.5t-7.5 9t-5.5 7.5l-8 9q-8 9 -13 13.5t-16.5 9.5t-23.5 5q-64 0 -64 -178q0 -66 12 -111t26.5 -60.5t28.5 -15.5q20 0 30.5 9t18.5 34q8 24 26 24q5 0 14 -2.5t11 -2.5
q30 -11 116 -26q14 -3 14 -24q0 -10 -1 -15q-1 -13 -8 -35q-55 -167 -222 -167q-34 0 -68.5 11t-72 39t-65.5 70t-46.5 111.5t-18.5 156.5q0 73 12 130.5t33 94t45.5 62t54.5 38t54.5 17.5t50.5 5z" />
    <glyph glyph-name="Ccircumflex" unicode="&#x108;" horiz-adv-x="528" 
d="M170 778q29 15 48 29q40 23 52 26q9 4 18 4q4 1 11 1q10 0 38 -15q11 -8 67 -43q37 -23 34 -34q-4 -15 -16 -15q-8 0 -27 7l-27 7q-17 7 -35 18l-32 15l-46 -21q-19 -10 -57 -21q-20 -3 -38 -3q-24 0 -24 16q0 8 7 12zM467 134q3 -1 8.5 -3.5t8 -4t5.5 -3.5t4.5 -4
t1.5 -5q0 -5 -3 -11q-8 -14 -19 -27.5t-35 -36.5t-62 -37t-83 -14q-101 0 -178.5 106.5t-77.5 259.5q0 149 72.5 249.5t161.5 100.5q39 0 72 -10.5t54.5 -27t32.5 -27.5t18 -21q11 -15 11 -21t-11 -16q-46 -36 -66 -63q-20 -26 -31 -26q-7 0 -16 10q-1 2 -6.5 8t-7.5 7.5
t-6.5 6.5t-7 7t-7 5t-8 4.5t-8 2.5t-9.5 1q-41 0 -74.5 -52t-33.5 -163q0 -57 14 -98.5t35 -60.5t38.5 -27.5t30.5 -8.5q31 0 70 39q12 12 15 12q5 0 12 -4z" />
    <glyph glyph-name="ccircumflex" unicode="&#x109;" horiz-adv-x="574" 
d="M171 778q29 15 48 29q40 23 52 26q9 4 18 4q4 1 11 1q10 0 38 -15q11 -8 67 -43q37 -23 34 -34q-4 -15 -16 -15q-8 0 -27 7l-27 7q-17 7 -35 18l-32 15l-46 -21q-19 -10 -57 -21q-19 -3 -38 -3q-24 0 -24 16q0 8 7 12zM292 720q34 0 63.5 -7t48 -16t36 -24t25 -25t18 -25
t12.5 -17q10 -13 10 -20q0 -2 -1 -4.5t-2 -4t-4 -3.5l-4.5 -3t-5 -3.5t-5.5 -3.5q-5 -4 -39.5 -30.5t-42.5 -31.5q-5 -3 -8 -3q-5 0 -8 2.5t-7.5 9t-5.5 7.5l-8 9q-8 9 -13 13.5t-16.5 9.5t-23.5 5q-64 0 -64 -178q0 -66 12 -111t26.5 -60.5t28.5 -15.5q20 0 30.5 9t18.5 34
q8 24 26 24q5 0 14 -2.5t11 -2.5q30 -11 116 -26q14 -3 14 -24q0 -10 -1 -15q-1 -13 -8 -35q-55 -167 -222 -167q-34 0 -68.5 11t-72 39t-65.5 70t-46.5 111.5t-18.5 156.5q0 73 12 130.5t33 94t45.5 62t54.5 38t54.5 17.5t50.5 5z" />
    <glyph glyph-name="Cdotaccent" unicode="&#x10a;" horiz-adv-x="528" 
d="M357 786q0 -30 -21.5 -48t-44.5 -18t-42 17.5t-19 43.5q0 22 17 40.5t40 18.5q27 0 48.5 -14.5t21.5 -39.5zM467 134q3 -1 8.5 -3.5t8 -4t5.5 -3.5t4.5 -4t1.5 -5q0 -5 -3 -11q-8 -14 -19 -27.5t-35 -36.5t-62 -37t-83 -14q-101 0 -178.5 106.5t-77.5 259.5
q0 149 72.5 249.5t161.5 100.5q39 0 72 -10.5t54.5 -27t32.5 -27.5t18 -21q11 -15 11 -21t-11 -16q-46 -36 -66 -63q-20 -26 -31 -26q-7 0 -16 10q-1 2 -6.5 8t-7.5 7.5t-6.5 6.5t-7 7t-7 5t-8 4.5t-8 2.5t-9.5 1q-41 0 -74.5 -52t-33.5 -163q0 -57 14 -98.5t35 -60.5
t38.5 -27.5t30.5 -8.5q31 0 70 39q12 12 15 12q5 0 12 -4z" />
    <glyph glyph-name="cdotaccent" unicode="&#x10b;" horiz-adv-x="574" 
d="M350 786q0 -30 -21.5 -48t-44.5 -18t-42 17.5t-19 43.5q0 22 17 40.5t40 18.5q27 0 48.5 -14.5t21.5 -39.5zM292 680q34 0 63.5 -7t48 -16t36 -24t25 -25t18 -25t12.5 -17q10 -13 10 -20q0 -2 -1 -4.5t-2 -4t-4 -3.5l-4.5 -3t-5 -3.5t-5.5 -3.5q-5 -4 -39.5 -30.5
t-42.5 -31.5q-5 -3 -8 -3q-5 0 -8 2.5t-7.5 9t-5.5 7.5l-8 9q-8 9 -13 13.5t-16.5 9.5t-23.5 5q-26 3 -45 -35.5t-19 -102.5q0 -66 12 -111t26.5 -60.5t28.5 -15.5q20 0 30.5 9t18.5 34q8 24 26 24q5 0 14 -2.5t11 -2.5q30 -11 116 -26q14 -3 14 -24q0 -10 -1 -15
q-1 -13 -8 -35q-55 -167 -222 -167q-34 0 -68.5 11t-72 39t-65.5 70t-46.5 111.5t-18.5 156.5q0 77 12 111q32 93 79 136q65 60 159 60z" />
    <glyph glyph-name="Ccaron" unicode="&#x10c;" horiz-adv-x="528" 
d="M415 791q-29 -15 -48 -29q-40 -23 -52 -26q-9 -4 -18 -4q-4 -1 -11 -1q-10 0 -38 15q-11 8 -67 43q-37 23 -34 34q4 15 16 15q8 0 27 -7l27 -7q17 -7 35 -18l32 -15q34 15 45 21q21 10 58 21q20 3 38 3q24 0 24 -16q0 -7 -8 -12zM467 134q3 -1 8.5 -3.5t8 -4t5.5 -3.5
t4.5 -4t1.5 -5q0 -5 -3 -11q-8 -14 -19 -27.5t-35 -36.5t-62 -37t-83 -14q-101 0 -178.5 106.5t-77.5 259.5q0 149 72.5 249.5t161.5 100.5q39 0 72 -10.5t54.5 -27t32.5 -27.5t18 -21q11 -15 11 -21t-11 -16q-46 -36 -66 -63q-20 -26 -31 -26q-7 0 -16 10q-1 2 -6.5 8
t-7.5 7.5t-6.5 6.5t-7 7t-7 5t-8 4.5t-8 2.5t-9.5 1q-41 0 -74.5 -52t-33.5 -163q0 -57 14 -98.5t35 -60.5t38.5 -27.5t30.5 -8.5q31 0 70 39q12 12 15 12q5 0 12 -4z" />
    <glyph glyph-name="ccaron" unicode="&#x10d;" horiz-adv-x="574" 
d="M416 791q-29 -15 -48 -29q-40 -23 -52 -26q-9 -4 -18 -4q-4 -1 -11 -1q-10 0 -38 15q-11 8 -67 43q-37 23 -34 34q4 15 16 15q8 0 27 -7l27 -7q17 -7 35 -18l32 -15q35 15 45 21q21 10 58 21q20 3 38 3q24 0 24 -16q0 -7 -8 -12zM292 720q34 0 63.5 -7t48 -16t36 -24
t25 -25t18 -25t12.5 -17q10 -13 10 -20q0 -2 -1 -4.5t-2 -4t-4 -3.5l-4.5 -3t-5 -3.5t-5.5 -3.5q-5 -4 -39.5 -30.5t-42.5 -31.5q-5 -3 -8 -3q-5 0 -8 2.5t-7.5 9t-5.5 7.5l-8 9q-8 9 -13 13.5t-16.5 9.5t-23.5 5q-64 0 -64 -178q0 -66 12 -111t26.5 -60.5t28.5 -15.5
q20 0 30.5 9t18.5 34q8 24 26 24q5 0 14 -2.5t11 -2.5q30 -11 116 -26q14 -3 14 -24q0 -10 -1 -15q-1 -13 -8 -35q-55 -167 -222 -167q-34 0 -68.5 11t-72 39t-65.5 70t-46.5 111.5t-18.5 156.5q0 73 12 130.5t33 94t45.5 62t54.5 38t54.5 17.5t50.5 5z" />
    <glyph glyph-name="Dcaron" unicode="&#x10e;" horiz-adv-x="577" 
d="M371 791q-29 -15 -48 -29q-40 -23 -52 -26q-9 -4 -18 -4q-4 -1 -11 -1q-10 0 -38 15q-11 8 -67 43q-37 23 -34 34q4 15 16 15q8 0 27 -7l27 -7q17 -7 35 -18l32 -15q34 15 45 21q21 10 58 21q19 3 38 3q24 0 24 -16q0 -7 -8 -12zM171 698q42 2 68 2q32 0 67.5 -8.5
t79 -34.5t77 -66t56.5 -112t23 -164q0 -62 -16 -112t-40 -82t-57.5 -55.5t-63 -35t-62 -18.5t-49.5 -8.5t-30 -1.5q-21 0 -73 -1t-63 -1q-19 0 -19 34q0 5 0.5 13.5t0.5 12.5q0 12 -1.5 48.5t-1.5 46.5q0 3 -2.5 52t-2.5 96q0 39 4 103.5t4 104.5q0 48 -1 107.5t-1 62.5
q0 6 4 9.5t13 4.5t15.5 1.5t19 0t15.5 -0.5zM241 214q27 13 50 36q50 48 50 114q0 63 -48 101q-21 16 -47 24q2 -22 2 -34q0 -18 -2 -53.5t-2 -51.5q0 -26 -2 -84q-1 -17 -1 -52z" />
    <glyph glyph-name="dcaron" unicode="&#x10f;" horiz-adv-x="571" 
d="M171 778q29 15 48 29q40 23 52 26q9 4 18 4q4 1 11 1q10 0 38 -15q11 -8 67 -43q37 -23 34 -34q-4 -15 -16 -15q-8 0 -27 7l-27 7q-17 7 -35 18l-32 15l-46 -21q-19 -10 -57 -21q-19 -3 -38 -3q-24 0 -24 16q0 8 7 12zM84 1q-21 0 -14 16q1 3 1 8q0 2 -0.5 11t-0.5 18
q0 5 -1.5 105.5t-1.5 140.5q0 36 0.5 109t0.5 92q0 23 -2.5 83.5t-2.5 72.5q2 41 11 41h3q3 0 8.5 -1.5t9.5 -1.5t20 1t23 1t20 -0.5t19 -0.5q56 0 101 -5q1 0 11.5 -1t16 -2t17.5 -4t23 -8t25.5 -13t31.5 -20.5t35 -28.5q59 -52 78 -123.5t19 -157.5q0 -71 -33.5 -156.5
t-84.5 -119.5q-48 -31 -119 -43.5t-112 -12.5h-102zM234 552q-3 -49 -3 -135q0 -32 3 -83t3 -70q0 -7 -0.5 -53.5t-0.5 -75.5q-1 -30 -1 -96q69 -4 126 25q127 65 127 269q0 200 -125 276q-55 33 -125 34z" />
    <glyph glyph-name="Dcroat" unicode="&#x110;" horiz-adv-x="577" 
d="M171 698q42 2 68 2q32 0 67.5 -8.5t79 -34.5t77 -66t56.5 -112t23 -164q0 -62 -16 -112t-40 -82t-57.5 -55.5t-63 -35t-62 -18.5t-49.5 -8.5t-30 -1.5q-21 0 -73 -1t-63 -1q-19 0 -19 34q0 5 0.5 13.5t0.5 12.5q0 12 -1.5 48.5t-1.5 46.5q0 3 -2.5 52t-2.5 96v25h-1
q-46 0 -51 -3q-8 0 -8 13v27q0 19 11 19h52q5 100 5 127q0 48 -1 107.5t-1 62.5q0 6 4 9.5t13 4.5t15.5 1.5t19 0t15.5 -0.5zM299 338q0 -13 -22 -13q-7 0 -18.5 0.5t-28 1.5t-24.5 1l-3 -62q-2 -34 -2 -52q59 8 91 20q73 27 74 129q0 83 -73 111q-39 13 -84 14q3 -16 3 -36
q0 -24 -4 -68h73q2 0 4 0.5t3 0.5q11 0 11 -17v-30z" />
    <glyph glyph-name="dcroat" unicode="&#x111;" horiz-adv-x="571" 
d="M67 396l1 105q0 23 -2.5 83.5t-2.5 72.5q2 41 11 41h3q3 0 8.5 -1.5t9.5 -1.5t20 1t23 1t20 -0.5t19 -0.5q56 0 101 -5q1 0 11.5 -1t16 -2t17.5 -4t23 -8t25.5 -13t31.5 -20.5t35 -28.5q59 -52 78 -123.5t19 -157.5q0 -71 -33.5 -156.5t-84.5 -119.5q-48 -31 -119 -43.5
t-112 -12.5h-102q-21 0 -14 16q1 3 1 8q0 2 -0.5 11t-0.5 18q0 5 -1.5 105.5t-1.5 140.5v15q-34 2 -40 2t-9.5 0.5t-5.5 1t-2.5 2.5t-1 3t0 4t0.5 5q0 4 -1.5 19t-2.5 24.5t0 15.5q0 6 11 6q3 0 15 -2h36zM384 330q0 -8 -11 -8q-2 0 -7 0.5t-8 0.5q-2 0 -27.5 -1.5
t-40.5 -1.5l-55 -1q2 -40 2 -55q0 -7 -0.5 -53.5t-0.5 -75.5q-1 -30 -1 -96q69 -4 126 25q127 65 127 269q0 200 -125 276q-55 33 -125 34l-4 -91q-3 -49 -3 -135v-18h4h140q5 0 7 -2t2.5 -3.5t0 -6t-0.5 -5.5v-52z" />
    <glyph glyph-name="Emacron" unicode="&#x112;" horiz-adv-x="525" 
d="M399 831q2 0 4 0.5t3 0.5q11 0 11 -17v-30q0 -13 -22 -13q-8 0 -39.5 1.5t-44.5 1.5h-132q-46 0 -51 -3q-8 0 -8 13v27q0 19 11 19h268zM63 232q0 28 3.5 71t3.5 84t-2.5 78.5t-2.5 65.5q0 63 3 147q0 22 19 22q3 0 8 -0.5t7 -0.5q4 0 28 -1.5t50 -1.5q22 0 76.5 4.5
t73.5 4.5q23 0 63.5 -2t47.5 -2q13 0 17 -6t4 -22q0 -9 2 -34t2 -42q0 -20 -3 -37q-1 -15 -14 -15q-4 0 -12 2.5t-10 2.5q-15 3 -87 3q-12 0 -38 1t-38 1q-18 0 -27 -1q-30 -2 -53 -2q-14 0 -33 0.5t-20 0.5q-8 0 -9 -3.5t-1 -16.5q0 -6 -1.5 -41t-1.5 -55v-59q0 -21 1 -32
q8 -1 27 -1q17 -1 70 -1q20 0 58 2t48 2q14 0 29.5 -1.5t19.5 -1.5q13 0 13 -12q0 -2 -1 -11t-1 -20q0 -9 0.5 -24.5t0.5 -28.5q0 -16 -9 -16q-2 0 -8 1.5t-10 1.5q-2 0 -32.5 1t-67.5 1q-28 0 -55 -2t-43.5 -4t-19.5 -2q-11 0 -13 1q-5 0 -6 1v-100q7 0 11 1q3 0 12.5 0.5
t15.5 0.5q9 0 51 0.5t67 0.5q16 0 60.5 -1t65.5 -1q10 0 24.5 0.5t17.5 0.5q20 0 20 -21q0 -3 -0.5 -10t-0.5 -10q0 -9 -0.5 -31.5t-0.5 -38.5q0 -7 -1.5 -11.5t-3.5 -7t-7.5 -3t-8.5 -1t-12.5 0t-14.5 0.5q-15 0 -83 1t-93 1q-28 0 -92 -2t-66 -2q-1 0 -3 -0.5t-3 -0.5
q-8 0 -8 17q-1 11 -1 37q0 5 -1 18t-1 25v137z" />
    <glyph glyph-name="emacron" unicode="&#x113;" horiz-adv-x="511" 
d="M395 831q2 0 4 0.5t3 0.5q11 0 11 -17v-30q0 -13 -22 -13q-8 0 -39.5 1.5t-44.5 1.5h-132q-46 0 -51 -3q-8 0 -8 13v27q0 19 11 19h268zM94 346q-2 -18 -2 -32q0 -12 2 -28t2 -28l1 -119q0 -9 -0.5 -26t-0.5 -24q-1 -9 -1 -25q13 -1 38 -1q21 -1 65 -1q19 0 53.5 -1
t52.5 -1q19 0 52 1.5t45 1.5q15 0 38 -1t26 -1q8 0 9.5 -3.5t1.5 -12.5q0 -4 -1 -14.5t-1 -16.5q0 -12 -21 -12q-11 0 -18 1q-27 3 -109 3q-50 0 -72 -1q-17 -1 -56 -1q-30 0 -77 1t-54 1q-23 0 -23 15q0 2 0.5 7.5t0.5 8.5q1 4 1 9q0 2 -0.5 7.5t-1 18t-0.5 31.5
q0 30 -2.5 101t-2.5 105q0 37 4 113.5t4 93.5q0 116 -3 153q-1 11 3.5 16.5t14 6.5t19 0.5t22.5 -2t20 -1.5q13 0 75.5 3t92.5 3t98.5 -1.5t75.5 -1.5q6 0 10 -1.5t5.5 -5.5t2 -5.5t-0.5 -7.5v-7v-11q0 -23 -4 -23t-13 1.5t-19 1.5h-160l-124 1q-6 0 -45 -3l-23 -2l-2 -27
q-1 -15 -1 -47q0 -15 2 -40.5t2 -36.5v-40q0 -16 1 -25q9 -1 27 -1h40q7 0 29.5 2t39.5 2q18 0 46 -2t32 -2t21 1.5t31 1.5q9 0 34 -1.5t35 -1.5q11 0 15 1q1 0 3 0.5t3 0.5q15 0 12 -13q-1 -3 -1.5 -17.5t-0.5 -18.5q-1 -10 -6 -10q-3 -1 -9 -1q-4 0 -60 5.5t-78 5.5
q-85 0 -125 -3q-13 -2 -59 -2q-19 0 -28 1z" />
    <glyph glyph-name="Ebreve" unicode="&#x114;" horiz-adv-x="525" 
d="M410 832q0 -41 -21 -57q-13 -11 -39 -24q-25 -13 -96 -13q-81 5 -100 15q-20 11 -27 27q-14 32 -15 56q0 3 29 3q21 0 25 -1.5t4 -8.5q4 -19 16 -27q11 -7 66 -10q26 0 61 9q35 10 37 30q4 6 27 7q33 -2 33 -6zM63 232q0 28 3.5 71t3.5 84t-2.5 78.5t-2.5 65.5
q0 63 3 147q0 22 19 22q3 0 8 -0.5t7 -0.5q4 0 28 -1.5t50 -1.5q22 0 76.5 4.5t73.5 4.5q23 0 63.5 -2t47.5 -2q13 0 17 -6t4 -22q0 -9 2 -34t2 -42q0 -20 -3 -37q-1 -15 -14 -15q-4 0 -12 2.5t-10 2.5q-15 3 -87 3q-12 0 -38 1t-38 1q-18 0 -27 -1q-30 -2 -53 -2
q-14 0 -33 0.5t-20 0.5q-8 0 -9 -3.5t-1 -16.5q0 -6 -1.5 -41t-1.5 -55v-59q0 -21 1 -32q8 -1 27 -1q17 -1 70 -1q20 0 58 2t48 2q14 0 29.5 -1.5t19.5 -1.5q13 0 13 -12q0 -2 -1 -11t-1 -20q0 -9 0.5 -24.5t0.5 -28.5q0 -16 -9 -16q-2 0 -8 1.5t-10 1.5q-2 0 -32.5 1
t-67.5 1q-28 0 -55 -2t-43.5 -4t-19.5 -2q-11 0 -13 1q-5 0 -6 1v-100q7 0 11 1q3 0 12.5 0.5t15.5 0.5q9 0 51 0.5t67 0.5q16 0 60.5 -1t65.5 -1q10 0 24.5 0.5t17.5 0.5q20 0 20 -21q0 -3 -0.5 -10t-0.5 -10q0 -9 -0.5 -31.5t-0.5 -38.5q0 -7 -1.5 -11.5t-3.5 -7t-7.5 -3
t-8.5 -1t-12.5 0t-14.5 0.5q-15 0 -83 1t-93 1q-28 0 -92 -2t-66 -2q-1 0 -3 -0.5t-3 -0.5q-8 0 -8 17q-1 11 -1 37q0 5 -1 18t-1 25v137z" />
    <glyph glyph-name="ebreve" unicode="&#x115;" horiz-adv-x="511" 
d="M415 832q0 -41 -21 -57q-14 -11 -39 -24t-96 -13q-81 5 -100 15q-19 11 -27 27q-14 32 -15 56q0 3 29 3q21 0 25 -1.5t4 -8.5q4 -19 16 -27q11 -7 66 -10q27 0 61 9q35 10 37 30q4 6 27 7q33 -2 33 -6zM94 346q-2 -18 -2 -32q0 -12 2 -28t2 -28l1 -119q0 -9 -0.5 -26
t-0.5 -24q-1 -9 -1 -25q13 -1 38 -1q21 -1 65 -1q19 0 53.5 -1t52.5 -1q19 0 52 1.5t45 1.5q15 0 38 -1t26 -1q8 0 9.5 -3.5t1.5 -12.5q0 -4 -1 -14.5t-1 -16.5q0 -12 -21 -12q-11 0 -18 1q-27 3 -109 3q-50 0 -72 -1q-17 -1 -56 -1q-30 0 -77 1t-54 1q-23 0 -23 15
q0 2 0.5 7.5t0.5 8.5q1 4 1 9q0 2 -0.5 7.5t-1 18t-0.5 31.5q0 30 -2.5 101t-2.5 105q0 37 4 113.5t4 93.5q0 116 -3 153q-1 11 3.5 16.5t14 6.5t19 0.5t22.5 -2t20 -1.5q13 0 75.5 3t92.5 3t98.5 -1.5t75.5 -1.5q6 0 10 -1.5t5.5 -5.5t2 -5.5t-0.5 -7.5v-7v-11
q0 -23 -4 -23t-13 1.5t-19 1.5h-160l-124 1q-6 0 -45 -3l-23 -2l-2 -27q-1 -15 -1 -47q0 -15 2 -40.5t2 -36.5v-40q0 -16 1 -25q9 -1 27 -1h40q7 0 29.5 2t39.5 2q18 0 46 -2t32 -2t21 1.5t31 1.5q9 0 34 -1.5t35 -1.5q11 0 15 1q1 0 3 0.5t3 0.5q15 0 12 -13
q-1 -3 -1.5 -17.5t-0.5 -18.5q-1 -10 -6 -10q-3 -1 -9 -1q-4 0 -60 5.5t-78 5.5q-85 0 -125 -3q-13 -2 -59 -2q-19 0 -28 1z" />
    <glyph glyph-name="Edotaccent" unicode="&#x116;" horiz-adv-x="525" 
d="M332 786q0 -30 -21.5 -48t-44.5 -18t-42 17.5t-19 43.5q0 22 17 40.5t40 18.5q27 0 48.5 -14.5t21.5 -39.5zM63 232q0 28 3.5 71t3.5 84t-2.5 78.5t-2.5 65.5q0 63 3 147q0 22 19 22q3 0 8 -0.5t7 -0.5q4 0 28 -1.5t50 -1.5q22 0 76.5 4.5t73.5 4.5q23 0 63.5 -2t47.5 -2
q13 0 17 -6t4 -22q0 -9 2 -34t2 -42q0 -20 -3 -37q-1 -15 -14 -15q-4 0 -12 2.5t-10 2.5q-15 3 -87 3q-12 0 -38 1t-38 1q-18 0 -27 -1q-30 -2 -53 -2q-14 0 -33 0.5t-20 0.5q-8 0 -9 -3.5t-1 -16.5q0 -6 -1.5 -41t-1.5 -55v-59q0 -21 1 -32q8 -1 27 -1q17 -1 70 -1
q20 0 58 2t48 2q14 0 29.5 -1.5t19.5 -1.5q13 0 13 -12q0 -2 -1 -11t-1 -20q0 -9 0.5 -24.5t0.5 -28.5q0 -16 -9 -16q-2 0 -8 1.5t-10 1.5q-2 0 -32.5 1t-67.5 1q-28 0 -55 -2t-43.5 -4t-19.5 -2q-11 0 -13 1q-5 0 -6 1v-100q7 0 11 1q3 0 12.5 0.5t15.5 0.5q9 0 51 0.5
t67 0.5q16 0 60.5 -1t65.5 -1q10 0 24.5 0.5t17.5 0.5q20 0 20 -21q0 -3 -0.5 -10t-0.5 -10q0 -9 -0.5 -31.5t-0.5 -38.5q0 -7 -1.5 -11.5t-3.5 -7t-7.5 -3t-8.5 -1t-12.5 0t-14.5 0.5q-15 0 -83 1t-93 1q-28 0 -92 -2t-66 -2q-1 0 -3 -0.5t-3 -0.5q-8 0 -8 17q-1 11 -1 37
q0 5 -1 18t-1 25v137z" />
    <glyph glyph-name="edotaccent" unicode="&#x117;" horiz-adv-x="511" 
d="M334 786q0 -30 -21.5 -48t-44.5 -18t-42 17.5t-19 43.5q0 22 17 40.5t40 18.5q27 0 48.5 -14.5t21.5 -39.5zM47 573q0 17 -1.5 44t-1.5 35q0 21 29 21q8 0 25.5 -2t24.5 -2q13 0 75.5 3t92.5 3t98.5 -1.5t75.5 -1.5q6 0 10 -1.5t5.5 -5.5t2 -5.5t-0.5 -7.5v-7v-11
q0 -23 -4 -23t-13 1.5t-19 1.5h-160l-124 1q-6 0 -45 -3l-23 -2l-2 -27q-1 -15 -1 -47q0 -6 2 -25t2 -32v-40q0 -16 1 -25q9 -1 27 -1h40q7 0 29.5 2t39.5 2q18 0 46 -2t32 -2t21 1.5t31 1.5q9 0 34 -1.5t35 -1.5q11 0 15 1q1 0 3 0.5t3 0.5q15 0 12 -13q-1 -3 -1.5 -17.5
t-0.5 -18.5q-1 -10 -6 -10q-3 -1 -9 -1q-4 0 -60 5.5t-78 5.5q-85 0 -125 -3q-13 -2 -59 -2q-19 0 -28 1l-3 -16q-2 -18 -2 -32q0 -12 2 -28t2 -28l1 -119q0 -9 -0.5 -26t-0.5 -24q-1 -9 -1 -25q13 -1 38 -1q21 -1 65 -1q19 0 53.5 -1t52.5 -1q19 0 52 1.5t45 1.5
q15 0 38 -1t26 -1q8 0 9.5 -3.5t1.5 -12.5q0 -4 -1 -14.5t-1 -16.5q0 -12 -21 -12q-11 0 -18 1q-27 3 -109 3q-50 0 -72 -1q-17 -1 -56 -1q-30 0 -77 1t-54 1q-23 0 -23 15q0 2 0.5 7.5t0.5 8.5q1 4 1 9q0 2 -0.5 7.5t-1 18t-0.5 31.5q0 30 -2.5 101t-2.5 105q0 37 4 113.5
t4 93.5v57z" />
    <glyph glyph-name="Eogonek" unicode="&#x118;" horiz-adv-x="525" 
d="M119 132q7 0 11 1q3 0 12.5 0.5t15.5 0.5q9 0 51 0.5t67 0.5q16 0 60.5 -1t65.5 -1q10 0 24.5 0.5t17.5 0.5q20 0 20 -21q0 -3 -0.5 -10t-0.5 -10q0 -9 -0.5 -31.5t-0.5 -38.5q0 -7 -1.5 -11.5t-3.5 -7t-7.5 -3t-8.5 -1t-12.5 0t-14.5 0.5q-13 0 -77 1t-91 1
q0 -6 -2 -19.5t-3 -21.5q-1 -6 -1 -18q0 -40 20 -41q27 -2 44.5 4t25 12.5t9.5 6.5q6 0 13 -9t7 -16q0 -19 -40 -44.5t-68 -27.5q-40 -1 -60 16t-22 64q0 19 9 46q7 19 14 37l5 10q-20 0 -48 -1t-46.5 -1.5t-22.5 -0.5q-1 0 -3 -0.5t-3 -0.5q-8 0 -8 17q-1 11 -1 37
q0 5 -1 18t-1 25v137q0 28 3.5 71t3.5 84t-2.5 78.5t-2.5 65.5q0 63 3 147q0 22 19 22q3 0 8 -0.5t7 -0.5q4 0 28 -1.5t50 -1.5q22 0 76.5 4.5t73.5 4.5q23 0 63.5 -2t47.5 -2q13 0 17 -6t4 -22q0 -9 2 -34t2 -42q0 -20 -3 -37q-1 -15 -14 -15q-4 0 -12 2.5t-10 2.5
q-15 3 -87 3q-12 0 -38 1t-38 1q-18 0 -27 -1q-30 -2 -53 -2q-14 0 -33 0.5t-20 0.5q-8 0 -9 -3.5t-1 -16.5q0 -6 -1.5 -41t-1.5 -55v-59q0 -21 1 -32q8 -1 27 -1q17 -1 70 -1q20 0 58 2t48 2q14 0 29.5 -1.5t19.5 -1.5q13 0 13 -12q0 -2 -1 -11t-1 -20q0 -9 0.5 -24.5
t0.5 -28.5q0 -16 -9 -16q-2 0 -8 1.5t-10 1.5q-2 0 -32.5 1t-67.5 1q-28 0 -55 -2t-43.5 -4t-19.5 -2q-11 0 -13 1q-5 0 -6 1v-100z" />
    <glyph glyph-name="eogonek" unicode="&#x119;" horiz-adv-x="511" 
d="M94 346q-2 -18 -2 -32q0 -12 2 -28t2 -28l1 -119q0 -9 -0.5 -26t-0.5 -24q-1 -9 -1 -25q13 -1 38 -1q21 -1 65 -1q19 0 53.5 -1t52.5 -1q19 0 52 1.5t45 1.5q15 0 38 -1t26 -1q8 0 9.5 -3.5t1.5 -12.5q0 -4 -1 -14.5t-1 -16.5q0 -12 -21 -12q-11 0 -18 1q-27 3 -109 3
q-50 0 -72 -1l-14 -1q0 -5 -2 -19t-3 -23q-1 -6 -1 -18q0 -40 20 -41q27 -2 44.5 4t25 12.5t9.5 6.5q6 0 13 -9t7 -16q0 -19 -40 -44.5t-68 -27.5q-40 -1 -60 16t-22 64q0 19 9 46q7 19 14 37l6 12q-29 0 -74 1t-51 1q-23 0 -23 15q0 2 0.5 7.5t0.5 8.5q1 4 1 9
q0 2 -0.5 7.5t-1 18t-0.5 31.5q0 30 -2.5 101t-2.5 105q0 37 4 113.5t4 93.5q0 116 -3 153q-1 11 3.5 16.5t14 6.5t19 0.5t22.5 -2t20 -1.5q13 0 75.5 3t92.5 3t98.5 -1.5t75.5 -1.5q6 0 10 -1.5t5.5 -5.5t2 -5.5t-0.5 -7.5v-7v-11q0 -23 -4 -23t-13 1.5t-19 1.5h-160
l-124 1q-6 0 -45 -3l-23 -2l-2 -27q-1 -15 -1 -47q0 -15 2 -40.5t2 -36.5v-40q0 -16 1 -25q9 -1 27 -1h40q7 0 29.5 2t39.5 2q18 0 46 -2t32 -2t21 1.5t31 1.5q9 0 34 -1.5t35 -1.5q11 0 15 1q1 0 3 0.5t3 0.5q15 0 12 -13q-1 -3 -1.5 -17.5t-0.5 -18.5q-1 -10 -6 -10
q-3 -1 -9 -1q-4 0 -60 5.5t-78 5.5q-85 0 -125 -3q-13 -2 -59 -2q-19 0 -28 1z" />
    <glyph glyph-name="Ecaron" unicode="&#x11a;" horiz-adv-x="525" 
d="M394 791q-29 -15 -48 -29q-40 -23 -52 -26q-9 -4 -18 -4q-4 -1 -11 -1q-10 0 -38 15q-11 8 -67 43q-37 23 -34 34q4 15 16 15q8 0 27 -7l27 -7q17 -7 35 -18l32 -15q35 15 45 21q21 10 58 21q19 3 38 3q24 0 24 -16q0 -7 -8 -12zM63 232q0 28 3.5 71t3.5 84t-2.5 78.5
t-2.5 65.5q0 63 3 147q0 22 19 22q3 0 8 -0.5t7 -0.5q4 0 28 -1.5t50 -1.5q22 0 76.5 4.5t73.5 4.5q23 0 63.5 -2t47.5 -2q13 0 17 -6t4 -22q0 -9 2 -34t2 -42q0 -20 -3 -37q-1 -15 -14 -15q-4 0 -12 2.5t-10 2.5q-15 3 -87 3q-12 0 -38 1t-38 1q-18 0 -27 -1q-30 -2 -53 -2
q-14 0 -33 0.5t-20 0.5q-8 0 -9 -3.5t-1 -16.5q0 -6 -1.5 -41t-1.5 -55v-59q0 -21 1 -32q8 -1 27 -1q17 -1 70 -1q20 0 58 2t48 2q14 0 29.5 -1.5t19.5 -1.5q13 0 13 -12q0 -2 -1 -11t-1 -20q0 -9 0.5 -24.5t0.5 -28.5q0 -16 -9 -16q-2 0 -8 1.5t-10 1.5q-2 0 -32.5 1
t-67.5 1q-28 0 -55 -2t-43.5 -4t-19.5 -2q-11 0 -13 1q-5 0 -6 1v-100q7 0 11 1q3 0 12.5 0.5t15.5 0.5q9 0 51 0.5t67 0.5q16 0 60.5 -1t65.5 -1q10 0 24.5 0.5t17.5 0.5q20 0 20 -21q0 -3 -0.5 -10t-0.5 -10q0 -9 -0.5 -31.5t-0.5 -38.5q0 -7 -1.5 -11.5t-3.5 -7t-7.5 -3
t-8.5 -1t-12.5 0t-14.5 0.5q-15 0 -83 1t-93 1q-28 0 -92 -2t-66 -2q-1 0 -3 -0.5t-3 -0.5q-8 0 -8 17q-1 11 -1 37q0 5 -1 18t-1 25v137z" />
    <glyph glyph-name="ecaron" unicode="&#x11b;" horiz-adv-x="511" 
d="M399 791q-29 -15 -48 -29q-40 -23 -52 -26q-9 -4 -18 -4q-4 -1 -11 -1q-10 0 -38 15q-11 8 -67 43q-37 23 -34 34q4 15 16 15q8 0 27 -7l27 -7q17 -7 35 -18l32 -15q34 15 45 21q21 10 58 21q20 3 38 3q24 0 24 -16q0 -7 -8 -12zM94 346q-2 -18 -2 -32q0 -12 2 -28t2 -28
l1 -119q0 -9 -0.5 -26t-0.5 -24q-1 -9 -1 -25q13 -1 38 -1q21 -1 65 -1q19 0 53.5 -1t52.5 -1q19 0 52 1.5t45 1.5q15 0 38 -1t26 -1q8 0 9.5 -3.5t1.5 -12.5q0 -4 -1 -14.5t-1 -16.5q0 -12 -21 -12q-11 0 -18 1q-27 3 -109 3q-50 0 -72 -1q-17 -1 -56 -1q-30 0 -77 1t-54 1
q-23 0 -23 15q0 2 0.5 7.5t0.5 8.5q1 4 1 9q0 2 -0.5 7.5t-1 18t-0.5 31.5q0 30 -2.5 101t-2.5 105q0 37 4 113.5t4 93.5q0 116 -3 153q-1 11 3.5 16.5t14 6.5t19 0.5t22.5 -2t20 -1.5q13 0 75.5 3t92.5 3t98.5 -1.5t75.5 -1.5q6 0 10 -1.5t5.5 -5.5t2 -5.5t-0.5 -7.5v-7
v-11q0 -23 -4 -23t-13 1.5t-19 1.5h-160l-124 1q-6 0 -45 -3l-23 -2l-2 -27q-1 -15 -1 -47q0 -15 2 -40.5t2 -36.5v-40q0 -16 1 -25q9 -1 27 -1h40q7 0 29.5 2t39.5 2q18 0 46 -2t32 -2t21 1.5t31 1.5q9 0 34 -1.5t35 -1.5q11 0 15 1q1 0 3 0.5t3 0.5q15 0 12 -13
q-1 -3 -1.5 -17.5t-0.5 -18.5q-1 -10 -6 -10q-3 -1 -9 -1q-4 0 -60 5.5t-78 5.5q-85 0 -125 -3q-13 -2 -59 -2q-19 0 -28 1z" />
    <glyph glyph-name="Gcircumflex" unicode="&#x11c;" horiz-adv-x="592" 
d="M192 778q29 15 48 29q40 23 52 26q9 4 18 4q4 1 11 1q10 0 38 -15q11 -8 67 -43q37 -23 34 -34q-4 -15 -16 -15q-8 0 -27 7l-27 7q-17 7 -35 18l-32 15l-46 -21q-19 -10 -57 -21q-20 -3 -38 -3q-24 0 -24 16q0 8 7 12zM342 294q-24 4 -35 5q-19 2 -19 14q0 7 8 39
q3 11 7 16t8 5h10q2 0 15 -2t31 -4l36 -4q13 -2 62.5 -9t67.5 -8q17 -1 23 -18q2 -10 1 -17q-6 -95 -32 -163t-63.5 -101t-73 -47t-72.5 -14q-23 0 -53 7t-70.5 30.5t-73 60t-55.5 103t-23 151.5q0 98 22 172t52 112.5t70.5 62t69 29t56.5 5.5q42 0 79 -14t57.5 -30
t40.5 -41t23.5 -32l9.5 -19q3 -6 8 -21t7 -19q1 -2 1 -5q0 -2 -0.5 -3t-2 -2t-3.5 -2t-5.5 -2.5t-6.5 -3.5q-3 -1 -31.5 -16.5t-40.5 -20.5q-11 -7 -31.5 -20.5t-23.5 -15.5q-6 -5 -19 -13q-5 -3 -8 -3q-6 -2 -8 -2q-4 0 -6 3t-4.5 8t-4.5 7q-1 1 -6 8.5t-8.5 12t-11 9
t-16.5 4.5q-30 0 -47 -46.5t-17 -97.5q0 -89 14 -119q16 -32 49 -33q40 0 56 50q7 21 7 50z" />
    <glyph glyph-name="gcircumflex" unicode="&#x11d;" horiz-adv-x="533" 
d="M160 778q29 15 48 29q40 23 52 26q9 4 18 4q4 1 11 1q10 0 38 -15q11 -8 67 -43q37 -23 34 -34q-4 -15 -16 -15q-8 0 -27 7l-27 7q-17 7 -35 18l-32 15l-46 -21q-19 -10 -57 -21q-20 -3 -38 -3q-24 0 -24 16q0 8 7 12zM281 266q9 0 104.5 2.5t100.5 2.5q19 0 17 -33
q0 -9 -0.5 -20.5t-5.5 -37.5t-13 -49t-25 -50.5t-40.5 -47t-61 -33t-83.5 -13.5q-75 0 -130.5 60.5t-80 146.5t-24.5 180q0 134 71 234t164 100q35 0 63 -7.5t46.5 -20t29.5 -23.5t20.5 -23.5t11.5 -14.5q8 -9 8 -19q0 -12 -9 -21q-20 -20 -47 -39q-5 -3 -9 -3q-9 0 -18 9
q-1 1 -7 7.5t-11.5 13t-16.5 15t-21.5 14.5t-25 10.5t-28.5 4.5q-41 0 -73 -47t-45.5 -105t-13.5 -111q0 -39 8.5 -82.5t25.5 -86t49.5 -70.5t73.5 -28q72 0 110 56q17 25 21 57h-29q-9 0 -24.5 0.5t-20.5 0.5l-101 1q-17 0 -17 16v39q0 6 1 9t3 4.5t3 1.5h4h46z" />
    <glyph glyph-name="Gbreve" unicode="&#x11e;" horiz-adv-x="592" 
d="M461 832q0 -41 -21 -57q-14 -11 -39 -24t-96 -13q-81 5 -100 15q-19 11 -27 27q-14 32 -15 56q0 3 29 3q21 0 25 -1.5t4 -8.5q4 -19 16 -27q11 -7 66 -10q27 0 61 9q35 10 37 30q4 6 27 7q33 -2 33 -6zM342 294q-24 4 -35 5q-19 2 -19 14q0 7 8 39q3 11 7 16t8 5h10
q2 0 15 -2t31 -4l36 -4q13 -2 62.5 -9t67.5 -8q17 -1 23 -18q2 -10 1 -17q-6 -95 -32 -163t-63.5 -101t-73 -47t-72.5 -14q-23 0 -53 7t-70.5 30.5t-73 60t-55.5 103t-23 151.5q0 98 22 172t52 112.5t70.5 62t69 29t56.5 5.5q42 0 79 -14t57.5 -30t40.5 -41t23.5 -32
l9.5 -19q3 -6 8 -21t7 -19q1 -2 1 -5q0 -2 -0.5 -3t-2 -2t-3.5 -2t-5.5 -2.5t-6.5 -3.5q-3 -1 -31.5 -16.5t-40.5 -20.5q-11 -7 -31.5 -20.5t-23.5 -15.5q-6 -5 -19 -13q-5 -3 -8 -3q-6 -2 -8 -2q-4 0 -6 3t-4.5 8t-4.5 7q-1 1 -6 8.5t-8.5 12t-11 9t-16.5 4.5
q-30 0 -47 -46.5t-17 -97.5q0 -89 14 -119q16 -32 49 -33q40 0 56 50q7 21 7 50z" />
    <glyph glyph-name="gbreve" unicode="&#x11f;" horiz-adv-x="533" 
d="M432 832q0 -41 -21 -57q-13 -11 -39 -24q-25 -13 -96 -13q-81 5 -100 15q-20 11 -27 27q-14 32 -15 56q0 3 29 3q21 0 25 -1.5t4 -8.5q4 -19 16 -27q11 -7 66 -10q26 0 61 9q35 10 37 30q4 6 27 7q33 -2 33 -6zM281 266q9 0 104.5 2.5t100.5 2.5q19 0 17 -33
q0 -9 -0.5 -20.5t-5.5 -37.5t-13 -49t-25 -50.5t-40.5 -47t-61 -33t-83.5 -13.5q-75 0 -130.5 60.5t-80 146.5t-24.5 180q0 134 71 234t164 100q35 0 63 -7.5t46.5 -20t29.5 -23.5t20.5 -23.5t11.5 -14.5q8 -9 8 -19q0 -12 -9 -21q-20 -20 -47 -39q-5 -3 -9 -3q-9 0 -18 9
q-1 1 -7 7.5t-11.5 13t-16.5 15t-21.5 14.5t-25 10.5t-28.5 4.5q-41 0 -73 -47t-45.5 -105t-13.5 -111q0 -39 8.5 -82.5t25.5 -86t49.5 -70.5t73.5 -28q72 0 110 56q17 25 21 57h-29q-9 0 -24.5 0.5t-20.5 0.5l-101 1q-17 0 -17 16v39q0 6 1 9t3 4.5t3 1.5h4h46z" />
    <glyph glyph-name="Gdotaccent" unicode="&#x120;" horiz-adv-x="592" 
d="M375 786q0 -30 -21.5 -48t-44.5 -18t-42 17.5t-19 43.5q0 22 17 40.5t40 18.5q27 0 48.5 -14.5t21.5 -39.5zM342 294q-24 4 -35 5q-19 2 -19 14q0 7 8 39q3 11 7 16t8 5h10q2 0 15 -2t31 -4l36 -4q13 -2 62.5 -9t67.5 -8q17 -1 23 -18q2 -10 1 -17q-6 -95 -32 -163
t-63.5 -101t-73 -47t-72.5 -14q-23 0 -53 7t-70.5 30.5t-73 60t-55.5 103t-23 151.5q0 88 15 149q14 58 35 89.5t54 55.5q76 57 166 57q60 0 92 -7t61 -29q12 -9 21.5 -18.5t15.5 -18.5l10 -15t7 -12l3 -6q3 -6 8 -21t7 -19q1 -2 1 -5q0 -2 -0.5 -3t-2 -2t-3.5 -2t-5.5 -2.5
t-6.5 -3.5q-3 -1 -31.5 -16.5t-40.5 -20.5q-11 -7 -31.5 -20.5t-23.5 -15.5q-6 -5 -19 -13q-5 -3 -8 -3q-6 -2 -8 -2q-4 0 -6 3t-4.5 8t-4.5 7q-1 1 -6 8.5t-8.5 12t-11 9t-16.5 4.5q-30 0 -47 -46.5t-17 -97.5q0 -89 14 -119q16 -32 49 -33q40 0 56 50q7 21 7 50z" />
    <glyph glyph-name="gdotaccent" unicode="&#x121;" horiz-adv-x="533" 
d="M350 786q0 -30 -21.5 -48t-44.5 -18t-42 17.5t-19 43.5q0 22 17 40.5t40 18.5q27 0 48.5 -14.5t21.5 -39.5zM281 266q9 0 104.5 2.5t100.5 2.5q19 0 17 -33q0 -9 -0.5 -20.5t-5.5 -37.5t-13 -49t-25 -50.5t-40.5 -47t-61 -33t-83.5 -13.5q-75 0 -130.5 60.5t-80 146.5
t-24.5 180q0 126 70 210q78 94 165 94q35 0 63 -7.5t46.5 -20t29.5 -23.5t20.5 -23.5t11.5 -14.5q8 -9 8 -19q0 -12 -9 -21q-20 -20 -47 -39q-5 -3 -9 -3q-9 0 -18 9q-1 1 -7 7.5t-11.5 13t-16.5 15t-21.5 14.5t-25 10.5t-28.5 4.5q-31 0 -59.5 -22.5t-43.5 -54.5
q-13 -28 -21 -75q-8 -48 -8 -81q0 -39 8.5 -82.5t25.5 -86t49.5 -70.5t73.5 -28q72 0 110 56q17 25 21 57h-29q-9 0 -24.5 0.5t-20.5 0.5l-101 1q-17 0 -17 16v39q0 6 1 9t3 4.5t3 1.5h4h46z" />
    <glyph glyph-name="Gcommaaccent" unicode="&#x122;" horiz-adv-x="592" 
d="M342 294q-24 4 -35 5q-19 2 -19 14q0 7 8 39q3 11 7 16t8 5h10q2 0 15 -2t31 -4l36 -4q13 -2 62.5 -9t67.5 -8q17 -1 23 -18q2 -10 1 -17q-6 -95 -32 -163t-63.5 -101t-73 -47t-72.5 -14q-23 0 -53 7t-70.5 30.5t-73 60t-55.5 103t-23 151.5q0 98 22 172t52 112.5
t70.5 62t69 29t56.5 5.5q42 0 79 -14t57.5 -30t40.5 -41t23.5 -32l9.5 -19q3 -6 8 -21t7 -19q1 -2 1 -5q0 -2 -0.5 -3t-2 -2t-3.5 -2t-5.5 -2.5t-6.5 -3.5q-3 -1 -31.5 -16.5t-40.5 -20.5q-11 -7 -31.5 -20.5t-23.5 -15.5q-6 -5 -19 -13q-5 -3 -8 -3q-6 -2 -8 -2q-4 0 -6 3
t-4.5 8t-4.5 7q-1 1 -6 8.5t-8.5 12t-11 9t-16.5 4.5q-30 0 -47 -46.5t-17 -97.5q0 -89 14 -119q16 -32 49 -33q40 0 56 50q7 21 7 50zM350 -41q10 0 5 -8q-1 -11 -5 -17q-1 -4 -4.5 -14.5t-5.5 -15.5l-12 -38q-9 -29 -14 -42q-5 -18 -5 -22q-3 -9 -8 -13q-3 -1 -30 -1
t-32 1q-6 0 -6 10l31 98l8 32l7 20q1 10 15 10h56z" />
    <glyph glyph-name="gcommaaccent" unicode="&#x123;" horiz-adv-x="533" 
d="M281 266q9 0 104.5 2.5t100.5 2.5q19 0 17 -33q0 -9 -0.5 -20.5t-5.5 -37.5t-13 -49t-25 -50.5t-40.5 -47t-61 -33t-83.5 -13.5q-110 0 -177 126q-58 112 -58 231q0 125 71 204q81 90 164 90q35 0 63 -7.5t46.5 -20t29.5 -23.5t20.5 -23.5t11.5 -14.5q8 -9 8 -19
q0 -12 -9 -21q-20 -20 -47 -39q-5 -3 -9 -3q-9 0 -18 9q-1 1 -7 7.5t-11.5 13t-16.5 15t-21.5 14.5t-25 10.5t-28.5 4.5q-53 0 -102 -89q-30 -55 -30 -134q0 -61 34 -139q45 -98 123 -98q72 0 110 56q17 25 21 57h-29q-9 0 -24.5 0.5t-20.5 0.5l-101 1q-17 0 -17 16v39
q0 6 1 9t3 4.5t3 1.5h4h46zM320 -41q10 0 5 -8q-1 -11 -5 -17q-1 -4 -4.5 -14.5t-5.5 -15.5l-12 -38q-9 -29 -14 -42q-5 -18 -5 -22q-3 -9 -8 -13q-3 -1 -30 -1t-32 1q-6 0 -6 10l31 98l8 32l7 20q1 10 15 10h56z" />
    <glyph glyph-name="Hcircumflex" unicode="&#x124;" horiz-adv-x="682" 
d="M262 778q29 15 48 29q40 23 52 26q9 4 18 4q4 1 11 1q10 0 38 -15q11 -8 67 -43q37 -23 34 -34q-4 -15 -16 -15q-8 0 -27 7l-27 7q-17 7 -35 18l-32 15l-46 -21q-19 -10 -57 -21q-19 -3 -38 -3q-24 0 -24 16q0 8 7 12zM259 392q12 0 34.5 -1t39.5 -1.5t30 -0.5
q78 0 119 1q49 0 75 1v30q0 9 -0.5 28t-0.5 27q0 20 3 121t3 105q1 9 11 9q2 0 6 -0.5t5 -0.5q4 -1 15 -1q12 0 17 -2q10 -3 10 -10q0 -2 -2 -8q0 -1 -3.5 -30t-5.5 -56q-7 -79 -7 -303q0 -26 -3 -116t-3 -96q0 -4 -0.5 -18t-0.5 -22q0 -15 2 -29q1 -3 1 -6q0 -4 -1 -5
t-5 -2h-4q-10 -2 -36 -2q-8 0 -8 10l1 145v1v26v42v39v74l-81 -2q-43 -1 -116 -1h-94q-38 0 -59 1q0 -17 -1 -26q-2 -32 -2 -61q0 -9 -0.5 -47t-0.5 -61q0 -79 5 -104q2 -12 2 -15q0 -6 -2 -10t-3.5 -6t-6.5 -3t-7 -1h-8.5h-7.5q-35 2 -80 -3q-17 -2 -20.5 7.5t-2.5 38.5v17
q0 18 -1 165.5t-1 180.5q0 37 1 144t1 115q0 20 4.5 25.5t14.5 5.5q3 0 10.5 -0.5t11.5 -0.5q5 0 23 2q5 1 17 1q9 0 25 -1t23 -1q5 0 8.5 -1.5t5 -6t2 -6.5t0 -8.5t-0.5 -7.5q0 -46 -4 -119l-4 -99l-3 -59z" />
    <glyph glyph-name="hcircumflex" unicode="&#x125;" horiz-adv-x="638" 
d="M203 778q29 15 48 29q40 23 52 26q9 4 18 4q4 1 11 1q10 0 38 -15q11 -8 67 -43q37 -23 34 -34q-4 -15 -16 -15q-8 0 -27 7l-27 7q-17 7 -35 18l-32 15l-46 -21q-19 -10 -57 -21q-19 -3 -38 -3q-24 0 -24 16q0 8 7 12zM252 430h16q15 -1 27 -1q21 0 39 2q6 1 19 1
q14 0 21 -1l23 -2l3 30l3 48q0 13 2 90t2 85q1 15 4 20t14 6q10 0 56 6q8 1 29 1q32 0 53 -3q7 -1 10.5 -3t4.5 -3t1.5 -8t1.5 -10q0 -6 -3.5 -69t-3.5 -81q0 -15 -6 -88.5t-6 -93.5t1 -98.5t1 -99.5q0 -112 4 -137v-2q0 -5 -1 -8.5t-4 -5t-4.5 -2t-5.5 0t-5 0.5q-8 2 -20 2
q-4 0 -26 -2q-28 -3 -90 -3h-2q-4 0 -7 1t-4.5 2t-2 4t-0.5 4.5v6v6.5q0 94 -4 142q-2 38 -2 74q-1 15 -1 46h-29q-9 0 -24 -0.5t-19 -0.5q-2 0 -8 -0.5t-10 -0.5q-3 0 -9.5 0.5t-10.5 0.5q-15 0 -24 1l-3 -63q-3 -35 -3 -91v-51q0 -54 2 -65q-1 -4 0.5 -7t-1.5 -5t-3.5 -3
t-4.5 -1.5t-5.5 -0.5h-6h-6.5q-5 0 -17 1.5t-22.5 2t-18.5 0.5q-6 0 -37 -2.5t-44 -3.5q-14 -2 -18.5 6.5t-4.5 21.5q0 5 1.5 50.5t1.5 60.5q0 5 1 64t1 93q0 40 -1 51q-3 23 -3 60q0 20 1 55t1 45q0 19 4.5 98t4.5 87q0 14 12 14q2 0 6.5 -0.5t6.5 -0.5q20 -4 75 -4
q13 0 39.5 1t31.5 1h1q8 0 8 -18q0 -2 0.5 -21.5t1 -48t0.5 -51.5q0 -32 -2 -86z" />
    <glyph glyph-name="Hbar" unicode="&#x126;" horiz-adv-x="682" 
d="M631 577q19 1 28.5 -1.5t10.5 -5.5t1 -11v-33q0 -14 -49 -14h-11q-3 -120 -3 -212q0 -26 -3 -116t-3 -96q0 -4 -0.5 -18t-0.5 -22q0 -15 2 -29q0 -1 0.5 -3t0.5 -3q0 -4 -1 -5t-5 -2h-4q-10 -2 -36 -2q-8 0 -8 10l1 145v1v26v42v39v74l-81 -2q-43 -1 -116 -1h-94
q-38 0 -59 1q0 -17 -1 -26q-2 -32 -2 -61q0 -9 -0.5 -47t-0.5 -61q0 -79 5 -104q2 -12 2 -15q0 -6 -2 -10t-3.5 -6t-6.5 -3t-7 -1h-8.5h-7.5q-35 2 -80 -3q-17 -2 -20.5 7.5t-2.5 38.5v17q0 18 -1 165.5t-1 180.5l1 103q-28 0 -36 -2q-9 0 -13 2.5t-4.5 4.5t-0.5 7v30
q0 12 5 16.5t19 4.5h30l1 89q0 17 3.5 25t6.5 9t11 1q3 0 10 -0.5t11 -0.5t22 2q5 1 17 1q9 0 25 -1t23 -1q5 0 8.5 -1.5t5 -6t2 -6.5t0 -8.5t-0.5 -7.5q0 -27 -3 -94h351l4 125q1 9 11 9q2 0 6 -0.5t5 -0.5q3 -1 14 -1q12 0 18 -2q10 -3 10 -10q0 -2 -2 -8q0 -1 -3.5 -30
t-5.5 -56l-2 -26h18zM557 421q0 9 -0.5 28t-0.5 27l1 37q-84 2 -122 2h-230l-3 -62l-3 -59l60 -2q12 0 34.5 -1t39.5 -1.5t30 -0.5q78 0 119 1q49 0 75 1v30z" />
    <glyph glyph-name="hbar" unicode="&#x127;" horiz-adv-x="622" 
d="M593 604q8 0 8 -7q0 -1 -0.5 -5t-0.5 -5v-51q0 -8 -7 -8q-2 0 -6.5 0.5t-7.5 0.5l-25 -1q-1 -13 -6.5 -82t-5.5 -90q0 -20 1 -98.5t1 -99.5q0 -112 4 -137v-2q0 -5 -1 -8.5t-4 -5t-4.5 -2t-5.5 0t-5 0.5q-8 2 -20 2q-4 0 -26 -2q-28 -3 -90 -3h-2q-4 0 -7 1t-4.5 2t-2 4
t-0.5 4.5v6v6.5q0 94 -4 142q-2 38 -2 74q-1 15 -1 46h-29q-9 0 -24 -0.5t-19 -0.5q-5 -1 -23 -1q-21 0 -35 1q-15 0 -24 1l-3 -63q-3 -35 -3 -91v-51q0 -54 2 -65q-1 -4 0.5 -7t-1.5 -5t-3.5 -3t-4.5 -1.5t-5.5 -0.5h-6h-6.5q-9 2 -23 2q-5 0 -15.5 -1t-17.5 -1
q-16 0 -16 26q0 5 1.5 50.5t1.5 60.5q0 5 1 64t1 93q0 40 -1 51q-3 23 -3 60q0 20 1 55t1 45v16h-19q-14 0 -25 0.5t-16 1t-8 0.5q-7 0 -10 1.5l-4 2t-0.5 6t0.5 6.5q0 3 -2 17.5t-3 24.5t1 16q0 6 9 6q2 0 12 -2h60h9q5 68 5 89q0 14 12 14q2 0 6.5 -0.5t6.5 -0.5
q23 -3 50 -2h2q4 0 7 -1t4 -2t1.5 -3t0.5 -3.5v-4.5v-4l2 -79h169l2 78q1 15 4 20t14 6q10 0 56 6q8 1 29 1q32 0 53 -3q7 -1 10.5 -3t4.5 -3t1.5 -8t1.5 -10q0 -12 -4 -84h36zM383 507v19h-159h-8q0 -8 -0.5 -25t-1.5 -25l-2 -46h45q46 0 57 1q3 0 9 0.5t10 0.5
q3 0 10 -0.5t11 -0.5l23 -2l3 30z" />
    <glyph glyph-name="Itilde" unicode="&#x128;" horiz-adv-x="176" 
d="M267 787q0 -16 -23 -16q-9 0 -31 6t-35 6q-27 -1 -61.5 -5.5t-43.5 -5.5q-12 -1 -28.5 -3t-30.5 -3.5t-31 -1.5q-66 0 -66 23v13q0 16 2 23q1 5 7 5q3 0 10.5 -2t20.5 -5.5t26 -6.5q22 0 72 9q45 8 119 8q39 0 64 -4q13 -1 20 -4t8 -6.5t1 -7.5v-7v-15zM116 668
q-3 -22 -5 -113q0 -27 -4 -139t-4 -137q0 -202 6 -252q1 -6 1 -14q0 -11 -10 -16q-6 -4 -31 -4h-7q-11 0 -14 0.5t-4 4.5t0 13q1 14 1 24q0 15 2 159.5t2 181.5q0 26 2.5 94t4 124t0.5 66q0 4 -0.5 11t-0.5 10q0 26 16 26q3 0 16 -0.5t21 -0.5q10 0 10 -14q0 -3 -1 -11.5
t-1 -12.5z" />
    <glyph glyph-name="itilde" unicode="&#x129;" horiz-adv-x="257" 
d="M294 787q0 -16 -23 -16q-9 0 -31 6t-35 6q-27 -1 -61.5 -5.5t-43.5 -5.5q-12 -1 -28.5 -3t-30.5 -3.5t-31 -1.5q-66 0 -66 23v13q0 16 2 23q1 5 7 5q3 0 10.5 -2t20.5 -5.5t26 -6.5q22 0 72 9q45 8 119 8q39 0 64 -4q13 -1 20 -4t8 -6.5t1 -7.5v-7v-15zM67 625v42
q0 39 20 39q5 0 8 -1q5 0 35 0.5t44 -1.5q22 -3 22 -16q0 -3 -1.5 -10.5t-1.5 -11.5q-11 -85 -12 -175q-1 -26 -1 -80q0 -42 1 -96t1 -56q0 -7 1.5 -52t1.5 -65q0 -19 -1 -23t-1 -23q0 -16 1 -47.5t1 -37.5q1 -13 -7.5 -16.5t-22.5 -2.5h-91q-8 0 -13 2t-7 7.5t-2.5 9
t-1.5 12.5q-2 8 2 38t4 47q0 20 6.5 123t6.5 115q0 13 2 95t2 94q0 16 2 54z" />
    <glyph glyph-name="Imacron" unicode="&#x12a;" horiz-adv-x="153" 
d="M212 831q2 0 4 0.5t3 0.5q11 0 11 -17v-30q0 -13 -22 -13q-8 0 -39.5 1.5t-44.5 1.5h-132q-46 0 -51 -3q-8 0 -8 13v27q0 19 11 19h268zM116 668q-3 -22 -5 -113q0 -27 -4 -139t-4 -137q0 -202 6 -252q1 -6 1 -14q0 -11 -10 -16q-6 -4 -31 -4h-7q-11 0 -14 0.5t-4 4.5
t0 13q1 14 1 24q0 15 2 159.5t2 181.5q0 26 2.5 94t4 124t0.5 66q0 4 -0.5 11t-0.5 10q0 26 16 26q3 0 16 -0.5t21 -0.5q10 0 10 -14q0 -3 -1 -11.5t-1 -12.5z" />
    <glyph glyph-name="imacron" unicode="&#x12b;" horiz-adv-x="246" 
d="M254 831q2 0 4 0.5t3 0.5q11 0 11 -17v-30q0 -13 -22 -13q-8 0 -39.5 1.5t-44.5 1.5h-132q-46 0 -51 -3q-8 0 -8 13v27q0 19 11 19h268zM67 625v42q0 39 20 39q5 0 8 -1q5 0 35 0.5t44 -1.5q22 -3 22 -16q0 -3 -1.5 -10.5t-1.5 -11.5q-11 -85 -12 -175q-1 -26 -1 -80
q0 -42 1 -96t1 -56q0 -7 1.5 -52t1.5 -65q0 -19 -1 -23t-1 -23q0 -16 1 -47.5t1 -37.5q1 -13 -7.5 -16.5t-22.5 -2.5h-91q-8 0 -13 2t-7 7.5t-2.5 9t-1.5 12.5q-2 8 2 38t4 47q0 20 6.5 123t6.5 115q0 13 2 95t2 94q0 16 2 54z" />
    <glyph glyph-name="Ibreve" unicode="&#x12c;" horiz-adv-x="153" 
d="M234 832q0 -41 -21 -57q-13 -11 -39 -24q-25 -13 -96 -13q-80 4 -99 15q-21 11 -28 27q-14 32 -15 56q0 3 30 3q20 0 24 -1.5t4 -8.5q4 -19 16 -27q11 -7 66 -10q26 0 61 9q35 10 37 30q4 6 27 7q33 -2 33 -6zM116 668q-3 -22 -5 -113q0 -27 -4 -139t-4 -137
q0 -202 6 -252q1 -6 1 -14q0 -11 -10 -16q-6 -4 -31 -4h-7q-11 0 -14 0.5t-4 4.5t0 13q1 14 1 24q0 15 2 159.5t2 181.5q0 26 2.5 94t4 124t0.5 66q0 4 -0.5 11t-0.5 10q0 26 16 26q3 0 16 -0.5t21 -0.5q10 0 10 -14q0 -3 -1 -11.5t-1 -12.5z" />
    <glyph glyph-name="ibreve" unicode="&#x12d;" horiz-adv-x="246" 
d="M283 832q0 -41 -21 -57q-14 -11 -39 -24t-96 -13q-81 5 -100 15q-19 11 -27 27q-14 32 -15 56q0 3 29 3q21 0 25 -1.5t4 -8.5q4 -19 16 -27q11 -7 66 -10q27 0 61 9q35 10 37 30q4 6 27 7q33 -2 33 -6zM67 625v42q0 39 20 39q5 0 8 -1q5 0 35 0.5t44 -1.5q22 -3 22 -16
q0 -3 -1.5 -10.5t-1.5 -11.5q-11 -85 -12 -175q-1 -26 -1 -80q0 -42 1 -96t1 -56q0 -7 1.5 -52t1.5 -65q0 -19 -1 -23t-1 -23q0 -16 1 -47.5t1 -37.5q1 -13 -7.5 -16.5t-22.5 -2.5h-91q-8 0 -13 2t-7 7.5t-2.5 9t-1.5 12.5q-2 8 2 38t4 47q0 20 6.5 123t6.5 115q0 13 2 95
t2 94q0 16 2 54z" />
    <glyph glyph-name="Iogonek" unicode="&#x12e;" horiz-adv-x="153" 
d="M186 -74q6 0 13 -9t7 -16q0 -19 -40 -44.5t-68 -27.5q-40 -1 -60 16t-22 64q0 19 9 46q7 19 14 37l5 10q0 2 0.5 12.5t0.5 20.5q0 15 2 159.5t2 181.5q0 26 2.5 94t4 124t0.5 66q0 4 -0.5 11t-0.5 10q0 26 16 26q3 0 16 -0.5t21 -0.5q10 0 10 -14q0 -3 -1 -11.5t-1 -12.5
q-3 -22 -5 -113q0 -27 -4 -139t-4 -137q0 -202 6 -252q1 -6 1 -14q0 -11 -10 -16q-4 -2 -7 -2q-1 -5 -2.5 -16t-2.5 -17t-1 -18q0 -40 20 -41q27 -2 44.5 4t25 12.5t9.5 6.5z" />
    <glyph glyph-name="iogonek" unicode="&#x12f;" horiz-adv-x="243" 
d="M103 -8l-4 -30q-1 -6 -1 -18q0 -40 20 -41q27 -2 44.5 4t25 12.5t9.5 6.5q6 0 13 -9t7 -16q0 -19 -40 -44.5t-68 -27.5q-40 -1 -60 16t-22 64q0 19 9 46q6 19 14 37l1 1q-11 4 -13 30q-2 8 2 38t4 47q0 20 6.5 123t6.5 115q0 13 2 95t2 94q0 16 2 54l2 36v42q0 39 20 39
q5 0 8 -1q5 0 35 0.5t44 -1.5q22 -3 22 -16q0 -3 -1.5 -10.5t-1.5 -11.5q-11 -85 -12 -175q-1 -26 -1 -80q0 -42 1 -96t1 -56q0 -7 1.5 -52t1.5 -65q0 -19 -1 -23t-1 -23q0 -16 1 -47.5t1 -37.5q1 -13 -7.5 -16.5t-22.5 -2.5h-50z" />
    <glyph glyph-name="Idotaccent" unicode="&#x130;" horiz-adv-x="153" 
d="M154 786q0 -30 -21.5 -48t-44.5 -18t-42 17.5t-19 43.5q0 22 17 40.5t40 18.5q27 0 48.5 -14.5t21.5 -39.5zM54 592q1 12 1 29q0 13 -1 16q0 3 -0.5 10t-0.5 11q0 26 16 26q3 0 16 -0.5t21 -0.5q10 0 10 -14q0 -3 -1 -11.5t-1 -12.5q-3 -22 -5 -113q0 -60 -3 -116
q0 -25 -1.5 -74.5t-1.5 -62.5q0 -202 6 -252q1 -6 1 -14q0 -11 -10 -16q-6 -4 -31 -4h-7q-11 0 -14 0.5t-4 4.5t0 13q1 14 1 24q0 15 2 159.5t2 181.5q0 40 1 69q2 58 2 77z" />
    <glyph glyph-name="dotlessi" unicode="&#x131;" horiz-adv-x="246" 
d="M67 625v42q0 39 20 39q5 0 8 -1q5 0 35 0.5t44 -1.5q22 -3 22 -16q0 -3 -1.5 -10.5t-1.5 -11.5q-11 -85 -12 -175q-1 -26 -1 -80q0 -42 1 -96t1 -56q0 -7 1.5 -52t1.5 -65q0 -19 -1 -23t-1 -23q0 -16 1 -47.5t1 -37.5q1 -13 -7.5 -16.5t-22.5 -2.5h-91q-8 0 -13 2t-7 7.5
t-2.5 9t-1.5 12.5q-2 8 2 38t4 47q0 20 6.5 123t6.5 115q0 13 2 95t2 94q0 16 2 54z" />
    <glyph glyph-name="IJ" unicode="&#x132;" horiz-adv-x="682" 
d="M274 345q0 -141 29.5 -191.5t84.5 -50.5q58 0 85.5 42.5t27.5 87.5q0 24 1.5 142t1.5 134q-2 30 -2 66q0 20 0.5 53.5t0.5 43.5q-2 25 5 31.5t20 6.5q1 0 17 2t26 2q11 0 16 -1q17 -1 21 -6.5t3 -26.5l-2 -306v-42.5t-1 -76t-11.5 -87.5t-29 -86.5t-56.5 -62.5t-91 -26
q-62 0 -109 23t-71 53.5t-38.5 70.5t-17.5 64t-3 43q0 23 1 72.5t1 56.5q0 9 1.5 13t5 4.5t8.5 -0.5q11 0 62 7q8 1 12.5 -2.5t5 -10t0 -13t-2 -15.5t-1.5 -14zM116 668q-3 -22 -5 -113q0 -27 -4 -139t-4 -137q0 -202 6 -252q1 -6 1 -14q0 -11 -10 -16q-6 -4 -31 -4h-7
q-11 0 -14 0.5t-4 4.5t0 13q1 14 1 24q0 15 2 159.5t2 181.5q0 26 2.5 94t4 124t0.5 66q0 4 -0.5 11t-0.5 10q0 26 16 26q3 0 16 -0.5t21 -0.5q10 0 10 -14q0 -3 -1 -11.5t-1 -12.5z" />
    <glyph glyph-name="ij" unicode="&#x133;" horiz-adv-x="663" 
d="M65 625v42q0 39 20 39q5 0 8 -1q5 0 35 0.5t44 -1.5q22 -3 22 -16q0 -3 -1.5 -10.5t-1.5 -11.5q-11 -85 -12 -175q-1 -26 -1 -80q0 -42 1 -96t1 -56q0 -7 1.5 -52t1.5 -65q0 -19 -1 -23t-1 -23q0 -16 1 -47.5t1 -37.5q1 -13 -7.5 -16.5t-22.5 -2.5h-91q-8 0 -13 2t-7 7.5
t-2.5 9t-1.5 12.5q-2 8 2 38t4 47q0 20 6.5 123t6.5 115q0 13 2 95t2 94q0 16 2 54zM567 699q18 0 24.5 -5.5t6.5 -22.5q0 -8 -2.5 -51t-2.5 -67q0 -143 -6 -237q-1 -12 0 -51t1 -70.5t-7 -72.5t-21.5 -69t-45 -48t-74.5 -20q-45 0 -78.5 19.5t-50 45t-26 59t-11.5 51.5
t-2 33q0 68 -4 137q-1 15 1 23.5t8 11.5t10.5 3t13 -1t12.5 -1q10 -1 29.5 0.5t34.5 1.5q9 0 14.5 -1.5t7.5 -6.5t3 -7t0.5 -11.5t-0.5 -10.5q0 -5 1 -27t1 -37q0 -19 -1 -29q-1 -8 -1 -26q0 -75 38 -75q25 0 25 135q0 35 -2 96t-2 77l-1 227q0 28 26 28q4 0 11 -0.5
t11 -0.5h59z" />
    <glyph glyph-name="Jcircumflex" unicode="&#x134;" horiz-adv-x="506" 
d="M271 779q29 15 48 29q40 23 52 26q9 4 18 4q4 1 11 1q10 0 38 -15q11 -8 67 -43q37 -23 34 -34q-4 -15 -16 -15q-8 0 -27 7l-27 7q-17 7 -35 18l-32 15l-46 -21q-19 -10 -57 -21q-19 -3 -38 -3q-24 0 -24 16q0 8 7 12zM98 345q0 -141 29.5 -191.5t84.5 -50.5
q58 0 85.5 42.5t27.5 87.5q0 24 1.5 142t1.5 134q-2 30 -2 66q0 20 0.5 53.5t0.5 43.5q-2 25 5 31.5t20 6.5q1 0 17 2t26 2q11 0 16 -1q17 -1 21 -6.5t3 -26.5l-2 -306v-42.5t-1 -76t-11.5 -87.5t-29 -86.5t-56.5 -62.5t-91 -26q-62 0 -109 23t-71 53.5t-38.5 70.5t-17.5 64
t-3 43q0 23 1 72.5t1 56.5q0 9 1.5 13t5 4.5t8.5 -0.5q11 0 62 7q8 1 12.5 -2.5t5 -10t0 -13t-2 -15.5t-1.5 -14z" />
    <glyph glyph-name="jcircumflex" unicode="&#x135;" horiz-adv-x="406" 
d="M150 778q29 15 48 29q40 23 52 26q9 4 18 4q4 1 11 1q10 0 38 -15q11 -8 67 -43q37 -23 34 -34q-4 -15 -16 -15q-8 0 -27 7l-27 7q-17 7 -35 18l-32 15l-46 -21q-19 -10 -57 -21q-20 -3 -38 -3q-24 0 -24 16q0 8 7 12zM310 699q18 0 24.5 -5.5t6.5 -22.5q0 -8 -2.5 -51
t-2.5 -67q0 -143 -6 -237q-1 -12 0 -51t1 -70.5t-7 -72.5t-21.5 -69t-45 -48t-74.5 -20q-45 0 -78.5 19.5t-50 45t-26 59t-11.5 51.5t-2 33q0 68 -4 137q-1 15 1 23.5t8 11.5t10.5 3t13 -1t12.5 -1q10 -1 29.5 0.5t34.5 1.5q9 0 14.5 -1.5t7.5 -6.5t3 -7t0.5 -11.5
t-0.5 -10.5q0 -5 1 -27t1 -37q0 -19 -1 -29q-1 -8 -1 -26q0 -75 38 -75q25 0 25 135q0 35 -2 96t-2 77l-1 227q0 28 26 28q3 0 11 -0.5t11 -0.5h59z" />
    <glyph glyph-name="Kcommaaccent" unicode="&#x136;" horiz-adv-x="620" 
d="M143 3q-5 0 -28.5 -1.5t-33.5 -1.5t-12 1q-7 0 -7 6q0 3 4 15q2 6 -1.5 31t-3.5 35q0 32 3 164t6 149q3 27 3 100q0 38 -1 47q-1 8 -1 42q0 78 5 98q1 10 11 10q3 0 10 -1.5t10 -1.5q7 0 34 -1t40 0h6q5 0 7.5 -1t4 -3.5t1.5 -3.5v-6v-6v-59v-41q0 -117 -4 -149
q-2 -22 -2 -35q0 -6 0.5 -17t0.5 -16l2 -34l16 17q5 6 29 30q29 26 94 100q20 29 93 102q93 103 94 105q10 15 21 17h28q7 -1 7 -7q0 -4 -5 -9q-58 -58 -63 -62q-10 -9 -58.5 -68t-57.5 -72q-26 -29 -63 -68l-54 -56q7 -9 20 -23.5t15 -17.5q28 -35 53 -59q11 -11 66 -76.5
t65 -74.5q11 -9 41.5 -46.5t32.5 -39.5q3 -5 3 -8q0 -8 -17 -8q-6 0 -62.5 -1.5t-66.5 -1.5q-21 0 -39 18q-7 6 -50 62.5t-53 67.5q-18 16 -53 59l-36 41q0 -30 -1 -43q-2 -46 -2 -64q0 -5 -0.5 -30t-0.5 -39q0 -38 3 -48q1 -3 1 -7q0 -10 -14 -10h-40zM321 -41q10 0 5 -8
q-1 -11 -5 -17q-1 -4 -4.5 -14.5t-5.5 -15.5l-12 -38q-9 -29 -14 -42q-5 -18 -5 -22q-3 -9 -8 -13q-3 -1 -30 -1t-32 1q-6 0 -6 10l31 98l8 32l7 20q1 10 15 10h56z" />
    <glyph glyph-name="kcommaaccent" unicode="&#x137;" horiz-adv-x="601" 
d="M208 110q0 -11 2.5 -49t2.5 -47q0 -4 -1 -7t-2 -4.5t-3.5 -2t-4 -0.5h-4.5h-4q-4 0 -24.5 1.5t-28.5 1.5q-7 0 -40 -1.5t-37 -1.5q-7 0 -8.5 4t-1.5 15v4l-1 245v94q0 119 -2 141q-1 12 -1 38q0 15 0.5 38t0.5 28l1 79q0 9 10 9q4 0 11.5 -1.5t10.5 -1.5l114 -1
q16 0 16 -14q0 -1 0.5 -16.5t0.5 -32.5q0 -14 -5.5 -68t-5.5 -70v-66q0 -27 1 -42q13 15 24 30l37 48q13 16 56 76t52 73q2 2 27.5 34.5t29.5 42.5q2 6 6 9t6.5 3.5t9 1t7.5 0.5q4 0 11 0.5t16 1.5t15 1h4q18 0 18 -7q0 -4 -10 -14q-17 -17 -97 -118q-13 -19 -59.5 -82
t-56.5 -75t-30.5 -46t-20.5 -38q0 -3 2.5 -6.5t10.5 -11t13 -12.5q22 -27 76 -81q3 -3 23 -25t43.5 -47.5t38.5 -39.5t35.5 -35t38 -39.5t18.5 -19.5q2 -2 2 -4q0 -11 -20 -7q-5 0 -39 -1.5t-44 -1.5q-25 -1 -39 11q-2 2 -9 8.5t-14 13.5t-14 15q-30 32 -69 71
q-7 7 -27 24.5t-30 26.5l-38 32v-84zM337 -41q10 0 5 -8q-1 -11 -5 -17q-1 -4 -4.5 -14.5t-5.5 -15.5l-12 -38q-9 -29 -14 -42q-5 -18 -5 -22q-3 -9 -8 -13q-3 -1 -30 -1t-32 1q-6 0 -6 10l31 98l8 32l7 20q1 10 15 10h56z" />
    <glyph glyph-name="kgreenlandic" unicode="&#x138;" horiz-adv-x="578" 
d="M170 205q0 -17 5.5 -71t5.5 -67q0 -17 -0.5 -32.5t-0.5 -16.5q0 -14 -16 -14l-68 -1q-3 0 -10 -1.5t-10 -1.5q-8 0 -8 9l-1 79q0 5 -0.5 28t-0.5 38q0 26 1 38q2 22 2 141v94l1 245v7q0 16 10 16h34h46h7q12 0 12 -14q0 -10 -3 -50t-3 -46v-159q14 17 89 107
q10 9 30 26.5t27 24.5q39 39 69 71l37 37q14 12 39 11q3 0 17.5 -0.5t25.5 -0.5q10 0 16.5 -3.5t1.5 -9.5q-1 -1 -18.5 -19.5t-38 -39.5t-35.5 -35t-38.5 -39.5t-43.5 -47.5t-23 -25l-15 -15l-22 -24q-16 -16 -47 -51q33 -44 42 -59q24 -38 31 -46q10 -12 56.5 -75t59.5 -82
q80 -101 97 -118q10 -10 10 -14q0 -7 -18 -7q-8 0 -25 1.5t-21 1.5h-6t-7 0.5t-6.5 2t-6 4t-3.5 7.5q-4 10 -29.5 42.5t-27.5 34.5q-9 13 -52 73t-56 76l-37 48q-40 42 -74 84q-1 -51 -1 -96v-66z" />
    <glyph glyph-name="Lacute" unicode="&#x139;" horiz-adv-x="524" 
d="M222 830q21 7 35 7q16 2 20 2q22 0 17 -28q-7 -22 -49 -34q-48 -15 -85 -33q-25 -9 -32 -9q-10 0 -21 7q-20 7 -20 22q0 2 2 10q1 5 20 13.5t30 11.5q6 3 22.5 8t38.5 15zM394 51l119 -1h2q4 0 5.5 -1t2 -2.5t0 -4.5t-0.5 -5q-1 -4 0.5 -17t1.5 -18q0 -3 -0.5 -5t-2.5 -3
t-3.5 -1.5t-4.5 -0.5h-5h-6h-7q-6 0 -69 4.5t-83 4.5q-19 0 -133 -4.5t-120 -4.5q-22 0 -22 20v78q0 18 2 169t2 166q0 17 -4.5 132t-4.5 129q0 17 13 17q5 0 17 -3t19 -3q28 -4 67 -4q27 0 51 3q14 2 20.5 -2t6.5 -9.5t-1.5 -17t-1.5 -17.5q0 -5 -3 -78.5t-3 -98.5
t1.5 -122t1.5 -103q0 -9 -1 -55t-1 -54q0 -1 -0.5 -8t-0.5 -12q0 -4 0.5 -13.5t0.5 -14.5l2 -35z" />
    <glyph glyph-name="lacute" unicode="&#x13a;" horiz-adv-x="579" 
d="M214 830q21 7 35 7q16 2 20 2q22 0 17 -28q-7 -22 -49 -34q-48 -15 -85 -33q-25 -9 -32 -9q-10 0 -21 7q-20 7 -20 22q0 2 2 10q1 5 20 13.5t30 11.5q6 3 22.5 8t38.5 15zM567 129q0 -12 5 -63t5 -55q0 -1 1 -3v-2q0 -8 -23 -8q-7 0 -92 1.5t-105 1.5q-13 0 -77.5 -3
t-85.5 -3q-5 0 -10.5 0.5t-6.5 0.5q-6 1 -23 1q-13 0 -41 -1t-35 -1t-10.5 0.5t-5 3.5t-2 4.5t0 8t0.5 9.5q0 7 3 87t3 92q0 8 -2.5 55.5t-2.5 65.5q0 -17 2 6l10 189l-1 113q0 4 -1 30t-1 34v1q0 3 1.5 5t4.5 2.5t6 0.5t7 -0.5t6 -0.5q3 0 14 -0.5t24 -0.5h9q6 0 6 -8
q0 -2 -3.5 -97.5t-3.5 -112.5l-1 -143q0 -6 1 -41t1 -52q0 -21 -1 -26v-18q0 -4 1 -5l24 -2q32 -2 53 -1q18 0 92 1t93 1q22 0 84.5 -2t67.5 -2q11 -1 11 -6q0 -1 -1 -5t-1 -6v-46z" />
    <glyph glyph-name="Lcommaaccent" unicode="&#x13b;" horiz-adv-x="524" 
d="M394 51l119 -1h2q4 0 5.5 -1t2 -2.5t0 -4.5t-0.5 -5q-1 -4 0.5 -17t1.5 -18q0 -3 -0.5 -5t-2.5 -3t-3.5 -1.5t-4.5 -0.5h-5h-6h-7q-6 0 -69 4.5t-83 4.5q-19 0 -133 -4.5t-120 -4.5q-22 0 -22 20v78q0 18 2 169t2 166q0 17 -4.5 132t-4.5 129q0 17 13 17q5 0 17 -3t19 -3
q28 -4 67 -4q27 0 51 3q14 2 20.5 -2t6.5 -9.5t-1.5 -17t-1.5 -17.5q0 -5 -3 -78.5t-3 -98.5t1.5 -122t1.5 -103q0 -9 -1 -55t-1 -54q0 -1 -0.5 -8t-0.5 -12q0 -4 0.5 -13.5t0.5 -14.5l2 -35zM325 -41q10 0 5 -8q-1 -11 -5 -17q-1 -4 -4.5 -14.5t-5.5 -15.5l-12 -38
q-9 -29 -14 -42q-5 -18 -5 -22q-3 -9 -8 -13q-3 -1 -30 -1t-32 1q-6 0 -6 10l31 98l8 32l7 20q1 10 15 10h56z" />
    <glyph glyph-name="lcommaaccent" unicode="&#x13c;" horiz-adv-x="579" 
d="M567 129q0 -12 5 -63t5 -55q0 -1 1 -3v-2q0 -8 -23 -8q-7 0 -92 1.5t-105 1.5q-13 0 -77.5 -3t-85.5 -3q-5 0 -10.5 0.5t-6.5 0.5q-6 1 -23 1q-13 0 -41 -1t-35 -1t-10.5 0.5t-5 3.5t-2 4.5t0 8t0.5 9.5q0 7 3 87t3 92q0 8 -2.5 55.5t-2.5 65.5q0 -17 2 6l10 189l-1 113
q0 4 -1 30t-1 34v1q0 3 1.5 5t4.5 2.5t6 0.5t7 -0.5t6 -0.5q3 0 14 -0.5t24 -0.5h9q6 0 6 -8q0 -2 -3.5 -97.5t-3.5 -112.5l-1 -143q0 -6 1 -41t1 -52q0 -21 -1 -26v-18q0 -4 1 -5l24 -2q32 -2 53 -1q18 0 92 1t93 1q22 0 84.5 -2t67.5 -2q11 -1 11 -6q0 -1 -1 -5t-1 -6v-46
zM344 -41q10 0 5 -8q-1 -11 -5 -17q-1 -4 -4.5 -14.5t-5.5 -15.5l-12 -38q-9 -29 -14 -42q-5 -18 -5 -22q-3 -9 -8 -13q-3 -1 -30 -1t-32 1q-6 0 -6 10l31 98l8 32l7 20q1 10 15 10h56z" />
    <glyph glyph-name="Lcaron" unicode="&#x13d;" horiz-adv-x="524" 
d="M442 804q12 0 12 -6q0 -4 -3 -8q-8 -23 -9 -26q-1 -6 -8 -21t-11 -26q-6 -13 -15.5 -44.5t-9.5 -35.5q-11 -19 -16 -21q-12 -2 -28 -2q-12 0 -32 2q-5 0 -7.5 1t-3.5 2.5t-1.5 3t0 5t0.5 4.5l23 74l18 50l13 32q1 16 28 16h50zM394 51l119 -1h2q4 0 5.5 -1t2 -2.5t0 -4.5
t-0.5 -5q-1 -4 0.5 -17t1.5 -18q0 -3 -0.5 -5t-2.5 -3t-3.5 -1.5t-4.5 -0.5h-5h-6h-7q-6 0 -69 4.5t-83 4.5q-19 0 -133 -4.5t-120 -4.5q-22 0 -22 20v78q0 18 2 169t2 166q0 17 -4.5 132t-4.5 129q0 17 13 17q5 0 17 -3t19 -3q28 -4 67 -4q27 0 51 3q14 2 20.5 -2t6.5 -9.5
t-1.5 -17t-1.5 -17.5q0 -5 -3 -78.5t-3 -98.5t1.5 -122t1.5 -103q0 -9 -1 -55t-1 -54q0 -1 -0.5 -8t-0.5 -12q0 -4 0.5 -13.5t0.5 -14.5l2 -35z" />
    <glyph glyph-name="lcaron" unicode="&#x13e;" horiz-adv-x="599" 
d="M362 814q12 0 12 -6q0 -4 -3 -8q-8 -23 -9 -26q-1 -6 -8 -21t-11 -26q-6 -13 -15.5 -44.5t-9.5 -35.5q-11 -19 -16 -21q-12 -2 -28 -2q-12 0 -32 2q-5 0 -7.5 1t-3.5 2.5t-1.5 3t0 5t0.5 4.5l23 74l18 50l13 32q1 16 28 16h50zM567 129q0 -12 5 -63t5 -55q0 -1 1 -3v-2
q0 -8 -23 -8q-7 0 -92 1.5t-105 1.5q-13 0 -77.5 -3t-85.5 -3q-5 0 -10.5 0.5t-6.5 0.5q-6 1 -23 1q-13 0 -41 -1t-35 -1t-10.5 0.5t-5 3.5t-2 4.5t0 8t0.5 9.5q0 7 3 87t3 92q0 8 -2.5 55.5t-2.5 65.5q0 -17 2 6l10 189l-1 113q0 4 -1 30t-1 34v1q0 3 1.5 5t4.5 2.5t6 0.5
t7 -0.5t6 -0.5q3 0 14 -0.5t24 -0.5h9q6 0 6 -8q0 -2 -3.5 -97.5t-3.5 -112.5l-1 -143q0 -6 1 -41t1 -52q0 -21 -1 -26v-18q0 -4 1 -5l24 -2q32 -2 53 -1q18 0 92 1t93 1q22 0 84.5 -2t67.5 -2q11 -1 11 -6q0 -1 -1 -5t-1 -6v-46z" />
    <glyph glyph-name="Ldot" unicode="&#x13f;" horiz-adv-x="524" 
d="M394 51l119 -1h2q4 0 5.5 -1t2 -2.5t0 -4.5t-0.5 -5q-1 -4 0.5 -17t1.5 -18q0 -3 -0.5 -5t-2.5 -3t-3.5 -1.5t-4.5 -0.5h-5h-6h-7q-6 0 -69 4.5t-83 4.5q-19 0 -133 -4.5t-120 -4.5q-22 0 -22 20v78q0 18 2 169t2 166q0 17 -4.5 132t-4.5 129q0 17 13 17q5 0 17 -3t19 -3
q28 -4 67 -4q27 0 51 3q14 2 20.5 -2t6.5 -9.5t-1.5 -17t-1.5 -17.5q0 -5 -3 -78.5t-3 -98.5t1.5 -122t1.5 -103q0 -9 -1 -55t-1 -54q0 -1 -0.5 -8t-0.5 -12q0 -4 0.5 -13.5t0.5 -14.5l2 -35zM385 454q76 0 76 -89q0 -24 -23.5 -41.5t-52.5 -17.5q-30 0 -51 20.5t-21 59.5
q0 68 72 68z" />
    <glyph glyph-name="ldot" unicode="&#x140;" horiz-adv-x="611" 
d="M567 129q0 -12 5 -63t5 -55q0 -1 1 -3v-2q0 -8 -23 -8q-7 0 -92 1.5t-105 1.5q-13 0 -77.5 -3t-85.5 -3q-5 0 -10.5 0.5t-6.5 0.5q-6 1 -23 1q-13 0 -41 -1t-35 -1t-10.5 0.5t-5 3.5t-2 4.5t0 8t0.5 9.5q0 7 3 87t3 92q0 8 -2.5 55.5t-2.5 65.5q0 -17 2 6l10 189l-1 113
q0 4 -1 30t-1 34v1q0 3 1.5 5t4.5 2.5t6 0.5t7 -0.5t6 -0.5q3 0 14 -0.5t24 -0.5h9q6 0 6 -8q0 -2 -3.5 -97.5t-3.5 -112.5l-1 -143q0 -6 1 -41t1 -52q0 -21 -1 -26v-18q0 -4 1 -5l24 -2q32 -2 53 -1q18 0 92 1t93 1q22 0 84.5 -2t67.5 -2q11 -1 11 -6q0 -1 -1 -5t-1 -6v-46
zM372 514q76 0 76 -89q0 -24 -23.5 -41.5t-52.5 -17.5q-30 0 -51 20.5t-21 59.5q0 68 72 68z" />
    <glyph glyph-name="Lslash" unicode="&#x141;" horiz-adv-x="580" 
d="M448 51l119 -1h2q8 0 7 -9v-2v-2q-1 -4 0.5 -17t1.5 -18q0 -3 -0.5 -5t-2.5 -3t-3.5 -1.5t-4.5 -0.5h-5h-6h-7q-6 0 -69 4.5t-83 4.5q-19 0 -133 -4.5t-120 -4.5q-22 0 -22 20v78l2 190l-27 -13q-12 -6 -20 -6q-10 0 -18 12l-28 52q-3 8 5 16t31 17q18 9 31 14l28 10v43
q0 17 -4.5 132t-4.5 129q0 17 13 17q5 0 17 -3t19 -3q28 -4 67 -4q27 0 51 3q14 2 20.5 -2t6.5 -9.5t-1.5 -17t-1.5 -17.5q0 -5 -3 -78.5t-3 -98.5v-14q4 2 12.5 5.5t12.5 5.5q9 4 23.5 13.5t19.5 10.5h3q9 0 15 -11l14 -51q2 -10 2 -13q0 -12 -16 -20l-55 -24l-30 -13
l2 -114q0 -9 -1 -55t-1 -54q0 -1 -0.5 -8t-0.5 -12q0 -4 0.5 -13.5t0.5 -14.5l2 -35z" />
    <glyph glyph-name="lslash" unicode="&#x142;" horiz-adv-x="665" 
d="M649 129q0 -12 5 -63t5 -55q0 -1 1 -3v-2q0 -8 -23 -8q-7 0 -92 1.5t-105 1.5q-13 0 -77.5 -3t-85.5 -3q-5 0 -10.5 0.5t-6.5 0.5q-6 1 -23 1q-13 0 -41 -1t-35 -1t-10.5 0.5t-5 3.5t-2 4.5t0 8t0.5 9.5q0 7 3 87t3 92q0 8 -2.5 55.5t-2.5 65.5q0 12 1 15l1 11l-10 -5
q-2 -1 -42 -20q-8 -4 -21 -12.5t-18 -9.5h-2q-8 0 -14 10l-12 47q-2 10 -2 12q0 11 14 19l50 22l64 29q0 15 1 32.5t1.5 29t0.5 15.5l-1 113q0 4 -1 30t-1 34v1q0 3 1.5 5t4.5 2.5t6 0.5t7 -0.5t6 -0.5q3 0 14 -0.5t24 -0.5h9q6 0 6 -8q0 -2 -3.5 -97.5t-3.5 -112.5v-9
l75 36q12 7 19 7t15 -12l25 -48q3 -8 -3.5 -15t-28.5 -16l-29 -13q-6 -3 -18 -7.5t-17 -6.5q-19 -7 -39 -16v-43q0 -6 1 -41t1 -52q0 -21 -1 -26v-7.5v-6.5v-4q0 -4 1 -5l24 -2q32 -2 53 -1q18 0 92 1t93 1q22 0 84.5 -2t67.5 -2q11 -1 11 -6q0 -1 -1 -5t-1 -6v-46z" />
    <glyph glyph-name="Nacute" unicode="&#x143;" horiz-adv-x="657" 
d="M401 826q21 7 35 7q16 2 20 2q22 0 17 -28q-7 -22 -49 -34q-48 -15 -85 -33q-25 -9 -32 -9q-10 0 -21 7q-20 7 -20 22q0 2 2 10q1 5 20 13.5t30 11.5q6 3 22.5 8t38.5 15zM263 497q0 -19 1 -51t1.5 -56t0.5 -39q0 -39 2 -136t2 -107q0 -16 2 -53t2 -43v-2q0 -16 -19 -16
q-4 0 -28.5 -2t-38.5 -2q-12 0 -47.5 -1t-49.5 -1q-8 0 -13 1.5t-8 5t-4 5.5t-2 8.5t-1 7.5q-4 18 -4 44q0 24 1 41q0 158 7 221q1 14 5.5 75t8 113t3.5 70q0 79 3 118q2 27 28 27q5 0 14 -1t12 -1q7 0 38 0.5t47 0.5q38 0 49 -20q3 -7 13.5 -29t24.5 -53t24 -52t54 -118
t57 -123q6 -12 23.5 -46t26.5 -52l31 -61l-2 58l-4 98v30q0 55 2 111q0 16 -1 70.5t-1 73.5l4 96q0 15 15 15q5 0 20 -3q8 -2 35 -2q13 0 13 -9q0 -2 -1 -9t-1 -11q0 -5 -1.5 -131.5t-1.5 -156.5q0 -4 -0.5 -13.5t-0.5 -15.5q0 -31 3 -97t3 -83q0 -25 2.5 -97t2.5 -78v-2
q0 -20 -19 -18q-3 1 -12 1q-4 0 -17 -1t-17 0q-9 1 -12 3.5t-11 16.5q-1 2 -36 87t-46 109q-22 42 -111 241q-20 41 -45 87l-29 52z" />
    <glyph glyph-name="nacute" unicode="&#x144;" horiz-adv-x="572" 
d="M291 848q21 7 35 7q16 2 20 2q22 0 17 -28q-7 -22 -49 -34q-48 -15 -85 -33q-25 -9 -32 -9q-10 0 -21 7q-20 7 -20 22q0 2 2 10q1 5 20 13.5t30 11.5q6 3 22.5 8t38.5 15zM343 623q0 62 1 77q0 10 4 16t14.5 8.5t14.5 2.5h18q65 0 110 8q13 1 19.5 -3.5t6.5 -15t-2 -26.5
q-2 -15 -2 -199v-226q0 -157 6 -253l1 3q0 -16 -16 -16q-7 0 -12 1q-4 1 -16 1q-11 0 -38.5 -2t-38.5 -2q-19 0 -28.5 8t-19.5 29q-4 8 -16.5 34.5t-26.5 54t-27 50.5q-13 22 -66 121l-44 83v-38v-22v-26v-22q0 -205 6 -237q1 -5 1 -12t-2.5 -10.5t-6.5 -3.5h-10
q-34 0 -78 -6q-15 -2 -19.5 5t-3.5 31q0 13 -1.5 58.5t-3.5 115t-3 118.5q0 44 2.5 139t2.5 131q0 46 -3 67q-2 18 -2 23q0 19 7 25.5t19 5.5q25 -2 59 6q11 2 22 2q3 0 16 -1t30 -1q12 0 22.5 -5.5t19.5 -16.5t14.5 -20t14 -24.5t11.5 -20.5q12 -22 29 -47l15 -23v55z" />
    <glyph glyph-name="Ncommaaccent" unicode="&#x145;" horiz-adv-x="676" 
d="M263 497q0 -19 1 -51t1.5 -56t0.5 -39q0 -39 2 -136t2 -107q0 -16 2 -53t2 -43v-2q0 -16 -19 -16q-4 0 -28.5 -2t-38.5 -2q-12 0 -47.5 -1t-49.5 -1q-8 0 -13 1.5t-8 5t-4 5.5t-2 8.5t-1 7.5q-4 18 -4 44q0 24 1 41q0 158 7 221q1 14 5.5 75t8 113t3.5 70q0 79 3 118
q2 27 28 27q5 0 14 -1t12 -1q7 0 38 0.5t47 0.5q38 0 49 -20q3 -7 13.5 -29t24.5 -53t24 -52t54 -118t57 -123q6 -12 23.5 -46t26.5 -52l31 -61l-2 58l-4 98v30q0 55 2 111q0 16 -1 70.5t-1 73.5l4 96q0 15 15 15q5 0 20 -3q8 -2 35 -2q13 0 13 -9q0 -2 -1 -9t-1 -11
q0 -5 -1.5 -131.5t-1.5 -156.5q0 -4 -0.5 -13.5t-0.5 -15.5q0 -31 3 -97t3 -83q0 -25 2.5 -97t2.5 -78v-2q0 -20 -19 -18q-3 1 -12 1q-4 0 -17 -1t-17 0q-9 1 -12 3.5t-11 16.5q-1 2 -36 87t-46 109q-22 42 -111 241q-20 41 -45 87l-29 52zM433 -41q10 0 5 -8q-1 -11 -5 -17
q-1 -4 -4.5 -14.5t-5.5 -15.5l-12 -38q-9 -29 -14 -42q-5 -18 -5 -22q-3 -9 -8 -13q-3 -1 -30 -1t-32 1q-6 0 -6 10l31 98l8 32l7 20q1 10 15 10h56z" />
    <glyph glyph-name="ncommaaccent" unicode="&#x146;" horiz-adv-x="597" 
d="M343 623q0 62 1 77q0 10 4 16t14.5 8.5t14.5 2.5h18q65 0 110 8q13 1 19.5 -3.5t6.5 -15t-2 -26.5q-2 -15 -2 -199v-226q0 -157 6 -253l1 3q0 -16 -16 -16q-7 0 -12 1q-4 1 -16 1q-11 0 -38.5 -2t-38.5 -2q-19 0 -28.5 8t-19.5 29q-4 8 -16.5 34.5t-26.5 54t-27 50.5
q-13 22 -66 121l-44 83v-38v-22v-26v-22q0 -205 6 -237q1 -5 1 -12t-2.5 -10.5t-6.5 -3.5h-10q-34 0 -78 -6q-15 -2 -19.5 5t-3.5 31q0 13 -1.5 58.5t-3.5 115t-3 118.5q0 44 2.5 139t2.5 131q0 46 -3 67q-2 18 -2 23q0 19 7 25.5t19 5.5q25 -2 59 6q11 2 22 2q3 0 16 -1
t30 -1q12 0 22.5 -5.5t19.5 -16.5t14.5 -20t14 -24.5t11.5 -20.5q12 -22 29 -47l15 -23v55zM334 -41q10 0 5 -8q-1 -11 -5 -17q-1 -4 -4.5 -14.5t-5.5 -15.5l-12 -38q-9 -29 -14 -42q-5 -18 -5 -22q-3 -9 -8 -13q-3 -1 -30 -1t-32 1q-6 0 -6 10l31 98l8 32l7 20q1 10 15 10
h56z" />
    <glyph glyph-name="Ncaron" unicode="&#x147;" horiz-adv-x="676" 
d="M515 791q-29 -15 -48 -29q-40 -23 -52 -26q-9 -4 -18 -4q-4 -1 -11 -1q-10 0 -38 15q-11 8 -67 43q-37 23 -34 34q4 15 16 15q8 0 27 -7l27 -7q17 -7 35 -18l32 -15q34 15 45 21q21 10 58 21q19 3 38 3q24 0 24 -16q0 -7 -8 -12zM263 497q0 -19 1 -51t1.5 -56t0.5 -39
q0 -39 2 -136t2 -107q0 -16 2 -53t2 -43v-2q0 -16 -19 -16q-4 0 -28.5 -2t-38.5 -2q-12 0 -47.5 -1t-49.5 -1q-8 0 -13 1.5t-8 5t-4 5.5t-2 8.5t-1 7.5q-4 18 -4 44q0 24 1 41q0 158 7 221q1 14 5.5 75t8 113t3.5 70q0 79 3 118q2 27 28 27q5 0 14 -1t12 -1q7 0 38 0.5
t47 0.5q38 0 49 -20q3 -7 13.5 -29t24.5 -53t24 -52t54 -118t57 -123q6 -12 23.5 -46t26.5 -52l31 -61l-2 58l-4 98v30q0 55 2 111q0 16 -1 70.5t-1 73.5l4 96q0 15 15 15q5 0 20 -3q8 -2 35 -2q13 0 13 -9q0 -2 -1 -9t-1 -11q0 -5 -1.5 -131.5t-1.5 -156.5q0 -4 -0.5 -13.5
t-0.5 -15.5q0 -31 3 -97t3 -83q0 -25 2.5 -97t2.5 -78v-2q0 -20 -19 -18q-3 1 -12 1q-4 0 -17 -1t-17 0q-9 1 -12 3.5t-11 16.5q-1 2 -36 87t-46 109q-22 42 -111 241q-20 41 -45 87l-29 52z" />
    <glyph glyph-name="ncaron" unicode="&#x148;" horiz-adv-x="597" 
d="M414 791q-29 -15 -48 -29q-40 -23 -52 -26q-9 -4 -18 -4q-4 -1 -11 -1q-10 0 -38 15q-11 8 -67 43q-37 23 -34 34q4 15 16 15q8 0 27 -7l27 -7q17 -7 35 -18l32 -15q35 15 45 21q21 10 58 21q19 3 38 3q24 0 24 -16q0 -7 -8 -12zM343 593q0 62 1 77q0 10 4 16t14.5 8.5
t14.5 2.5h18q65 0 110 8q21 1 25 -10.5t-1 -34.5q-3 -33 -3 -184q0 -38 0.5 -119.5t0.5 -91.5q0 -157 6 -253l1 3q0 -16 -16 -16q-7 0 -12 1q-4 1 -16 1q-11 0 -38.5 -2t-38.5 -2q-19 0 -28.5 8t-19.5 29q-4 8 -16.5 34.5t-26.5 54t-27 50.5q-13 22 -66 121l-44 83v-38v-22
v-26v-22q0 -205 6 -237q1 -5 1 -12t-2.5 -10.5t-6.5 -3.5h-10q-34 0 -78 -6q-15 -2 -19.5 5t-3.5 31q0 13 -1.5 58.5t-3.5 115t-3 118.5q0 50 3 179q1 24 1 78q0 39 -2 50q-2 18 -2 23q0 19 7 25.5t19 5.5q25 -2 59 6q11 2 22 2q3 0 16 -1t30 -1q12 0 22.5 -5.5t19.5 -16.5
t14.5 -20t14 -24.5t11.5 -20.5q12 -22 29 -47l15 -23v55z" />
    <glyph glyph-name="napostrophe" unicode="&#x149;" horiz-adv-x="676" 
d="M126 840q10 0 5 -8q-1 -11 -5 -17q-1 -4 -4.5 -14.5t-5.5 -15.5l-12 -38q-9 -29 -14 -42q-5 -18 -5 -22q-3 -9 -8 -13q-3 -1 -30 -1t-32 1q-6 0 -6 10l31 98l8 32l7 20q1 10 15 10h56zM423 623q0 62 1 77q0 10 4 16t14.5 8.5t14.5 2.5h18q65 0 110 8q13 1 19.5 -3.5
t6.5 -15t-2 -26.5q-2 -15 -2 -199v-226q0 -157 6 -253l1 3q0 -16 -16 -16q-7 0 -12 1q-4 1 -16 1q-11 0 -38.5 -2t-38.5 -2q-19 0 -28.5 8t-19.5 29q-4 8 -16.5 34.5t-26.5 54t-27 50.5q-13 22 -66 121l-44 83v-38v-70q0 -205 6 -237q1 -5 1 -12t-2.5 -10.5t-6.5 -3.5h-10
q-34 0 -78 -6q-15 -2 -19.5 5t-3.5 31q0 13 -1.5 58.5t-3.5 115t-3 118.5q0 44 2.5 139t2.5 131q0 46 -3 67q-2 18 -2 23q0 19 7 25.5t19 5.5q25 -2 59 6q11 2 22 2q3 0 16 -1t30 -1q12 0 22.5 -5.5t19.5 -16.5t14.5 -20t14 -24.5t11.5 -20.5q11 -22 29 -47l15 -23v55z" />
    </font>
</defs>
</svg>
