<?xml version="1.0" encoding="UTF-8" standalone="no"?>
<!-- Created with Inkscape (http://www.inkscape.org/) -->
<svg
   xmlns:svg="http://www.w3.org/2000/svg"
   xmlns="http://www.w3.org/2000/svg"
   version="1.0"
   width="1115.9464"
   height="490.18243"
   id="svg2434">
  <defs
     id="defs2436" />
  <g
     transform="translate(232.25893,-284.41382)"
     id="layer1">
    <g
       transform="matrix(1.24994,0,0,1.24994,-232.25893,280.59622)"
       id="g5"
       style="fill-rule:nonzero;stroke:#000000;stroke-miterlimit:4">
      <clipPath
         id="aiclp1">
        <path
           d="M 0,0 L 3390.47,0 L 3390.47,395.159 L 0,395.159 L 0,0 z"
           id="path8" />
      </clipPath>
      <g
         id="g10">
        <path
           d="M 86.4,193.619 L 0,193.619 L 0,128.819 L 86.4,128.819 L 86.4,78.419 L 72,78.419 L 72,42.419 L 86.4,42.419 L 86.4,28.019 L 122.4,28.019 L 122.4,42.419 L 338.4,42.419 C 398.068,11.152 468.102,5.081 528.635,4.336 C 595.448,3.478 598.91,4.229 626.165,4.424 C 741.533,5.283 749.485,5.792 765.768,3.223 C 772.332,2.142 779.531,6.483 780.1,9.718 C 781.423,16.89 766.474,25.196 761.858,26.659 C 747.507,31.214 721.815,33.275 651.929,37.307 L 650.265,37.341 C 539.276,47.821 477.012,73.988 460.922,81.476 C 397.281,111.179 390.411,125.007 398.685,133.831 C 407.453,143.189 456.997,122.605 481.292,115.667 C 529.574,101.893 558.027,115.084 576,128.819 L 619.2,128.819 L 619.2,121.619 L 648,121.619 L 648,128.819 L 892.8,128.819 L 892.8,193.619 L 648,193.619 L 648,244.02 L 856.8,244.02 L 856.8,280.02 L 648,280.02 L 648,395.219 L 619.2,395.219 L 619.2,280.02 L 604.8,280.02 L 604.8,244.02 L 619.2,244.02 L 619.2,193.619 L 604.8,193.619 C 604.551,219.088 597.091,242.438 589.952,252.057 C 523.32,341.562 221.084,353.077 127.459,354.605 C 103.834,355.01 86.923,351.047 86.4,344.818 M 253.773,127.251 C 257.812,110.263 269.098,92.953 282.619,78.547 L 124.419,79.178 L 123.845,129.016 L 252.962,129.54 L 253.572,130.573 M 751.955,11.815 C 750.31,10.996 666.288,15.679 661.564,15.25 C 656.841,14.82 606.225,15.545 578.474,14.82 C 545.624,13.961 511.15,14.854 479.065,17.826 C 446.645,20.832 413.151,30.923 385.455,42.517 C 359.107,53.548 332.851,67.422 312.24,83.74 C 301.685,92.094 293.661,101.373 286.476,112.726 C 278.317,125.607 274.384,140.322 279.819,152.661 C 285.678,165.945 298.781,171.829 315.031,174.346 C 329.785,176.64 347.881,175.419 359.475,177.781 C 366.359,179.183 377.658,181.035 378.369,187.658 C 379.013,193.669 368.163,203.721 363.125,206.121 C 353.678,210.631 341.01,206.766 328.772,204.189 C 320.337,202.418 307.819,198.311 300.001,194.741 C 294.722,192.327 289.074,190.421 288,190.421 C 287.572,190.421 122.187,189.993 122.4,190.421 C 122.4,193.212 122.187,327.981 122.4,334.421 C 122.635,341.533 147.178,339.426 162.376,337.95 C 191.737,335.077 222.278,331.508 251.908,327.215 C 268.85,324.759 286.805,321.578 303.866,318.196 C 330.919,312.83 363.267,305.314 376.718,301.019 C 410.36,290.285 445.142,280.838 476.918,267.097 C 491.204,260.924 508.265,253.141 519.86,245.196 C 532.218,236.728 545.409,225.014 550.992,212.991 C 557.191,199.639 559.089,183.563 552.709,168.976 C 546.698,155.235 530.165,142.998 515.78,140.635 C 507.593,139.293 501.18,138.488 493.236,139.132 C 484.098,139.87 468.545,143.211 458.239,144.5 C 441.297,146.62 421.39,149.633 404.777,147.077 C 393.613,145.358 376.007,130.974 382.233,114.227 C 386.796,101.948 404.475,89.347 415.083,82.451 C 440.848,65.703 487.197,51.083 526.945,41.656 C 560.438,33.713 607.458,27.271 647.179,26.842 C 651.009,26.802 686.892,24.393 690.549,24.265 C 750.881,22.118 752.813,12.242 751.955,11.813"
           id="path12"
           style="fill:#b11107;stroke:none" />
      </g>
    </g>
  </g>
</svg>
