<svg width="150.12mm" height="46.192mm" version="1.1" viewBox="0 0 150.12 46.192" xmlns="http://www.w3.org/2000/svg">
	<g transform="translate(-.025321)" fill="#004358">
		<g>
			<path d="m88.939 9.2943e-8c-4.4386 0-8.0948 1.3602-10.968 4.0799-2.8736 2.694-4.3103 5.9135-4.3103 9.6594 0 2.1552 0.48749 4.1308 1.4624 5.9268 0.97496 1.796 2.3992 3.4382 4.2721 4.9263 1.8986 1.4881 5.0799 3.4894 9.5441 6.0038 1.6753 0.93394 3.0256 1.7064 4.2132 2.3983h13.097c-0.89507-1.4376-2.0564-2.7136-3.4938-3.8225-1.7703-1.4111-5.0931-3.425-9.9679-6.042-5.978-3.2071-9.7621-5.773-11.353-7.6972-1.1032-1.3085-1.6552-2.7579-1.6552-4.3486 0-2.0782 0.87224-3.9254 2.6169-5.5418 1.7447-1.642 3.9514-2.4634 6.6198-2.4634 2.3604 0 4.6437 0.60333 6.8502 1.8092 2.2065 1.2059 3.9001 2.835 5.0803 4.8876 1.2059 2.0525 2.0393 4.8103 2.5011 8.2739h1.4242v-18.05h-1.4242c-0.25657 1.2059-0.60305 2.0142-1.0392 2.4247-0.4105 0.38485-0.94884 0.57723-1.6159 0.57723-0.5901 0-1.6039-0.32028-3.0406-0.9617-3.1045-1.3598-6.042-2.0402-8.8129-2.0402z" stroke-width="1.9704"/>
			<path d="m132.81 9.2943e-8c-4.4386 0-8.0948 1.3602-10.968 4.0799-2.8736 2.694-4.3103 5.9135-4.3103 9.6594 0 2.1552 0.48748 4.1308 1.4624 5.9268 0.97495 1.796 2.3992 3.4382 4.2721 4.9263 1.8986 1.4881 5.0798 3.4894 9.5441 6.0038 1.6753 0.93394 3.0256 1.7064 4.2132 2.3983h13.097c-0.89507-1.4376-2.0564-2.7136-3.4938-3.8225-1.7703-1.4111-5.0926-3.425-9.9674-6.042-5.978-3.2071-9.7626-5.773-11.353-7.6972-1.1032-1.3085-1.6547-2.7579-1.6547-4.3486 0-2.0782 0.87225-3.9254 2.6169-5.5418 1.7447-1.642 3.9509-2.4634 6.6192-2.4634 2.3604 0 4.6438 0.60333 6.8502 1.8092 2.2065 1.2059 3.9001 2.835 5.0803 4.8876 1.2059 2.0525 2.0398 4.8103 2.5017 8.2739h1.4237v-18.05h-1.4237c-0.25657 1.2059-0.60305 2.0142-1.0392 2.4247-0.41051 0.38485-0.94937 0.57723-1.6164 0.57723-0.59011 0-1.6034-0.32028-3.0401-0.9617-3.1045-1.3598-6.0425-2.0402-8.8134-2.0402z" stroke-width="1.9704"/>
			<path transform="scale(.26458)" d="m0.095703 0.048828v5.375c8.0361 0 13.845 0.96789 17.428 2.9043 3.6792 1.8396 6.1953 4.1629 7.5508 6.9707 1.9364 3.8728 2.9062 10.165 2.9062 18.879v90.525h12.779v-93.43l42.908 93.43h29.998l-57.803-124.65zm197.51 0-56.865 124.65h14.039l42.826-93.43v93.43h27.883v-90.525c0-11.038 1.0653-18.105 3.1953-21.203 3.4855-5.0347 9.4399-7.5508 17.863-7.5508h6.8262v-5.375z" stroke-width="3.7795"/>
		</g>
		<g stroke-width=".26722" aria-label="MORAU SOFTWARE SERVICE">
			<path d="m7.2745 39.11h1.19l2.6931 5.3079h0.05741l2.6409-5.3079h1.1691v6.9206h-1.1691v-5.6732h-0.036534l-2.8392 5.6732h-0.24008l-2.8705-5.6262h-0.078287v5.6262h-0.51669z"/>
			<path d="m20.401 46.192q-0.80375 0-1.5031-0.28705-0.69415-0.28705-1.2108-0.78287-0.51148-0.50104-0.80897-1.1639-0.29227-0.66805-0.29227-1.4248 0-0.49582 0.13048-0.9551 0.1357-0.45928 0.381-0.85594 0.2453-0.39665 0.58976-0.72024 0.34968-0.32881 0.77243-0.55845 0.42275-0.23486 0.91335-0.36012 0.4906-0.13048 1.0282-0.13048 0.53757 0 1.0282 0.13048 0.4906 0.12526 0.91335 0.36012 0.42797 0.22964 0.77243 0.55845 0.34446 0.32359 0.58976 0.72024 0.25052 0.39666 0.381 0.85594 0.1357 0.45928 0.1357 0.9551 0 0.50104-0.1357 0.97076-0.13048 0.4645-0.381 0.8716-0.2453 0.40709-0.58976 0.74112-0.34446 0.33402-0.77243 0.5741-0.42275 0.24008-0.91335 0.37056-0.4906 0.13048-1.0282 0.13048zm0-0.34446q0.59498 0 1.049-0.2453 0.45928-0.25052 0.77243-0.69415 0.31315-0.44363 0.46972-1.049 0.16179-0.60542 0.16179-1.3257 0-0.71502-0.16179-1.31-0.15657-0.59498-0.46972-1.023-0.31315-0.43319-0.77243-0.66805-0.45406-0.24008-1.049-0.24008-0.60542 0-1.0647 0.24008-0.45406 0.23486-0.76721 0.66805-0.30793 0.42797-0.4645 1.023t-0.15657 1.31q0 0.72024 0.15657 1.3257t0.4645 1.049q0.31315 0.44363 0.76721 0.69415 0.45928 0.2453 1.0647 0.2453z"/>
			<path d="m25.792 39.11h2.4008q0.62108 0 1.0908 0.1357 0.46972 0.13048 0.78287 0.37056 0.31315 0.24008 0.46972 0.5741 0.16179 0.32881 0.16179 0.72024 0 0.32359-0.12526 0.60542-0.12004 0.28183-0.34446 0.51148-0.2192 0.22442-0.53235 0.39144-0.31315 0.16179-0.68893 0.25574l2.5208 3.3559h-1.3518l-2.406-3.2515h-0.81419v3.2515h-1.1639zm1.1639 3.3194h0.67327q0.39144 0 0.72024-0.10438 0.33402-0.10438 0.5741-0.29227 0.2453-0.19311 0.381-0.4645 0.1357-0.2714 0.1357-0.61064 0-0.31315-0.1096-0.57411-0.10438-0.26096-0.30271-0.44363-0.19311-0.18789-0.4645-0.29227-0.26618-0.10438-0.58454-0.10438h-1.023z"/>
			<path d="m35.181 38.953 3.2567 7.0772h-1.1847l-1.0543-2.3069h-2.9697l-1.0908 2.3069h-0.58454l3.335-7.0772zm-1.7484 4.3214h2.5522l-1.2578-2.74z"/>
			<path d="m39.299 39.11h1.1639v4.4937q0 0.44363 0.15136 0.83506 0.15136 0.38622 0.43319 0.67849 0.28183 0.29227 0.67849 0.4645 0.40187 0.16701 0.89247 0.16701 0.49582 0 0.89247-0.16701 0.39666-0.17223 0.67327-0.4645 0.28183-0.29227 0.42797-0.67849 0.15136-0.39144 0.15136-0.83506v-4.4937h0.51148v4.4937q0 0.53235-0.17223 1.0021t-0.54279 0.82462q-0.36534 0.34968-0.93945 0.55845-0.5741 0.20355-1.3779 0.20355-0.71502 0-1.2683-0.20355-0.54801-0.20876-0.92379-0.56367-0.37056-0.3549-0.56367-0.82984-0.18789-0.48016-0.18789-1.023z"/>
			<path d="m51.507 45.754q0.25574 0 0.50626-0.06785 0.25052-0.07307 0.44885-0.20877 0.19833-0.14092 0.31837-0.33924 0.12004-0.20355 0.12004-0.46972 0-0.31837-0.16701-0.56367-0.16179-0.25052-0.42797-0.45406-0.26618-0.20876-0.61064-0.39144-0.33924-0.18267-0.69415-0.36534t-0.69936-0.381q-0.33924-0.20355-0.60542-0.44885-0.26618-0.25052-0.43319-0.55323-0.16179-0.30793-0.16179-0.70458 0-0.39666 0.14614-0.7359 0.15136-0.33924 0.43841-0.58454 0.28705-0.25052 0.70458-0.39144 0.42275-0.14092 0.96554-0.14092 0.4906 0 0.87682 0.10438 0.38622 0.10438 0.67849 0.30793 0.29227 0.20355 0.49582 0.50104 0.20355 0.29749 0.32881 0.68893l-0.59498 0.2714q-0.10438-0.31837-0.26618-0.57932-0.16179-0.26618-0.38622-0.45407t-0.52191-0.28705q-0.29227-0.10438-0.66283-0.10438-0.32881 0-0.5741 0.09394-0.2453 0.08873-0.41231 0.24008-0.16179 0.14614-0.2453 0.33402-0.07829 0.18267-0.07829 0.37578 0 0.2714 0.16701 0.50104 0.16701 0.22442 0.44363 0.42797 0.27662 0.19833 0.6263 0.38622 0.3549 0.18789 0.72024 0.381 0.36534 0.19311 0.71502 0.40187 0.3549 0.20877 0.63152 0.45928 0.27661 0.2453 0.44363 0.54279 0.16701 0.29227 0.16701 0.65761 0 0.41231-0.15657 0.77765-0.15657 0.36012-0.46972 0.63152-0.31315 0.26618-0.77765 0.42275-0.4645 0.15658-1.0804 0.15658-0.50104 0-0.89247-0.1096-0.39143-0.1096-0.69414-0.31836-0.29749-0.20876-0.51148-0.50626-0.21398-0.30271-0.34968-0.68893l0.62108-0.25574q0.1096 0.33924 0.29227 0.60542 0.18789 0.26618 0.43319 0.45407 0.2453 0.18267 0.54279 0.28183 0.30271 0.09916 0.64196 0.09916z"/>
			<path d="m59.022 46.192q-0.80375 0-1.5031-0.28705-0.69414-0.28705-1.2108-0.78287-0.51148-0.50104-0.80897-1.1639-0.29227-0.66805-0.29227-1.4248 0-0.49582 0.13048-0.9551 0.1357-0.45928 0.381-0.85594 0.2453-0.39665 0.58976-0.72024 0.34968-0.32881 0.77243-0.55845 0.42275-0.23486 0.91335-0.36012 0.4906-0.13048 1.0282-0.13048 0.53757 0 1.0282 0.13048 0.4906 0.12526 0.91335 0.36012 0.42797 0.22964 0.77243 0.55845 0.34446 0.32359 0.58976 0.72024 0.25052 0.39666 0.381 0.85594 0.1357 0.45928 0.1357 0.9551 0 0.50104-0.1357 0.97076-0.13048 0.4645-0.381 0.8716-0.2453 0.40709-0.58976 0.74112t-0.77243 0.5741q-0.42275 0.24008-0.91335 0.37056-0.4906 0.13048-1.0282 0.13048zm0-0.34446q0.59498 0 1.049-0.2453 0.45928-0.25052 0.77243-0.69415 0.31315-0.44363 0.46972-1.049 0.16179-0.60542 0.16179-1.3257 0-0.71502-0.16179-1.31-0.15657-0.59498-0.46972-1.023-0.31315-0.43319-0.77243-0.66805-0.45406-0.24008-1.049-0.24008-0.60542 0-1.0647 0.24008-0.45406 0.23486-0.76721 0.66805-0.30793 0.42797-0.4645 1.023t-0.15657 1.31q0 0.72024 0.15657 1.3257t0.4645 1.049q0.31315 0.44363 0.76721 0.69415 0.45928 0.2453 1.0647 0.2453z"/>
			<path d="m68.881 39.11v0.44885h-3.3768v2.4739h2.4426v0.44885h-2.4426v3.549h-1.1639v-6.9206z"/>
			<path d="m75.316 39.11v0.44885h-2.5052v6.4717h-1.1639v-6.4717h-2.5052v-0.44885z"/>
			<path d="m76.689 39.11 2.0668 5.2609 1.8163-4.7494 1.8737 4.7703 2.0198-5.2818h0.56367l-2.6618 6.978h-0.34446l-1.7119-4.3162-1.6388 4.3162h-0.39666l-2.7505-6.978z"/>
			<path d="m88.688 38.953 3.2567 7.0772h-1.1847l-1.0543-2.3069h-2.9697l-1.0908 2.3069h-0.58454l3.335-7.0772zm-1.7484 4.3214h2.5522l-1.2578-2.74z"/>
			<path d="m92.91 39.11h2.4008q0.62108 0 1.0908 0.1357 0.46972 0.13048 0.78287 0.37056 0.31315 0.24008 0.46972 0.5741 0.16179 0.32881 0.16179 0.72024 0 0.32359-0.12526 0.60542-0.12004 0.28183-0.34446 0.51148-0.2192 0.22442-0.53235 0.39144-0.31315 0.16179-0.68893 0.25574l2.5208 3.3559h-1.3518l-2.406-3.2515h-0.81419v3.2515h-1.1639zm1.1639 3.3194h0.67327q0.39144 0 0.72024-0.10438 0.33402-0.10438 0.57411-0.29227 0.2453-0.19311 0.381-0.4645 0.1357-0.2714 0.1357-0.61064 0-0.31315-0.1096-0.57411-0.10438-0.26096-0.30271-0.44363-0.19311-0.18789-0.4645-0.29227-0.26618-0.10438-0.58454-0.10438h-1.023z"/>
			<path d="m104.4 39.11v0.44885h-3.6482v2.4739h2.4426v0.44885h-2.4426v3.1002h3.6482v0.44885h-4.8121v-6.9206z"/>
			<path d="m110.23 45.754q0.25574 0 0.50626-0.06785 0.25052-0.07307 0.44885-0.20877 0.19832-0.14092 0.31836-0.33924 0.12004-0.20355 0.12004-0.46972 0-0.31837-0.16701-0.56367-0.16179-0.25052-0.42797-0.45406-0.26617-0.20876-0.61064-0.39144-0.33924-0.18267-0.69414-0.36534t-0.69937-0.381q-0.33924-0.20355-0.60542-0.44885-0.26617-0.25052-0.43319-0.55323-0.16179-0.30793-0.16179-0.70458 0-0.39666 0.14614-0.7359 0.15135-0.33924 0.4384-0.58454 0.28706-0.25052 0.70459-0.39144 0.42275-0.14092 0.96554-0.14092 0.4906 0 0.87681 0.10438 0.38622 0.10438 0.67849 0.30793 0.29227 0.20355 0.49582 0.50104t0.32881 0.68893l-0.59499 0.2714q-0.10438-0.31837-0.26617-0.57932-0.16179-0.26618-0.38622-0.45407-0.22442-0.18789-0.52191-0.28705-0.29227-0.10438-0.66283-0.10438-0.32881 0-0.57411 0.09394-0.2453 0.08873-0.41231 0.24008-0.16179 0.14614-0.2453 0.33402-0.0783 0.18267-0.0783 0.37578 0 0.2714 0.16702 0.50104 0.16701 0.22442 0.44362 0.42797 0.27662 0.19833 0.6263 0.38622 0.3549 0.18789 0.72024 0.381 0.36534 0.19311 0.71502 0.40187 0.3549 0.20877 0.63152 0.45928 0.27661 0.2453 0.44363 0.54279 0.16701 0.29227 0.16701 0.65761 0 0.41231-0.15658 0.77765-0.15657 0.36012-0.46972 0.63152-0.31315 0.26618-0.77765 0.42275-0.4645 0.15658-1.0804 0.15658-0.50104 0-0.89248-0.1096-0.39143-0.1096-0.69414-0.31837-0.29749-0.20876-0.51148-0.50626-0.21398-0.30271-0.34968-0.68893l0.62108-0.25574q0.1096 0.33924 0.29227 0.60542 0.18789 0.26618 0.43319 0.45407 0.2453 0.18267 0.54279 0.28183 0.30271 0.09916 0.64195 0.09916z"/>
			<path d="m119.06 39.11v0.44885h-3.6482v2.4739h2.4426v0.44885h-2.4426v3.1002h3.6482v0.44885h-4.812v-6.9206z"/>
			<path d="m120.43 39.11h2.4008q0.62108 0 1.0908 0.1357 0.46973 0.13048 0.78287 0.37056 0.31315 0.24008 0.46973 0.5741 0.16179 0.32881 0.16179 0.72024 0 0.32359-0.12526 0.60542-0.12004 0.28183-0.34446 0.51148-0.21921 0.22442-0.53236 0.39144-0.31314 0.16179-0.68892 0.25574l2.5208 3.3559h-1.3518l-2.406-3.2515h-0.81418v3.2515h-1.1639zm1.1639 3.3194h0.67327q0.39143 0 0.72024-0.10438 0.33402-0.10438 0.5741-0.29227 0.2453-0.19311 0.381-0.4645t0.1357-0.61064q0-0.31315-0.1096-0.57411-0.10439-0.26096-0.30272-0.44363-0.1931-0.18789-0.4645-0.29227-0.26617-0.10438-0.58454-0.10438h-1.023z"/>
			<path d="m127.41 39.11 2.6148 5.5062 2.4269-5.5062h0.55323l-3.1419 7.0824h-0.30271l-3.3768-7.0824z"/>
			<path d="m133.97 39.11h1.1639v6.9206h-1.1639z"/>
			<path d="m138.12 42.596q0 0.72546 0.2192 1.3048 0.21921 0.5741 0.6002 0.97598 0.38622 0.39666 0.90813 0.61064 0.52192 0.20876 1.1326 0.20876 0.36534 0 0.70458-0.14092 0.33925-0.14092 0.6263-0.36534 0.29227-0.22964 0.52191-0.51148 0.22965-0.28705 0.37578-0.57932l0.4906 0.31315q-0.21398 0.34968-0.50626 0.67327-0.29227 0.31837-0.67848 0.56889-0.381 0.2453-0.86638 0.39144-0.48016 0.14614-1.0751 0.14614-0.86116 0-1.5658-0.28705-0.69936-0.28705-1.2004-0.77765t-0.77765-1.143q-0.2714-0.65761-0.2714-1.3883 0-0.48538 0.12526-0.94466 0.12526-0.4645 0.36012-0.86638 0.24008-0.40709 0.57933-0.74112 0.34446-0.33924 0.77243-0.57932 0.43319-0.2453 0.94467-0.37578 0.51147-0.1357 1.0908-0.1357 0.55322 0 1.0177 0.15136 0.46972 0.14614 0.85072 0.39144 0.38621 0.2453 0.68371 0.56889 0.30271 0.31837 0.51669 0.66805l-0.50626 0.33402q-0.43318-0.84028-0.97076-1.2265-0.53757-0.39144-1.2369-0.39144-0.6002 0-1.1221 0.2192-0.52191 0.2192-0.91335 0.6263-0.38621 0.40709-0.61064 0.99164-0.2192 0.57932-0.2192 1.31z"/>
			<path d="m150.14 39.11v0.44885h-3.6482v2.4739h2.4426v0.44885h-2.4426v3.1002h3.6482v0.44885h-4.812v-6.9206z"/>
		</g>
	</g>
</svg>
