<svg width="36" height="48" viewBox="0 0 36 48" fill="none" xmlns="http://www.w3.org/2000/svg">
<path d="M11.1065 14H24.8926C25.2881 14 25.6465 14.2334 25.8066 14.5947C25.9668 14.9571 25.8994 15.3789 25.6328 15.6719L18.6709 22.0957C18.4805 22.2685 18.2402 22.3545 18 22.3545C17.7598 22.3545 17.5195 22.2686 17.3291 22.0957L10.3662 15.6719C10.0996 15.3789 10.0323 14.9571 10.1924 14.5947C10.3525 14.2334 10.7109 14 11.1065 14Z" fill="url(#paint0_linear)"/>
<path fill-rule="evenodd" clip-rule="evenodd" d="M35.2651 4.29187C34.645 5.16052 34 6.10002 34 7.16728V9.65531C34 13.6181 32.3106 17.4112 29.3652 20.0616L27.4669 21.7701C26.1427 22.9618 26.1427 25.0381 27.4669 26.2299L29.3653 27.9384C32.3107 30.5888 34.0001 34.3818 34.0001 38.3447V40.8327C34.0001 41.8999 34.645 42.8394 35.2651 43.708C35.727 44.355 36.0001 45.144 36.0001 45.9999V47C36.0001 47.5527 35.5528 48 35.0001 48H1.00003C0.447281 48 0 47.5527 0 47.0001V46C0 45.1441 0.273097 44.355 0.735023 43.708C1.35509 42.8394 1.99997 41.8999 1.99997 40.8327V38.3447C1.99997 34.3818 3.68944 30.5888 6.63478 27.9384L8.53316 26.2299C9.85728 25.0381 9.85728 22.9619 8.53316 21.7701L6.63478 20.0616C3.68944 17.4112 1.99997 13.6182 1.99997 9.65531V7.16726C1.99997 6.10006 1.35509 5.16061 0.73502 4.29203C0.273095 3.64498 0 2.85597 0 2.00006V1.00003C0 0.447281 0.447281 0 1.00003 0H35C35.5527 0 36 0.447281 36 1.00003V1.99997C36 2.85587 35.7269 3.64485 35.2651 4.29187ZM20.6621 22.5137L26.6895 17.0888C28.793 15.1953 30 12.4853 30 9.65531V9C30 7.34315 28.6569 6 27 6H9C7.34315 6 6 7.34315 6 9V9.65531C6 12.4853 7.20703 15.1953 9.31059 17.0888L15.338 22.5136C15.7598 22.8924 16.0001 23.4325 16.0001 23.9999C16.0001 24.5673 15.7598 25.1073 15.338 25.4862L9.31059 30.9111C7.20703 32.8046 6 35.5146 6 38.3447V40.333C6 41.2537 6.74634 42 7.667 42C8.1917 42 8.68578 41.753 9.0006 41.3332L17.2001 30.4004C17.5771 29.8965 18.4228 29.8965 18.7998 30.4004L26.9994 41.3332C27.3142 41.753 27.8083 42 28.333 42C29.2537 42 30 41.2537 30 40.333V38.3447C30 35.5147 28.793 32.8047 26.6895 30.9112L20.6621 25.4863C20.2402 25.1075 20 24.5674 20 24C20 23.4326 20.2402 22.8926 20.6621 22.5137Z" fill="url(#paint1_linear)"/>
<defs>
<linearGradient id="paint0_linear" x1="18" y1="7.15256e-07" x2="18" y2="48" gradientUnits="userSpaceOnUse">
<stop stop-color="#016CDC"/>
<stop offset="1" stop-color="#009CF0"/>
</linearGradient>
<linearGradient id="paint1_linear" x1="18" y1="7.15256e-07" x2="18" y2="48" gradientUnits="userSpaceOnUse">
<stop stop-color="#016CDC"/>
<stop offset="1" stop-color="#009CF0"/>
</linearGradient>
</defs>
</svg>
