<svg width="48" height="46" viewBox="0 0 48 46" fill="none" xmlns="http://www.w3.org/2000/svg">
<path d="M15.8103 29.7639C15.8103 25.2596 21.6513 24.5391 21.6513 22.0577C21.6513 20.9674 20.8075 20.3155 19.7517 20.3155C18.2918 20.3155 17.4995 21.7941 17.4995 21.7941L15.8104 20.668C15.8104 20.668 16.9536 18.1694 19.9451 18.1694C22.1442 18.1694 24.0095 19.5061 24.0095 21.8643C24.0095 25.8758 18.415 26.562 18.3619 28.9201H24.2029V30.8728H15.9164C15.8633 30.4689 15.8103 30.1164 15.8103 29.7639ZM25.4752 26.2626L30.8592 18.38H33.5511V25.7697H35.1701V27.6537H33.5511V30.873H31.3162V27.6537H25.4752V26.2626ZM31.3161 25.7697V21.9002C31.3161 21.2842 31.4049 20.5979 31.4049 20.5979H31.3691C31.3691 20.5979 31.0883 21.2655 30.7531 21.7411L27.8676 25.7354V25.7697H31.3161V25.7697ZM42.3354 25.1075L41.9007 26.6648C39.4295 35.5167 30.4125 41.1024 21.4928 38.8886C12.9254 36.7623 7.60084 28.4606 8.88115 20.0028L11.4626 20.7235C12.061 20.8905 12.6159 20.3472 12.4613 19.7454L9.65394 8.81359C9.49943 8.21187 8.75151 8.00309 8.30758 8.43775L0.242885 16.3344C-0.201036 16.769 -0.00793849 17.5214 0.590571 17.6884L3.40045 18.4728C1.30351 29.9137 8.36162 41.3083 19.8794 44.3076C31.8393 47.4221 44.0381 40.0191 47.3613 28.1155L47.7769 26.6267C47.8967 26.1973 47.6459 25.7523 47.2166 25.6323L43.3298 24.5472C42.9004 24.4273 42.4552 24.6783 42.3354 25.1075ZM46.9283 18.2958L42.8522 18.8254C42.4101 18.8828 42.0985 19.2876 42.1558 19.7297L42.3164 20.9659C42.3738 21.4079 42.7788 21.7197 43.2207 21.6622L47.2968 21.1326C47.7388 21.0752 48.0505 20.6704 47.9932 20.2283L47.8325 18.9921C47.7752 18.5501 47.3703 18.2384 46.9283 18.2958ZM43.7904 10.5935L40.2096 12.6115C39.8213 12.8303 39.6839 13.3225 39.9027 13.7108L40.5147 14.7969C40.7335 15.1852 41.2257 15.3226 41.6141 15.1038L45.1948 13.0858C45.5832 12.867 45.7206 12.3748 45.5018 11.9865L44.8897 10.9004C44.6709 10.5121 44.1787 10.3747 43.7904 10.5935ZM37.9958 4.62756L35.4316 7.83995C35.1534 8.18826 35.2105 8.69618 35.5589 8.97414L36.5332 9.75187C36.8815 10.03 37.3894 9.97297 37.6674 9.62458L40.2316 6.41218C40.5098 6.06379 40.4527 5.55595 40.1043 5.27791L39.13 4.50019C38.7817 4.22223 38.2738 4.27917 37.9958 4.62756ZM30.3882 1.2667L29.2141 5.20575C29.0867 5.63289 29.3298 6.08246 29.7569 6.20975L30.9516 6.56583C31.3787 6.6932 31.8283 6.45007 31.9556 6.02301L33.1298 2.08395C33.2571 1.65682 33.014 1.20733 32.5869 1.07995L31.3922 0.723875C30.9651 0.596502 30.5155 0.839561 30.3882 1.2667ZM22.0756 1.00042L22.4625 5.0925C22.5044 5.53626 22.8982 5.86199 23.3419 5.82003L24.583 5.70262C25.0268 5.66066 25.3525 5.26693 25.3106 4.82317L24.9236 0.731091C24.8816 0.287326 24.4878 -0.0383208 24.0441 0.00364001L22.803 0.120973C22.3593 0.162934 22.0336 0.556659 22.0756 1.00042ZM14.2685 3.86756L16.1602 7.51665C16.3653 7.91234 16.8524 8.06685 17.2482 7.86167L18.355 7.28803C18.7506 7.08285 18.9051 6.59579 18.7 6.20003L16.8083 2.55093C16.6032 2.15525 16.1161 2.00074 15.7203 2.20591L14.6135 2.77964C14.2179 2.98466 14.0634 3.47179 14.2685 3.86756Z" fill="url(#paint0_linear)"/>
<defs>
<linearGradient id="paint0_linear" x1="24" y1="6.70853e-07" x2="24" y2="45.0202" gradientUnits="userSpaceOnUse">
<stop stop-color="#016CDC"/>
<stop offset="1" stop-color="#009CF0"/>
</linearGradient>
</defs>
</svg>
