<svg width="48" height="48" viewBox="0 0 48 48" fill="none" xmlns="http://www.w3.org/2000/svg">
<path fill-rule="evenodd" clip-rule="evenodd" d="M1.82072 17.1883C2.6271 17.2819 3.28437 17.8568 3.59859 18.6053C3.91672 19.3631 3.86252 20.2459 3.35188 20.8899L2.93501 21.4157C2.52307 21.9358 2.56941 22.6773 3.03285 23.1458L5.20582 25.3188C5.6744 25.7874 6.41589 25.8285 6.93596 25.4166L7.40656 25.0441C8.07686 24.5135 8.99703 24.4627 9.7847 24.7949C10.5615 25.1226 11.1601 25.8026 11.2576 26.6399L11.3334 27.2909C11.4106 27.95 11.9668 28.4444 12.6259 28.4444H15.7C16.3591 28.4444 16.9152 27.95 16.9924 27.2909L17.0456 26.83C17.1501 25.9253 17.8088 25.196 18.6527 24.8534C19.4821 24.5166 20.4425 24.5744 21.1445 25.1299L21.5134 25.4218C22.0335 25.8337 22.775 25.7873 23.2436 25.3239L25.4166 23.1509C25.8851 22.6824 25.9263 21.9409 25.5144 21.4208L25.2398 21.0725C24.6874 20.3718 24.6373 19.4121 24.9827 18.5895C25.3281 17.7667 26.0447 17.1263 26.9312 17.0242L27.296 16.9822C27.9552 16.9049 28.4495 16.3488 28.4495 15.6897V12.6156C28.4495 11.9565 27.9551 11.4004 27.296 11.3232L26.9468 11.2824C26.0674 11.1796 25.3577 10.5384 25.0226 9.71879C24.6927 8.91184 24.7501 7.97788 25.2911 7.29421L25.5093 7.0184C25.9212 6.49833 25.8749 5.75684 25.4115 5.28826L23.2436 3.12043C22.775 2.65185 22.0336 2.61066 21.5135 3.0226L21.3598 3.14437C20.63 3.72275 19.6279 3.77327 18.7687 3.41411C17.9168 3.058 17.2518 2.31787 17.1449 1.40072L17.116 1.15343C17.0388 0.494327 16.4827 0 15.8236 0H12.7495C12.0904 0 11.5343 0.494327 11.457 1.15343L11.4325 1.36416C11.323 2.3031 10.6419 3.05981 9.7708 3.42702C8.88806 3.79914 7.85562 3.7516 7.10492 3.15649L6.93602 3.0226C6.41594 2.61066 5.67445 2.657 5.20587 3.12043L3.0329 5.29341C2.56432 5.76199 2.52312 6.50348 2.93506 7.02355L3.23048 7.39733C3.76887 8.0785 3.82684 9.0101 3.50583 9.81682C3.17401 10.6507 2.45755 11.3031 1.56583 11.4048L1.15343 11.4519C0.494327 11.5291 0 12.0852 0 12.7443V15.8184C0 16.4775 0.494327 17.0337 1.15343 17.1109L1.82072 17.1883ZM14.2891 9.02666C17.0902 9.02666 19.3714 11.3078 19.3714 14.1089C19.3714 16.9101 17.0902 19.1912 14.2891 19.1912C11.4879 19.1912 9.20677 16.9101 9.20677 14.1089C9.20677 11.3078 11.4879 9.02666 14.2891 9.02666Z" fill="url(#paint0_linear)"/>
<path fill-rule="evenodd" clip-rule="evenodd" d="M44.6798 18.0996L43.0578 16.7299C42.5583 16.3077 41.822 16.3283 41.3483 16.7762C40.8084 17.282 40.0174 17.3873 39.3141 17.1578C39.3017 17.1537 39.2891 17.1497 39.2766 17.1457C38.5571 16.9143 37.962 16.3479 37.8109 15.6074C37.6821 14.9689 37.09 14.526 36.4411 14.5775L34.3247 14.7577C33.6759 14.8144 33.1661 15.3448 33.1455 15.9987C33.1207 16.7573 32.627 17.4086 31.9537 17.7589C31.9409 17.7656 31.9281 17.7723 31.9153 17.779C31.2309 18.1392 30.3967 18.1719 29.7523 17.7443C29.2063 17.3839 28.4803 17.4868 28.0582 17.9863L26.6885 19.6186C26.2662 20.1181 26.2868 20.8544 26.7347 21.3282L26.8662 21.4683C27.3545 21.9888 27.4687 22.7474 27.2611 23.4303C27.0478 24.1319 26.5083 24.7099 25.7897 24.8563L25.6431 24.8862C25.0046 25.015 24.5618 25.6071 24.6133 26.256L24.7935 28.3723C24.8501 29.0211 25.3805 29.5309 26.0345 29.5515L26.3796 29.5625C27.0469 29.5839 27.6239 30.0097 27.9338 30.6011C28.2458 31.1965 28.2635 31.9207 27.8923 32.4811L27.6977 32.7749C27.3373 33.3207 27.4403 34.0467 27.9397 34.469L29.5617 35.8386C30.0612 36.2609 30.7975 36.2403 31.2713 35.7923L31.4905 35.5869C31.9988 35.1107 32.7422 35.0064 33.4043 35.2229C34.0619 35.4378 34.5996 35.952 34.7367 36.6301L34.8037 36.9612C34.9324 37.5997 35.5245 38.0425 36.1733 37.991L38.2897 37.8108C38.9385 37.7542 39.4483 37.2238 39.4689 36.5698L39.4749 36.3836C39.4992 35.6389 39.9871 34.9992 40.6515 34.6618C41.3053 34.3298 42.0927 34.3106 42.7045 34.7149L42.8622 34.8191C43.408 35.1795 44.134 35.0766 44.5563 34.5771L45.926 32.9551C46.3482 32.4556 46.3276 31.7193 45.8797 31.2455L45.771 31.1303C45.2681 30.5973 45.1595 29.8142 45.3849 29.117C45.6088 28.4242 46.1464 27.8546 46.8598 27.7091L46.9661 27.6874C47.6046 27.5587 48.0474 26.9665 47.9959 26.3177L47.8157 24.2013C47.7591 23.5525 47.2287 23.0428 46.5747 23.0222L46.4827 23.0192C45.7585 22.9961 45.1363 22.5239 44.808 21.8781C44.4834 21.2397 44.4653 20.4697 44.8619 19.8733L44.9115 19.7987C45.2823 19.253 45.1793 18.5218 44.6798 18.0996ZM36.7037 30.3341C34.4175 30.5298 32.3989 28.8254 32.2084 26.5392C32.0127 24.2529 33.7172 22.2344 36.0033 22.0439C38.2896 21.8482 40.3082 23.5526 40.4987 25.8388C40.6944 28.1252 38.9899 30.1437 36.7037 30.3341Z" fill="url(#paint1_linear)"/>
<path fill-rule="evenodd" clip-rule="evenodd" d="M9.40244 37.2959C9.40759 36.6419 9.90707 36.0962 10.5559 36.0292C11.0977 35.9735 11.5379 35.5825 11.7402 35.0768C11.7584 35.0312 11.7771 34.9858 11.7962 34.9406C12.0085 34.4388 11.9761 33.8542 11.6423 33.4237C11.2407 32.9036 11.2922 32.1724 11.7607 31.7142L12.6979 30.7976C13.1665 30.3393 13.8977 30.3084 14.4075 30.7203C14.795 31.0365 15.3342 31.0721 15.7916 30.8698C15.9327 30.8074 16.0756 30.7493 16.2201 30.6954C16.6783 30.5245 17.0332 30.1344 17.0953 29.6493C17.1778 29.0005 17.7339 28.5164 18.3879 28.5267L19.6906 28.5422C20.3446 28.5473 20.8904 29.0468 20.9573 29.6956C21.0071 30.1835 21.3536 30.583 21.8087 30.7656C21.9482 30.8216 22.086 30.8817 22.222 30.9459C22.6504 31.1483 23.1614 31.1275 23.5371 30.8387C24.0572 30.4371 24.7885 30.4886 25.2467 30.9572L26.1581 31.8892C26.6164 32.3578 26.6473 33.089 26.2353 33.5987C25.9208 33.9849 25.8797 34.5198 26.0697 34.9801C26.1047 35.0651 26.1383 35.1506 26.1703 35.2368C26.3473 35.7128 26.7513 36.0823 27.2549 36.1476C27.9037 36.23 28.3877 36.7862 28.3774 37.4401L28.362 38.7429C28.3568 39.3968 27.8573 39.9426 27.2085 40.0096C26.6924 40.0624 26.27 40.4288 26.0712 40.9081C26.0447 40.9721 26.0172 41.0358 25.9888 41.099C25.766 41.5964 25.7897 42.1833 26.1221 42.6151C26.5237 43.1352 26.4722 43.8665 26.0036 44.3247L25.0716 45.2361C24.603 45.6944 23.8718 45.7253 23.362 45.3133C22.9256 44.9611 22.3241 44.9174 21.8034 45.1257C21.7652 45.141 21.7268 45.156 21.6884 45.1707C21.1567 45.3736 20.7403 45.8249 20.669 46.3895C20.5866 47.0383 20.0304 47.5224 19.3765 47.5121L18.0737 47.4966C17.4197 47.4915 16.8739 46.992 16.807 46.3432L16.8004 46.2802C16.7421 45.7203 16.3479 45.2626 15.8321 45.0371C15.3122 44.8098 14.6999 44.8353 14.2507 45.182L14.2273 45.2001C13.7072 45.6017 12.976 45.5502 12.5177 45.0816L11.6063 44.1496C11.148 43.681 11.1171 42.9498 11.5291 42.4401L11.5749 42.3836C11.9204 41.9575 11.9608 41.3685 11.754 40.8604C11.5501 40.3596 11.1182 39.9697 10.5819 39.9005L10.5095 39.8912C9.86073 39.8088 9.3767 39.2526 9.387 38.5987L9.40244 37.2959ZM22.3116 37.9859C22.3321 36.1168 20.8337 34.5771 18.9646 34.5565C17.0954 34.5359 15.5558 36.0344 15.5351 37.9035C15.5146 39.7727 17.013 41.3123 18.8821 41.3329C20.7513 41.3535 22.291 39.8551 22.3116 37.9859Z" fill="url(#paint2_linear)"/>
<defs>
<linearGradient id="paint0_linear" x1="24" y1="7.07987e-07" x2="24" y2="47.5122" gradientUnits="userSpaceOnUse">
<stop stop-color="#016CDC"/>
<stop offset="1" stop-color="#009CF0"/>
</linearGradient>
<linearGradient id="paint1_linear" x1="24" y1="7.07987e-07" x2="24" y2="47.5122" gradientUnits="userSpaceOnUse">
<stop stop-color="#016CDC"/>
<stop offset="1" stop-color="#009CF0"/>
</linearGradient>
<linearGradient id="paint2_linear" x1="24" y1="7.07987e-07" x2="24" y2="47.5122" gradientUnits="userSpaceOnUse">
<stop stop-color="#016CDC"/>
<stop offset="1" stop-color="#009CF0"/>
</linearGradient>
</defs>
</svg>
