<?xml version="1.0" encoding="utf-8"?>
<!-- Generator: Adobe Illustrator 22.1.0, SVG Export Plug-In . SVG Version: 6.00 Build 0)  -->
<svg version="1.1" id="Слой_1" xmlns="http://www.w3.org/2000/svg" xmlns:xlink="http://www.w3.org/1999/xlink" x="0px" y="0px"
	 viewBox="0 0 1000 1000" style="enable-background:new 0 0 1000 1000;" xml:space="preserve">
<style type="text/css">
	.st0{fill:#57989E;}
	.st1{fill:#902876;}
	.st2{fill:#6EAA52;}
	.st3{fill:#BC4045;}
	.st4{fill:#E0A93D;}
	.st5{fill:#2C6094;}
	.st6{fill:none;stroke:#232020;stroke-width:4;stroke-miterlimit:10;}
	.st7{opacity:0.9;fill:#DDA150;}
	.st8{display:none;fill:#82807D;}
	.st9{opacity:0.9;fill:#C12A34;}
	.st10{opacity:0.9;fill:#2D5B8A;}
	.st11{opacity:0.9;fill:#EDE44C;}
	.st12{opacity:0.9;fill:#6EAA52;}
	.st13{opacity:0.9;fill:#592F76;}
	.st14{fill:none;stroke:#232020;stroke-width:5;stroke-linecap:round;stroke-linejoin:round;}
</style>
<polygon class="st0" points="260,953.3 116.1,702.6 333,601.6 584,748.5 574.2,970.8 "/>
<polygon class="st1" points="329.1,601.1 116.1,702.6 21,433.6 210.8,179.1 382.6,309.6 "/>
<polygon class="st2" points="382.8,309.9 210.8,179.1 434,31 752.5,107.8 679.6,274.7 "/>
<polygon class="st3" points="752.5,107.8 959.3,322.2 980.7,614.7 805.2,550.4 681.3,276.2 "/>
<polygon class="st4" points="584,748.5 329.1,601.1 382.8,309.9 679.6,274.7 805.2,550.4 "/>
<polygon class="st5" points="832.5,907.6 574.2,970.8 584,748.5 805.2,550.4 980.7,614.7 "/>
<g transform="matrix(.49023 0 0 .49023 -46.374 -67.345)">
	<path class="st6" d="M1648.4,1062.6l-45.6-104.3"/>
	<path class="st6" d="M524.5,502.7l248.6,191.6"/>
	<path class="st6" d="M775.4,695l100.1,74.6"/>
	<path class="st6" d="M766,1363.6l109-594.5"/>
	<path class="st6" d="M1205.7,726.9l-327.4,41.7"/>
	<path class="st6" d="M770.9,1364.6l514.6,300.4"/>
	<path class="st6" d="M1274.2,1846.9l12.2-179.3"/>
	<polyline class="st6" points="1561.3,1422 1285.8,1664.1 1265.8,2117.6 	"/>
	<path class="st6" d="M479.9,1496.5l289.5-135.9"/>
	<path class="st6" d="M1262.8,2112.8l11.4-265.9"/>
	<path class="st6" d="M1629.6,357.3l-148.7,340.4"/>
	<path class="st6" d="M1603.3,959.2l-122.4-264"/>
	<path class="st6" d="M1197.9,727.5l283-32.3"/>
	<path class="st6" d="M1738.6,1260.1l-161.4,149"/>
	<path class="st6" d="M1738.6,1260.1l353.4,130l-355-130l-88.5-201.5"/>
	<path class="st6" d="M331.5,1566.8l145.2-68.6"/>
</g>
<polygon class="st7" points="276.3,864.2 107.6,488.4 396.6,209.4 766.8,418.3 682.3,828.6 "/>
<g transform="matrix(.49023 0 0 .49023 -46.374 -10.374)">
	<path class="st8" d="M1654.5,877.5l-176.5,834l-826.6,76.2l-344.6-761.2L903.7,448L1654.5,877.5L1654.5,877.5z"/>
	<path class="st9" d="M979.4,84.7L520,386.4L138.1,905l168.7,121.9l596.9-578.6L979.4,84.7L979.4,84.7z"/>
	<path class="st10" d="M1654.3,877.9l395.2-198.9l-423.7-439.4L979.4,84.7l-75.8,363.6l755.1,426L1654.3,877.9z"/>
	<path class="st11" d="M1654.2,878.1l-166.1,835.8l306.8,154.9l300.2-591.7l-44.5-598L1654.2,878.1L1654.2,878.1z"/>
	<path class="st12" d="M1794.9,1868.6l-316.9-157l-826.6,76.2l-25.1,174.7l639.5,39L1794.9,1868.6L1794.9,1868.6z"/>
	<path class="st13" d="M331.8,1455.3l294.5,507.3l31.9-178.6l-351.5-757.4L137.8,904.9L331.8,1455.3L331.8,1455.3z"/>
</g>
<g transform="matrix(.49023 0 0 .49023 -45.945 325.08)">
	<path class="st14" d="M1487.3,1029.6l172.8-840.6L2050.5-6l43.8,596.8l-302.5,597.4L1487.3,1029.6L1487.3,1029.6z"/>
	<path class="st14" d="M909.4-235.3L979-599.9L523.4-299.7L136.5,221.5L310,340.3L909.4-235.3L909.4-235.3z"/>
	<path class="st14" d="M909.3-235.3l748.7,425.3l392.6-196l-424.2-439.7L979.6-600.2L909.3-235.3L909.3-235.3z"/>
	<path class="st14" d="M655.9,1096.4L624,1281.4L330.6,770.1L136.9,222l173,118.5L655.9,1096.4L655.9,1096.4z"/>
	<path class="st14" d="M1481.8,1027.1L655,1100.2l-31,181.5l641,35.4l526.9-128.9L1481.8,1027.1L1481.8,1027.1z"/>
	<path class="st14" d="M909-235.3l750.8,426.2L1487.9,1027l-830.5,72.7L310,340.4L909-235.3L909-235.3z"/>
</g>
</svg>
