<?xml version="1.0" encoding="utf-8"?>
<!-- Generator: Adobe Illustrator 22.1.0, SVG Export Plug-In . SVG Version: 6.00 Build 0)  -->
<svg version="1.1" id="Слой_2" xmlns="http://www.w3.org/2000/svg" xmlns:xlink="http://www.w3.org/1999/xlink" x="0px" y="0px"
	 viewBox="0 0 1000 1000" style="enable-background:new 0 0 1000 1000;" xml:space="preserve">
<style type="text/css">
	.st0{fill:#E4E5E0;}
	.st1{fill:#ECEBE6;}
	.st2{fill:#F8F9F8;}
	.st3{fill:#EAEAE2;}
	.st4{fill:#FFFFFF;}
	.st5{fill:none;stroke:#403E46;stroke-width:4;stroke-miterlimit:10;}
	.st6{display:none;fill:#9D978A;}
	.st7{fill:#CB2128;}
	.st8{opacity:0.5;fill:#CDCDC8;}
	.st9{opacity:0.5;fill:#979594;}
	.st10{opacity:0.7;fill:#5E5E5E;}
	.st11{opacity:0.9;fill:#CACAC8;}
	.st12{fill:none;stroke:#403E46;stroke-width:5;stroke-linecap:round;stroke-linejoin:round;}
</style>
<polygon class="st0" points="259.6,952 115.9,701.6 332.6,600.7 583.3,747.4 573.5,969.5 "/>
<polygon class="st1" points="328.7,600.2 115.9,701.6 20.9,432.9 210.5,178.6 382.1,308.9 "/>
<polygon class="st2" points="382.4,309.3 215.1,178.6 433.5,30.6 747.2,111.9 678.9,274.1 "/>
<polygon class="st3" points="750.2,109 958.2,321.6 979.7,613.8 804.3,549.5 680.5,275.6 "/>
<polygon class="st4" points="583.3,747.4 328.7,600.2 382.4,309.3 678.9,274.1 804.3,549.5 "/>
<polygon class="st4" points="831.6,906.4 573.5,969.5 583.3,747.4 804.3,549.5 979.7,613.8 "/>
<g transform="matrix(.49023 0 0 .49023 -46.374 -67.345)">
	<path class="st5" d="M1646.7,1061.1l-45.6-104.2"/>
	<path class="st5" d="M523.9,501.7l248.3,191.4"/>
	<path class="st5" d="M774.6,693.8l100,74.5"/>
	<path class="st5" d="M765.2,1361.7l108.9-593.9"/>
	<path class="st5" d="M1204.4,725.7l-330.3,41.9"/>
	<path class="st5" d="M765.2,1361.7l518.9,301.1"/>
	<path class="st5" d="M1272.8,1844.6l12.2-179.1"/>
	<polyline class="st5" points="1575.6,1407.2 1285,1665.4 1264.5,2115 	"/>
	<path class="st5" d="M479.4,1494.5l289.2-135.8"/>
	<path class="st5" d="M1261.4,2110.2l11.4-265.6"/>
	<path class="st5" d="M1625.5,354.1l-146.1,342.4"/>
	<path class="st5" d="M1601.6,957.7L1479.4,694"/>
	<path class="st5" d="M1196.6,726.3l282.7-32.3"/>
	<path class="st5" d="M1736.8,1258.4l-161.2,148.9"/>
	<path class="st5" d="M1736.8,1258.4l356.2,131l-357.8-131l-88.4-201.3"/>
	<path class="st5" d="M331.4,1568.8l144.8-72.6"/>
</g>
<g transform="matrix(.49023 0 0 .49023 -46.374 -10.374)">
	<path class="st6" d="M1653.6,882.7l-176.9,835.7l-828.3,76.4l-345.3-762.7l598.1-579.8L1653.6,882.7L1653.6,882.7z"/>
	<path class="st7" d="M977.2,88.3L516.9,390.7L134.2,910.2l169,122.2l598.1-579.8L977.2,88.3L977.2,88.3z"/>
	<path class="st8" d="M1653.4,883.1l396-199.3l-424.6-440.3L977.2,88.4l-67.9,359.6l749.6,425.8L1653.4,883.1z"/>
	<path class="st9" d="M1656.2,875l-169,834l303.7,161.1l302.1-596.9l-39.5-597.5L1656.2,875L1656.2,875z"/>
	<path class="st10" d="M1790.9,1870l-304.3-158.5l-829,70l-33.4,181.5l640.3,35.7l514.2-128.8L1790.9,1870z"/>
	<path class="st11" d="M328.3,1461.7L623.4,1970l34.2-193.5l-347.1-753.6L137.2,904.2L328.3,1461.7L328.3,1461.7z"/>
</g>
<g transform="matrix(.49023 0 0 .49023 -45.945 325.08)">
	<path class="st12" d="M1485.7,1027.3l172.7-839.7l390-194.9l43.7,596.2l-302.2,596.8L1485.7,1027.3L1485.7,1027.3z"/>
	<path class="st12" d="M908.4-236.4l69.5-364.2L522.8-300.7L136.3,219.9l173.3,118.7L908.4-236.4L908.4-236.4z"/>
	<path class="st12" d="M908.3-236.3l747.9,424.9L2048.4-7.2l-423.7-439.3L978.6-600.9L908.3-236.3L908.3-236.3z"/>
	<path class="st12" d="M655.1,1094l-31.8,184.9L330.2,768.1L136.7,220.5l172.9,118.4L655.1,1094L655.1,1094z"/>
	<path class="st12" d="M1480.3,1024.7l-826,73.1l-30.9,181.3l640.3,35.4l526.4-128.7L1480.3,1024.7L1480.3,1024.7z"/>
	<path class="st12" d="M908-236.4l750,425.8l-171.6,835.3l-829.7,72.6L309.6,338.8L908-236.4L908-236.4z"/>
</g>
</svg>
