<svg width="190" height="234" viewBox="0 0 190 234" fill="none" xmlns="http://www.w3.org/2000/svg">
<path fill-rule="evenodd" clip-rule="evenodd" d="M112.608 20.0895C136.272 7.08393 162.803 0.179462 189.805 0L189.838 5.07704C163.68 5.25089 137.978 11.9397 115.054 24.5389C92.1293 37.1382 72.7055 55.2509 58.5374 77.2402C44.3693 99.2296 35.9034 124.403 33.9048 150.485C31.9755 175.663 36.1317 200.923 46.0053 224.136L58.2526 186.34L59.1773 183.486L64.8852 185.336L63.9604 188.189L49.9304 231.487C49.4197 233.063 47.7279 233.927 46.1517 233.416L2.85402 219.386L0.00012207 218.462L1.84966 212.754L4.70357 213.678L41.0513 225.456C31.0623 201.678 26.8694 175.846 28.8425 150.097C30.9056 123.174 39.6444 97.1888 54.2694 74.4903C68.8944 51.7918 88.9446 33.0951 112.608 20.0895Z" fill="#E50000"/>
</svg>
