<svg width="191" height="234" viewBox="0 0 191 234" fill="none" xmlns="http://www.w3.org/2000/svg">
<path fill-rule="evenodd" clip-rule="evenodd" d="M77.8704 20.1694C54.2068 7.16406 27.6753 0.259766 0.673828 0.0800781L0.640137 5.15723C26.7981 5.33105 52.5005 12.02 75.4248 24.6191C98.3492 37.2183 117.773 55.3311 131.941 77.3203C146.109 99.3096 154.575 124.483 156.574 150.565C158.503 175.744 154.347 201.003 144.473 224.216L132.226 186.42L131.301 183.566L125.593 185.416L126.518 188.27L140.548 231.567C141.059 233.144 142.751 234.007 144.327 233.497L187.625 219.466L190.478 218.542L188.629 212.834L185.775 213.759L149.427 225.537C159.416 201.758 163.609 175.926 161.636 150.177C159.573 123.254 150.834 97.269 136.209 74.5703C121.584 51.8721 101.534 33.1753 77.8704 20.1694Z" fill="#E50000"/>
</svg>
