<svg width="451" height="360" viewBox="0 0 451 360" fill="none" xmlns="http://www.w3.org/2000/svg">
<path d="M383 263.438H67V307.344H383V263.438Z" fill="#5B5B5B"/>
<path d="M394.01 293.332H55.4571C44.7557 293.332 36 285.15 36 275.151V75.1654C36 65.1661 44.7557 56.9849 55.4571 56.9849H393.524C404.225 56.9849 412.981 65.1661 412.981 75.1654V275.151C413.467 285.605 404.711 293.332 394.01 293.332Z" fill="#E0E0E1"/>
<path d="M396 72.8657H54V274.648H396V72.8657Z" fill="#FEFEFE"/>
<path d="M0 355.922V362.461C0 366.198 4.37365 369 9.23326 369H440.767C446.112 369 450 366.198 450 362.461V355.922H0Z" fill="#5B5858"/>
<path d="M225.014 306.866H40.2513C39.7651 307.321 10.5921 331.463 1.84019 349.683C-2.04954 357.427 0.381541 361.527 7.6748 361.527H225.5H443.325C450.618 361.527 453.05 357.427 449.16 349.683C440.408 331.463 411.235 307.321 410.749 306.41H225.014V306.866Z" fill="#E0E0E1"/>
<path d="M427 352.185H33L60.2395 314.818H399.76L427 352.185Z" fill="#9FA0A0"/>
<path d="M422 345.345L421.028 343.977H394.78L389.919 334.858H414.223L413.251 333.49H388.947L384.086 324.371H406.446L405.473 323.003H384.086L379.225 313.884H376.795L381.656 323.003H353.463L349.575 313.884H347.144L351.033 323.003H322.841L319.924 313.884H317.494L320.41 323.003H292.218L290.273 313.884H287.843L289.787 323.003H261.595L260.623 313.884H258.192L259.165 323.003H232.43V313.884H230V323.003H202.294L203.266 313.884H200.835L199.863 323.003H171.671L173.615 313.884H171.185L169.24 323.003H141.048L143.965 313.884H141.534L138.618 323.003H110.425L114.314 313.884H111.884L107.995 323.003H79.8025L84.6633 313.884H82.2329L77.3721 323.003H53.5544L52.5823 324.371H77.8582L72.9975 333.49H46.2633L45.2911 334.858H72.0253L67.1646 343.977H38.9722L38 345.345H67.1646L63.2759 352.185H65.7063L69.1089 345.345H99.2456L96.3291 352.185H98.7595L101.676 345.345H131.813L129.868 352.185H132.299L134.243 345.345H165.352L163.894 352.185H166.324L167.782 345.345H197.919L197.433 352.185H199.863L200.349 345.345H230V352.185H232.43V345.345H261.109L261.595 352.185H264.025L263.539 345.345H293.676L295.134 352.185H297.565L296.106 345.345H326.243L328.187 352.185H330.618L328.673 345.345H358.81L361.727 352.185H364.157L361.24 345.345H391.377L394.78 352.185H397.21L393.808 345.345H422ZM110.911 324.827H139.104L136.187 333.946H107.023L110.911 324.827ZM80.2886 324.827H108.481L104.592 333.946H75.4278L80.2886 324.827ZM100.218 344.433H70.081L74.9418 335.314H104.106L100.218 344.433ZM132.785 344.433H102.648L106.537 335.314H135.701L132.785 344.433ZM165.838 344.433H135.701L138.618 335.314H167.782L165.838 344.433ZM167.782 333.946H138.618L141.534 324.827H169.727L167.782 333.946ZM198.405 344.433H168.268L170.213 335.314H199.377L198.405 344.433ZM199.377 333.946H170.213L172.157 324.827H200.349L199.377 333.946ZM230.486 344.433H200.835L201.808 335.314H230.486V344.433ZM230.486 333.946H201.808L202.78 324.827H230.486V333.946V333.946ZM232.916 324.827H259.651L260.623 333.946H232.916V324.827ZM232.916 344.433V335.314H260.623L261.595 344.433H232.916ZM382.142 324.827L387.002 333.946H357.838L353.949 324.827H382.142ZM351.519 324.827L355.408 333.946H326.243L323.327 324.827H351.519ZM262.081 324.827H290.273L292.218 333.946H263.053L262.081 324.827ZM264.025 344.433L263.053 335.314H292.218L294.162 344.433H264.025ZM292.704 324.827H320.896L323.813 333.946H294.648L292.704 324.827ZM296.592 344.433L294.648 335.314H323.813L326.729 344.433H296.592ZM329.646 344.433L326.729 335.314H355.894L359.782 344.433H329.646ZM362.213 344.433L358.324 335.314H387.489L392.349 344.433H362.213Z" fill="#DFDFDF"/>
<path d="M396 72.8657H54V274.648H396V72.8657Z" fill="#FEFEFE"/>
<path d="M231.315 176.478L200.71 189.207L161.361 152.383L54 229.212V275.582H396V37.3672L253.176 199.208L231.315 176.478Z" fill="#5B5B5B"/>
<path d="M133 213.927H122V221.4H133V213.927Z" fill="#FEFEFE"/>
<path d="M148 213.927H137V221.4H148V213.927Z" fill="#FEFEFE"/>
<path d="M163 213.927H152V221.4H163V213.927Z" fill="#E50000"/>
<path d="M179 213.927H168V221.4H179V213.927Z" fill="#FEFEFE"/>
<path d="M194 213.927H183V221.4H194V213.927Z" fill="#FEFEFE"/>
<path d="M209 213.927H198V221.4H209V213.927Z" fill="#E50000"/>
<path d="M133 227.005H122V234.479H133V227.005Z" fill="#FEFEFE"/>
<path d="M148 227.005H137V234.479H148V227.005Z" fill="#FEFEFE"/>
<path d="M163 227.005H152V234.479H163V227.005Z" fill="#FEFEFE"/>
<path d="M179 227.005H168V234.479H179V227.005Z" fill="#FEFEFE"/>
<path d="M194 227.005H183V234.479H194V227.005Z" fill="#E50000"/>
<path d="M209 227.005H198V234.479H209V227.005Z" fill="#FEFEFE"/>
<path d="M133 240.083H122V247.557H133V240.083Z" fill="#FEFEFE"/>
<path d="M148 240.083H137V247.557H148V240.083Z" fill="#E50000"/>
<path d="M163 240.083H152V247.557H163V240.083Z" fill="#FEFEFE"/>
<path d="M179 240.083H168V247.557H179V240.083Z" fill="#FEFEFE"/>
<path d="M194 240.083H183V247.557H194V240.083Z" fill="#FEFEFE"/>
<path d="M209 240.083H198V247.557H209V240.083Z" fill="#FEFEFE"/>
<path d="M133 254.096H122V261.57H133V254.096Z" fill="#FEFEFE"/>
<path d="M148 254.096H137V261.57H148V254.096Z" fill="#FEFEFE"/>
<path d="M163 254.096H152V261.57H163V254.096Z" fill="#E50000"/>
<path d="M179 254.096H168V261.57H179V254.096Z" fill="#FEFEFE"/>
<path d="M235.5 192.441L234 191.039L233 191.973L232 189.638L234.5 188.704L237 190.572L235.5 192.441Z" fill="white"/>
<path d="M209.95 199.914L209 198.046L212.8 196.644L213.75 198.513L209.95 199.914ZM217.075 196.644L216.125 194.776L219.925 193.375L220.875 195.243L217.075 196.644ZM224.2 193.842L223.25 191.974L227.05 190.572L228 192.441L224.2 193.842Z" fill="white"/>
<path d="M203 202.716L201 200.381L202.5 198.98L203.5 199.914L205 199.447L206 201.315L203 202.716Z" fill="white"/>
<path d="M198.523 198.046L195.077 195.34L196.554 193.536L200 196.242L198.523 198.046ZM191.631 192.634L188.185 189.928L189.662 188.124L193.108 190.83L191.631 192.634ZM185.231 187.222L181.785 184.516L183.262 182.712L186.708 185.418L185.231 187.222ZM178.338 181.81L174.892 179.104L176.369 177.3L179.815 180.006L178.338 181.81ZM171.446 176.398L168 173.693L169.477 171.889L172.923 174.595L171.446 176.398Z" fill="white"/>
<path d="M164.636 170.954L163.273 170.02L162.364 170.954L161 169.086L163.727 167.218L166 169.086L164.636 170.954Z" fill="white"/>
<path d="M61.4631 237.281L60 235.477L63.9015 232.771L65.3645 234.575L61.4631 237.281ZM69.266 231.869L67.803 230.065L71.7044 227.359L73.1675 229.163L69.266 231.869ZM77.5567 226.908L76.0936 225.105L79.9951 222.399L81.4581 224.203L77.5567 226.908ZM85.3596 221.948L83.8965 220.144L87.798 217.438L89.2611 219.242L85.3596 221.948ZM93.1626 216.536L91.6995 214.732L95.601 212.026L97.064 213.83L93.1626 216.536ZM100.966 211.575L99.5025 209.771L103.404 207.065L104.867 208.869L100.966 211.575ZM108.768 206.614L107.305 204.81L111.207 202.104L112.67 203.908L108.768 206.614ZM116.571 201.203L115.108 199.399L119.01 196.693L120.473 198.497L116.571 201.203ZM124.374 196.242L122.911 194.438L126.813 191.732L128.276 193.536L124.374 196.242ZM132.177 191.281L130.714 189.477L134.616 186.771L136.079 188.575L132.177 191.281ZM139.98 186.32L138.517 184.516L142.419 181.81L143.882 183.614L139.98 186.32ZM147.783 181.359L146.32 179.555L150.222 176.849L151.685 178.653L147.783 181.359ZM155.099 176.398L153.635 174.595L157.537 171.889L159 173.693L155.099 176.398Z" fill="white"/>
<path d="M261.456 205.519L260 203.709L262.912 200.541L264.369 201.899L261.456 205.519ZM267.281 199.184L265.825 197.827L268.737 194.659L270.193 196.017L267.281 199.184ZM273.106 192.849L271.65 191.492L274.562 188.324L276.018 189.682L273.106 192.849ZM278.931 186.514L277.474 185.157L280.387 181.989L281.843 183.347L278.931 186.514ZM284.755 180.179L283.299 178.822L286.212 175.654L287.668 177.012L284.755 180.179ZM290.58 173.844L289.124 172.487L292.036 169.32L293.493 170.677L290.58 173.844ZM296.405 167.51L294.949 166.152L297.861 162.985L299.318 164.342L296.405 167.51ZM302.23 161.175L300.774 159.817L303.686 156.65L305.142 158.007L302.23 161.175ZM308.055 155.292L306.113 153.482L309.026 150.315L310.482 151.672L308.055 155.292ZM313.394 148.957L311.938 147.6L314.85 144.432L316.307 145.79L313.394 148.957ZM319.219 142.623L317.763 141.265L320.675 138.098L322.131 139.455L319.219 142.623ZM325.044 136.74L323.588 135.383L326.5 132.215L327.956 133.573L325.044 136.74ZM330.383 130.405L328.927 129.048L331.839 125.88L333.296 127.238L330.383 130.405ZM336.208 124.523L334.752 123.165L337.664 119.998L339.12 121.355L336.208 124.523ZM341.547 118.188L340.091 116.83L343.004 113.663L344.46 115.02L341.547 118.188ZM347.372 112.306L345.916 110.948L348.828 107.781L350.285 109.138L347.372 112.306ZM352.712 106.423L351.255 105.066L354.168 101.898L355.624 103.256L352.712 106.423ZM358.537 100.088L357.08 98.7308L359.993 95.5633L361.449 96.9208L358.537 100.088ZM363.876 94.2058L362.42 92.8484L365.332 89.6809L366.788 91.0384L363.876 94.2058ZM369.215 88.3235L367.759 86.966L370.672 83.7985L372.128 85.156L369.215 88.3235ZM375.04 82.4411L373.584 81.0836L376.496 77.9161L377.953 79.2736L375.04 82.4411ZM380.38 76.5587L378.923 75.2012L381.836 72.0337L383.292 73.3912L380.38 76.5587ZM385.234 70.6763L383.777 69.3188L386.69 66.1513L388.146 67.5088L385.234 70.6763ZM390.573 65.2464L388.631 63.8889L391.544 60.7214L393 62.0789L390.573 65.2464Z" fill="white"/>
<path d="M256.222 211.124L254 209.048L255.333 207.803L255.778 208.218L256.667 207.387L258 209.048L256.222 211.124Z" fill="white"/>
<path d="M249.556 205.519L245.704 201.782L247.148 200.381L251 204.118L249.556 205.519ZM241.852 198.513L238 194.776L239.444 193.375L243.296 197.111L241.852 198.513Z" fill="white"/>
<path d="M386.658 14.0127L253.595 172.086L232.227 147.557L200.661 161.638L160.353 121.666L54 202.519V212.058L159.868 131.659L199.204 171.177L230.77 157.096L253.595 182.987L392 19.0093C390.057 17.6466 388.115 15.8296 386.658 14.0127Z" fill="#E50000"/>
<path d="M408 0L376 10.1179L397.169 29.8937L408 0Z" fill="#E50000"/>
<path d="M95.7183 98.7914C103.113 99.2457 109.521 101.971 109.521 108.785H97.6901C97.6901 106.059 94.7324 105.605 93.2535 105.605C92.2676 105.605 88.8169 105.605 88.8169 107.876C88.8169 112.418 111 107.422 111 120.595C111 128.317 104.592 131.042 96.7042 131.95L97.1972 140.127H89.8028L90.2958 131.95C82.9014 131.496 76 127.862 76 121.049H87.831V121.503C87.831 124.683 91.7746 125.137 93.7465 125.137C95.7183 125.137 99.169 125.137 99.169 122.866C99.169 118.323 76.9859 122.412 76.9859 110.147C76.9859 102.88 82.9014 100.154 90.2958 99.6999L88.8169 90.6152H96.2113L95.7183 98.7914Z" fill="#E50000"/>
<path d="M274.923 321.355C274.923 321.355 275.402 330.677 273.967 332.076C272.531 333.474 253.871 335.339 251.957 333.94C250.043 332.542 251 329.279 254.828 327.881C259.134 326.482 261.048 327.415 263.919 326.016C266.789 324.618 265.354 320.423 265.354 320.423L274.923 321.355Z" fill="#181818"/>
<path d="M338.077 321.355C338.077 321.355 337.598 330.677 339.034 332.076C340.469 333.474 359.129 335.339 361.043 333.94C362.957 332.542 362 329.279 358.172 327.881C353.866 326.482 351.952 327.415 349.081 326.016C346.689 324.618 347.646 320.423 347.646 320.423L338.077 321.355Z" fill="#181818"/>
<path d="M338.45 269.311C336.516 259.339 325.397 233.048 321.046 223.528C319.596 223.075 317.662 222.622 315.728 222.169C316.212 219.902 316.695 218.089 316.695 216.729C313.311 217.636 309.927 218.089 306.543 218.995C306.059 218.995 305.576 219.449 305.093 219.449C304.609 219.449 304.126 218.995 303.642 218.995C300.258 218.089 296.874 217.636 293.49 216.729C293.973 218.089 293.973 219.902 294.457 222.169C292.523 222.622 290.589 223.075 289.139 223.528C284.788 232.594 274.152 259.339 271.735 269.311C268.834 282.91 264 322.799 264 322.799L276.086 324.159C276.086 324.159 288.172 270.218 290.106 267.044C293.006 261.605 296.391 257.072 299.291 252.539C301.708 248.913 307.026 248.913 309.443 252.539C312.344 256.619 315.728 261.605 318.629 267.044C320.563 270.218 332.649 324.159 332.649 324.159L344.735 322.799C346.185 323.253 341.351 282.91 338.45 269.311Z" fill="#E50000"/>
<path d="M342.235 102.612C341.75 97.9946 340.779 97.0712 339.323 96.1477C338.353 95.686 337.867 95.2243 337.382 94.7626C336.897 93.8392 335.926 93.3775 334.956 92.9158C334.47 92.454 333.5 91.5306 333.014 90.6072C332.529 89.6838 333.985 89.6838 335.441 90.1455C336.411 90.6072 338.838 93.3775 339.809 92.9158C340.779 92.454 338.353 89.2221 337.867 88.2986C336.411 86.9135 334.956 86.9135 333.014 86.4518C332.044 85.9901 331.558 85.5284 332.529 85.0667C333.5 84.6049 334.47 85.0667 335.441 85.0667C336.897 85.5284 338.838 86.4518 340.294 87.8369C339.323 86.9135 337.382 85.5284 336.412 84.6049C335.441 84.1432 331.558 82.7581 332.044 81.373C333.014 78.6027 341.265 83.6815 342.235 85.0667C341.265 83.6815 339.809 82.7581 338.353 81.8347C337.382 81.373 335.441 79.9878 337.382 79.5261C339.809 78.6027 343.206 83.2198 344.662 84.6049C344.176 83.2198 342.72 82.2964 341.75 80.9112C340.294 79.0644 342.235 79.0644 343.691 80.4495C344.662 80.9113 345.632 82.2964 346.118 82.7581C349.029 85.9901 349.029 88.2986 349.515 92.454C349.515 93.8392 349.515 96.1477 350 100.765C349.515 103.535 344.662 102.612 342.235 102.612Z" fill="white"/>
<path d="M223 167.807C218.222 165.986 217.744 164.166 217.266 162.8C216.788 161.889 216.788 160.979 216.31 160.524C215.832 160.069 215.355 158.703 214.877 158.248C214.399 157.337 213.921 156.427 212.965 155.972C212.01 155.516 212.01 156.882 212.01 157.792C212.01 158.703 214.877 161.434 213.921 162.345C213.443 163.255 210.576 160.069 210.098 159.613C208.665 158.248 209.143 156.882 209.143 155.061C209.143 154.151 208.665 153.695 207.709 154.606C207.231 155.061 207.231 156.427 207.231 157.337C207.231 159.158 208.187 160.979 209.143 162.345C208.187 161.434 207.231 159.158 206.753 157.792C206.276 156.882 206.276 152.785 204.842 153.24C201.975 153.695 205.32 162.345 206.753 163.255C205.798 161.889 204.842 160.524 204.364 159.158C203.886 158.248 202.931 155.972 201.975 157.337C200.542 159.613 204.364 163.255 205.798 165.076C204.364 164.166 203.886 162.8 202.453 161.434C201.019 159.613 200.542 161.434 201.497 163.255C201.975 164.166 202.931 165.531 203.409 165.986C206.276 169.173 208.665 169.628 212.488 170.994C213.921 171.449 215.355 171.449 220.133 173.725C222.044 174.18 222.044 169.628 223 167.807Z" fill="white"/>
<path d="M312 158.81C309 159.265 306.5 159.265 303.5 159.265C302.5 159.265 301.5 158.81 300.5 158.81C300.5 161.991 300.5 169.263 298 171.99C298 171.99 299 175.625 306 175.625C313 175.625 314 171.99 314 171.99C314 171.99 312 166.99 312 158.81Z" fill="white"/>
<path d="M337.63 176.467C335.691 174.183 326.966 169.159 321.149 168.245C311.454 166.875 301.759 166.875 292.064 168.245C286.248 169.159 279.946 170.529 278.492 172.813C276.068 175.553 283.339 191.082 284.309 205.698C285.278 217.573 287.217 226.708 287.217 226.708C291.095 233.102 321.149 233.559 324.542 226.708C324.542 226.708 325.027 216.659 327.45 205.241C329.874 191.539 340.054 179.664 337.63 176.467Z" fill="#DFDFDF"/>
<path d="M289.556 202.333C289.556 198.73 291 191.523 289.556 188.37C287.63 183.416 282.333 181.614 278 179.362C279.444 185.668 282.815 196.027 283.778 205.936C284.741 217.647 286.667 226.655 286.667 226.655C287.148 228.006 289.074 228.907 291 229.808C286.667 222.151 289.556 209.99 289.556 202.333Z" fill="#9FA0A0"/>
<path d="M320.559 141.629C320.559 141.629 306.483 133.918 304.057 135.732C302.115 137.547 298.717 144.351 296.776 145.259C295.32 146.166 292.408 147.073 292.893 148.434C292.893 149.795 293.864 149.795 293.864 150.702C293.864 152.063 290.952 157.507 292.408 159.321C293.864 161.136 304.057 164.765 310.366 160.682C317.161 157.053 327.839 145.259 320.559 141.629Z" fill="white"/>
<path d="M324.547 143.898H312.33C312.33 143.898 309.887 149.348 305 152.982C305 152.982 305.489 154.799 306.466 154.345C307.932 153.891 308.421 153.891 309.398 152.528C310.376 151.165 312.819 147.986 314.774 150.711C316.728 153.436 312.819 154.345 311.353 154.345C311.353 154.345 305.977 160.704 310.376 161.613C310.376 161.613 315.262 161.158 322.104 153.891C328.945 147.531 327.479 143.443 324.547 143.898Z" fill="#181818"/>
<path d="M301.341 131.719C301.341 131.719 295.472 134.87 302.319 141.622C309.166 148.373 324.817 144.772 324.817 144.772C324.817 144.772 326.284 140.721 320.905 136.22C316.503 133.069 312.101 131.269 308.188 132.619C301.83 134.87 301.341 131.719 301.341 131.719Z" fill="#181818"/>
<path d="M221.825 165.349L217 173.179C217 173.179 230.027 185.154 244.983 194.365C253.667 199.892 283.097 191.141 287.922 189.76C294.676 187.917 299.501 174.561 288.404 169.955C282.132 167.192 256.562 185.614 249.807 182.39C242.088 178.245 221.825 165.349 221.825 165.349Z" fill="#DFDFDF"/>
<path d="M340.554 100.391L350.697 99.0227C350.697 99.0227 357.458 126.398 356.975 135.98C356.492 146.017 340.071 181.605 336.207 184.343C331.86 187.537 319.303 177.955 327.996 167.461C337.173 156.967 342.969 135.523 343.452 134.611C343.935 133.698 340.554 100.391 340.554 100.391Z" fill="#DFDFDF"/>
<path d="M214 85.01H133V91.5493H214V85.01Z" fill="#DFDFDF"/>
<path d="M214 96.2202H133V102.759H214V96.2202Z" fill="#DFDFDF"/>
<path d="M194 106.496H133V113.035H194V106.496Z" fill="#DFDFDF"/>
</svg>
