<svg width="70" height="61" viewBox="0 0 70 61" fill="none" xmlns="http://www.w3.org/2000/svg">
<path d="M21.3163 32.8008L23.5186 35.0957L26.379 33.7103L24.8817 36.5274L27.0823 38.8306L23.9527 38.272L22.4537 41.0841L22.018 37.9202L18.89 37.3575L21.752 35.9622L21.3163 32.8008Z" fill="#E50000"/>
<path d="M36.7878 46.8757C31.889 48.8751 26.6246 48.5408 22.2142 46.3915C18.3664 44.517 15.1692 41.2597 13.4339 36.9661C11.3584 31.8309 11.8089 26.2969 14.2023 21.7542C16.104 18.141 19.2328 15.1567 23.2956 13.4991C28.1944 11.4996 33.4588 11.8331 37.8684 13.9824L43.1559 3.03504C42.2137 2.57655 41.2484 2.1669 40.2642 1.80772L37.0711 5.29683C35.8563 4.93269 34.6135 4.65711 33.3518 4.47669L31.8141 0.0532372C30.7764 -0.00883184 29.732 -0.0162801 28.6844 0.0317199L27.1138 4.3509C25.8167 4.4858 24.5187 4.72 23.2289 5.06014L20.208 1.66869C19.7163 1.84083 19.2262 2.02538 18.7387 2.22483C18.2511 2.42428 17.7709 2.63531 17.2998 2.85628L17.4851 7.3418C16.2794 7.99642 15.1437 8.73794 14.082 9.5556L10.0876 7.62235C9.30354 8.32166 8.55983 9.05904 7.85977 9.83036L9.71616 13.84C8.85303 14.9175 8.07802 16.0604 7.40103 17.2546L3.02114 17.0105C2.56486 17.9573 2.15718 18.9272 1.80056 19.9162L5.02824 22.9004C4.64856 24.2213 4.37348 25.5752 4.20712 26.949L0.0528913 28.4072C-0.00887846 29.45 -0.0162908 30.4994 0.0314778 31.552L4.19559 33.0806C4.35289 34.4155 4.61644 35.7504 4.98953 37.0754L1.66138 40.0696C1.83186 40.5636 2.01552 41.0569 2.21401 41.5468C2.41167 42.0368 2.62169 42.5184 2.84324 42.9926L7.36808 42.8039C8.02449 43.9708 8.76243 45.069 9.5712 46.0969L7.58551 50.239C8.28145 51.0268 9.01528 51.7741 9.78287 52.4776L14.0112 50.5005C15.0201 51.2834 16.0834 51.986 17.1895 52.6067L16.9276 57.3388C17.8698 57.7982 18.835 58.207 19.8192 58.5662L23.0749 55.0108C24.2502 55.3286 25.451 55.562 26.6666 55.7102L28.2702 60.3231C29.3079 60.3852 30.3522 60.3926 31.3998 60.3446L33.0973 55.6762C34.2495 55.5231 35.4017 55.2864 36.5465 54.9695L39.8763 58.7068C40.368 58.5355 40.8588 58.351 41.3464 58.1515C41.834 57.9529 42.3141 57.7411 42.7852 57.5193L42.5752 52.4412C43.5734 51.8644 44.5214 51.2279 45.4158 50.5369L49.9975 52.754C50.7815 52.0547 51.5252 51.3165 52.2253 50.546L50.0642 45.8776C50.7511 44.9854 51.3762 44.0503 51.9387 43.0803L57.0631 43.3659C57.5194 42.4191 57.9279 41.45 58.2845 40.461L47.1025 35.7165C45.5319 40.6059 41.8982 44.7901 36.7878 46.8757Z" fill="#E50000"/>
<path d="M16.9809 34.7986L24.3464 27.3867L30.114 30.0118L32.7388 35.8025L25.2844 43.307C30.1708 45.117 35.8726 44.0775 39.8316 40.1639C45.297 34.7614 45.3695 25.9293 39.9931 20.4375C34.6166 14.9456 25.8272 14.8728 20.3618 20.2753C16.4135 24.1782 15.2802 29.8695 16.9809 34.7986Z" fill="#E50000"/>
<path d="M64.7207 7.58252L30.8396 22.3525L36.1189 34.5809L70 19.811L64.7207 7.58252ZM45.6858 26.1147L43.5279 21.1161L62.5629 12.8178L64.7207 17.8165L45.6858 26.1147Z" fill="#E50000"/>
<path d="M46.7636 19.9777L43.9022 21.2251L45.8523 25.7418L48.7136 24.4944L46.7636 19.9777Z" fill="#E50000"/>
<path d="M49.8965 18.5991L47.0352 19.8464L48.9852 24.3631L51.8466 23.1157L49.8965 18.5991Z" fill="#E50000"/>
<path d="M53.0625 17.2531L50.2011 18.5005L52.1512 23.0171L55.0125 21.7698L53.0625 17.2531Z" fill="#E50000"/>
<path d="M56.1552 15.9101L53.2939 17.1575L55.2439 21.6741L58.1053 20.4268L56.1552 15.9101Z" fill="#E50000"/>
</svg>
