<svg width="320" height="263" viewBox="0 0 320 263" fill="none" xmlns="http://www.w3.org/2000/svg">
<path d="M104.535 219.898C160.89 219.898 206.574 174.511 206.574 118.523C206.574 62.535 160.89 17.1479 104.535 17.1479C48.1807 17.1479 2.49631 62.535 2.49631 118.523C2.49631 174.511 48.1807 219.898 104.535 219.898Z" fill="#B40000"/>
<path d="M189.296 138.193C200.231 91.6922 171.152 45.1892 124.347 34.3256C77.5414 23.4621 30.7338 52.3518 19.7991 98.8526C8.86434 145.353 37.9433 191.856 84.7487 202.72C131.554 213.584 178.362 184.694 189.296 138.193Z" fill="#201F1F"/>
<path d="M104.646 120.69C103.685 120.69 102.909 119.919 102.909 119V49.6173C102.909 48.6991 103.685 47.9277 104.609 47.9277H104.646C105.57 47.9277 106.347 48.6991 106.347 49.6173V119.037C106.347 119.919 105.57 120.69 104.646 120.69Z" fill="#FEFEFE"/>
<path d="M106.125 119.918C105.681 120.763 104.646 121.056 103.796 120.616L62.3888 98.4675C61.5754 98.0268 61.2427 96.9983 61.6863 96.1903V96.1535C62.13 95.3455 63.1651 95.0149 63.9785 95.4557L105.386 117.604C106.273 118.081 106.569 119.11 106.125 119.918Z" fill="#FEFEFE"/>
<path d="M320 122.085H134.223V236.315H320V122.085Z" fill="#DFDFDF"/>
<path d="M227.13 184.269L320 127.154V122.085H134.223V127.154L227.13 184.269Z" fill="#181818"/>
<path d="M227.13 179.2L134.223 122.085H320L227.13 179.2Z" fill="#DFDFDF"/>
<path opacity="0.32" d="M134.223 236.352H296.856V145.078V140.009H134.223V236.352Z" fill="#9FA0A0"/>
<path d="M287.909 147.979H102.132V262.21H287.909V147.979Z" fill="#DFDFDF"/>
<path d="M195.002 210.163L287.909 153.048V147.979H102.132V153.048L195.002 210.163Z" fill="#181818"/>
<path d="M195.002 205.131L102.132 147.979H287.909L195.002 205.131Z" fill="#DFDFDF"/>
<path d="M235.929 21.7758L242.583 21.2983L249.238 20.8208C249.238 20.8208 252.418 38.7083 256.041 40.6183C256.041 40.6183 261.845 61.5911 245.504 62.7298C225.725 64.1255 231.936 42.2711 231.936 42.2711C235.3 39.9204 235.929 21.7758 235.929 21.7758Z" fill="#E50000"/>
<path d="M274.933 122.159L282.142 83.2621C281.144 65.7052 278.741 48.4053 278.741 48.4053C269.498 43.1529 256.041 40.6553 256.041 40.6553L255.93 40.7655C249.164 46.3484 239.589 47.0463 232.084 42.455L231.936 42.3816C231.936 42.3816 217.739 46.7525 209.347 53.2537C209.347 53.2537 208.312 63.2442 210.456 75.4386C212.231 85.5394 214.597 95.5299 217.887 105.263L223.618 122.233H274.933V122.159Z" fill="#E50000"/>
<path d="M274.933 122.16L282.142 83.2625C281.92 79.5895 281.883 76.0266 281.92 72.6107C271.716 87.8904 259.701 102.803 240.328 97.9545C228.387 94.9426 220.29 80.4342 211.602 72.9046C210.974 72.3536 210.345 71.8394 209.717 71.3252C210.012 72.8679 210.308 74.484 210.604 76.1368C212.268 86.0172 214.708 95.7874 217.924 105.264L223.617 122.16H274.933Z" fill="#B40000"/>
<path d="M225.54 26.0361C227.241 23.7955 229.681 26.8441 229.681 26.8441C229.681 26.8441 225.799 15.1273 228.461 9.69121C231.123 4.25517 241.216 6.31205 241.216 6.31205C241.216 6.31205 250.902 2.85942 254.303 7.89144C257.704 12.9235 255.523 25.0444 255.523 25.0444C255.523 25.0444 257.52 21.6652 259.516 23.6486C261.512 25.632 257.002 31.2885 255.93 32.0231C255.93 32.0231 249.756 45.7234 244.025 46.1274C238.295 46.5314 230.235 33.8228 230.235 33.8228C229.089 33.2719 223.839 28.2766 225.54 26.0361Z" fill="white"/>
<path d="M243.988 10.9033C243.988 10.9033 251.567 11.6746 252.676 15.6048C253.231 17.5147 252.935 19.6451 252.713 21.5918C252.603 22.6202 252.27 28.093 252.529 28.2032C252.787 28.3134 253.305 28.1297 253.49 27.9828C254.451 27.1013 255.154 25.8892 255.782 24.7873C257.039 22.6202 259.109 22.8406 259.812 24.0894C259.812 24.0894 260.071 4.4021 251.789 4.29191C243.545 4.14499 243.988 10.9033 243.988 10.9033Z" fill="#5B5B5B"/>
<path d="M239.145 11.2348C239.145 11.2348 231.751 13.0713 231.233 17.1116C230.975 19.0951 231.566 21.1519 232.047 23.0252C232.306 24.0169 233.415 29.4162 233.156 29.5631C232.897 29.71 232.38 29.5998 232.158 29.4529C231.086 28.7183 230.198 27.5797 229.422 26.588C227.869 24.6413 225.836 25.1188 225.355 26.4411C225.355 26.4411 222.324 7.01087 230.494 5.72532C238.665 4.43977 239.145 11.2348 239.145 11.2348Z" fill="#5B5B5B"/>
<path d="M261.18 155.803C260.588 156.905 257.778 158.448 258.592 160.101C258.998 160.909 261.512 159.476 262.104 158.815C262.917 157.934 268.722 150.404 269.72 148.2C270.496 146.474 271.236 144.748 272.086 143.168C270.311 141.919 268.722 140.34 267.28 138.65C264.544 139.642 261.623 141.075 258.924 141.993C257.483 142.47 255.93 142.764 254.488 143.168C253.564 143.425 251.641 143.756 251.456 144.931C251.272 146.217 253.194 145.996 253.97 145.923C255.08 145.813 257.15 144.931 257.815 146.217C258.777 148.09 255.227 149.926 253.97 151.065C252.824 152.13 248.647 155.289 251.456 155.803C252.048 155.913 256.337 152.791 257.002 152.387C256.854 152.534 254.081 154.812 253.933 154.959C253.194 155.803 251.124 157.493 251.604 158.448C252.676 160.505 257.335 155.693 258.037 155.032L256.263 156.942C254.747 158.374 253.786 159.623 254.895 160.211C256.41 160.982 259.812 156.979 261.18 155.803Z" fill="white"/>
<path d="M261.919 139.753L271.236 146.805C271.236 146.805 303.696 112.279 301.33 98.6518C297.448 76.2832 285.95 50.7558 279.11 48.5887C276.264 47.6705 273.047 59.0935 276.818 75.2547C276.818 75.2547 283.51 99.0558 283.066 101.517C282.66 104.014 261.919 139.753 261.919 139.753Z" fill="#E50000"/>
<path d="M226.723 174.756C227.241 175.931 229.903 177.694 228.941 179.237C228.461 180.008 226.058 178.355 225.54 177.694C224.801 176.739 219.625 168.769 218.811 166.492C218.183 164.692 217.591 162.929 216.852 161.276C218.737 160.174 220.438 158.742 222.028 157.162C224.653 158.374 227.462 160.027 230.05 161.166C231.455 161.753 232.971 162.194 234.376 162.708C235.263 163.039 237.186 163.516 237.26 164.692C237.334 166.014 235.448 165.61 234.672 165.463C233.563 165.243 231.566 164.214 230.79 165.463C229.681 167.263 233.082 169.356 234.191 170.605C235.263 171.744 239.145 175.27 236.298 175.564C235.707 175.637 231.677 172.185 231.049 171.707C231.16 171.854 233.747 174.352 233.895 174.535C234.561 175.417 236.483 177.29 235.929 178.208C234.709 180.192 230.42 174.976 229.792 174.278L231.418 176.335C232.786 177.878 233.674 179.2 232.49 179.678C231.049 180.302 227.98 176.041 226.723 174.756Z" fill="white"/>
<path d="M226.132 158.816L217.296 164.656C217.296 164.656 186.832 127.375 189.863 113.858C194.817 91.7101 203.247 57.8083 210.086 52.6294C212.452 50.8296 220.031 65.0441 219.477 73.9328C219.477 73.9328 208.201 118.192 208.497 120.69C208.792 123.188 226.132 158.816 226.132 158.816Z" fill="#E50000"/>
<path d="M254.71 6.60628C254.71 6.60628 254.858 3.59442 251.419 1.72118C247.981 -0.152049 241.142 -0.96011 235.707 1.72118C230.272 4.40248 228.646 5.02689 227.056 4.14537C225.466 3.26384 226.464 2.34559 226.464 2.34559C226.464 2.34559 222.915 2.30886 223.1 7.78164C223.285 13.2544 230.05 20.0495 238.886 20.0495C252.418 20.0862 256.78 10.6833 254.71 6.60628Z" fill="#5B5B5B"/>
</svg>
