<svg width="320" height="233" viewBox="0 0 320 233" fill="none" xmlns="http://www.w3.org/2000/svg">
<path d="M260.312 197.886C253.508 190.227 233.45 179.8 238.722 167.842C243.199 157.68 264.73 158.917 262.138 146.664C260.607 139.418 258.633 133.233 263.287 124.986C268.383 116.002 283.611 120.892 288.912 112.556C293.448 105.398 287.557 94.3236 296.924 89.552C305.26 85.3105 315.304 93.6167 316.806 100.951C318.691 110.141 309.589 114.47 308.411 122.482C307.675 127.578 312.299 129.345 314.98 132.909C317.513 136.326 319.81 141.245 319.987 145.457C320.488 158.181 306.556 159.83 299.958 167.901C293.831 175.382 305.112 180.213 303.433 188.342C301.607 197.12 289.089 201.921 280.312 201.803C274.185 201.744 264.524 202.628 260.312 197.886Z" fill="#5B5B5B"/>
<path d="M269.207 202.061C269.148 202.061 269.089 202.032 269.06 202.002C268.765 201.855 268.677 201.56 268.854 201.295C268.972 201.119 281.401 182.415 282.138 158.881C282.609 143.211 289.118 133.167 294.479 124.949C297.719 119.972 300.517 115.642 300.959 111.312C300.989 110.958 301.313 110.693 301.696 110.693C302.078 110.693 302.344 111.017 302.285 111.371C301.813 116.025 298.927 120.472 295.598 125.568C290.326 133.668 283.905 143.506 283.434 158.881C282.668 182.68 270.061 201.59 269.914 201.767C269.708 202.032 269.443 202.12 269.207 202.061Z" fill="white"/>
<path d="M283.169 159.004C282.874 158.945 282.668 158.68 282.698 158.414C282.727 158.09 283.051 157.855 283.405 157.884C288.677 158.208 295.717 155.116 297.837 149.99C298.102 149.372 298.338 148.694 298.633 147.958C299.929 144.512 301.549 140.182 304.936 138.621C306.585 137.855 308.5 137.855 310.621 138.592C310.945 138.709 311.092 139.033 310.945 139.357C310.797 139.681 310.444 139.799 310.09 139.711C308.294 139.092 306.791 139.092 305.437 139.681C302.579 141.007 301.048 145.042 299.84 148.282C299.575 149.018 299.31 149.696 299.045 150.344C296.63 156.176 289.001 159.357 283.287 159.033C283.228 159.004 283.198 159.004 283.169 159.004Z" fill="white"/>
<path d="M279.429 158.411C276.984 157.852 275.128 156.791 273.891 155.201C271.947 152.697 271.623 148.897 273.037 144.214C273.184 143.743 273.361 143.213 273.538 142.624C274.628 139.266 276.306 134.17 274.657 131.343C274.097 130.4 273.243 129.781 271.977 129.487C271.623 129.399 271.417 129.045 271.535 128.721C271.623 128.397 272.006 128.191 272.36 128.279C273.95 128.692 275.099 129.516 275.806 130.724C277.72 133.993 275.924 139.413 274.775 142.948C274.598 143.537 274.421 144.037 274.274 144.509C272.978 148.839 273.214 152.285 274.952 154.523C276.424 156.438 279.016 157.469 282.61 157.675C282.963 157.704 283.199 157.969 283.169 158.293C283.14 158.617 282.816 158.853 282.492 158.824C281.373 158.735 280.371 158.617 279.429 158.411Z" fill="white"/>
<path d="M276.424 194.679C275.688 194.532 275.01 194.296 274.392 193.943C274.126 193.766 274.068 193.442 274.274 193.206C274.48 192.971 274.833 192.912 275.128 193.059C278.28 194.974 284.701 192.499 287.44 190.555C288.589 189.76 289.59 188.346 290.68 186.874C292.624 184.223 294.627 181.454 297.837 181.366C298.191 181.336 298.426 181.601 298.426 181.896C298.426 182.19 298.132 182.455 297.808 182.455C295.304 182.514 293.478 185.018 291.711 187.404C290.562 188.965 289.502 190.438 288.176 191.351C285.702 193.088 280.341 195.386 276.424 194.679Z" fill="white"/>
<path d="M271.269 193.527C270.533 193.38 269.797 193.144 269.09 192.761C265.113 190.641 262.757 185.25 262.139 182.099C261.815 180.42 262.315 178.181 262.845 175.796C263.7 171.996 264.613 168.02 262.139 166.223C261.873 166.017 261.844 165.663 262.05 165.428C262.286 165.192 262.669 165.162 262.934 165.339C265.968 167.578 264.966 172.055 264.053 176.002C263.523 178.27 263.052 180.42 263.346 181.922C263.906 184.779 266.115 189.963 269.738 191.907C271.152 192.644 272.624 192.82 274.156 192.437C274.48 192.349 274.804 192.496 274.892 192.791C274.981 193.056 274.775 193.35 274.451 193.439C273.39 193.674 272.3 193.704 271.269 193.527Z" fill="white"/>
<path d="M58.1948 197.627C48.033 204.49 39.8447 209.557 28.9171 199.306C23.4091 194.122 21.4062 188.32 22.5254 180.249C23.4091 173.74 24.2633 170.794 20.3164 165.404C14.072 156.951 4.38149 153.652 0.817503 142.93C-3.09994 131.178 8.50512 123.314 5.35349 112.121C2.55532 102.254 -3.4534 93.064 3.67459 83.5208C9.71275 75.3914 20.9054 79.0143 24.4694 87.5266C26.4723 92.416 26.3251 97.9535 29.0643 102.519C31.7152 106.908 35.8683 107.88 40.3159 109.352C50.3599 112.622 59.1079 118.483 57.9592 131.208C57.2817 138.836 57.0755 145.051 64.5275 148.38C72.5097 151.944 76.9573 154.241 76.3977 165.463C75.9559 173.887 71.8617 178.364 67.3846 184.52C63.2021 190.264 59.049 199.159 52.2156 201.781L58.1948 197.627Z" fill="#DFDFDF"/>
<path d="M59.4905 193.533C57.6937 193.356 56.0737 192.885 54.6305 192.06C48.5629 188.585 46.9134 179.69 45.4407 171.737C44.7043 167.76 43.9974 163.961 42.8487 161.457C39.7265 154.683 35.8974 150.088 28.74 144.609C20.4633 138.247 18.8138 133.505 18.2542 123.049C17.7829 114.33 16.8699 105.346 13.3353 100.104C13.0702 99.6912 13.188 99.1021 13.6299 98.7487C14.0717 98.3952 14.6608 98.4541 14.9259 98.8665C18.696 104.463 19.6386 113.741 20.1098 122.754C20.6106 132.857 22.1127 137.157 30.0065 143.225C36.1036 147.879 40.9342 152.68 44.616 160.721C45.853 163.401 46.56 167.289 47.3258 171.383C48.7396 179.071 50.3301 187.642 55.7497 190.764C57.8705 191.972 60.4625 192.326 63.673 191.795C64.2032 191.707 64.7039 192.002 64.7923 192.414C64.8806 192.856 64.4977 193.268 63.9675 193.356C62.377 193.592 60.8748 193.68 59.4905 193.533Z" fill="white"/>
<path d="M36.546 151.034C36.3399 151.034 36.1631 150.976 35.9864 150.828C35.6035 150.534 35.6035 149.974 35.9864 149.621C39.2264 146.381 38.2249 141.02 37.1351 135.276C36.1926 130.24 35.2206 124.967 37.194 120.579C37.4297 120.078 38.0188 119.783 38.49 119.931C38.9908 120.078 39.2264 120.608 38.9908 121.109C37.2529 124.967 38.166 129.975 39.0497 134.776C40.1395 140.725 41.2588 146.793 37.3119 150.74C37.1351 150.917 36.8406 151.034 36.546 151.034Z" fill="white"/>
<path d="M44.4102 162.899C44.2923 162.899 44.1745 162.869 44.0567 162.81C42.7902 162.28 41.8182 161.662 40.9051 161.073C39.4029 160.13 38.1364 159.305 35.8684 159.07C34.6902 158.952 33.5415 158.981 32.4516 159.011C30.1542 159.07 27.7978 159.129 25.2058 157.744C21.524 155.8 17.8128 152.325 14.1604 147.406C13.6597 146.728 13.0411 145.668 12.3931 144.519C11.4506 142.899 9.71279 139.865 8.94698 139.659C8.50516 139.541 8.24007 139.1 8.35789 138.658C8.50516 138.216 8.94698 137.921 9.38879 138.01C10.7437 138.245 12.0102 140.307 13.9542 143.636C14.6022 144.725 15.1913 145.756 15.6331 146.375C18.0484 149.644 21.848 154.004 26.1778 156.301C28.3575 157.45 30.272 157.391 32.5106 157.332C33.6593 157.302 34.8669 157.273 36.1924 157.391C38.9022 157.656 40.4927 158.687 42.0538 159.659C42.9374 160.218 43.8211 160.778 44.9698 161.249C45.4411 161.426 45.6178 161.956 45.3527 162.369C45.176 162.722 44.7931 162.928 44.4102 162.899Z" fill="white"/>
<path d="M113.982 29.2588C115.042 30.9082 116.103 34.0599 117.899 35.1202C120.167 36.4457 123.672 36.3573 126.147 36.269C124.644 32.9995 124.262 25.5475 127.531 22.661C125.381 21.3355 125.292 25.6064 123.672 23.8392C123.083 23.1912 118.547 16.181 118.106 15.3857C116.839 16.8879 117.369 21.9835 116.132 26.1366C115.514 28.2868 113.982 29.2588 113.923 29.1999C113.952 29.1999 113.952 29.2293 113.982 29.2588Z" fill="#E50000"/>
<path d="M124.556 4.98633C124.556 4.98633 136.014 6.28233 136.603 9.43396C137.192 12.5856 135.219 16.4441 135.16 18.4765C135.101 20.5088 136.839 23.4248 136.809 24.2496C136.78 25.0743 134.247 25.575 133.746 26.0168C133.245 26.4586 129.799 31.7899 127.472 32.3201C125.175 32.8503 116.692 25.3394 116.22 19.8608C116.132 18.8005 114.689 16.7681 114.954 15.531C116.073 10.347 121.846 5.25142 124.556 4.98633Z" fill="white"/>
<path d="M122.229 1.21716C117.487 0.451341 120.374 3.07279 115.101 5.19351C111.272 6.7546 112.068 10.7899 113.246 12.616C113.717 13.3524 113.481 14.0888 112.775 15.3258C112.362 17.9473 116.869 23.7498 118.253 21.9531C118.577 21.5407 117.311 18.8309 117.399 17.6822C117.104 15.7677 118.813 13.8531 120.433 15.532C120.963 16.0917 121.523 16.8575 121.493 17.6233C121.434 19.8618 122.141 20.4804 123.113 19.7146C124.586 18.5953 122.907 14.0888 124.026 13.1168C126.559 10.9371 127.325 8.31568 127.325 8.31568C129.416 6.07714 126.972 1.95352 122.229 1.21716Z" fill="#5B5B5B"/>
<path d="M264.524 84.4854H53.1879V219.593H264.524V84.4854Z" fill="#DFDFDF"/>
<path d="M75.3674 109.64H65.294V194.41H75.3674V109.64Z" fill="#181818"/>
<path d="M84.0854 109.64H79.137V194.41H84.0854V109.64Z" fill="#181818"/>
<path d="M103.791 109.64H93.5707V194.41H103.791V109.64Z" fill="#181818"/>
<path d="M113.274 109.64H109.445V194.41H113.274V109.64Z" fill="#181818"/>
<path d="M129.268 109.64H125.969V194.41H129.268V109.64Z" fill="#181818"/>
<path d="M90.507 109.64H87.2081V194.41H90.507V109.64Z" fill="#181818"/>
<path d="M122.495 109.64H117.517V194.41H122.495V109.64Z" fill="#181818"/>
<path d="M143.319 109.64H135.454V194.41H143.319V109.64Z" fill="#181818"/>
<path d="M151.89 109.64H146.942V194.41H151.89V109.64Z" fill="#181818"/>
<path d="M158.842 109.64H156.367V194.41H158.842V109.64Z" fill="#181818"/>
<path d="M177.751 109.64H176.043V194.41H177.751V109.64Z" fill="#181818"/>
<path d="M167.472 109.64H163.29V194.41H167.472V109.64Z" fill="#181818"/>
<path d="M189.652 109.64H187.56V194.41H189.652V109.64Z" fill="#181818"/>
<path d="M214.864 109.64H211.977V194.41H214.864V109.64Z" fill="#181818"/>
<path d="M242.905 109.64H240.019V194.41H242.905V109.64Z" fill="#181818"/>
<path d="M193.186 109.64H191.566V194.41H193.186V109.64Z" fill="#181818"/>
<path d="M209.415 109.64H208.148V194.41H209.415V109.64Z" fill="#181818"/>
<path d="M237.308 109.64H235.423V194.41H237.308V109.64Z" fill="#181818"/>
<path d="M173.363 109.64H169.18V194.41H173.363V109.64Z" fill="#181818"/>
<path d="M185.468 109.64H180.932V194.41H185.468V109.64Z" fill="#181818"/>
<path d="M207.147 109.64H203.612V194.41H207.147V109.64Z" fill="#181818"/>
<path d="M201.492 109.64H195.954V194.41H201.492V109.64Z" fill="#181818"/>
<path d="M224.997 109.64H217.221V194.41H224.997V109.64Z" fill="#181818"/>
<path d="M233.243 109.64H228.619V194.41H233.243V109.64Z" fill="#181818"/>
<path d="M252.919 109.64H246.763V194.41H252.919V109.64Z" fill="#181818"/>
<path d="M136.426 42.25C136.426 42.25 137.28 42.9864 138.105 46.6093C140.962 58.774 143.731 75.5041 144.968 79.0386C146.47 83.3095 157.074 105.312 157.074 105.312L148.414 111.38C148.414 111.38 135.837 87.227 134.217 83.1328C132.597 79.0386 124.585 58.391 124.585 58.391L136.426 42.25Z" fill="#B40000"/>
<path d="M140.049 83.2834C135.867 75.6547 132.568 62.518 131.066 53.6816L124.645 58.3649C124.645 58.3649 132.656 79.0125 134.276 83.1066C135.896 87.2008 148.473 111.353 148.473 111.353L150.653 109.851C147.06 100.19 144.998 92.2964 140.049 83.2834Z" fill="#5B5B5B"/>
<path d="M95.8971 55.3887C92.9517 62.34 88.0917 81.4265 86.4128 84.5192H128.032C130.359 75.8301 133.157 65.2265 134.188 60.3371C136.544 49.0855 136.397 42.1342 136.397 42.1342C136.397 42.1342 130.182 36.7441 125.381 33.4746C125.381 33.4746 120.168 38.3935 114.188 28.9092C114.188 28.9092 100.433 32.6499 97.4582 33.7103C96.2506 34.1815 99.1666 47.6422 95.8971 55.3887Z" fill="#5B5B5B"/>
<path d="M101.581 44.5176C99.4899 48.2583 96.9274 52.3525 95.1601 55.7397C92.3325 62.9266 88.5034 81.4829 86.8539 84.5168H104.821C104.733 83.1029 104.114 80.7466 104.114 79.156C104.114 74.6495 104.409 70.3491 106.206 66.1372C107.855 62.3375 105.764 49.6721 105.027 48.8179C103.79 47.4041 102.671 45.9608 101.581 44.5176Z" fill="#5B5B5B"/>
<path d="M252.919 80.1875C224.672 93.6776 231.358 91.4686 226.764 92.6762C222.169 93.8838 195.129 95.5922 195.129 95.5922L192.155 107.197C192.155 107.197 225.085 105.401 229.591 104.37C234.068 103.339 252.978 96.1518 252.978 96.1518L252.919 80.1875Z" fill="#E50000"/>
<path d="M207.412 96.3231C208.237 97.7369 209.709 98.7973 211.83 98.7089C216.366 98.5617 220.843 98.4439 225.173 97.7959C227.706 97.5897 230.239 97.1184 232.743 96.3526C237.131 95.0271 241.579 93.525 245.732 91.5515C247.941 90.4912 250.533 90.0493 252.89 89.2246L252.919 96.1464C252.919 96.1464 234.009 103.333 229.532 104.364C225.055 105.395 192.096 107.192 192.096 107.192L195.041 95.7046C199.135 96.117 203.288 96.3231 207.412 96.3231Z" fill="#B40000"/>
<path d="M256.778 216.917C256.778 216.917 257.986 220.422 257.986 223.103C257.986 225.813 257.809 228.67 256.984 229.347C255.335 230.702 234.363 230.879 232.655 228.935C230.947 226.991 232.095 223.869 236.513 222.779C241.285 221.63 241.933 222.101 244.937 220.982C247.942 219.833 247.205 216.476 247.205 216.476L256.778 216.917Z" fill="#B40000"/>
<path d="M302.786 212.995C302.786 212.995 305.142 215.823 306.114 218.356C307.086 220.889 307.94 223.628 307.41 224.571C306.35 226.426 286.822 234.055 284.524 232.877C282.227 231.669 282.197 228.341 285.938 225.749C289.973 222.98 290.768 223.186 293.154 221.066C295.54 218.945 293.684 216.058 293.684 216.058L302.786 212.995Z" fill="#B40000"/>
<path d="M256.925 127.81L285.172 130.961C285.172 130.961 259.9 171.343 257.986 177.823C256.071 184.303 258.692 219.56 258.692 219.56H245.909C245.909 219.56 243.17 177.912 243.788 174.789C244.436 171.667 256.925 127.81 256.925 127.81Z" fill="#181818"/>
<path d="M258.015 129.904H290.268C290.268 129.904 294.038 139.801 292.3 147.312C290.562 154.852 289.413 170.846 289.59 173.674C289.737 176.501 305.495 214.174 305.495 214.174L293.743 218.533C293.743 218.533 277.543 182.628 275.982 178.534C274.392 174.498 258.015 129.904 258.015 129.904Z" fill="#201F1F"/>
<path d="M259.37 63.1939C261.991 63.3706 264.701 63.1055 267.146 62.5754C268.029 62.3692 268.942 62.0746 269.797 61.6328C270.062 64.8728 270.975 72.4426 273.655 75.2702C273.655 75.2702 273.302 79.0993 266.586 80.0419C259.9 80.9844 258.516 76.0066 258.516 76.0066C258.516 76.0066 259.812 67.995 259.37 63.1939Z" fill="white"/>
<path d="M273.655 75.4164C273.655 75.4753 273.625 75.5636 273.596 75.6815V75.7109C273.566 75.8287 273.508 75.976 273.449 76.1233C273.449 76.1233 273.449 76.1233 273.449 76.1527C273.39 76.3 273.272 76.4767 273.154 76.6829C273.125 76.7124 273.125 76.7418 273.095 76.7713C272.86 77.1542 272.506 77.5665 272.005 77.9789C271.976 78.0084 271.946 78.0378 271.917 78.0378C271.681 78.244 271.387 78.4502 271.063 78.6269C271.033 78.6564 270.974 78.6858 270.945 78.6858C270.621 78.892 270.238 79.0687 269.826 79.2454C269.413 77.5665 268.559 75.976 267.263 74.7389C264.966 72.5004 262.168 71.3811 259.163 71.2927C259.428 68.7007 259.634 65.5491 259.399 63.2222C262.02 63.3989 264.73 63.1339 267.175 62.6037C268.058 62.3975 268.972 62.1029 269.826 61.6611C270.091 64.9011 271.004 72.4709 273.684 75.2985C273.684 75.2985 273.684 75.328 273.684 75.3869C273.655 75.3869 273.655 75.4164 273.655 75.4164Z" fill="#E50000"/>
<path d="M270.238 43.9249C270.238 43.9249 259.016 41.1562 257.367 43.9249C255.717 46.6936 256.247 50.994 255.599 52.9379C254.951 54.8819 252.301 57.0027 252.035 57.7979C251.77 58.5638 253.979 59.9481 254.303 60.5077C254.627 61.0968 256.041 67.3117 258.015 68.6077C259.988 69.9037 270.15 65.7506 272.477 60.7728C274.804 55.795 273.272 45.3976 270.238 43.9249Z" fill="white"/>
<path d="M258.515 74.9173C258.515 74.9173 266.379 78.8348 272.771 74.1221C272.771 74.1221 284.936 76.2428 286.438 76.8613C287.675 77.3621 284.435 94.6813 285.849 103.4C287.263 112.118 292.918 133.208 292.918 133.208C292.918 133.208 278.014 144.665 252.418 137.449C252.418 137.449 251.593 107.847 251.858 99.6296C252.271 87.6122 252.33 80.4842 252.33 80.4842C252.33 80.4842 255.275 77.4799 258.515 74.9173Z" fill="#E50000"/>
<path d="M277.16 122.805C278.28 118.24 279.045 113.763 278.25 109.02C277.367 103.895 281.048 97.1502 281.755 91.9368C282.492 86.3699 283.051 82.5703 286.733 79.4775C286.497 84.7499 284.789 96.62 285.879 103.395C287.293 112.113 292.948 133.202 292.948 133.202C292.948 133.202 283.493 140.419 266.734 139.741C273.302 135.765 275.305 130.404 277.16 122.805Z" fill="#B40000"/>
<path d="M265.408 45.5156C265.408 45.5156 265.202 48.2548 266.822 51.1708C267.558 52.4668 264.407 56.1486 265.408 57.6803C266.056 58.7112 266.94 58.4166 267.676 56.2664C267.912 55.5301 268.678 54.9999 269.384 54.6464C272.035 53.3504 272.86 57.4446 270.474 58.7995C268.825 59.7421 270.032 63.9835 270.032 63.9835C271.918 65.309 277.867 63.3355 277.013 58.9468C276.454 56.1486 276.218 55.0883 277.19 54.3814C278.898 53.0559 281.078 49.5214 278.015 46.7526C273.803 42.9236 277.426 41.4803 272.713 40.5378C267.971 39.6247 264.259 42.629 265.408 45.5156Z" fill="#5B5B5B"/>
<path d="M273.566 42.7799C273.272 41.7785 271.357 40.5414 270.415 39.9228C268.972 38.9509 267.293 38.3618 265.555 37.9789C263.817 37.6254 261.961 37.6254 260.224 38.0378C258.721 38.3912 257.484 39.1276 255.953 39.3632C254.539 39.5989 253.096 39.5989 252.065 38.8036C251.8 39.7756 251.888 41.6607 252.035 42.3087C252.359 43.6636 253.331 44.8712 254.215 46.0788C256.601 49.3188 262.816 50.9094 267.028 48.9359C269.06 47.9934 270.916 47.1686 271.829 45.313C272.329 44.2232 272.771 43.693 273.566 42.7799Z" fill="#5B5B5B"/>
<path d="M95.2781 148.525C94.365 148.348 93.4224 148.024 92.5094 147.582C92.1264 147.406 91.7435 147.229 91.3606 147.052C89.7701 146.345 88.2679 145.668 87.0014 144.225C84.6156 141.574 84.1443 138.864 85.3225 134.858C86.3828 131.323 88.9748 128.437 92.6566 126.699C94.3355 125.904 95.7788 125.727 97.4283 125.521L97.929 125.462C100.109 125.167 101.905 123.695 103.614 122.251L103.908 122.016C104.615 121.427 105.263 120.808 105.941 120.16C106.412 119.718 106.883 119.277 107.354 118.835C113.952 112.885 123.407 113.975 130.152 115.948L129.769 117.274C123.348 115.418 114.394 114.328 108.267 119.866C107.796 120.307 107.325 120.749 106.883 121.162C106.206 121.81 105.528 122.458 104.792 123.076L104.497 123.312C102.73 124.814 100.698 126.522 98.1057 126.846L97.605 126.905C95.985 127.111 94.7184 127.259 93.2457 127.966C89.9468 129.527 87.5905 132.119 86.6479 135.27C85.5876 138.834 85.9705 141.014 88.0323 143.311C89.1221 144.519 90.4181 145.108 91.9203 145.786C92.3032 145.962 92.6861 146.139 93.0984 146.316C95.7199 147.582 98.3119 147.494 101.051 147.376C102.642 147.317 104.291 147.229 106 147.435C109.681 147.877 112.98 146.846 116.426 144.195L116.662 144.018C121.11 140.572 124.615 137.862 130.211 136.272L131.036 136.036C135.13 134.887 137.869 134.092 140.226 130.469C142.523 126.935 143.171 122.546 141.846 119.777C140.962 117.892 139.224 116.832 136.721 116.567L136.868 115.212C140.609 115.595 142.317 117.598 143.083 119.188C144.85 122.899 143.436 128.054 141.374 131.235C138.723 135.3 135.513 136.213 131.419 137.391L130.594 137.627C125.263 139.158 121.846 141.78 117.516 145.138L117.281 145.344C113.54 148.23 109.887 149.35 105.823 148.849C104.232 148.643 102.642 148.731 101.11 148.79C99.1955 148.849 97.2515 148.937 95.2781 148.525Z" fill="white"/>
<path d="M259.133 110.083L158.075 89.1112C155.129 88.4927 152.037 88.8167 149.268 90.0243L131.036 97.9476C126.676 99.8327 123.525 103.75 122.553 108.374L121.257 114.619C120.285 119.273 121.64 124.103 124.88 127.579L138.458 142.1C140.52 144.309 143.23 145.811 146.175 146.43L247.233 167.401C255.127 169.051 262.874 163.955 264.523 156.061L270.473 127.343C272.122 119.449 267.056 111.703 259.133 110.083ZM149.71 124.545C139.872 128.286 132.538 117.152 139.901 109.612C140.402 109.081 141.05 108.669 141.728 108.404C151.565 104.663 158.9 115.797 151.536 123.337C151.035 123.868 150.387 124.28 149.71 124.545Z" fill="#5B5B5B"/>
<path d="M165.174 132.974L172.626 109.587L178.664 110.824C179.548 111.001 180.314 111.236 180.991 111.472C181.669 111.708 182.258 112.061 182.817 112.444C183.377 112.856 183.789 113.328 184.055 113.858C184.32 114.388 184.467 115.036 184.496 115.802C184.496 116.244 184.437 116.744 184.349 117.245C184.261 117.599 184.172 117.981 184.055 118.364C183.112 121.163 181.433 122.517 179.018 122.4C181.374 123.313 182.287 125.168 181.698 127.967C181.639 128.291 181.521 128.644 181.433 128.997C180.726 131.295 179.577 132.885 178.016 133.769C176.455 134.653 174.57 134.888 172.302 134.417L165.174 132.974ZM171.006 130.676L172.391 130.971C173.628 131.236 174.57 131.118 175.248 130.647C175.896 130.176 176.426 129.292 176.838 128.025C176.956 127.701 177.044 127.377 177.103 127.083C177.28 126.17 177.251 125.433 177.015 124.903C176.691 124.196 175.896 123.725 174.629 123.46L173.392 123.195L171.006 130.676ZM174.394 120.014L175.601 120.249C176.809 120.515 177.751 120.426 178.34 119.984C178.959 119.543 179.46 118.747 179.813 117.569C179.872 117.363 179.931 117.186 179.96 117.009C180.137 116.185 180.019 115.537 179.666 115.124C179.224 114.594 178.37 114.182 177.074 113.917L176.367 113.769L174.394 120.014Z" fill="white"/>
<path d="M182.022 136.452L189.474 113.065L195.424 114.303C196.425 114.509 197.309 114.744 198.045 115.039C198.781 115.304 199.429 115.657 199.989 116.099C200.549 116.512 200.961 117.012 201.255 117.572C201.55 118.132 201.697 118.78 201.697 119.545C201.697 120.017 201.638 120.517 201.521 121.018C201.432 121.372 201.344 121.725 201.226 122.108C200.755 123.581 200.136 124.729 199.341 125.584C198.546 126.438 197.544 126.968 196.307 127.233L196.189 139.398L191.447 138.426L191.86 127.233L190.122 126.88L186.734 137.454L182.022 136.452ZM191.064 124.022L192.242 124.258C193.421 124.494 194.363 124.405 195.041 123.993C195.718 123.551 196.248 122.726 196.631 121.519C196.719 121.224 196.808 120.959 196.837 120.694C197.014 119.928 196.985 119.31 196.778 118.839C196.513 118.22 195.806 117.778 194.658 117.543L193.214 117.248L191.064 124.022Z" fill="white"/>
<path d="M197.604 139.687L209.769 117.272L214.982 118.362L212.214 142.721L207.795 141.808L208.561 136.418L204.703 135.623L202.14 140.659L197.604 139.687ZM206.087 132.766L209.003 133.384L210.535 123.723L206.087 132.766Z" fill="white"/>
<path d="M214.569 143.194L222.021 119.808L225.35 120.485L226.822 133.946L230.769 121.604L234.746 122.429L227.294 145.816L224.113 145.168L222.817 130.941L218.634 144.049L214.569 143.194Z" fill="white"/>
<path d="M230.828 146.58L238.28 123.193L244.053 124.401C245.555 124.725 246.763 125.108 247.676 125.609C248.589 126.08 249.237 126.698 249.65 127.435C250.062 128.171 250.239 129.025 250.209 129.938C250.18 130.439 250.121 130.969 250.003 131.558C249.885 132.118 249.738 132.707 249.532 133.355L246.822 141.779C246.233 143.576 245.555 144.99 244.76 145.962C243.965 146.934 242.904 147.611 241.608 147.935C240.312 148.259 238.692 148.23 236.748 147.817L230.828 146.58ZM236.66 144.312L237.691 144.518C238.074 144.607 238.427 144.636 238.751 144.636C239.075 144.636 239.34 144.607 239.576 144.577C239.812 144.518 240.018 144.43 240.224 144.253C240.43 144.077 240.578 143.929 240.725 143.753C240.872 143.605 240.99 143.34 241.137 143.016C241.284 142.692 241.402 142.398 241.491 142.162C241.579 141.897 241.697 141.544 241.844 141.072L244.79 131.853C244.966 131.323 245.084 130.881 245.172 130.469C245.231 130.204 245.261 129.938 245.29 129.732C245.349 129.173 245.202 128.76 244.848 128.436C244.495 128.112 243.906 127.877 243.022 127.67L242.021 127.464L236.66 144.312Z" fill="white"/>
<path d="M143.76 121.636C143.348 121.871 142.936 122.078 142.464 122.225C142.7 124.787 141.905 127.88 140.226 130.502C139.283 131.945 137.457 133.447 135.66 134.448C134.453 135.096 133.245 135.391 132.391 135.715C132.685 136.098 132.951 136.481 133.245 136.864C134.011 136.54 135.13 136.275 136.22 135.686C138.223 134.596 140.344 132.917 141.404 131.267C143.024 128.705 144.232 124.935 143.76 121.636Z" fill="white"/>
<path d="M186.971 94.2086C188.591 92.1175 192.007 92.2058 194.098 93.0894C195.807 93.7962 195.895 95.6517 196.131 98.3614C196.307 100.187 196.366 101.925 195.895 102.455C193.715 104.046 193.657 97.949 193.303 96.4175C193.303 96.4175 194.128 102.868 193.009 103.427C190.888 104.399 190.947 98.4497 190.711 96.9476C191.094 98.3613 191.153 100.983 190.859 101.365C190.859 102.514 189.975 102.278 189.739 102.161C188.65 101.513 188.65 96.6237 188.65 96.6237C188.65 97.4778 189.327 100.688 187.913 100.04C187 99.6278 186.941 98.2435 186.765 97.5072C186.5 96.0641 186.617 94.6798 186.971 94.2086Z" fill="white"/>
<path d="M279.811 122.537C277.602 122.448 274.892 122.861 272.624 122.861C271.593 122.861 270.503 122.714 269.472 122.655C268.824 122.625 267.499 122.39 267.116 123.126C266.703 123.921 267.999 124.216 268.53 124.334C269.266 124.51 270.827 124.392 270.945 125.394C271.151 126.837 268.441 127.22 267.381 127.691C266.409 128.133 263.787 129.046 265.496 129.989C266.645 130.637 269.06 129.164 270.032 128.752C268.736 129.105 267.617 129.576 266.468 130.224C265.79 130.607 264.494 131.138 264.494 131.874C264.494 132.964 266.91 132.316 267.528 132.051C268.971 131.432 269.237 131.255 270.238 130.548C269.207 131.079 265.466 132.669 266.703 133.965C267.44 134.76 270.385 132.522 271.534 132.051C270.886 132.64 268.971 132.964 269.119 134.201C269.207 134.819 270.297 134.319 270.798 134.054C271.534 133.641 272.182 133.082 272.918 132.728C273.507 132.463 273.89 132.11 274.509 131.668C275.834 130.725 277.042 130.49 278.191 129.282C279.251 128.133 280.252 126.984 281.372 126.012C279.28 125.276 281.431 123.686 279.811 122.537Z" fill="white"/>
<path d="M276.571 121.948L279.723 129.194C279.723 129.194 312.123 118.678 310.621 110.166C309.295 102.684 290.415 77.6776 286.321 76.7645C280.813 75.5569 278.574 88.723 281.755 91.9041C288.442 98.6198 297.985 108.104 297.19 109.606C296.394 111.167 276.571 121.948 276.571 121.948Z" fill="#E50000"/>
<path d="M104.615 120.389C104.88 121.273 106.647 122.745 105.852 123.776C105.44 124.306 103.878 122.922 103.554 122.392C103.083 121.656 100.02 115.529 99.637 113.821C99.313 112.466 99.0185 111.17 98.665 109.933C100.079 109.285 101.434 108.401 102.671 107.37C104.468 108.43 106.323 109.844 108.09 110.875C109.033 111.405 110.093 111.847 111.065 112.318C111.684 112.613 113.009 113.114 112.98 113.968C112.95 114.91 111.596 114.498 111.065 114.321C110.3 114.086 108.945 113.173 108.297 114.027C107.354 115.234 109.622 117.002 110.329 117.974C111.006 118.887 113.51 121.685 111.448 121.685C111.006 121.685 108.414 118.887 108.002 118.533C108.09 118.651 109.74 120.654 109.828 120.772C110.241 121.479 111.478 122.952 110.977 123.57C109.946 124.896 107.295 120.831 106.883 120.271L107.884 121.862C108.738 123.069 109.269 124.1 108.385 124.365C107.295 124.748 105.44 121.449 104.615 120.389Z" fill="white"/>
<path d="M105.175 107.701L97.694 112.325C97.694 112.325 81.1995 83.6952 80.9049 75.448C80.6693 68.7912 82.0537 60.544 88.5042 45.9346C92.6278 36.5975 97.1049 32.8568 98.9605 33.5932C100.286 34.1233 107.767 37.4517 104.086 48.9095C102.79 52.9153 94.3951 69.94 94.2478 71.5894C94.13 73.2094 105.175 107.701 105.175 107.701Z" fill="#B40000"/>
<path d="M144.938 111.197C146.558 113.318 149.974 113.2 152.066 112.317C153.774 111.61 153.862 109.754 154.098 107.045C154.275 105.218 154.333 103.481 153.862 102.951C151.683 101.36 151.624 107.457 151.27 108.988C151.27 108.988 152.124 102.538 150.976 101.979C148.855 101.007 148.914 106.956 148.679 108.458C149.061 107.045 149.12 104.423 148.826 104.04C148.826 102.892 147.942 103.127 147.707 103.245C146.617 103.893 146.617 108.782 146.617 108.782C146.617 107.928 147.294 104.718 145.881 105.366C144.968 105.778 144.909 107.162 144.732 107.899C144.467 109.342 144.585 110.726 144.938 111.197Z" fill="white"/>
<path d="M141.433 4.37054C141.433 4.37054 144.643 8.9949 137.162 12.1171C129.68 15.2098 118.9 7.0509 118.9 7.0509C118.9 7.0509 119.165 2.98618 125.144 1.24837C129.622 -0.0476279 133.804 0.129099 136.072 2.72109C139.96 7.10981 141.433 4.37054 141.433 4.37054Z" fill="#5B5B5B"/>
</svg>
