<svg width="200" height="208" viewBox="0 0 200 208" fill="none" xmlns="http://www.w3.org/2000/svg">
<path d="M87.1835 192.903C135.334 192.903 174.367 153.87 174.367 105.72C174.367 57.5695 135.334 18.5361 87.1835 18.5361C39.0334 18.5361 0 57.5695 0 105.72C0 153.87 39.0334 192.903 87.1835 192.903Z" fill="#E50000"/>
<path d="M152.77 113.792C157.23 77.5681 131.481 44.5875 95.2569 40.1275C59.0332 35.6675 26.0526 61.4171 21.5926 97.6407C17.1326 133.864 42.8822 166.845 79.1058 171.305C115.33 175.765 148.31 150.015 152.77 113.792Z" fill="white"/>
<path d="M98.03 151.64C123.397 145.65 139.106 120.23 133.116 94.8627C127.126 69.4953 101.706 53.7868 76.3384 59.7768C50.971 65.7667 35.2626 91.1869 41.2525 116.554C47.2425 141.922 72.6626 157.63 98.03 151.64Z" fill="#E50000"/>
<path d="M119.661 105.719C119.661 123.663 105.127 138.197 87.1834 138.197C69.24 138.197 54.7056 123.663 54.7056 105.719C54.7056 87.7756 69.24 73.2412 87.1834 73.2412C105.127 73.2412 119.661 87.7756 119.661 105.719Z" fill="white"/>
<path d="M102.179 105.719C102.179 113.988 95.476 120.714 87.1838 120.714C78.9146 120.714 72.1887 114.011 72.1887 105.719C72.1887 97.4495 78.8916 90.7236 87.1838 90.7236C95.453 90.7236 102.179 97.4265 102.179 105.719Z" fill="#E50000"/>
<path d="M125.996 66.7923C125.996 66.7923 124.729 69.8561 124.799 69.764C124.868 69.6718 122.863 68.8195 122.748 68.8425C122.633 68.8656 120.975 68.7965 120.306 68.6582C119.638 68.52 119.109 68.0593 118.901 67.9211C118.648 67.7829 118.256 67.2991 118.625 67.207C118.947 67.1148 119.316 67.5525 119.523 67.6447C119.731 67.7368 120.468 67.7368 120.468 67.7368C120.468 67.7368 120.191 67.6216 119.661 67.3913C119.016 67.1379 118.049 66.7462 117.865 66.5619C117.68 66.3777 117.726 65.986 118.233 66.0782C118.832 66.1934 119.385 66.4698 119.5 66.4928C119.592 66.5159 120.56 66.8614 120.56 66.8614C120.56 66.8614 119.731 66.5389 119.454 66.4237C119.132 66.2855 118.233 65.9169 117.657 65.6635C117.104 65.4101 117.22 64.7882 117.726 64.8342C118.095 64.8573 119.362 65.5484 119.569 65.6175C119.777 65.6866 120.652 66.0782 120.652 66.0782C120.652 66.0782 119.615 65.5944 119.431 65.4793C119.247 65.3641 118.095 64.9264 117.957 64.5808C117.888 64.4196 117.957 64.074 118.371 64.1432C118.832 64.2123 119.523 64.4887 119.823 64.6499C120.076 64.7882 121.735 65.5714 122.103 65.5944C122.426 65.6175 122.794 65.5714 122.794 65.1567L123.37 64.1201C123.37 64.1201 123.762 64.3044 123.946 65.2489C123.969 65.7557 124.822 66.4007 125.996 66.7923Z" fill="#DFDFDF"/>
<path d="M160.615 79.0242C160.615 76.4674 158.611 74.3483 156.078 73.9798C151.932 73.3578 144.215 72.1601 141.889 71.6303C138.641 70.8932 125.443 66.4707 125.443 66.4707L123.991 69.9719C123.991 69.9719 138.365 77.2045 140.967 77.7573C143.547 78.3332 156.838 83.0321 159.418 81.5579C160.293 81.0282 160.615 80.0838 160.615 79.0242Z" fill="#AFB2B2"/>
<path d="M171.119 113.644L170.29 111.133H132.929L133.735 113.644H171.119Z" fill="#181818"/>
<path d="M175.565 126.957L174.712 124.423H137.167L137.973 126.957H175.565Z" fill="#181818"/>
<path d="M165.499 100.331L164.669 97.8203H127.308L128.115 100.331H165.499Z" fill="#181818"/>
<path d="M180.033 140.409L179.181 137.853H141.428L142.258 140.409H180.033Z" fill="#181818"/>
<path d="M184.571 154.023L183.719 151.443H145.759L146.588 154.023H184.571Z" fill="#181818"/>
<path d="M189.155 167.773L188.302 165.147H150.135L150.964 167.773H189.155Z" fill="#181818"/>
<path d="M193.807 181.662L192.909 179.036H154.558L155.387 181.662H193.807Z" fill="#181818"/>
<path d="M198.092 201.679H198.276C199.451 201.679 200.28 200.528 199.911 199.399L164.831 94.3183C164.6 93.6042 163.932 93.1436 163.195 93.1436H160.777L196.456 200.505C196.687 201.196 197.331 201.679 198.092 201.679Z" fill="#181818"/>
<path d="M160.086 201.679H160.27C161.445 201.679 162.274 200.551 161.906 199.422L128.391 94.3413C128.161 93.6273 127.493 93.1436 126.756 93.1436H126.71C125.535 93.1436 124.706 94.2722 125.051 95.4009L158.427 200.482C158.681 201.196 159.349 201.679 160.086 201.679Z" fill="#181818"/>
<path d="M160.017 62.5781C159.947 62.6703 159.878 62.7394 159.786 62.8315C159.049 63.5686 158.289 64.3287 157.414 64.9046C156.884 65.2501 156.055 65.4804 155.617 65.8489C155.433 65.9871 155.249 66.1254 155.041 66.2405C155.295 67.7147 155.963 71.6074 155.847 73.1277C155.847 73.1277 160.569 72.7822 162.297 70.8703C162.32 70.8703 160.339 65.6186 160.017 62.5781Z" fill="#DFDFDF"/>
<path d="M157.46 70.4789C157.782 69.1429 158.543 67.8069 159.625 66.9086C159.994 66.6091 160.362 66.3097 160.754 66.0563C160.408 64.8355 160.109 63.5687 159.994 62.5552C159.925 62.6473 159.855 62.7164 159.763 62.8086C159.026 63.5456 158.266 64.3058 157.391 64.8816C156.861 65.2271 156.032 65.4575 155.594 65.826C155.41 65.9642 155.226 66.1024 155.018 66.2176C155.272 67.6917 155.94 71.5845 155.824 73.1047C155.824 73.1047 156.631 73.0356 157.713 72.8513C157.391 72.1373 157.276 71.3081 157.46 70.4789Z" fill="#DFDFDF"/>
<path d="M157.391 146.973C157.391 146.973 157.253 151.695 156.516 152.34C155.778 152.985 146.404 153.262 145.597 152.409C144.791 151.557 145.275 150.106 147.279 149.53C149.444 148.931 150.504 149.507 151.84 148.954C153.199 148.401 152.83 146.259 152.83 146.259L157.391 146.973Z" fill="#181818"/>
<path d="M180.655 146.812C180.655 146.812 181.369 151.395 180.655 152.086C179.941 152.754 170.382 153.514 169.553 152.685C168.723 151.856 169.138 150.382 171.119 149.76C173.261 149.069 174.298 149.506 175.657 149C176.739 148.608 176.002 146.42 176.002 146.42L180.655 146.812Z" fill="#181818"/>
<path d="M173.722 120.369C173.929 107.332 172.432 98.3489 171.764 94.1567C170.198 94.2258 168.631 94.364 167.088 95.0551C164.232 96.368 161.353 97.6118 158.473 98.8557C160.8 103.693 165.913 119.471 166.535 122.765C167.295 126.865 175.887 147.826 175.887 147.826L181.07 147.181C180.978 143.818 173.699 121.521 173.722 120.369Z" fill="#DFDFDF"/>
<path d="M163.057 96.919C161.56 97.6561 159.994 98.2319 158.427 98.8078C160.731 103.553 164.9 116.659 165.844 120.16C166.581 117.972 170.105 112.651 171.441 106.824C172.34 102.931 172.501 98.8999 171.879 94.9611C171.879 94.9381 171.879 94.9381 171.879 94.915C168.954 95.0993 166.144 95.4218 163.057 96.919Z" fill="#DFDFDF"/>
<path d="M166.95 96.2058C164.923 96.8968 161.238 97.8642 158.473 98.8547C156.539 103.738 150.803 115.301 150.527 120.53C150.204 126.288 152.185 148.124 152.185 148.124H158.128C158.128 148.124 158.681 123.501 159.51 121.935C162.251 116.729 165.291 112.583 167.019 109.335C169.921 103.899 170.889 100.398 171.395 97.8412C171.626 96.7126 172.593 92.935 170.704 91.7603C169.092 92.244 168.631 95.653 166.95 96.2058Z" fill="#DFDFDF"/>
<path d="M156.285 100.053C156.285 100.053 161.284 102.08 166.19 101.597C169.829 101.251 171.718 101.182 173.837 100.03C173.837 100.03 171.557 82.2941 168.931 76.6968C166.305 71.0996 161.998 70.04 161.998 70.04C161.998 70.04 158.589 72.021 155.825 71.9749C155.825 71.9749 155.894 82.8699 156.101 87.2234C156.331 91.5768 156.285 100.053 156.285 100.053Z" fill="#AFB2B2"/>
<path d="M156.055 85.6332C156.032 85.1495 156.032 84.6427 156.009 84.1129C156.009 84.0438 156.009 83.9747 156.009 83.9287C155.986 83.4219 155.986 82.8921 155.963 82.3393C155.963 82.2472 155.963 82.155 155.963 82.0629C155.94 81.464 155.94 80.8421 155.94 80.2202V80.1972C156.17 80.1972 156.4 80.1972 156.608 80.1511C158.335 79.8056 159.855 78.8382 161.353 77.9629C161.606 77.8247 161.882 77.6865 162.136 77.5713C162.435 79.8977 161.399 82.7539 160.938 84.5966C159.694 89.7332 159.003 96.2057 160.086 101.158C157.875 100.674 156.285 100.075 156.285 100.075C156.285 100.075 156.331 91.599 156.101 87.2455C156.078 86.854 156.055 86.4163 156.055 85.9326C156.055 85.8174 156.055 85.7253 156.055 85.6332Z" fill="#4F5151"/>
<path d="M162.458 58.1542C162.458 58.1542 160.432 53.939 157.76 54.1002C155.065 54.2615 153.337 54.6991 152.992 55.7587C152.623 56.7952 152.024 59.6514 151.333 60.711C150.642 61.7705 149.168 63.1526 149.191 63.6363C149.214 64.12 150.757 64.2812 150.849 64.4655C150.942 64.6498 151.771 68.1509 152.324 68.4964C152.876 68.865 158.059 66.838 158.842 65.2947C159.648 63.7975 162.689 60.8952 162.458 58.1542Z" fill="#DFDFDF"/>
<path d="M156.976 58.5693C156.723 58.5923 156.378 58.7536 156.17 58.7996C155.779 58.8687 155.364 58.9148 154.972 58.9609C154.166 59.0991 153.36 59.2142 152.577 58.9609C151.402 58.5693 151.794 57.4176 151.241 56.6114C150.988 56.2198 150.435 56.2198 150.135 55.7822C149.859 55.3676 149.79 54.7687 149.79 54.285C149.813 53.0642 151.011 52.949 151.955 52.7187C153.061 52.4423 153.13 51.8434 153.636 50.9911C154.949 48.9411 156.792 51.7973 158.22 51.613C158.957 51.5209 159.74 51.0372 160.455 51.4518C161.076 51.7973 161.445 52.4192 161.86 52.972C162.297 53.5479 162.712 53.3175 163.357 53.5479C163.817 53.7322 164.324 54.1698 164.67 54.5383C165.407 55.3906 165.891 56.6575 165.66 57.7861C165.476 58.7305 164.716 59.2373 164.67 60.2508C164.647 61.0339 164.693 62.0244 164.301 62.7384C163.748 63.798 162.482 63.9362 161.652 64.6502C160.869 65.3413 159.74 65.825 158.658 65.5716C158.543 64.8345 158.612 63.5677 159.28 63.1991C159.533 63.0609 159.856 63.0148 160.27 62.6924C161.03 62.0935 160.57 60.5502 159.165 60.7345C158.312 60.8496 157.944 63.1761 156.999 62.7845C156.285 62.5081 157.138 61.3334 157.345 60.9188C157.598 60.389 157.737 59.053 157.23 58.6154C157.184 58.5693 157.092 58.5463 156.976 58.5693Z" fill="#181818"/>
<path d="M134.45 100.146C134.173 100.123 133.851 100.054 133.759 100.1C133.298 100.261 132.538 100.031 132.238 99.9158C131.524 99.6394 130.418 99.1556 129.681 99.2939C129.244 99.363 126.663 99.9619 127.308 101.045C127.401 101.183 127.7 101.413 127.792 101.367C128.069 101.275 128.806 100.999 128.806 100.999C128.806 100.999 128.23 101.206 128.115 101.298C128.023 101.367 127.815 101.459 127.746 101.551C127.608 101.782 127.815 102.242 128.046 102.312C128.276 102.381 128.437 102.173 128.622 102.058C128.622 102.058 128.622 102.058 128.599 102.058C128.414 102.196 128.023 102.289 128.276 102.841C128.552 103.44 128.737 103.072 128.99 103.003C129.082 102.98 129.174 102.934 129.267 102.887C129.174 102.934 128.806 103.118 128.737 103.187C128.506 103.394 129.036 104.131 129.52 104.062C129.819 104.016 130.511 103.602 130.672 103.648C130.856 103.694 131.086 103.694 131.271 103.717C131.87 103.763 132.469 103.602 133.021 103.371C133.275 103.256 133.736 103.072 133.989 102.934C134.588 102.611 135.256 102.104 135.417 101.966C135.003 101.206 134.381 101.022 134.45 100.146Z" fill="#DFDFDF"/>
<path d="M135.348 103.394L133.251 99.2705C133.251 99.2705 143.594 92.6367 147.394 88.8131C151.172 84.9894 155.272 77.227 158.151 76.7433C161.03 76.2596 163.933 77.8489 162.274 81.8568C160.593 85.8647 152.139 91.2086 150.412 92.9592C148.707 94.7328 137.052 102.449 135.348 103.394Z" fill="#AFB2B2"/>
<path d="M164.093 5.54518C162.251 4.76202 156.354 1.67548 151.609 12.87C147.094 23.5347 142.326 37.9539 142.326 37.9539C142.326 37.9539 154.074 28.2797 162.366 20.2178C171.073 11.7874 165.821 6.65081 164.093 5.54518Z" fill="#E50000"/>
<path d="M154.005 14.0913L142.718 25.7004C139.309 29.2016 136.246 33.0022 133.528 37.0562L87.4597 105.72L139.678 49.195C145.574 42.8146 150.411 35.5359 153.982 27.6353L158.381 17.938C156.677 16.9936 155.18 15.6807 154.005 14.0913Z" fill="#181818"/>
<path d="M140.415 38.8524C140.415 38.8524 132.814 17.6842 139.931 3.97901C147.025 -9.72619 156.308 16.3713 156.308 16.3713L140.415 38.8524Z" fill="#E50000"/>
<path d="M140.369 38.7374C140.369 38.7374 162.85 38.6913 173.354 27.3586C183.834 16.0259 156.147 16.1641 156.147 16.1641L140.369 38.7374Z" fill="#E50000"/>
<path d="M123.577 66.8386C123.416 66.7695 123.232 67.2302 123.048 67.1842L123.071 66.6774C123.001 66.2167 121.274 66.1015 120.882 65.8941C119.73 65.2952 120.191 64.558 120.721 64.7193C121.089 64.8345 121.896 65.0648 122.218 65.2031C122.541 65.3413 123.094 65.2722 123.416 65.3413C123.739 65.4104 124.637 66.1936 124.913 66.3779C125.512 66.7695 124.199 67.092 123.577 66.8386Z" fill="#DFDFDF"/>
<path d="M42.2903 133.545C42.2903 133.545 33.0076 135.871 26.0513 141.008C19.0951 146.167 11.8855 162.13 10.4574 173.347C9.02925 184.565 6.19607 193.318 10.4574 199.053C14.7186 204.789 28.4929 205.94 40.3554 207.115C52.2179 208.267 68.572 205.434 71.8658 201.311C75.1597 197.187 74.9063 165.976 68.7102 154.206C62.5141 142.436 51.2965 133.291 42.2903 133.545Z" fill="#AFB2B2"/>
<path d="M58.0915 200.688C55.719 199.904 53.2543 199.029 51.2965 197.417C47.0812 193.939 44.5014 192.902 39.2497 192.948C34.4356 192.994 29.8058 192.971 25.6827 190.253C21.9973 187.812 19.9473 182.399 20.8456 178.137C21.4905 175.028 22.4119 172.563 24.3467 170.029C27.0417 166.436 27.5715 163.856 26.6041 159.388C25.4524 154.021 25.2911 149.437 26.8574 144.139C27.6636 141.398 29.5754 139.394 31.7406 137.598C29.8288 138.565 27.8709 139.694 26.0743 141.03C19.118 146.189 11.9084 162.152 10.4803 173.369C9.0522 184.587 6.21902 193.34 10.4803 199.075C14.7416 204.811 28.5159 205.962 40.3784 207.137C52.2408 208.289 68.5949 205.456 71.8888 201.333C72.5338 200.526 73.0405 198.707 73.386 196.196C69.2399 200.25 63.896 202.622 58.0915 200.688Z" fill="#4F5151"/>
<path d="M41.0002 135.87C41.0002 135.87 31.0496 133.452 29.6906 125.92C28.3316 118.387 32.2934 115.762 35.3339 117.512C38.3744 119.263 38.8581 118.318 40.9772 117.005C43.0963 115.693 46.2059 117.812 47.7492 120.046C49.2925 122.28 49.5919 119.654 53.2543 119.378C56.9167 119.079 58.1836 122.464 56.2487 126.91C54.3369 131.333 52.4942 136.055 41.0002 135.87Z" fill="#AFB2B2"/>
<path d="M51.7803 131.632C49.2005 132.3 50.7207 128.96 50.3061 127.808C49.6381 127.832 49.3848 128.96 49.1544 129.444C48.6707 130.503 47.5651 131.194 46.4134 131.194C44.801 131.171 44.5937 129.421 43.9027 128.338C43.6032 127.878 43.4881 127.901 43.3038 128.453C43.0965 129.052 43.3038 129.743 42.728 130.227C41.6914 131.079 39.9869 130.112 39.1807 129.421C38.3054 128.661 37.9369 127.417 37.0155 126.68C36.8543 126.864 36.7852 127.094 36.7161 127.325C36.4858 128.407 36.5549 130.48 34.7812 130.089C33.284 129.766 32.2705 127.325 31.7868 126.081C31.234 124.653 30.7042 122.925 30.7042 121.382C30.7042 120.714 30.7503 120.046 30.8424 119.401C30.8885 119.033 31.0267 118.203 31.211 117.881H31.188C29.7598 119.148 28.8846 121.797 29.6447 125.943C30.7964 132.346 38.1672 135.064 40.3555 135.732C40.724 135.847 41.1386 135.916 41.5302 135.916C50.5825 135.939 53.4157 132.784 55.1893 129.237C55.1893 129.237 55.1893 129.26 55.1663 129.26C55.2124 129.191 52.7017 131.379 51.7803 131.632Z" fill="#4F5151"/>
<path d="M45.1925 158.259C50.0757 158.743 54.4752 160.931 54.4061 165.814L46.2521 165.676C46.2521 163.833 44.3633 163.396 43.1656 163.373C42.4285 163.35 39.9869 163.327 39.9638 164.801C39.8947 168.141 54.982 164.939 54.8207 174.406C54.7286 180.095 50.237 182.122 44.7779 182.422L45.0313 188.457L40.056 188.365L40.4706 182.284C35.4262 181.662 30.7503 179.197 30.8424 174.107L38.9964 174.245V174.429C38.9964 176.686 41.5071 177.17 42.774 177.193C44.0178 177.216 46.4364 177.17 46.4594 175.535C46.5285 172.057 31.4413 174.959 31.6025 165.814C31.6947 160.54 35.8177 158.582 40.9082 158.236L40.7009 152.155L45.6763 152.247L45.1925 158.259Z" fill="white"/>
<path d="M33.7448 132.277L32.8464 137.022C32.8464 137.022 35.3802 139.464 42.3134 139.464C49.2466 139.464 52.9781 137.022 52.9781 137.022L52.5174 132.738C52.5405 132.738 43.0505 135.134 33.7448 132.277Z" fill="#181818"/>
</svg>
