<svg width="320" height="227" viewBox="0 0 320 227" fill="none" xmlns="http://www.w3.org/2000/svg">
<path d="M290.141 204.06H57.9768C51.5539 204.06 46.3586 199.379 46.3586 193.612V17.3697C46.3586 11.6034 51.5539 6.92188 57.9768 6.92188H290.141C296.564 6.92188 301.759 11.6034 301.759 17.3697V193.612C301.759 199.379 296.564 204.06 290.141 204.06Z" fill="#DFDFDF"/>
<path d="M290.141 19.3115H57.9768V191.7H290.141V19.3115Z" fill="white"/>
<path d="M215.744 170.619C251.916 149.059 263.762 102.258 242.201 66.0854C220.641 29.9132 173.84 18.0678 137.668 39.6279C101.496 61.1881 89.6503 107.989 111.21 144.162C132.771 180.334 179.572 192.179 215.744 170.619Z" fill="#181818"/>
<path d="M165.709 29.702C207.358 23.7073 246.009 52.5673 252.032 94.2158C258.084 135.864 229.224 174.516 187.575 180.596L165.709 29.702Z" fill="#E50000"/>
<path d="M171.361 181.281C171.247 181.281 171.104 181.252 170.99 181.252L176.3 105.32L239.957 62.7295C249.092 76.3174 253.973 92.9311 252.746 110.544C249.777 152.564 213.352 184.221 171.361 181.281Z" fill="#5B5B5B"/>
<path d="M166.623 180.652C171.047 181.252 175.415 181.452 179.754 181.28L176.699 105.091L101.138 95.0146C95.5718 136.749 124.888 175.086 166.623 180.652Z" fill="#DFDFDF"/>
<path d="M145.841 124.189L75.1329 87.165C72.1356 92.8742 69.7663 99.0401 68.1962 105.606C63.8573 123.59 66.0268 141.631 73.1347 157.245L145.841 124.189Z" fill="#5B5B5B"/>
<path d="M184.321 112.627L261.081 98.7256C261.709 102.094 262.08 105.434 262.252 108.745C262.994 123.018 259.768 136.777 253.431 148.852L184.321 112.627Z" fill="#E50000"/>
<path d="M76.8456 85.452C76.0464 85.1095 73.1632 86.1942 71.4505 87.3075C70.4799 87.9355 68.339 88.5921 66.6833 89.0488C66.8831 89.9623 66.9973 90.9043 67.0258 91.8463C67.0258 91.7892 69.6806 91.3896 69.9661 91.3039C70.851 91.0185 71.5646 90.3334 72.5923 90.5903C73.049 90.7045 73.5914 91.0756 73.991 91.2754C74.5334 91.5608 75.8465 92.874 76.5031 92.6456C77.4737 92.2745 75.8751 91.1327 75.7038 90.8186C75.4469 90.3619 75.5325 89.477 76.2747 89.6768C77.2738 89.9337 78.958 91.1327 80.0428 90.6188C81.3844 89.9908 77.2167 88.7919 76.5031 88.3352C77.6449 88.9061 81.3559 90.0479 81.6699 89.3914C82.2408 88.1353 78.3015 87.4788 77.2167 86.9364C78.3586 87.4788 79.7288 87.7928 80.3282 87.593C81.6985 87.1648 77.6735 85.7946 76.8456 85.452Z" fill="#DFDFDF"/>
<path d="M72.7921 158.216C71.9643 158.473 69.1954 157.045 67.6539 155.732C66.769 154.99 64.7136 154.076 63.1436 153.448C63.4291 152.564 63.6574 151.621 63.8287 150.708C63.8287 150.765 66.3979 151.479 66.6833 151.593C67.5397 151.993 68.1392 152.763 69.1954 152.592C69.6521 152.535 70.223 152.249 70.6512 152.078C71.2221 151.85 72.678 150.708 73.306 151.022C74.248 151.507 72.5067 152.449 72.3069 152.735C71.9929 153.163 71.9929 154.048 72.735 153.934C73.7627 153.791 75.5611 152.82 76.5888 153.42C77.8448 154.191 73.5629 154.904 72.7921 155.275C73.9911 154.819 77.8162 154.134 78.0446 154.819C78.4728 156.132 74.4764 156.332 73.3345 156.731C74.5334 156.303 75.9322 156.16 76.5031 156.446C77.8162 157.074 73.6485 157.987 72.7921 158.216Z" fill="#DFDFDF"/>
<path d="M26.8617 118.678C29.6592 120.991 33.7984 120.677 36.5103 118.25C40.9349 114.254 49.2132 106.889 51.8965 104.834C55.636 101.951 72.3925 91.4457 72.3925 91.4457L69.8805 86.707C69.8805 86.707 48.9848 95.9559 46.0161 98.2681C43.0758 100.58 25.9197 110.885 25.2061 115.053C24.9777 116.538 25.7199 117.765 26.8617 118.678Z" fill="#E50000"/>
<path d="M26.8617 118.678C29.6592 120.991 33.7984 120.677 36.5103 118.25C40.9349 114.254 49.2132 106.889 51.8965 104.834C55.636 101.951 72.3925 91.4457 72.3925 91.4457L69.8805 86.707C69.8805 86.707 48.9848 95.9559 46.0161 98.2681C43.0758 100.58 25.9197 110.885 25.2061 115.053C24.9777 116.538 25.7199 117.765 26.8617 118.678Z" fill="#E50000"/>
<path d="M29.8876 98.1836C30.0018 98.2978 30.0874 98.412 30.2016 98.5261C31.2292 99.5823 32.3425 100.639 33.57 101.466C34.3122 101.952 35.4826 102.294 36.1391 102.808C36.3961 103.008 36.6815 103.208 36.9384 103.379C36.5673 105.491 35.6253 111.001 35.768 113.142C35.768 113.142 29.0597 112.656 26.6048 109.945C26.6333 109.973 29.4023 102.494 29.8876 98.1836Z" fill="white"/>
<path d="M36.5959 105.463C36.7386 104.635 36.8528 103.893 36.9384 103.379C36.653 103.208 36.3961 103.008 36.1391 102.808C35.4826 102.294 34.3407 101.952 33.57 101.466C32.3425 100.639 31.2578 99.5823 30.2016 98.5261C30.0874 98.412 30.0018 98.2978 29.8876 98.1836C29.4023 102.494 26.6048 109.973 26.6048 109.973C27.4897 110.944 28.917 111.629 30.4014 112.114C30.9438 108.974 32.9991 106.176 36.5959 105.463Z" fill="#DFDFDF"/>
<path d="M33.6271 217.991C33.6271 217.991 33.7984 224.699 34.8546 225.612C35.9108 226.526 49.2132 226.925 50.3551 225.698C51.4969 224.47 50.8403 222.415 47.9572 221.616C44.9028 220.759 43.3898 221.587 41.4773 220.788C39.5647 219.989 40.0785 216.963 40.0785 216.963L33.6271 217.991Z" fill="#5B5B5B"/>
<path d="M0.599467 217.762C0.599467 217.762 -0.428187 224.271 0.570921 225.241C1.57003 226.183 15.1579 227.268 16.3283 226.098C17.5272 224.927 16.9277 222.843 14.1017 221.93C11.0758 220.959 9.59144 221.587 7.65031 220.874C6.10883 220.303 7.13649 217.22 7.13649 217.22L0.599467 217.762Z" fill="#5B5B5B"/>
<path d="M10.4193 180.225C10.1338 161.699 12.2462 148.967 13.1882 143.001C15.4148 143.087 17.6128 143.286 19.8394 144.286C23.893 146.141 28.0036 147.911 32.0856 149.681C28.7743 156.532 21.4951 178.94 20.6387 183.622C19.554 189.445 7.36485 219.19 7.36485 219.19L0 218.305C0.114184 213.509 10.4478 181.852 10.4193 180.225Z" fill="#DFDFDF"/>
<path d="M25.5486 146.941C27.6896 147.997 29.9162 148.796 32.1428 149.624C28.8885 156.361 22.951 174.973 21.6093 179.911C20.5816 176.8 15.5861 169.235 13.645 160.985C12.3604 155.447 12.132 149.738 13.017 144.143C13.017 144.114 13.017 144.086 13.017 144.086C17.1847 144.371 21.1811 144.8 25.5486 146.941Z" fill="#DFDFDF"/>
<path d="M20.0392 145.941C22.9224 146.912 28.1463 148.311 32.0856 149.709C34.826 156.646 42.9616 173.06 43.3898 180.482C43.8465 188.675 41.0205 219.675 41.0205 219.675H32.5709C32.5709 219.675 31.8002 184.735 30.6012 182.48C26.719 175.058 22.4085 169.206 19.9821 164.582C15.8715 156.846 14.4728 151.879 13.7591 148.282C13.4451 146.683 12.0464 141.345 14.7582 139.661C16.9848 140.289 17.6414 145.113 20.0392 145.941Z" fill="#DFDFDF"/>
<path d="M35.1686 151.392C35.1686 151.392 28.0892 154.247 21.0954 153.59C15.9286 153.105 13.2453 153.019 10.2194 151.392C10.2194 151.392 13.4451 126.215 17.1846 118.25C20.9241 110.315 27.033 108.802 27.033 108.802C27.033 108.802 31.8572 111.599 35.7966 111.542C35.7966 111.542 35.7109 127.014 35.3969 133.209C35.1115 139.346 35.1686 151.392 35.1686 151.392Z" fill="#E50000"/>
<path d="M35.5111 130.924C35.5397 130.239 35.5682 129.526 35.5682 128.755C35.5682 128.669 35.5682 128.555 35.5682 128.47C35.5968 127.756 35.5968 126.985 35.6253 126.214C35.6253 126.1 35.6253 125.957 35.6253 125.843C35.6539 124.987 35.6539 124.102 35.6824 123.246V123.217C35.3684 123.217 35.0544 123.217 34.7404 123.16C32.2854 122.675 30.1445 121.304 28.0036 120.048C27.6325 119.849 27.2614 119.649 26.8903 119.478C26.4621 122.789 27.9465 126.814 28.603 129.469C30.3729 136.748 31.3434 145.968 29.8305 152.99C32.9705 152.305 35.1971 151.449 35.1971 151.449C35.1971 151.449 35.14 139.403 35.454 133.237C35.4826 132.694 35.5111 132.038 35.5397 131.381C35.5111 131.181 35.5111 131.039 35.5111 130.924Z" fill="#E50000"/>
<path d="M64.8849 156.132L67.8536 150.252C67.8536 150.252 53.1525 140.832 47.7858 135.408C42.4192 129.984 36.5958 118.965 32.5138 118.252C28.4032 117.567 24.2925 119.822 26.6618 125.531C29.0312 131.24 41.049 138.805 43.504 141.288C45.9589 143.829 62.487 154.791 64.8849 156.132Z" fill="#E50000"/>
<path d="M27.8894 86.7364C27.8894 86.7364 38.7368 85.4804 39.479 87.3073C40.2212 89.1343 40.3925 94.2726 41.1062 95.3573C41.8198 96.442 43.0758 97.7266 42.6191 98.4403C42.1338 99.1254 41.62 98.9826 41.3345 99.7534C41.0205 100.553 41.1347 104.977 39.7074 105.634C38.2801 106.29 30.9723 105.919 28.3176 101.752C25.6343 97.5839 22.6369 87.1075 27.8894 86.7364Z" fill="white"/>
<path d="M25.149 87.7352L32.3425 91.0751C32.3425 91.0751 32.1142 95.2713 34.198 98.9252C34.198 98.9252 33.5415 99.9243 32.8849 99.3534C32.1998 98.7825 31.7716 98.497 31.6004 97.4408C31.4291 96.3846 30.8011 93.5871 28.917 94.9859C27.033 96.3561 29.0312 98.0117 29.9732 98.4114C29.9732 98.4114 31.4862 103.864 28.603 103.493C28.603 103.493 25.9197 101.808 23.636 95.2428C21.3238 88.6772 23.3791 86.5077 25.149 87.7352Z" fill="#5B5B5B"/>
<path d="M42.6191 85.3668C42.6191 85.3668 45.1882 89.0778 39.2221 91.5327C33.256 94.0162 24.6351 87.4792 24.6351 87.4792C24.6351 87.4792 24.8635 84.225 29.6307 82.8548C33.1989 81.8271 36.5388 81.9698 38.3372 84.0251C41.4487 87.5363 42.6191 85.3668 42.6191 85.3668Z" fill="#5B5B5B"/>
<path d="M298.277 100.609C298.162 100.724 298.077 100.838 297.991 100.952C297.021 101.98 295.993 103.036 294.851 103.864C294.137 104.377 293.024 104.72 292.425 105.234C292.168 105.434 291.939 105.633 291.654 105.805C292.082 107.803 293.138 113.084 293.053 115.168C293.053 115.168 299.504 114.511 301.759 111.856C301.759 111.856 298.876 104.749 298.277 100.609Z" fill="white"/>
<path d="M298.419 101.552C298.305 101.666 298.219 101.78 298.134 101.894C297.163 102.922 296.136 103.978 294.994 104.806C294.28 105.32 293.167 105.662 292.567 106.176C292.31 106.376 292.082 106.576 291.797 106.747C291.882 107.175 291.996 107.775 292.139 108.46C292.168 108.46 292.196 108.46 292.225 108.46C296.507 108.46 299.047 111.086 299.961 114.255C300.732 113.855 301.417 113.37 301.902 112.799C301.902 112.799 299.019 105.691 298.419 101.552Z" fill="#E50000"/>
<path d="M288.457 217.02C288.457 217.02 288.799 223.443 287.857 224.414C286.915 225.384 274.184 226.755 272.985 225.67C271.786 224.585 272.271 222.558 274.955 221.588C277.838 220.532 279.322 221.217 281.121 220.303C282.89 219.39 282.177 216.535 282.177 216.535L288.457 217.02Z" fill="#DFDFDF"/>
<path d="M318.801 216.905C318.801 216.905 320.6 222.985 319.743 224.041C318.887 225.069 306.098 227.781 304.814 226.782C303.529 225.811 303.843 223.756 306.412 222.528C309.181 221.244 310.751 221.786 312.435 220.701C314.12 219.645 313.149 216.848 313.149 216.848L318.801 216.905Z" fill="#DFDFDF"/>
<path d="M317.802 179.71C318.544 161.897 316.831 149.594 316.061 143.856C313.92 143.885 311.779 144.028 309.638 144.941C305.67 146.625 301.702 148.224 297.734 149.823C300.76 156.502 307.183 178.226 307.897 182.736C308.81 188.36 312.721 219.218 312.721 219.218L320 218.961C320 214.365 317.745 181.252 317.802 179.71Z" fill="#E50000"/>
<path d="M304.1 147.339C302.016 148.281 299.875 149.023 297.706 149.737C300.674 156.302 307.012 177.826 307.868 182.593C308.953 179.624 313.149 169.034 315.204 161.126C316.575 155.845 316.946 150.365 316.232 144.941C316.232 144.912 316.232 144.912 316.232 144.884C312.207 145.055 308.353 145.369 304.1 147.339Z" fill="#B40000"/>
<path d="M309.724 143.628C306.955 144.513 301.902 145.769 298.077 147.053C295.308 153.676 287.857 172.83 286.459 179.824C284.546 189.53 281.32 218.275 281.32 218.275L289.513 219.36C289.513 219.36 297.734 180.737 298.933 178.596C302.815 171.546 307.04 165.979 309.495 161.583C315.376 150.964 315.747 145.797 316.546 142.058C314.348 142.6 312.064 142.885 309.724 143.628Z" fill="#E50000"/>
<path d="M260.054 94.8141C260.824 94.8997 262.623 97.0121 263.479 98.6393C263.964 99.5527 265.335 101.009 266.448 102.093C265.906 102.75 265.392 103.435 264.935 104.149C264.963 104.12 263.051 102.636 262.88 102.436C262.309 101.808 262.052 100.951 261.138 100.723C260.739 100.609 260.168 100.666 259.74 100.666C259.197 100.666 257.57 101.123 257.17 100.637C256.571 99.8953 258.312 99.724 258.598 99.5527C259.026 99.2958 259.311 98.5822 258.655 98.4109C257.77 98.1825 255.914 98.3538 255.286 97.4974C254.516 96.4127 258.312 97.3261 259.054 97.2691C257.913 97.2405 254.487 96.4698 254.544 95.8418C254.63 94.6143 258.027 95.8132 259.112 95.8703C257.97 95.8132 256.742 95.4421 256.371 95.0139C255.515 94.0148 259.283 94.7285 260.054 94.8141Z" fill="#DFDFDF"/>
<path d="M309.838 123.702C310.38 120.248 308.125 116.966 304.785 115.909C299.333 114.168 289.17 110.914 286.145 109.686C281.948 107.974 265.049 99.21 265.049 99.21L262.337 103.606C262.337 103.606 280.178 116.423 283.547 117.765C286.915 119.078 303.815 128.298 307.611 126.842C308.981 126.329 309.609 125.101 309.838 123.702Z" fill="#5B5B5B"/>
<path d="M309.838 123.702C310.38 120.248 308.125 116.966 304.785 115.909C299.333 114.168 289.17 110.914 286.145 109.686C281.948 107.974 265.049 99.21 265.049 99.21L262.337 103.606C262.337 103.606 280.178 116.423 283.547 117.765C286.915 119.078 303.815 128.298 307.611 126.842C308.981 126.329 309.609 125.101 309.838 123.702Z" fill="#5B5B5B"/>
<path d="M294.708 151.935C294.708 151.935 301.302 152.877 307.982 152.021C312.949 151.393 317.459 149.566 318.487 147.682C318.487 147.682 314.862 127.072 311.037 119.536C307.24 111.999 301.302 110.715 301.302 110.715C301.302 110.715 296.735 113.541 292.939 113.598C292.939 113.598 293.481 128.47 293.938 134.408C294.423 140.374 294.708 151.935 294.708 151.935Z" fill="#5B5B5B"/>
<path d="M300.446 130.611C300.988 128.071 302.302 124.131 301.788 120.963C301.445 121.163 301.074 121.334 300.732 121.534C298.705 122.79 296.707 124.189 294.337 124.731C294.052 124.788 293.738 124.817 293.424 124.817C293.595 128.442 293.766 132.096 293.966 134.408C294.423 140.346 294.708 151.907 294.708 151.907C294.708 151.907 296.564 152.164 299.276 152.278C297.62 145.598 298.933 137.662 300.446 130.611Z" fill="#5B5B5B"/>
<path d="M301.217 93.8157C301.217 93.8157 298.22 88.1636 294.566 88.5632C290.912 88.9628 287.344 89.9905 286.915 91.4463C286.487 92.8736 287.001 96.0137 286.116 97.4981C285.231 98.9825 283.49 101.038 284.061 101.609C284.518 102.065 285.602 102.836 285.716 103.093C285.831 103.35 287.172 108.06 287.972 108.517C288.771 108.974 295.679 105.919 296.678 103.778C297.706 101.666 301.674 97.5266 301.217 93.8157Z" fill="#DFDFDF"/>
<path d="M295.65 88.7352C295.65 88.7352 292.71 96.8994 285.431 96.2143C285.431 96.2143 283.633 92.9029 285.402 90.2767C286.773 88.2785 290.94 86.3945 295.65 88.7352Z" fill="#E50000"/>
<path d="M318.487 118.565C318.116 114.511 316.089 112.171 313.178 109.544C309.666 106.404 307.411 103.15 306.127 98.5827C304.956 94.3865 305.527 90.3615 301.502 87.4498C298.505 85.2803 293.738 86.5078 291.768 88.0778C291.74 88.2491 291.768 88.3633 291.711 88.506C291.711 88.506 288.999 91.0751 293.338 94.729C294.88 96.0136 295.593 98.1545 295.736 98.5256C296.164 97.7549 296.421 97.6978 296.65 97.498C297.078 97.1554 297.62 97.0127 298.191 97.6122C299.047 98.4971 297.763 100.124 296.964 100.238C296.821 100.267 296.621 100.467 296.393 100.695C296.821 101.894 297.677 105.148 298.305 111.714C298.476 113.512 299.333 114.854 300.418 116.224C301.645 117.766 302.53 117.823 303.244 119.65C304.014 121.619 302.444 126.301 306.184 128.499C307.84 129.469 311.779 129.27 312.664 128.984C317.774 127.243 318.972 123.589 318.487 118.565Z" fill="#E50000"/>
<path d="M259.568 144.171C258.569 144.513 257.599 144.799 256.6 144.599C256.114 144.513 255.686 144.399 255.201 144.485C254.716 144.599 254.116 144.513 253.574 144.513C253.088 144.485 252.46 144.399 252.004 144.685C251.433 145.027 252.175 145.455 252.689 145.655C253.26 145.884 255.172 145.398 255.486 145.998C255.8 146.569 253.46 147.025 253.003 147.111C251.889 147.311 251.347 146.654 250.377 146.34C249.806 146.169 249.492 146.255 249.72 146.883C249.863 147.368 250.434 147.568 250.862 147.768C251.747 148.139 252.803 148.367 253.774 148.253C253.031 148.424 251.747 148.253 251.005 148.082C250.491 147.939 248.407 146.997 248.121 147.796C247.551 149.366 252.689 149.994 253.574 149.68C252.66 149.909 251.718 149.766 250.776 149.68C250.234 149.623 248.921 149.423 249.377 150.308C250.034 151.621 252.946 150.822 254.287 150.708C253.431 151.079 252.66 151.108 251.69 151.25C250.519 151.45 251.062 152.221 252.289 152.249C252.803 152.249 253.831 152.107 254.059 152.05C256.4 151.621 257.485 150.879 259.197 149.338C259.797 148.795 261.509 148.424 261.595 147.711C261.795 146.369 260.282 145.113 259.568 144.171Z" fill="#DFDFDF"/>
<path d="M259.768 149.623L257.427 144.228C257.427 144.228 272.614 135.436 278.608 130.754C284.603 126.073 291.768 115.882 295.907 115.739C300.046 115.568 303.843 118.337 300.76 123.675C297.677 129.013 284.831 134.979 282.091 137.148C279.379 139.318 262.309 148.567 259.768 149.623Z" fill="#5B5B5B"/>
</svg>
