<svg width="200" height="177" viewBox="0 0 200 177" fill="none" xmlns="http://www.w3.org/2000/svg">
<path d="M118.316 166.501H81.6843L84.7002 122.33H115.323L118.316 166.501Z" fill="#181818"/>
<path d="M123.118 159.425C122.677 158.752 121.935 158.357 121.123 158.357H100.847H99.1532H78.8771C78.0884 158.357 77.3228 158.752 76.882 159.425L71.3374 167.683C70.2703 169.284 71.407 171.419 73.3325 171.419H99.1532H100.847H126.667C128.593 171.419 129.73 169.284 128.663 167.683L123.118 159.425Z" fill="#181818"/>
<path d="M189.699 134.068H10.3004C4.61663 134.068 0 129.451 0 123.767V10.3004C0 4.61663 4.61663 0 10.3004 0H189.699C195.383 0 200 4.61663 200 10.3004V123.767C200.023 129.451 195.406 134.068 189.699 134.068Z" fill="#181818"/>
<path d="M190.813 8.88477H9.20996V123.813H190.813V8.88477Z" fill="#6F7070"/>
<path d="M125.09 86.626H115.137V123.698H125.09V86.626Z" fill="#DFDFDF"/>
<path d="M125.09 86.626H115.137V98.2487H125.09V86.626Z" fill="#DFDFDF"/>
<path d="M152.024 29.1396H151.792H151.56H93.1675V88.9471H148.961H151.769H175.408V52.5244C175.432 39.6025 164.946 29.1396 152.024 29.1396Z" fill="#E50000"/>
<path d="M116.807 88.9236H69.5508V52.5242C69.5508 39.6022 80.0368 29.1162 92.9587 29.1162H93.4227C106.345 29.1162 116.831 39.6022 116.831 52.5242V88.9236H116.807Z" fill="#E50000"/>
<path d="M112.771 83.8193H73.5874V53.6372C73.5874 42.9192 82.2639 34.2427 92.9819 34.2427H93.3763C104.094 34.2427 112.771 42.9192 112.771 53.6372V83.8193Z" fill="#181818"/>
<path d="M98.8281 84.3301H53.9841V88.9235H98.8281V84.3301Z" fill="#E50000"/>
<path d="M150.446 66.7902C151.861 66.7902 153.253 64.5399 153.253 61.292C153.253 54.7962 149.078 49.7156 142.002 49.7156C135.576 49.7156 130.379 54.9586 130.379 61.3848C130.379 67.7414 135.228 72.474 141.607 72.474C143.556 72.474 146.131 71.8244 148.034 70.3861L149.611 73.1236C147.639 74.6547 144.229 75.6523 141.607 75.6523C133.302 75.6523 126.992 69.5741 126.992 61.3848C126.992 53.0795 133.627 46.6069 142.002 46.6069C150.353 46.6069 156.617 52.7547 156.617 61.176C156.617 66.2798 153.857 69.5509 150.052 69.5509C148.01 69.5509 146.502 68.7621 146.038 66.9062L145.969 66.4886C144.623 68.3677 142.791 69.1797 140.865 69.1797C137.037 69.1797 133.395 66.0246 133.395 61.2688C133.395 56.8842 136.132 53.2187 140.378 53.2187C143.069 53.2187 144.832 55.0282 144.971 55.3298V53.5899H149.17V65.0503C149.194 66.3494 149.704 66.7902 150.446 66.7902ZM138.035 61.1528C138.035 63.4031 139.311 65.3982 141.329 65.3982C143.463 65.3982 144.716 63.4727 144.716 61.1992C144.716 58.9721 143.417 57.1857 141.259 57.1857C139.334 57.1857 138.035 58.9953 138.035 61.1528Z" fill="white"/>
<path d="M102.749 96.7405C103.074 87.4377 109.43 79.55 112.771 76.0237V74.0518H82.009C75.7452 74.0518 72.0101 77.2532 68.6231 82.5427C66.1407 86.4169 63.9136 91.3583 63.7048 96.7637C63.2408 109.384 65.9783 115.532 57.7658 123.907C49.5533 132.258 45.8879 137.037 48.3238 150.702H87.368C84.9321 137.061 88.5975 132.282 96.81 123.907C105.046 115.509 102.308 109.361 102.749 96.7405Z" fill="#E5E6ED"/>
<path d="M107.273 76.9512H78.5059C78.1579 77.3456 77.7867 77.7631 77.4155 78.2039H106.182C106.577 77.7631 106.948 77.3224 107.273 76.9512Z" fill="#DFDFDF"/>
<path d="M102.749 82.96H73.9821C73.7269 83.3775 73.4717 83.7951 73.2397 84.2127H102.007C102.239 83.7951 102.494 83.3775 102.749 82.96Z" fill="#DFDFDF"/>
<path d="M99.7329 88.9683H70.9659C70.8035 89.3858 70.6643 89.8034 70.5251 90.221H99.2921C99.4313 89.8034 99.5937 89.3858 99.7329 88.9683Z" fill="#DFDFDF"/>
<path d="M98.2484 95H69.4815C69.4351 95.4176 69.3887 95.8352 69.3655 96.2528H98.1324C98.1556 95.8352 98.202 95.4176 98.2484 95Z" fill="#DFDFDF"/>
<path d="M98.0629 101.009H69.2959C69.2959 101.426 69.2959 101.867 69.3191 102.262H98.086C98.0628 101.867 98.0629 101.426 98.0629 101.009Z" fill="#DFDFDF"/>
<path d="M98.1788 107.017H69.4119C69.4119 107.435 69.4119 107.875 69.4119 108.27H98.1788C98.202 107.875 98.202 107.458 98.1788 107.017Z" fill="#DFDFDF"/>
<path d="M97.9237 113.049H69.1336C69.064 113.467 68.9944 113.884 68.9016 114.302H97.6686C97.7846 113.884 97.8542 113.467 97.9237 113.049Z" fill="#DFDFDF"/>
<path d="M95.9051 119.058H67.1381C66.9061 119.475 66.651 119.893 66.3494 120.31H95.1163C95.3947 119.893 95.6731 119.475 95.9051 119.058Z" fill="#DFDFDF"/>
<path d="M91.0102 125.066H62.2432C61.8256 125.484 61.4313 125.925 61.0369 126.319H89.8038C90.1982 125.925 90.5926 125.507 91.0102 125.066Z" fill="#DFDFDF"/>
<path d="M85.8138 131.075H57.0468C56.7453 131.492 56.4669 131.91 56.2117 132.327H84.9786C85.257 131.91 85.5354 131.492 85.8138 131.075Z" fill="#DFDFDF"/>
<path d="M82.8207 137.106H54.0538C53.9378 137.524 53.8218 137.942 53.729 138.359H82.496C82.5888 137.918 82.7048 137.501 82.8207 137.106Z" fill="#DFDFDF"/>
<path d="M82.0089 143.115H53.2419C53.2419 143.533 53.2419 143.95 53.2651 144.368H82.0321C82.0089 143.95 82.0089 143.533 82.0089 143.115Z" fill="#DFDFDF"/>
<path d="M67.2545 87.6007C66.9761 87.1831 65.3754 88.5055 65.1434 88.8534C64.8186 89.3638 64.3082 89.7118 63.9602 90.431C63.6818 90.9878 63.4498 91.5213 63.1715 92.0781C63.0091 92.3797 63.0555 92.7509 62.9395 93.0757C62.8467 93.3309 62.3595 94.0733 62.0811 94.398C61.9883 94.514 62.1507 94.5604 61.9187 94.746C62.5451 95.2796 62.5915 95.7668 62.9627 96.5092C62.9859 96.4628 63.4498 96.022 63.7514 95.8364C64.0066 95.674 65.6306 95.0708 65.8858 94.9316C66.8369 94.4908 67.2545 94.1893 67.4633 94.0269C67.6257 93.8877 68.3449 93.6557 68.2521 93.4005C68.0665 92.8205 67.1849 93.1685 66.9529 93.1917C66.5585 93.2613 65.9322 93.6325 65.213 93.5629C64.9346 93.5397 64.517 93.0989 64.7026 92.4493C64.8418 91.8925 65.2594 91.4054 65.7002 91.0342C65.9786 90.8022 67.0225 89.8278 67.3241 89.5726C68.1825 88.8303 67.7881 88.2967 67.0225 88.7839C66.8601 88.8767 65.6306 89.8742 65.5146 89.9438C65.6306 89.7814 65.7698 89.6654 65.8394 89.5958C66.3265 88.9926 67.5793 88.0879 67.2545 87.6007Z" fill="#DFDFDF"/>
<path d="M33.082 73.4712C33.1516 73.5872 33.198 73.7032 33.2676 73.796C33.894 74.7935 34.5667 75.8375 35.3787 76.6959C35.8891 77.2295 36.7242 77.6702 37.1418 78.2038C37.3042 78.4126 37.4898 78.6214 37.6754 78.7838C37.0026 80.3613 35.3091 84.5372 35.0307 86.2539C35.0307 86.2539 29.8573 84.6996 28.3958 82.1245C28.4422 82.1477 31.9452 76.7655 33.082 73.4712Z" fill="#DFDFDF"/>
<path d="M33.9171 82.9364C33.8939 81.3589 33.3836 79.6886 32.4092 78.4126C32.0844 77.9718 31.7364 77.5774 31.3652 77.1831C32.0612 75.9071 32.6876 74.5616 33.082 73.4712C33.1516 73.5872 33.198 73.7032 33.2676 73.796C33.8939 74.7935 34.5667 75.8375 35.3787 76.6959C35.8891 77.2295 36.7242 77.6702 37.1418 78.2038C37.3042 78.4126 37.4898 78.6214 37.6754 78.7838C37.0026 80.3613 35.3091 84.5372 35.0307 86.2539C35.0307 86.2539 34.1491 85.9755 33.0124 85.4883C33.5924 84.7924 33.9403 83.8876 33.9171 82.9364Z" fill="#DFDFDF"/>
<path d="M13.8499 169.053C13.8499 169.053 13.0611 174.296 13.8963 175.061C14.7083 175.827 25.6351 176.592 26.5862 175.641C27.5374 174.69 27.0502 173.02 24.7767 172.301C22.3408 171.535 21.1112 172.185 19.5801 171.489C18.049 170.793 18.5361 168.38 18.5361 168.38L13.8499 169.053Z" fill="#6F7070"/>
<path d="M32.2469 169.053C32.2469 169.053 31.4581 174.296 32.2933 175.061C33.1052 175.827 44.032 176.592 44.9832 175.641C45.9344 174.69 45.4472 173.02 43.1737 172.301C40.7378 171.535 39.5082 172.185 37.9771 171.489C36.4459 170.793 36.9331 168.38 36.9331 168.38L32.2469 169.053Z" fill="#6F7070"/>
<path d="M12.133 139.497C9.48828 124.835 9.51148 114.442 9.48828 109.593C11.2514 109.361 13.0378 109.245 14.9401 109.755C18.42 110.683 21.8766 111.565 25.3565 112.446C23.6166 118.316 20.7863 137.038 20.6935 140.889C20.5775 145.621 19.4175 170.746 19.4175 170.746L13.1073 170.885C12.5738 167.057 12.3418 140.749 12.133 139.497Z" fill="#E50000"/>
<path d="M19.7887 111.077C21.6214 111.634 23.5006 111.982 25.3565 112.353C23.6398 118.13 20.8559 136.689 20.6703 140.726C19.4407 138.383 14.7545 130.077 12.1562 123.79C10.4394 119.568 9.51148 115.067 9.48828 110.497C9.48828 110.474 9.48828 110.451 9.48828 110.451C12.8058 110.126 16.0304 109.964 19.7887 111.077Z" fill="#E50000"/>
<path d="M15.5434 109.524C17.8865 110.22 22.132 111.148 25.3567 112.145C27.7926 117.643 34.5899 132.236 35.8659 138.082C37.6522 146.155 37.6754 170.282 37.6754 170.282L31.574 170.329C31.574 170.329 27.3982 143 26.6558 141.098C23.6863 133.442 18.2345 128.129 16.1234 124.51C10.9964 115.764 10.602 111.426 9.85962 108.317C11.646 108.758 13.5715 108.944 15.5434 109.524Z" fill="#E50000"/>
<path d="M30.4837 88.876C31.7829 86.2545 30.7621 84.3986 33.546 85.3033C38.1162 86.7881 42.4777 96.6245 45.1224 97.2741C48.8111 98.1557 62.3826 93.4694 62.3826 93.4694L63.7745 96.9261C63.7745 96.9261 45.888 104.744 42.9649 104.002C40.0418 103.259 32.3397 94.8846 30.4605 92.0543C29.8109 91.0567 29.9501 89.92 30.4837 88.876Z" fill="#DFDFDF"/>
<path d="M30.4837 88.876C31.7829 86.2545 30.7621 84.3986 33.546 85.3033C38.1162 86.7881 42.4777 96.6245 45.1224 97.2741C48.8111 98.1557 62.3826 93.4694 62.3826 93.4694L63.7745 96.9261C63.7745 96.9261 45.888 104.744 42.9649 104.002C40.0418 103.259 32.3397 94.8846 30.4605 92.0543C29.8109 91.0567 29.9501 89.92 30.4837 88.876Z" fill="#DFDFDF"/>
<path d="M27.816 116.157C27.816 116.157 22.2714 115.879 16.9124 114.116C12.9453 112.817 9.53505 110.59 8.97827 108.873C8.97827 108.873 15.242 92.5407 19.5803 86.9729C23.9185 81.4051 28.9759 81.2891 28.9759 81.2891C28.9759 81.2891 32.2702 84.3514 35.3789 84.9777C35.3789 84.9777 32.5718 97.1109 31.2495 101.913C29.9039 106.715 27.816 116.157 27.816 116.157Z" fill="#DFDFDF"/>
<path d="M26.5399 97.7603C26.4935 95.5796 26.0528 92.1461 26.9575 89.6406C27.2127 89.8494 27.4911 90.0582 27.7231 90.2902C29.1846 91.6589 30.623 93.1205 32.4557 93.9325C32.6877 94.0253 32.9429 94.0949 33.1981 94.1413C32.4789 97.0876 31.7365 100.057 31.2262 101.936C29.9038 106.738 27.8159 116.18 27.8159 116.18C27.8159 116.18 26.2615 116.088 24.0112 115.763C26.4471 110.497 26.6327 103.792 26.5399 97.7603Z" fill="#DFDFDF"/>
<path d="M33.4996 66.0941C33.4996 66.0941 37.8842 63.0318 40.4593 64.7022C43.0345 66.3725 44.5192 67.7876 44.2872 69.0172C44.0552 70.2468 43.0577 73.425 43.1504 74.8634C43.2432 76.3017 43.9392 78.5057 43.6376 78.9696C43.336 79.4336 41.7121 78.7376 41.5265 78.8768C41.3409 79.016 38.557 82.0319 37.7914 82.0551C37.0259 82.1015 33.0124 77.2065 33.082 75.2346C33.1516 73.2626 31.7365 68.6692 33.4996 66.0941Z" fill="#DFDFDF"/>
<path d="M38.789 69.5046C39.1602 70.4325 40.5058 72.0333 44.0553 72.3349C47.6279 72.6365 50.0406 65.4679 43.8233 62.6144C37.6291 59.7609 36.7011 62.0112 35.3324 61.8721C33.9636 61.7329 32.7573 61.8721 31.5973 62.8232C29.579 64.424 28.1406 66.8831 29.5558 70.8965C30.9709 74.9796 33.0821 75.5828 33.0821 75.5828C33.6156 74.91 34.242 73.6108 33.8012 72.8916C33.6156 72.5901 33.314 72.4045 33.1053 71.8245C32.7109 70.8037 34.01 69.5278 35.286 70.5021C35.8891 70.9661 35.5644 72.3117 35.7268 72.938C35.8891 73.6108 36.2139 73.6572 36.4923 73.7036C37.0259 73.7732 38.0699 72.6133 37.8843 70.7109C37.7915 69.4582 38.4179 68.5766 38.789 69.5046Z" fill="#181818"/>
<path d="M55.7243 116.6C55.9795 116.669 56.3042 116.739 56.3738 116.808C56.7449 117.11 57.5104 117.18 57.8352 117.18C58.6007 117.18 59.7837 117.133 60.41 117.527C60.7811 117.759 62.9384 119.221 61.9873 119.963C61.8482 120.056 61.5002 120.149 61.4074 120.102C61.1987 119.917 60.6187 119.406 60.6187 119.406C60.6187 119.406 61.0595 119.801 61.1523 119.917C61.2219 120.009 61.361 120.172 61.3842 120.288C61.4306 120.543 61.0595 120.891 60.8275 120.891C60.5955 120.891 60.526 120.613 60.3868 120.45C60.3868 120.45 60.3868 120.45 60.3868 120.473C60.5028 120.659 60.8275 120.891 60.41 121.308C59.9461 121.772 59.9229 121.355 59.6909 121.193C59.6213 121.146 59.5517 121.077 59.4821 120.984C59.5517 121.077 59.8301 121.355 59.8765 121.448C60.0156 121.726 59.2734 122.19 58.8558 121.981C58.6007 121.842 58.1135 121.216 57.9512 121.193C57.7656 121.169 57.5568 121.1 57.3712 121.053C56.8145 120.891 56.3042 120.52 55.8867 120.125C55.7011 119.94 55.33 119.592 55.1444 119.383C54.7036 118.873 54.5877 118.664 54.4717 118.479C55.1212 117.875 55.4923 117.435 55.7243 116.6Z" fill="#DFDFDF"/>
<path d="M54.6804 119.939L57.5107 116.158C57.5107 116.158 47.2567 106.437 43.4288 101.635C39.601 96.833 35.8891 87.5301 32.6644 86.6254C29.4398 85.7206 25.9599 87.1822 27.375 91.938C28.7902 96.6938 37.7451 103.77 39.485 105.997C41.2249 108.201 52.8709 118.663 54.6804 119.939Z" fill="#DFDFDF"/>
</svg>
