<svg width="320" height="247" viewBox="0 0 320 247" fill="none" xmlns="http://www.w3.org/2000/svg">
<path d="M128.991 188.304C117.301 175.112 82.8014 157.201 91.8769 136.646C99.6002 119.156 136.594 121.32 132.146 100.223C129.501 87.752 126.106 77.1138 134.129 62.9295C142.904 47.483 169.109 55.8974 178.185 41.5628C185.998 29.2417 175.841 10.2191 191.979 1.98493C206.283 -5.3176 223.593 8.95689 226.177 21.6086C229.393 37.4157 213.736 44.8685 211.722 58.6321C210.43 67.4071 218.424 70.4423 222.992 76.5729C227.379 82.4329 231.316 90.9074 231.587 98.1799C232.458 120.057 208.477 122.882 197.117 136.766C186.599 149.628 206.013 157.952 203.098 171.956C199.972 187.072 178.455 195.306 163.309 195.096C152.821 194.916 136.233 196.479 128.991 188.304Z" fill="#5B5B5B"/>
<path d="M144.257 195.516C144.167 195.486 144.076 195.486 143.986 195.426C143.505 195.185 143.325 194.675 143.626 194.224C143.836 193.923 165.233 161.738 166.465 121.289C167.276 94.3325 178.485 77.0829 187.681 62.9287C193.241 54.394 198.079 46.9412 198.8 39.4584C198.86 38.8574 199.431 38.3766 200.062 38.4066C200.724 38.4367 201.144 38.9475 201.084 39.5486C200.273 47.5423 195.284 55.2054 189.575 63.9805C180.529 77.8943 169.47 94.8434 168.629 121.259C167.306 162.189 145.609 194.735 145.399 195.035C145.158 195.426 144.678 195.576 144.257 195.516Z" fill="white"/>
<path d="M168.268 121.409C167.757 121.319 167.396 120.868 167.457 120.388C167.517 119.847 168.058 119.426 168.659 119.456C177.734 119.997 189.815 114.708 193.481 105.873C193.932 104.821 194.353 103.649 194.834 102.387C197.057 96.4666 199.822 89.0138 205.652 86.3392C208.507 85.0169 211.813 85.0169 215.419 86.2791C215.99 86.4894 216.23 87.0604 215.99 87.6014C215.749 88.1423 215.118 88.3827 214.547 88.2324C211.452 87.1506 208.838 87.1506 206.554 88.2024C201.625 90.4863 199.011 97.4282 196.937 102.988C196.456 104.25 196.006 105.452 195.555 106.534C191.378 116.541 178.275 122.07 168.448 121.469C168.388 121.439 168.328 121.409 168.268 121.409Z" fill="white"/>
<path d="M161.837 120.389C157.63 119.427 154.444 117.594 152.311 114.86C148.945 110.532 148.404 104.011 150.838 95.9871C151.078 95.1758 151.379 94.2742 151.71 93.2525C153.603 87.5126 156.488 78.7376 153.633 73.8392C152.701 72.2164 151.199 71.1646 149.035 70.6236C148.434 70.4734 148.073 69.8724 148.254 69.3314C148.434 68.7604 149.035 68.4299 149.636 68.5801C152.371 69.2713 154.354 70.6837 155.586 72.7874C158.862 78.437 155.797 87.723 153.783 93.7934C153.453 94.7851 153.152 95.6866 152.912 96.468C150.688 103.921 151.078 109.841 154.054 113.688C156.608 116.963 161.056 118.766 167.246 119.097C167.877 119.127 168.268 119.608 168.238 120.149C168.178 120.69 167.637 121.11 167.036 121.08C165.203 120.99 163.46 120.75 161.837 120.389Z" fill="white"/>
<path d="M156.698 182.775C155.436 182.535 154.264 182.144 153.212 181.513C152.761 181.242 152.641 180.671 153.002 180.251C153.332 179.83 153.993 179.71 154.444 180.01C159.884 183.286 170.912 179.019 175.601 175.713C177.554 174.331 179.327 171.926 181.19 169.372C184.526 164.804 188.012 160.086 193.481 159.906C194.082 159.876 194.533 160.296 194.503 160.807C194.473 161.318 193.992 161.739 193.421 161.769C189.094 161.889 185.968 166.187 182.933 170.304C180.98 172.978 179.117 175.503 176.863 177.095C172.625 180.07 163.43 184.007 156.698 182.775Z" fill="white"/>
<path d="M147.803 180.792C146.511 180.552 145.279 180.101 144.046 179.47C137.225 175.834 133.168 166.518 132.116 161.108C131.545 158.193 132.416 154.347 133.348 150.26C134.821 143.709 136.383 136.887 132.116 133.792C131.665 133.461 131.605 132.83 131.996 132.409C132.386 131.989 133.078 131.928 133.528 132.259C138.757 136.106 137.014 143.829 135.452 150.59C134.55 154.497 133.709 158.193 134.22 160.748C135.181 165.646 138.998 174.602 145.188 177.907C147.593 179.2 150.177 179.5 152.791 178.809C153.332 178.659 153.903 178.929 154.054 179.41C154.204 179.891 153.873 180.402 153.302 180.522C151.439 181.033 149.606 181.123 147.803 180.792Z" fill="white"/>
<path d="M212.714 232.691C192.67 227.732 176.803 223.255 176.352 202.038C176.141 191.039 181.04 183.466 192.61 177.366C201.986 172.437 206.794 170.755 208.958 161.018C212.414 145.451 204.901 130.095 214.698 115.069C225.636 98.2702 250.309 105.933 261.698 90.6972C271.916 77.0238 277.535 59.3234 299.112 59.5939C317.294 59.8042 324.716 78.7968 316.933 91.9594C312.545 99.3821 304.882 104.581 301.787 112.545C298.812 120.118 302.087 126.308 305.002 133.22C311.433 148.516 313.026 164.263 295.476 174.361C284.988 180.401 276.904 185.69 280.691 197.02C284.658 208.92 286.431 215.712 272.006 224.667C261.217 231.368 251.36 230.828 238.979 231.338C227.349 231.819 211.843 235.005 200.874 229.986L212.714 232.691Z" fill="#DFDFDF"/>
<path d="M219.205 221.692C217.522 219.768 216.38 217.785 215.809 215.712C213.375 206.816 221.85 197.891 229.543 189.807C233.42 185.75 237.116 181.843 238.829 178.538C243.547 169.492 244.959 161.438 243.968 148.787C242.766 133.791 246.793 127.661 259.054 117.744C269.361 109.359 279.579 100.163 282.434 91.0277C282.644 90.3065 283.576 89.9458 284.447 90.1562C285.349 90.3966 285.89 91.1479 285.679 91.8691C282.614 101.576 272.036 111.102 261.398 119.667C249.557 129.223 245.861 134.753 246.973 149.027C247.814 159.816 247.183 169.132 241.564 179.83C239.7 183.376 235.914 187.343 231.947 191.49C224.524 199.243 216.32 207.838 218.484 215.802C219.326 218.867 221.639 221.692 225.546 224.426C226.177 224.877 226.418 225.598 225.997 226.019C225.576 226.44 224.735 226.44 224.074 225.959C222.15 224.577 220.498 223.164 219.205 221.692Z" fill="white"/>
<path d="M244.569 162.942C244.358 162.702 244.238 162.461 244.208 162.161C244.178 161.499 244.839 161.019 245.651 161.109C252.893 161.89 258.242 156.24 264.042 150.14C269.151 144.731 274.53 139.081 281.863 137.518C282.704 137.338 283.666 137.759 283.966 138.45C284.297 139.141 283.906 139.832 283.065 140.013C276.634 141.365 271.495 146.714 266.627 151.823C260.646 158.104 254.576 164.475 245.771 163.513C245.29 163.483 244.869 163.242 244.569 162.942Z" fill="white"/>
<path d="M238.769 181.393C238.649 181.273 238.559 181.123 238.498 180.973C237.777 179.17 237.507 177.637 237.206 176.164C236.755 173.76 236.335 171.687 234.231 169.072C233.119 167.69 231.857 166.458 230.655 165.286C228.131 162.791 225.486 160.267 224.314 156.18C222.631 150.35 222.721 143.108 224.645 134.573C224.915 133.371 225.516 131.718 226.177 129.945C227.109 127.391 228.882 122.613 228.311 121.531C227.95 120.9 228.191 120.148 228.912 119.938C229.603 119.698 230.475 119.968 230.865 120.569C232.067 122.402 230.955 125.738 229.002 130.967C228.371 132.68 227.77 134.303 227.53 135.354C226.237 141.034 225.125 149.148 227.109 156C228.101 159.426 230.234 161.499 232.729 163.903C234.021 165.135 235.343 166.428 236.575 167.99C239.13 171.146 239.61 173.73 240.091 176.224C240.362 177.607 240.632 179.049 241.263 180.642C241.534 181.303 241.113 181.904 240.332 181.964C239.791 182.085 239.16 181.814 238.769 181.393Z" fill="white"/>
<path d="M92.2075 229.835C70.0295 225.808 49.2338 227.521 40.2484 203.21C33.1262 183.977 49.7146 165.886 33.036 152.663C22.9988 144.699 7.16166 139.951 3.67568 126.368C0.0394403 112.214 18.1305 103.228 14.8849 89.6448C12.1803 78.4055 -3.38644 77.6843 0.670523 63.0492C4.27671 50.0669 15.6963 46.8214 24.7418 49.4058C36.8526 52.8617 37.8743 63.9508 45.9281 71.674C51.3074 76.8128 58.9104 71.644 66.7839 70.7124C74.6274 69.7808 84.6946 70.4719 91.336 73.9279C112.913 85.1671 95.6334 108.998 99.5401 128.381C103.327 147.133 129.712 135.804 143.355 149.868C159.283 166.306 147.262 194.735 131.575 208.168C121.147 217.093 107.203 232.57 92.2075 229.835Z" fill="#DFDFDF"/>
<path d="M113.634 224.936C113.514 224.996 113.394 225.056 113.274 225.086C112.552 225.267 111.801 224.816 111.621 224.155C111.471 223.644 97.0458 175.381 61.8855 143.617C42.0815 125.736 37.3935 107.254 33.6972 92.7994C31.5635 84.385 29.7304 77.2026 25.5231 73.326C25.1926 73.0255 25.2226 72.3944 25.6133 71.9136C26.004 71.4327 26.605 71.3125 26.9356 71.6131C31.4734 75.7602 33.3666 83.1528 35.5904 91.8377C39.2567 106.082 43.9147 124.323 63.4482 141.844C99.2997 173.999 114.055 223.013 114.205 223.524C114.355 224.095 114.115 224.666 113.634 224.936Z" fill="white"/>
<path d="M63.2679 142.204C62.8171 142.535 62.2161 142.535 61.8555 142.144C61.4648 141.723 61.5249 141.002 61.9757 140.551C69.0979 133.549 73.7258 120.026 69.0678 111.522C68.5269 110.53 67.8958 109.448 67.2046 108.336C64.0492 103.047 60.2026 96.6161 62.2161 90.3353C63.2078 87.2701 65.5217 84.4753 69.0979 82.0411C69.6689 81.6504 70.2999 81.7406 70.5704 82.2514C70.8108 82.7323 70.5704 83.3934 70.0295 83.8141C66.9642 85.8877 65.101 88.0814 64.2896 90.5757C62.5767 95.9249 66.2129 101.995 69.188 106.924C69.8792 108.066 70.5403 109.148 71.0813 110.169C76.4004 119.876 71.1714 134.451 63.3881 142.084C63.358 142.114 63.328 142.174 63.2679 142.204Z" fill="white"/>
<path d="M57.7985 146.653C54.0721 149.327 50.4058 150.529 46.8898 150.319C41.4505 149.988 36.492 146.112 32.5251 139.2C32.1345 138.539 31.7138 137.727 31.2329 136.856C28.6185 131.987 24.7118 124.745 19.9336 124.084C18.3709 123.873 16.8683 124.384 15.2756 125.616C14.8248 125.977 14.2839 125.887 14.0435 125.436C13.803 124.985 13.9533 124.354 14.4041 124.024C16.3875 122.431 18.431 121.77 20.4745 122.04C26.004 122.792 30.1511 130.455 32.9459 135.594C33.3966 136.435 33.8174 137.216 34.208 137.877C37.9044 144.248 42.3821 147.825 47.2204 148.125C51.4276 148.365 55.9654 146.112 60.6834 141.424C61.1643 140.943 61.8254 140.943 62.2161 141.333C62.6067 141.754 62.5466 142.475 62.0959 142.926C60.7135 144.369 59.241 145.601 57.7985 146.653Z" fill="white"/>
<path d="M111.23 201.616C109.818 202.457 108.315 203.058 106.692 203.329C105.971 203.449 105.31 202.998 105.19 202.307C105.07 201.616 105.52 200.985 106.242 200.865C114.746 199.392 120.336 185.779 121.057 178.566C121.357 175.591 120.336 171.895 119.254 167.988C117.361 161.106 115.407 154.104 120.246 148.996C120.756 148.425 121.628 148.365 122.169 148.785C122.71 149.206 122.74 150.017 122.229 150.528C118.382 154.555 120.185 160.956 121.928 167.207C123.07 171.324 124.182 175.231 123.822 178.687C123.161 185.208 118.863 197.018 111.23 201.616Z" fill="white"/>
<path d="M101.103 207.177C99.7204 208.018 98.1577 208.619 96.4448 208.98C86.9785 211.023 74.988 205.614 69.3383 201.617C66.3932 199.513 63.7787 195.547 61.0441 191.399C56.8068 184.938 52.5094 178.387 47.0701 179.229C46.4991 179.319 45.9882 178.898 45.9281 178.297C45.868 177.696 46.3188 177.125 46.8898 177.035C53.5612 175.983 58.4596 183.406 62.8772 190.077C65.4917 194.044 68.016 197.83 70.6305 199.694C75.7693 203.3 87.249 208.469 95.8437 206.575C99.2696 205.824 101.854 203.991 103.477 201.136C103.837 200.535 104.619 200.325 105.25 200.655C105.881 200.986 106.121 201.737 105.761 202.368C104.619 204.382 103.026 206.004 101.103 207.177Z" fill="white"/>
<path d="M260.015 246.424H62.3663C59.7218 246.424 57.5581 244.26 57.5581 241.616V112.244C57.5581 109.599 59.7218 107.436 62.3663 107.436H260.015C262.66 107.436 264.824 109.599 264.824 112.244V241.616C264.824 244.26 262.66 246.424 260.015 246.424Z" fill="#181818"/>
<path d="M245.771 116.661H67.0844V235.785H245.771V116.661Z" fill="white"/>
<path d="M258.362 176.915C258.362 178.988 256.68 180.671 254.606 180.671C252.532 180.671 250.85 178.988 250.85 176.915C250.85 174.841 252.532 173.158 254.606 173.158C256.68 173.158 258.362 174.871 258.362 176.915Z" fill="white"/>
<path d="M205.652 213.548H107.263C104.559 213.548 102.335 211.354 102.335 208.62V145.241C102.335 142.536 104.529 140.312 107.263 140.312H205.652C208.357 140.312 210.581 142.506 210.581 145.241V208.62C210.581 211.324 208.387 213.548 205.652 213.548Z" fill="#DFDFDF"/>
<path d="M205.652 146.143H107.263V207.688H205.652V146.143Z" fill="#5B5B5B"/>
<path d="M138.186 157.532V198.012L177.614 177.757L138.186 157.532Z" fill="#E50000"/>
<path d="M158.02 106.684C158.02 106.684 133.017 106.534 124.242 100.704C115.467 94.8441 113.935 71.5842 126.677 62.0578C139.418 52.5315 142.063 49.6165 142.634 43.3357C143.205 37.055 143.055 22.8406 159.583 22.7805C175.781 22.7204 174.398 36.0032 175.631 44.4476C176.502 50.3377 184.586 59.0226 191.648 64.4319C200.724 71.3438 210.911 112.514 158.02 106.684Z" fill="#181818"/>
<path d="M155.135 39.1289L160.575 39.3092L166.014 39.4895C166.014 39.4895 167.126 54.365 169.891 56.1982C169.891 56.1982 172.836 73.8084 159.493 73.3877C143.355 72.8768 150.207 55.5671 150.207 55.5671C153.092 53.8842 155.135 39.1289 155.135 39.1289Z" fill="#E50000"/>
<path d="M136.954 107.346H180.829L184.526 93.1318C185.097 78.707 185.307 64.0118 185.307 64.0118C179.026 58.9331 168.959 55.2969 168.959 55.2969C163.67 59.2937 155.616 59.6543 150.568 55.2969C150.568 55.2969 140.59 59.3839 134.039 64.0118C134.039 64.0118 132.717 70.1123 133.378 79.7288C134.009 88.9847 135.241 98.2405 136.954 107.346Z" fill="#E50000"/>
<path d="M200.904 107.346C197.538 90.4566 194.443 79.7282 191.678 73.3874C188.072 65.0931 185.307 64.0113 185.307 64.0113C182.092 63.7108 179.688 90.6069 174.188 107.346H200.904Z" fill="#E50000"/>
<path d="M180.649 82.9436C179.778 85.3177 178.245 87.241 176.743 89.3746C175.39 91.2979 171.664 101.996 157.059 100.975C151.018 100.554 145.429 94.6036 142.965 88.5332C141.943 86.0389 141.462 83.6348 140.921 81.0203C140.53 79.127 140.41 76.6929 139.449 75.04C137.615 75.4908 137.435 78.2255 136.774 79.8182C136.383 80.7799 133.739 84.4462 133.528 81.7115C134.19 90.3363 135.331 98.901 136.954 107.345H184.105C183.204 97.4585 180.589 85.9488 180.649 82.9436Z" fill="#B40000"/>
<path d="M172.655 41.7736C171.093 40.0907 169.38 42.7954 169.38 42.7954C169.38 42.7954 170.041 39.7902 170.191 36.3944C166.585 34.411 162.949 32.067 159.523 31.0152V30.9551H159.493H159.463V30.9851C156.037 32.0369 152.401 34.3509 148.795 36.3644C148.945 39.7602 149.606 42.7653 149.606 42.7653C149.606 42.7653 147.893 40.0607 146.33 41.7436C144.768 43.4265 148.614 47.9342 149.516 48.4751C149.516 48.4751 152.701 56.2284 156.698 58.7828C157.75 59.4439 160.905 59.6242 162.468 58.6325C166.465 56.0481 169.47 48.4751 169.47 48.4751C170.372 47.9342 174.218 43.4565 172.655 41.7736Z" fill="white"/>
<path d="M170.161 33.5993C170.161 33.5993 164.692 43.2759 151.109 42.3744C151.109 42.3744 151.77 43.5163 150.958 45.5899C150.958 45.5899 149.997 41.7733 147.893 42.9754C146.781 43.6065 146.781 45.1692 147.923 46.852C148.434 47.6033 144.587 46.221 144.587 46.221C144.587 46.221 142.995 31.4657 152.761 28.1299C162.558 24.7642 170.161 33.5993 170.161 33.5993Z" fill="#5B5B5B"/>
<path d="M165.653 28.5214C165.533 29.2426 165.443 29.9338 165.443 30.625C165.473 32.1275 163.309 33.2094 163.249 34.6819C163.55 35.0125 163.85 35.3731 164.151 35.7337C165.984 38.0176 166.765 39.3399 167.427 42.1648C167.607 42.9461 167.156 43.5171 168.388 45.6808C168.388 45.6808 169.32 41.8342 171.664 42.4052C172.115 42.5254 173.046 43.2166 172.235 45.1098C171.934 45.801 174.669 42.2549 174.669 42.2549C174.669 42.2549 174.549 28.2208 165.653 28.5214Z" fill="#5B5B5B"/>
<path d="M146.661 172.288C147.172 173.46 149.876 175.293 148.915 176.886C148.434 177.697 146 175.984 145.459 175.293C144.708 174.301 139.449 166.157 138.637 163.813C138.006 161.98 137.375 160.177 136.654 158.494C138.547 157.352 140.32 155.91 141.913 154.287C144.587 155.519 147.442 157.232 150.087 158.404C151.499 159.035 153.062 159.456 154.504 159.997C155.406 160.327 157.359 160.838 157.419 162.04C157.509 163.363 155.556 162.972 154.805 162.822C153.693 162.611 151.649 161.53 150.868 162.822C149.726 164.655 153.182 166.819 154.354 168.081C155.436 169.253 159.373 172.859 156.488 173.129C155.887 173.19 151.77 169.673 151.139 169.193C151.259 169.373 153.903 171.897 154.024 172.078C154.715 172.979 156.668 174.902 156.097 175.834C154.835 177.848 150.507 172.528 149.846 171.837L151.499 173.941C152.912 175.534 153.783 176.886 152.611 177.367C151.078 177.968 147.983 173.61 146.661 172.288Z" fill="white"/>
<path d="M146.09 155.999L137.135 161.98C137.135 161.98 108.886 125.407 111.951 111.583C115.588 95.235 125.054 76.9637 130.283 68.4591C132.296 65.1835 134.039 63.9814 134.039 63.9814C139.418 69.1503 142.514 76.3927 141.823 82.8839C141.522 85.7989 140.11 87.6621 138.547 90.6372C133.769 99.6827 127.939 115.37 128.149 116.962C128.45 119.517 146.09 155.999 146.09 155.999Z" fill="#E50000"/>
</svg>
