<svg width="187" height="177" viewBox="0 0 187 177" fill="none" xmlns="http://www.w3.org/2000/svg">
<path d="M166.414 15.4482C166.414 15.4482 175.588 17.4918 186.192 26.7378L173.488 49.9457C173.488 49.9457 168.643 44.7439 160.455 42.9719L166.414 15.4482Z" fill="#E50000"/>
<path d="M168.715 30.1672C169.829 26.0086 170.744 21.8072 171.816 17.6343C168.515 16.0481 166.428 15.4336 166.428 15.4336L160.469 42.943C163.799 40.0563 164.685 41.1566 165.271 40.8423C166.242 37.2839 167.757 33.7255 168.715 30.1672Z" fill="#E50000"/>
<path d="M116.668 2.80109C116.668 2.80109 152.609 -0.785843 172.587 9.54625L165.242 40.8712C165.242 40.8712 147.607 31.3966 118.369 35.4551L116.668 2.80109Z" fill="#E50000"/>
<path d="M119.512 0H116.64V123.185H119.512V0Z" fill="#DFDFDF"/>
<path d="M121.713 119.455H114.439V125.228H121.713V119.455Z" fill="#181818"/>
<path d="M124.571 123.985H111.609V126.886H124.571V123.985Z" fill="#181818"/>
<path d="M65.208 54.5041V75.0254H70.3383V60.5633C70.3383 59.1057 71.5244 57.9196 72.9821 57.9196H94.9896C96.4472 57.9196 97.6333 59.1057 97.6333 60.5633V75.0254H102.764V54.5041C102.764 53.0465 101.578 51.8604 100.12 51.8604H67.8518C66.3941 51.8604 65.208 53.0322 65.208 54.5041Z" fill="#DFDFDF"/>
<path d="M158.968 176.06H9.00307C4.02994 176.06 0 172.03 0 167.057V77.069C0 72.0959 4.02994 68.0659 9.00307 68.0659H158.968C163.942 68.0659 167.972 72.0959 167.972 77.069V167.057C167.972 172.03 163.942 176.06 158.968 176.06Z" fill="#181818"/>
<path d="M167.972 98.1619V77.069C167.972 72.0959 163.942 68.0659 158.968 68.0659H9.00307C4.02994 68.0659 0 72.0959 0 77.069V98.1619C0 110.966 10.375 121.341 23.1793 121.341H144.792C157.582 121.341 167.972 110.966 167.972 98.1619Z" fill="#8B8D8D"/>
<path d="M89.3305 116.482H78.6411V128.615H89.3305V116.482Z" fill="#B40000"/>
<path d="M85.7149 122.299H82.2566V125.3H85.7149V122.299Z" fill="#181818"/>
<path d="M40.1708 14.605H37.3555H34.5403C34.5403 14.605 33.7257 22.2647 32.2681 23.1793C32.2681 23.1793 30.4532 32.2253 37.3555 32.2253C45.7012 32.2253 42.443 23.1793 42.443 23.1793C40.971 22.2647 40.1708 14.605 40.1708 14.605Z" fill="#DFDFDF"/>
<path d="M40.1708 14.605H37.3555H34.5403C34.5403 14.605 33.7257 22.2647 32.2681 23.1793C32.2681 23.1793 30.4532 32.2253 37.3555 32.2253C45.7012 32.2253 42.443 23.1793 42.443 23.1793C40.971 22.2647 40.1708 14.605 40.1708 14.605Z" fill="#DFDFDF"/>
<path d="M44.6723 16.1057C43.8863 15.2054 42.9574 16.5773 42.9574 16.5773C42.9574 16.5773 44.2436 11.5185 42.9574 9.28912C41.6713 7.07408 37.4984 8.23162 37.4984 8.23162C37.4984 8.23162 33.3256 7.05979 32.0394 9.28912C30.7533 11.5042 32.0394 16.5773 32.0394 16.5773C32.0394 16.5773 31.1105 15.2197 30.3245 16.1057C29.5386 17.006 31.6107 19.2639 32.0823 19.5355C32.0823 19.5355 35.0833 25.1374 37.4984 25.1374C39.9135 25.1374 42.9145 19.5355 42.9145 19.5355C43.3861 19.2639 45.444 17.006 44.6723 16.1057Z" fill="#DFDFDF"/>
<path d="M36.4553 10.2467C36.4553 10.2467 33.2971 10.804 32.9541 12.4903C32.7826 13.3192 32.9684 14.2052 33.1256 15.0197C33.2113 15.4485 33.5114 17.7493 33.3971 17.8064C33.2828 17.8636 33.0684 17.8064 32.9827 17.735C32.554 17.392 32.2253 16.8918 31.9109 16.4488C31.3107 15.5771 30.4532 15.72 30.196 16.2773C30.196 16.2773 29.4958 7.9602 32.9684 7.67439C36.4553 7.38858 36.4553 10.2467 36.4553 10.2467Z" fill="#181818"/>
<path d="M38.4988 10.2467C38.4988 10.2467 41.657 10.804 42 12.4903C42.1715 13.3192 41.9857 14.2052 41.8285 15.0197C41.7427 15.4485 41.4426 17.7493 41.557 17.8064C41.6713 17.8636 41.8856 17.8064 41.9714 17.735C42.4001 17.392 42.7288 16.8918 43.0432 16.4488C43.6434 15.5771 44.5008 15.72 44.7581 16.2773C44.7581 16.2773 45.4583 7.9602 41.9857 7.67439C38.4988 7.38858 38.4988 10.2467 38.4988 10.2467Z" fill="#181818"/>
<path d="M43.7149 8.84609C43.7149 8.84609 43.4433 6.97403 41.4427 6.08801C39.8278 5.35919 37.3984 5.01622 34.7404 5.68787C30.3246 6.80254 30.2674 11.3755 31.9251 12.7474C33.1827 13.7763 34.0401 14.2908 35.998 14.2908C42.1143 14.2908 44.6581 10.7039 43.7149 8.84609Z" fill="#181818"/>
<path d="M42.4429 23.1797C42.1428 30.868 37.3555 30.082 37.3555 30.082C37.3555 30.082 32.5681 30.8823 32.268 23.1797C32.268 23.1797 24.6226 25.2947 20.8784 27.7955C20.8784 27.7955 22.4647 34.5121 22.5647 41.9718L26.9376 58.9204L37.3412 59.4349L47.7447 58.9204L52.1176 41.9718C52.2177 34.5121 53.8039 27.7955 53.8039 27.7955C50.0884 25.2947 42.4429 23.1797 42.4429 23.1797Z" fill="#AFB2B2"/>
<path opacity="0.32" d="M51.3889 32.24C46.6301 34.7694 44.3151 40.5999 39.6992 43.4581C34.9261 46.4162 31.5393 40.4427 29.2099 37.3417C27.2092 34.6551 24.6655 32.5115 21.5645 31.2539C22.0075 33.912 22.5219 37.8276 22.5791 41.9718L26.952 58.9205L37.3555 59.4349L47.7591 58.9205L52.132 41.9718C52.1892 37.9133 52.6893 34.0691 53.1181 31.4254C52.5179 31.6683 51.9319 31.9399 51.3889 32.24Z" fill="#3D3D3D"/>
<path d="M56.6479 65.7653C56.6479 59.8204 49.2739 55.9048 49.2739 55.9048H24.4941C24.4941 55.9048 17.1201 59.8204 17.1201 65.7653C17.1201 66.7371 17.3488 68.3376 17.7203 70.3526H25.9517C25.623 70.9528 25.3086 71.5244 25.08 71.996C25.0085 72.1389 24.9228 72.2675 24.8513 72.4104C26.0803 72.4104 27.3093 72.4104 28.5383 72.4104C29.31 72.4104 30.0674 72.4104 30.8391 72.4104C31.2964 72.4104 31.1392 72.5962 31.0249 71.9388C30.8391 70.9956 30.2532 70.4526 30.8391 69.4666C31.2964 68.6949 33.4971 68.0518 34.3974 68.0375C34.5975 68.0375 34.7833 68.0375 34.9833 68.0375C36.2838 68.0661 37.5699 68.0661 38.8704 68.0375C39.4277 68.0232 39.785 68.1947 40.3137 68.2804C40.7282 68.3519 41.9714 68.2376 42.5145 68.9521C42.8718 69.4094 42.8289 69.8238 42.9289 70.3811C42.9575 70.5526 42.7574 72.4247 42.7003 72.4247H50.2028C49.6312 71.6959 49.1596 71.0099 48.7595 70.3669H56.0763C56.4192 68.3519 56.6479 66.7371 56.6479 65.7653Z" fill="#E50000"/>
<path d="M56.6479 65.7653C56.6479 59.8204 49.2739 55.9048 49.2739 55.9048H24.4941C24.4941 55.9048 17.1201 59.8204 17.1201 65.7653C17.1201 66.7371 17.3488 68.3376 17.7203 70.3526H25.9517C25.623 70.9528 25.3086 71.5244 25.08 71.996C25.0085 72.1389 24.9228 72.2675 24.8513 72.4104C26.0803 72.4104 27.3093 72.4104 28.5383 72.4104C29.31 72.4104 30.0674 72.4104 30.8391 72.4104C31.2964 72.4104 31.1392 72.5962 31.0249 71.9388C30.8391 70.9956 30.2532 70.4526 30.8391 69.4666C31.2964 68.6949 33.4971 68.0518 34.3974 68.0375C34.5975 68.0375 34.7833 68.0375 34.9833 68.0375C36.2838 68.0661 37.5699 68.0661 38.8704 68.0375C39.4277 68.0232 39.785 68.1947 40.3137 68.2804C40.7282 68.3519 41.9714 68.2376 42.5145 68.9521C42.8718 69.4094 42.8289 69.8238 42.9289 70.3811C42.9575 70.5526 42.7574 72.4247 42.7003 72.4247H50.2028C49.6312 71.6959 49.1596 71.0099 48.7595 70.3669H56.0763C56.4192 68.3519 56.6479 66.7371 56.6479 65.7653Z" fill="#B40000"/>
<path d="M20.8928 27.7954C20.8928 27.7954 11.4324 48.2453 12.1183 50.9605C12.2898 51.6464 23.7937 58.5917 29.2242 57.5913L31.4249 57.1912C31.4249 57.1912 23.3793 27.6525 20.8928 27.7954Z" fill="#AFB2B2"/>
<path d="M53.8039 27.7954C53.8039 27.7954 63.2643 48.2453 62.5783 50.9605C62.4068 51.6464 50.9029 58.5917 45.4725 57.5913L43.2717 57.1912C43.2717 57.1912 51.3173 27.6525 53.8039 27.7954Z" fill="#AFB2B2"/>
<path opacity="0.32" d="M24.5798 34.9409C24.5655 35.8841 24.4512 36.8701 24.2225 37.9277C23.3794 41.6289 22.0646 45.4731 23.4508 49.2315C24.494 52.0753 26.1803 54.9477 27.7237 57.6772C28.2524 57.6915 28.7669 57.6772 29.2242 57.5915L31.425 57.1914C31.425 57.1914 27.7237 43.6439 24.5798 34.9409Z" fill="#3D3D3D"/>
<path opacity="0.32" d="M48.6308 57.4915C49.3168 55.7766 49.7455 53.976 49.674 52.0468C49.5454 48.274 49.5311 44.5013 49.5883 40.7143C49.6169 39.0852 49.6598 37.4989 49.7455 35.9556C46.673 44.6585 43.2576 57.1914 43.2576 57.1914L45.4583 57.5915C46.3872 57.763 47.4733 57.7058 48.6308 57.4915Z" fill="#3D3D3D"/>
<path d="M27.9093 101.163C27.9093 101.163 21.9073 108.309 21.207 109.824C20.5068 111.338 22.2217 113.253 24.5653 112.467C26.909 111.681 28.2666 110.095 28.3095 109.08C28.3523 108.066 29.5956 107.523 30.1386 107.451C30.6817 107.366 33.797 103.821 33.4969 102.85C33.1825 101.878 31.6249 100.806 31.6249 100.806L27.9093 101.163Z" fill="black"/>
<path d="M45.8584 101.163C45.8584 101.163 51.8605 108.309 52.5607 109.824C53.2609 111.338 51.5461 113.253 49.2024 112.467C46.8588 111.681 45.5012 110.095 45.4583 109.08C45.4154 108.066 44.1721 107.523 43.6291 107.451C43.0861 107.366 39.9707 103.821 40.2708 102.85C40.5852 101.878 42.1429 100.806 42.1429 100.806L45.8584 101.163Z" fill="black"/>
<path d="M30.0102 65.4512C29.2957 63.7506 29.1528 60.1494 24.3369 60.1494C15.0623 60.1494 17.2344 67.5805 17.3773 68.6952C18.7778 79.7561 25.5087 101.835 25.5087 101.835H34.7976C34.7976 101.835 31.425 74.7973 30.8962 70.6244C30.8248 70.0528 30.5104 66.623 30.0102 65.4512Z" fill="#E50000"/>
<path d="M43.772 65.4512C44.4865 63.7506 44.6294 60.1494 49.4453 60.1494C58.7199 60.1494 56.5477 67.5805 56.4048 68.6952C55.0044 79.7561 48.2735 101.835 48.2735 101.835H38.9846C38.9846 101.835 42.3572 74.7973 42.8859 70.6244C42.9574 70.0528 43.2861 66.623 43.772 65.4512Z" fill="#E50000"/>
<path d="M50.9886 57.4199H23.7222V59.0348H50.9886V57.4199Z" fill="#181818"/>
<path d="M55.0043 38.5278H19.7066C19.7066 38.5278 17.8059 38.5278 18.1346 40.6571C18.4633 42.7864 22.9077 57.6486 23.808 57.6486C25.48 57.6486 37.3555 57.6486 37.3555 57.6486C37.3555 57.6486 49.2309 57.6486 50.9029 57.6486C51.6889 57.6486 56.2476 42.7864 56.5763 40.6571C56.905 38.5278 55.0043 38.5278 55.0043 38.5278Z" fill="#181818"/>
<path d="M38.8132 48.8172C38.8132 49.6175 38.1559 50.2749 37.3556 50.2749C36.5553 50.2749 35.8979 49.6175 35.8979 48.8172C35.8979 48.017 36.5553 47.3596 37.3556 47.3596C38.1702 47.3453 38.8132 48.0027 38.8132 48.8172Z" fill="#DFDFDF"/>
<path d="M73.7538 149.151L75.3829 154.195H80.6847L76.3976 157.311L78.041 162.341L73.7538 159.226L69.4666 162.341L71.0958 157.311L66.8086 154.195H72.1104L73.7538 149.151Z" fill="#E50000"/>
<path d="M92.6746 149.151L94.318 154.195H99.6055L95.3183 157.311L96.9618 162.341L92.6746 159.226L88.3874 162.341L90.0308 157.311L85.7437 154.195H91.0455L92.6746 149.151Z" fill="#E50000"/>
<path d="M111.61 149.151L113.239 154.195H118.54L114.253 157.311L115.882 162.341L111.61 159.226L107.322 162.341L108.951 157.311L104.664 154.195H109.966L111.61 149.151Z" fill="#E50000"/>
<path d="M130.53 149.151L132.174 154.195H137.461L133.174 157.311L134.817 162.341L130.53 159.226L126.243 162.341L127.887 157.311L123.599 154.195H128.887L130.53 149.151Z" fill="#E50000"/>
<path d="M149.451 149.151L151.094 154.195H156.396L152.109 157.311L153.738 162.341L149.451 159.226L145.178 162.341L146.807 157.311L142.52 154.195H147.822L149.451 149.151Z" fill="#E50000"/>
</svg>
