<svg width="320" height="336" viewBox="0 0 320 336" fill="none" xmlns="http://www.w3.org/2000/svg">
<path d="M189.276 317.6H130.687L135.506 246.944H184.456L189.276 317.6Z" fill="#181818"/>
<path d="M196.978 306.291C196.257 305.228 195.081 304.583 193.791 304.583H161.347H158.653H126.209C124.919 304.583 123.742 305.228 123.021 306.291L114.18 319.496C112.472 322.038 114.294 325.453 117.367 325.453H158.691H161.385H202.632C205.706 325.453 207.527 322.038 205.82 319.496L196.978 306.291Z" fill="#181818"/>
<path d="M303.455 265.727H16.5066C7.3995 265.727 0 258.327 0 249.22V67.7239C0 58.6168 7.3995 51.2173 16.5066 51.2173H303.493C312.6 51.2173 320 58.6168 320 67.7239V249.22C319.962 258.327 312.563 265.727 303.455 265.727Z" fill="#181818"/>
<path d="M305.201 65.4468H14.7231V249.296H305.201V65.4468Z" fill="#E50000"/>
<path d="M267.255 303.862C233.521 297.601 194.171 290.202 194.057 303.255C193.943 315.588 208.932 325.188 221.833 331.298C228.853 328.641 236.746 328.11 244.222 326.972C257.427 324.923 270.404 327.048 283.648 327.01C297.46 321.356 304.746 311.414 304.746 311.414C304.746 311.414 293.286 308.682 267.255 303.862Z" fill="#5B5B5B"/>
<path d="M238.833 327.276C239.896 327.807 226.994 333.917 228.019 334.448C233.559 336.193 287.936 336.497 292.907 335.207C301.52 333.006 276.931 322.305 285.507 320.522C299.623 310.542 307.592 297.45 299.927 295.819C291.313 293.959 277.804 298.513 269.076 299.424C262.436 300.107 258.565 300.562 252.266 298.361L231.016 296.009C209.235 300.334 204.758 308.189 204.53 308.075C204.53 311.187 220.429 317.562 234.659 325.113C236.139 325.607 237.543 326.327 238.833 327.276Z" fill="#9FA0A0"/>
<path opacity="0.32" d="M238.833 327.276C239.896 327.807 226.994 333.917 228.019 334.448C233.559 336.193 287.936 336.497 292.907 335.207C301.52 333.006 276.931 322.305 285.507 320.522C299.623 310.542 307.592 297.45 299.927 295.819C291.313 293.959 277.804 298.513 269.076 299.424C262.436 300.107 258.565 300.562 252.266 298.361L231.016 296.009C209.235 300.334 204.758 308.189 204.53 308.075C204.53 311.187 220.429 317.562 234.659 325.113C236.139 325.607 237.543 326.327 238.833 327.276Z" fill="#181818"/>
<path d="M230.713 318.93L237.619 328.264C237.619 328.264 230.106 333.501 228.019 334.45C225.932 335.36 208.97 336.081 204.53 332.666C200.546 329.63 199.179 325.608 201.229 323.711C203.809 321.32 210.108 320.523 213.22 320.144C220.164 319.233 230.713 318.93 230.713 318.93Z" fill="#E50000"/>
<path d="M226.539 319.27L230.523 333.348C230.523 333.348 297.384 332.362 304.366 322.078C313.322 312.819 316.964 294.605 298.902 294.226C296.17 294.188 291.768 295.061 287.252 296.578C262.739 304.889 226.539 319.27 226.539 319.27Z" fill="#9FA0A0"/>
<path opacity="0.32" d="M300.458 318.32C296.284 318.32 292.793 316.233 289.378 314.146C285.09 311.566 280.422 309.858 275.527 308.72C271.315 307.734 266.876 306.254 263.498 305.115C244.07 311.414 226.577 319.269 226.577 319.269L229.688 330.311C231.396 330.729 233.103 331.146 234.811 331.64C236.86 331.829 238.909 332.057 240.882 332.588C241.3 332.702 241.717 332.778 242.135 332.854C261.335 331.791 300.078 328.832 305.201 321.28C306.036 320.066 307.706 317.979 308.313 316.613C306.795 317.182 302.317 318.32 300.458 318.32Z" fill="#181818"/>
<path d="M284.141 319.764L278.335 327.125C278.335 327.125 287.784 332.893 289.757 333.842C291.73 334.791 305.391 335.436 309.717 332.324C313.587 329.516 315.029 325.759 313.132 323.9C310.741 321.509 304.746 320.599 301.786 320.105C295.259 319.005 284.141 319.764 284.141 319.764Z" fill="#E50000"/>
<path d="M290.858 317.979L284.9 334.448C284.9 334.448 202.785 327.997 196.106 316.499C192.122 309.631 191.515 298.968 200.128 295.174C205.403 292.821 212.916 291.645 223.541 295.287C250.027 304.394 290.858 317.979 290.858 317.979Z" fill="#9FA0A0"/>
<path d="M258.565 208.731H252.76H246.954C246.954 208.731 245.284 224.555 242.249 226.452C242.249 226.452 238.492 245.16 252.76 245.16C270.025 245.16 263.271 226.452 263.271 226.452C260.235 224.593 258.565 208.731 258.565 208.731Z" fill="#E50000"/>
<path d="M267.862 211.844C266.268 209.985 264.333 212.793 264.333 212.793C264.333 212.793 266.989 202.32 264.333 197.729C261.677 193.137 253.063 195.566 253.063 195.566C253.063 195.566 244.449 193.137 241.793 197.729C239.137 202.32 241.793 212.793 241.793 212.793C241.793 212.793 239.858 209.985 238.264 211.844C236.67 213.704 240.92 218.371 241.907 218.94C241.907 218.94 248.092 230.552 253.101 230.552C258.11 230.552 264.295 218.94 264.295 218.94C265.206 218.371 269.494 213.704 267.862 211.844Z" fill="white"/>
<path d="M250.862 199.702C250.862 199.702 244.335 200.84 243.614 204.369C243.273 206.077 243.652 207.898 243.956 209.606C244.108 210.479 244.753 215.26 244.525 215.374C244.297 215.487 243.842 215.374 243.69 215.222C242.818 214.539 242.134 213.476 241.489 212.566C240.237 210.744 238.454 211.048 237.96 212.186C237.96 212.186 236.518 194.997 243.69 194.389C250.862 193.782 250.862 199.702 250.862 199.702Z" fill="#181818"/>
<path d="M255.112 199.702C255.112 199.702 261.639 200.84 262.36 204.369C262.701 206.077 262.322 207.898 262.018 209.606C261.867 210.479 261.221 215.26 261.449 215.374C261.677 215.487 262.132 215.374 262.284 215.222C263.157 214.539 263.878 213.476 264.485 212.566C265.737 210.744 267.52 211.048 268.014 212.186C268.014 212.186 269.456 194.997 262.284 194.389C255.112 193.782 255.112 199.702 255.112 199.702Z" fill="#181818"/>
<path d="M264.713 195.413C264.713 195.413 264.864 192.567 261.639 190.822C258.413 189.076 252.001 188.279 246.954 190.822C241.869 193.364 240.351 193.933 238.871 193.099C237.391 192.264 238.34 191.391 238.34 191.391C238.34 191.391 235.001 191.353 235.19 196.514C235.342 201.674 241.679 208.087 249.989 208.087C262.588 208.087 266.648 199.246 264.713 195.413Z" fill="#181818"/>
<path d="M263.27 226.454C262.663 242.354 252.759 240.722 252.759 240.722C252.759 240.722 242.855 242.354 242.248 226.454C242.248 226.454 226.425 230.818 218.684 236.017C218.684 236.017 221.985 249.905 222.175 265.349L231.206 300.411L252.721 296.503L274.237 300.411L283.268 265.349C283.496 249.943 286.759 236.017 286.759 236.017C279.094 230.856 263.27 226.454 263.27 226.454Z" fill="#DFDFDF"/>
<path d="M281.75 245.199C271.922 250.435 267.141 262.502 257.579 268.422C247.675 274.531 240.693 262.198 235.874 255.748C231.737 250.207 226.463 245.73 220.05 243.149C220.961 248.652 222.023 256.734 222.175 265.31L231.206 300.372L252.722 297.754L274.237 300.372L283.268 265.31C283.382 256.924 284.407 248.993 285.317 243.491C284.103 244.06 282.889 244.591 281.75 245.199Z" fill="#DFDFDF"/>
<path d="M218.684 236.016C218.684 236.016 200.735 278.136 200.546 283.942C200.128 295.174 224.717 299.727 235.911 297.678L240.465 296.843C240.465 296.843 223.844 235.712 218.684 236.016Z" fill="#DFDFDF"/>
<path d="M286.759 236.016C286.759 236.016 304.86 278.136 304.898 283.942C304.974 295.288 280.726 299.727 269.532 297.678L264.978 296.843C264.978 296.843 281.637 235.712 286.759 236.016Z" fill="#DFDFDF"/>
<path d="M226.311 250.814C226.273 252.75 226.045 254.799 225.552 257C223.807 264.627 221.074 272.634 223.958 280.375C226.121 286.256 229.612 292.214 232.8 297.83C233.9 297.868 234.963 297.83 235.911 297.64L240.465 296.805C240.465 296.843 232.838 268.801 226.311 250.814Z" fill="#DFDFDF"/>
<path d="M276.059 297.449C277.5 293.882 278.373 290.163 278.221 286.179C277.956 278.362 277.918 270.545 278.032 262.728C278.07 259.351 278.184 256.088 278.373 252.862C272.036 270.849 264.978 296.804 264.978 296.804L269.532 297.639C271.429 298.018 273.668 297.866 276.059 297.449Z" fill="#DFDFDF"/>
<path d="M280.915 297.297H224.527V300.636H280.915V297.297Z" fill="#181818"/>
<path d="M289.264 258.213H216.255C216.255 258.213 212.309 258.213 212.992 262.615C213.675 267.016 222.858 297.753 224.717 297.753C228.17 297.753 252.759 297.753 252.759 297.753C252.759 297.753 277.348 297.753 280.802 297.753C282.433 297.753 291.844 267.016 292.527 262.615C293.172 258.213 289.264 258.213 289.264 258.213Z" fill="#181818"/>
<path d="M255.757 279.502C255.757 281.171 254.391 282.537 252.721 282.537C251.052 282.537 249.686 281.171 249.686 279.502C249.686 277.832 251.052 276.466 252.721 276.466C254.429 276.466 255.757 277.832 255.757 279.502Z" fill="white"/>
<path d="M62.2695 157.391C62.2695 157.391 153.682 272.709 257.692 157.391C153.682 42.0724 62.2695 157.391 62.2695 157.391Z" fill="#181818"/>
<path d="M75.9301 157.388C75.9301 157.388 154.555 256.542 243.994 157.388C154.555 58.197 75.9301 157.388 75.9301 157.388Z" fill="white"/>
<path d="M202.33 167.191C207.745 143.815 193.185 120.474 169.809 115.058C146.432 109.642 123.091 124.202 117.675 147.579C112.259 170.956 126.819 194.297 150.196 199.713C173.573 205.128 196.914 190.568 202.33 167.191Z" fill="#5B5B5B"/>
<path d="M187.34 157.392C187.34 172.494 175.083 184.751 159.981 184.751C144.878 184.751 132.622 172.494 132.622 157.392C132.622 142.289 144.878 130.033 159.981 130.033C175.083 130.033 187.34 142.251 187.34 157.392Z" fill="#181818"/>
<path d="M192.349 140.128C192.349 146.275 187.378 151.246 181.231 151.246C175.083 151.246 170.112 146.275 170.112 140.128C170.112 133.98 175.083 129.009 181.231 129.009C187.378 129.009 192.349 133.98 192.349 140.128Z" fill="white"/>
<path d="M150.039 88.1772H32.444C29.1806 88.1772 26.5623 85.5589 26.5623 82.2955V6.555C26.5623 3.29162 29.1806 0.67334 32.444 0.67334H150.039C153.303 0.67334 155.921 3.29162 155.921 6.555V82.2955C155.921 85.5589 153.303 88.1772 150.039 88.1772Z" fill="#DFDFDF"/>
<path d="M150.039 7.65479H32.4439V81.2324H150.039V7.65479Z" fill="#181818"/>
<path d="M75.399 27.4248V63.4357L110.499 45.4492L75.399 27.4248Z" fill="#E50000"/>
</svg>
