<svg width="200" height="179" viewBox="0 0 200 179" fill="none" xmlns="http://www.w3.org/2000/svg">
<path d="M72.6614 96.1496L72 171.475C71.9599 175.389 70.9577 177.654 65.8666 178.379C59.5328 179.281 57.6086 178.049 56.6666 176.137C54.9027 172.553 37.6051 100.569 34.7589 95.6659C31.8926 90.7629 72.6614 96.1496 72.6614 96.1496Z" fill="#6F7070"/>
<path d="M72.5211 112.376L72.6614 96.1496C72.6614 96.1496 31.8926 90.7629 34.7388 95.6659C35.4203 96.8312 38.0661 106.109 40.0704 113.277L72.5211 112.376Z" fill="#4F5151"/>
<path d="M8.44186 70.2272C4.834 70.2052 1.6671 72.8876 0.865352 76.7572C0.404348 79.0218 0.0435617 81.9021 0.00347441 85.5078C-0.0366129 89.7952 0.264042 92.5875 1.22614 94.9401C2.38867 97.7983 5.03443 99.5572 7.88064 99.6672C21.811 100.217 72.0204 102.372 82.4832 105.076C94.6697 108.22 135.479 128.096 135.479 128.096L127.702 27.3975C127.702 27.3975 90.22 60.729 66.4081 65.9179C47.8878 69.9414 19.9469 70.2712 8.44186 70.2272Z" fill="#DFDFDF"/>
<path d="M33.9775 100.855C39.1688 101.119 44.5806 101.427 49.8722 101.756C46.5449 89.9496 47.8478 76.4719 49.5515 68.4248C44.2399 68.9745 38.8281 69.3482 33.6167 69.6121C31.1514 81.111 31.5923 91.8844 33.9775 100.855Z" fill="#181818"/>
<path d="M175.305 74.383C175.566 110.793 159.771 140.431 140.008 140.606C120.245 140.782 104.03 111.408 103.769 74.9986C103.509 38.5889 119.303 8.95109 139.066 8.7752C158.809 8.59931 175.045 37.9733 175.305 74.383Z" fill="#E5E6ED"/>
<path d="M172.64 74.4046C172.86 105.362 159.411 130.602 142.615 130.734C125.818 130.888 112.008 105.889 111.787 74.9322C111.567 43.9532 124.996 18.7347 141.813 18.6028C158.609 18.4489 172.419 43.4255 172.64 74.4046Z" fill="#181818"/>
<path d="M135.779 80.0987C136.501 69.0615 129.926 59.5633 121.067 58.8597C118.04 58.6179 115.174 59.5193 112.649 61.1243C112.067 65.5436 111.747 70.1388 111.787 74.9099C111.847 83.0889 112.869 90.8501 114.633 97.8418C115.856 98.3255 117.118 98.6993 118.461 98.8092C127.301 99.5128 135.058 91.1359 135.779 80.0987Z" fill="#E50000"/>
<path d="M82.6637 39.819C82.5435 38.6537 82.4633 37.5764 83.0446 36.455C82.5234 36.543 81.7618 36.6309 81.8018 36.3011C81.862 35.8614 81.9421 35.2018 81.6415 35.2678C81.3609 35.3337 81.1204 35.5096 80.8598 35.6855C80.3186 36.0813 79.7173 36.1252 79.0759 36.1692C78.8755 36.9387 78.2742 38.126 78.655 38.9615C78.8554 39.3793 79.8977 39.1814 80.3587 39.3793C81.1604 39.6871 82.0223 39.775 82.6637 39.819Z" fill="#DFDFDF"/>
<path d="M67.9715 4.26779C67.9715 4.26779 63.5419 4.00395 57.5688 7.10405L60.3549 20.4279C60.3549 20.4279 63.2212 18.537 67.1497 18.7789L67.9715 4.26779Z" fill="#E50000"/>
<path d="M65.0451 11.2588C65.0652 9.03817 65.2055 6.81753 65.2456 4.59689C66.9493 4.26709 67.9715 4.26709 67.9715 4.26709L67.1497 18.7782C66.0072 16.8654 65.466 17.3051 65.2456 17.0632C65.2656 15.1504 65.0251 13.1716 65.0451 11.2588Z" fill="#E50000"/>
<path d="M92.1249 4.97082C92.1249 4.97082 76.2904 -1.845 65.9278 0.485573L65.2463 17.0854C65.2463 17.0854 74.4464 14.8428 87.1741 20.977L92.1249 4.97082Z" fill="#E50000"/>
<path d="M91.4286 4.70261L78.9834 44.0215L80.271 44.5119L92.7162 5.193L91.4286 4.70261Z" fill="#181818"/>
<path d="M79.898 39.907V35.2019C79.898 35.2019 67.1102 35.3118 61.7585 33.6189C56.4068 31.9259 49.2112 25.0221 46.365 26.1435C43.4987 27.2648 41.6747 30.4528 45.2225 33.5089C48.7702 36.5651 57.1885 39.2035 60.8565 39.8191C63.382 40.2588 77.8937 39.907 79.898 39.907Z" fill="#6F7070"/>
<path d="M58.531 36.9833C54.0212 34.9166 49.7519 30.4533 46.124 26.2759C43.4181 27.4851 41.7945 30.5633 45.2421 33.5314C48.7898 36.5876 57.2081 39.2259 60.8761 39.8416C62.1188 40.0394 66.2679 40.0614 70.3768 40.0394C66.2879 39.5997 62.2591 38.6763 58.531 36.9833Z" fill="#4F5151"/>
<path d="M58.4111 94.3457C58.4111 94.3457 55.9056 98.765 56.2865 99.8204C56.6473 100.876 65.3262 106.394 66.5087 105.955C67.6713 105.515 67.9118 103.998 66.3484 102.481C64.9453 101.118 63.5824 100.722 62.6604 99.3806C61.8386 98.2153 62.6604 95.2252 62.6604 95.2252L58.4111 94.3457Z" fill="#181818"/>
<path d="M43.8199 56.8154C43.8199 56.8154 45.5637 58.3764 47.3876 58.1126C49.2116 57.8487 67.1106 59.8935 68.9346 61.5425C70.7586 63.2134 63.2622 96.3911 63.2622 96.3911L57.0487 95.2478C57.0487 95.2478 59.2735 70.9967 58.9128 70.8208C58.5319 70.6449 49.1515 70.6889 33.1366 70.6889C29.2281 70.6889 24.8786 61.6744 29.8093 55.3862L43.8199 56.8154Z" fill="#E50000"/>
<path d="M46.6057 19.8557C45.9844 19.5699 45.4432 19.1521 44.9421 18.6904C44.7016 20.7132 44 24.4289 42.136 26.3637C42.136 26.3637 46.0245 28.1226 49.1914 27.3531C49.1914 27.3531 48.8105 22.626 49.472 20.2954C48.4898 20.3834 47.5077 20.2954 46.6057 19.8557Z" fill="#DFDFDF"/>
<path d="M44.7011 25.6162C45.3024 23.5275 47.2266 22.2303 49.1508 22.2083C49.2109 21.5047 49.3112 20.8451 49.4515 20.3174C48.4693 20.3834 47.5072 20.2735 46.5852 19.8557C45.9639 19.5699 45.4227 19.1521 44.9216 18.6904C44.6811 20.7132 43.9795 24.4289 42.1155 26.3637C42.1155 26.3637 43.0575 26.8035 44.4205 27.1333C44.4405 26.6496 44.5608 26.1439 44.7011 25.6162Z" fill="#DFDFDF"/>
<path d="M45.503 8.37842C45.503 8.37842 50.093 6.79539 51.5361 7.78478C52.9793 8.77418 54.1217 11.8963 53.8612 13.7211C53.6006 15.546 55.5248 17.6567 55.5649 18.3163C55.605 18.844 54.1217 19.2178 54.0616 19.4376C54.0215 19.6355 53.9213 22.9775 51.9169 23.5271C49.0908 24.3186 45.3025 21.8342 44.0197 19.9433C42.7169 18.0745 41.1936 9.49973 45.503 8.37842Z" fill="#DFDFDF"/>
<path d="M54.041 8.57724C53.8005 8.3134 53.1792 7.87367 53.0188 7.54387C52.8986 7.25805 52.8384 6.92825 52.6781 6.66441C52.177 5.85091 52.0567 5.25727 49.9521 4.53172C48.1282 3.9161 45.8031 4.61966 44.36 5.89488C43.8188 6.3566 43.3578 6.92825 43.0371 7.58784C42.9369 7.78572 42.6162 8.3134 42.6963 8.53327C42.7965 8.7971 43.478 8.973 43.6785 9.10491C44.0593 9.34677 44.38 9.72054 44.7007 10.0283C46.7852 11.8972 50.0524 13.876 52.3574 11.3036C52.658 10.9738 52.9587 10.6 53.2193 10.2042C53.6402 11.2376 53.9609 12.4029 53.8607 13.5462C53.8607 13.5462 54.6023 12.9306 54.8027 11.9412C55.1034 10.2482 54.6023 9.21485 54.041 8.57724Z" fill="#181818"/>
<path d="M44.3406 8.42229C43.7793 8.09249 42.7371 8.20243 42.1758 8.33435C40.9732 8.62017 40.3318 9.58758 40.1114 10.8628C39.9911 11.6323 39.8909 12.4238 39.8909 13.2154C39.9109 14.6005 39.971 15.48 40.432 16.7992C40.853 18.0304 41.4543 19.2397 42.3362 20.1411C43.158 20.9546 44.7414 21.878 45.5432 21.5263C45.8438 21.3943 46.3048 18.9538 46.2046 18.3382C46.1244 17.7226 45.8438 17.7226 45.4229 17.4588C44.6813 16.997 43.8796 16.1176 44.4007 15.1282C45.1624 13.743 46.5855 14.3806 47.0865 16.2935C47.0865 16.2935 47.6478 17.3708 47.9484 17.1949C48.2491 17.019 49.6922 11.5884 44.3406 8.42229Z" fill="#181818"/>
<path d="M44.9219 15.3259C44.9219 15.3259 45.7036 14.9741 46.2848 15.7216C46.826 16.4252 46.5655 17.5465 46.0243 17.1288C45.4831 16.711 45.7036 16.3372 45.6034 15.9855C45.5232 15.6337 45.1223 15.3478 44.9219 15.3259Z" fill="#DFDFDF"/>
<path d="M27.6038 54.9908C27.6038 54.9908 34.0779 60.5094 47.5071 58.0469C47.5071 58.0469 47.467 53.8255 48.5895 49.692C49.7119 45.5586 51.3956 37.4895 51.4557 33.2461C51.5159 28.4311 49.1106 26.2764 49.1106 26.2764C49.1106 26.2764 46.5851 28.8708 42.8369 25.4849C42.8369 25.4849 35.7214 27.3317 32.3742 36.2143C29.0469 45.0749 27.6038 54.9908 27.6038 54.9908Z" fill="#6F7070"/>
<path d="M43.779 32.4104C40.3114 36.5218 43.6587 46.6356 48.0483 52.2642C48.1886 51.4287 48.369 50.5712 48.6095 49.6918C49.2108 47.5151 49.9524 44.2391 50.5337 41.0291C49.3712 40.2376 48.369 39.0503 47.7276 37.3573C46.3646 33.7735 45.5028 31.355 43.779 32.4104Z" fill="#4F5151"/>
<path d="M71.8605 60.6631C72.3615 61.0808 72.8626 61.4986 73.484 61.5865C73.7847 61.6305 74.0653 61.6525 74.3058 61.8284C74.5664 62.0043 74.9271 62.0922 75.2278 62.2021C75.5284 62.2901 75.8892 62.378 76.1097 62.6639C76.3703 62.9937 75.8692 63.1036 75.5084 63.1256C75.1276 63.1476 74.1254 62.422 73.8247 62.7298C73.5241 63.0376 74.7868 63.8072 75.0474 63.9611C75.6487 64.3128 76.0897 64.027 76.711 64.049C77.0718 64.049 77.2322 64.1809 76.9916 64.5547C76.8112 64.8405 76.4505 64.8405 76.1498 64.8625C75.5685 64.9065 74.9071 64.8185 74.3659 64.5327C74.7668 64.7966 75.5284 64.9724 76.0095 65.0164C76.3302 65.0384 77.7333 64.9065 77.7333 65.4561C77.7533 66.5775 74.6465 65.8519 74.2056 65.4781C74.6866 65.8079 75.2679 65.9399 75.8291 66.0938C76.1498 66.1817 76.9515 66.3356 76.5106 66.7973C75.8692 67.4789 74.3459 66.3576 73.5842 65.9618C74.0051 66.3796 74.4461 66.5555 74.9873 66.8853C75.6287 67.259 75.1476 67.6328 74.4461 67.391C74.1454 67.281 73.5842 66.9512 73.464 66.8853C72.1812 66.1157 71.7202 65.3902 71.0186 64.049C70.7781 63.5653 69.8561 62.9717 69.9563 62.488C70.1367 61.5645 71.2591 61.0808 71.8605 60.6631Z" fill="#DFDFDF"/>
<path d="M72.8025 59.9587L70.1969 63.8284C70.1969 63.8284 53.5606 55.9352 52.0573 53.8465C50.5541 51.7578 45.6634 44.1064 44.9018 42.0837C43.1179 37.3566 40.9331 31.728 44.9018 30.7386C47.0665 30.211 48.4695 30.8046 49.8125 34.3005C51.6364 39.0715 55.5449 46.6129 57.1284 48.8995C57.7698 49.779 72.8025 59.9587 72.8025 59.9587Z" fill="#6F7070"/>
<path d="M84.5279 36.5216C84.7684 36.9394 84.127 38.6983 83.5057 39.4239C83.0246 39.9955 82.4434 39.8416 81.9623 39.5338C81.4412 39.182 80.8198 39.0721 80.7397 38.7423C80.6194 37.4231 81.7419 38.4125 82.2229 38.6104C82.2229 38.6104 80.88 37.8848 80.9 37.2472C80.9602 36.0599 82.6037 37.4231 83.0647 37.6649C82.6037 37.533 81.8621 36.9614 81.7819 36.7415C81.4612 36.4777 81.6617 36.1259 81.7419 36.0599C82.1026 35.6861 83.5057 36.8075 83.5057 36.8075C83.2451 36.6096 82.2229 36.2138 82.6438 35.6861C82.9244 35.3344 83.3253 35.6202 83.5859 35.7081C84.0469 35.862 84.4477 36.2358 84.5279 36.5216Z" fill="#DFDFDF"/>
<path d="M81.3607 36.4778C81.5211 36.4119 81.6614 36.3679 81.8218 36.3239L81.8017 36.3019C81.8618 35.8622 83.4252 35.7303 83.766 35.5324C84.8083 34.9388 84.3873 34.2132 83.9063 34.3671C83.5856 34.4771 82.844 34.7189 82.5634 34.8508C82.2627 35.0047 81.7817 34.9168 81.481 34.9827C81.2004 35.0487 80.3987 35.8182 80.1381 35.9941C79.6169 36.4119 80.7995 36.7197 81.3607 36.4778Z" fill="#DFDFDF"/>
<path d="M197.694 49.9114C198.035 50.9448 194.928 53.1434 190.759 54.8144C186.59 56.5074 182.922 57.0351 182.581 56.0017C182.24 54.9683 185.347 52.7697 189.516 51.0987C193.685 49.4277 197.353 48.8781 197.694 49.9114Z" fill="#DFDFDF"/>
<path d="M190.097 29.311C190.498 30.3224 187.511 32.697 183.423 34.6318C179.334 36.5666 175.706 37.3361 175.325 36.3247C174.924 35.3134 177.911 32.9388 181.999 31.004C186.068 29.0472 189.696 28.2996 190.097 29.311Z" fill="#DFDFDF"/>
<path d="M195.73 104.943C195.429 105.998 191.741 105.669 187.512 104.218C183.263 102.766 180.056 100.744 180.356 99.7103C180.657 98.6549 184.345 98.9847 188.574 100.436C192.804 101.887 196.011 103.91 195.73 104.943Z" fill="#DFDFDF"/>
<path d="M187.993 127.26C187.612 128.271 183.964 127.634 179.856 125.809C175.727 123.984 172.68 121.697 173.061 120.664C173.442 119.653 177.09 120.29 181.198 122.115C185.327 123.94 188.374 126.227 187.993 127.26Z" fill="#DFDFDF"/>
<path d="M199.999 77.6808C199.939 78.7802 196.311 79.4618 191.861 79.1979C187.412 78.9341 183.864 77.8567 183.924 76.7574C183.984 75.6581 187.612 74.9765 192.062 75.2403C196.491 75.5042 200.059 76.6035 199.999 77.6808Z" fill="#DFDFDF"/>
</svg>
