<svg width="320" height="276" viewBox="0 0 320 276" fill="none" xmlns="http://www.w3.org/2000/svg">
<path d="M320 0H117.409V221.706H320V0Z" fill="#DFDFDF"/>
<path d="M306.372 15.6719H131.037V205.998H306.372V15.6719Z" fill="#B40000"/>
<path d="M266.815 117.164C261.794 111.39 255.805 114.905 255.805 114.905C255.805 114.905 268.859 86.1069 260.611 71.8333C259.822 70.4705 258.817 69.3229 257.67 68.3546C259.75 58.8509 250.641 54.8342 243.396 51.1403C238.913 48.845 233.677 46.9084 228.8 45.9042C219.368 43.9318 208.752 44.3621 200.145 49.0961C190.57 54.4038 180.923 65.1986 170.953 62.7241C168.872 67.5656 169.195 71.5464 170.594 77.3204C171.777 82.2337 174.611 87.5056 178.233 91.845C180.528 103.787 185.692 114.905 185.692 114.905C185.692 114.905 179.667 111.39 174.682 117.164C169.661 122.938 182.931 137.463 185.943 139.184C185.943 139.184 188.884 150.661 197.025 160.631C200.073 164.396 204.198 167.947 208.394 170.601H207.425C207.425 170.601 204.628 197.032 199.5 205.962H240.204C235.47 197.713 232.745 174.581 232.35 171.103C236.797 168.413 241.244 164.647 244.508 160.631C252.649 150.625 255.59 139.184 255.59 139.184C258.566 137.463 271.836 122.938 266.815 117.164Z" fill="white"/>
<path d="M212.841 126.884V117.524C217.001 114.798 220.336 111.678 222.882 108.092C225.142 104.972 226.254 101.852 226.254 98.7316C226.254 98.3013 226.218 97.835 226.182 97.3688C226.038 96.0777 225.644 95.2529 224.963 94.8584C224.281 94.4639 223.42 94.2846 222.38 94.2846C221.52 94.2846 220.802 94.5715 220.157 95.1094C219.547 95.6474 219.224 96.4005 219.224 97.3329C219.224 97.8709 219.26 98.3371 219.296 98.6958C219.368 99.0544 219.404 99.3413 219.475 99.5206C219.547 99.6999 219.655 99.9868 219.834 100.417C220.013 100.848 220.157 101.206 220.264 101.493L206.242 104.219C206.17 103.932 205.991 103.43 205.776 102.784C205.561 102.139 205.417 101.708 205.381 101.493C205.309 101.278 205.238 100.919 205.094 100.453C204.951 99.9868 204.879 99.5923 204.843 99.3054C204.807 99.0185 204.772 98.6599 204.736 98.2295C204.7 97.7992 204.664 97.333 204.664 96.8667C204.664 96.7591 204.664 96.6874 204.664 96.5798C204.664 94.7867 204.915 93.137 205.417 91.6307C205.991 90.0886 206.887 88.6541 208.179 87.3271C209.434 86.0002 211.227 84.996 213.558 84.2429C215.889 83.5256 218.651 83.167 221.878 83.167C228.262 83.167 233.175 84.4581 236.546 87.0402C239.953 89.6224 241.639 93.2087 241.639 97.8709C241.639 102.031 240.204 106.263 237.371 110.531C234.502 114.798 231.095 117.883 227.078 119.783V126.812H212.841V126.884ZM212.446 142.377V130.327H227.581V142.377H212.446Z" fill="black"/>
<path d="M18.6416 108.45C18.6416 108.45 23.3755 116.842 21.0444 119.388C21.0444 119.388 27.392 125.162 32.341 122.724C37.2901 120.285 34.4211 118.133 34.4211 118.133C34.4211 118.133 30.9424 116.627 29.221 109.383C27.4996 102.139 18.6416 108.45 18.6416 108.45Z" fill="white"/>
<path d="M23.6265 121.289C24.4513 119.962 25.4555 118.815 26.8182 117.846C28.3962 116.771 30.261 116.268 32.1617 116.089C31.1217 114.762 30.01 112.646 29.221 109.383C27.4996 102.139 18.6416 108.45 18.6416 108.45C18.6416 108.45 23.3755 116.842 21.0444 119.388C21.0444 119.388 22.0844 120.321 23.6265 121.289Z" fill="#DFDFDF"/>
<path d="M14.6249 98.4805C14.6249 98.4805 17.3863 90.9853 21.9767 90.8777C26.5671 90.7343 29.5796 91.2363 30.3327 92.9219C31.0858 94.6433 32.592 99.413 33.9189 101.098C35.2458 102.784 38.0072 104.9 38.0072 105.725C38.0431 106.55 35.4251 107.052 35.3175 107.41C35.2099 107.769 34.3492 113.794 33.4527 114.511C32.5561 115.228 23.4471 112.61 21.8691 110.1C20.2912 107.59 14.6608 103.143 14.6249 98.4805Z" fill="white"/>
<path d="M24.0208 98.1574C25.2401 98.9822 28.2884 99.8071 32.9146 97.1533C37.5409 94.4994 34.4209 83.6331 24.3794 85.3904C14.3021 87.1477 15.1269 90.698 13.3338 91.7022C11.5407 92.6705 10.1779 93.8898 9.53237 96.0415C8.42063 99.7353 8.70753 103.967 13.8717 107.733C19.1076 111.498 22.2276 110.458 22.2276 110.458C22.2994 109.167 21.9766 107.051 20.829 106.513C20.3628 106.298 19.8249 106.298 19.0718 105.796C17.709 104.864 18.2111 102.21 20.6497 102.317C21.7973 102.353 22.5145 104.29 23.2677 104.935C24.0566 105.617 24.487 105.402 24.8456 105.222C25.5628 104.864 25.8497 102.533 24.0208 100.345C22.8014 98.9822 22.8014 97.3326 24.0208 98.1574Z" fill="#5B5B5B"/>
<path d="M3.36383 257.498C3.36383 257.498 -0.796209 265.639 0.136213 267.324C1.06863 269.01 18.4619 276.218 20.506 275.178C22.5861 274.138 22.6936 271.162 19.3584 268.759C15.7722 266.177 13.4412 266.535 11.3253 264.599C9.20939 262.626 11.3253 258.968 11.3253 258.968L3.36383 257.498Z" fill="#E50000"/>
<path d="M50.3806 259.757C50.3806 259.757 50.9185 269.368 52.4247 270.552C53.9309 271.735 72.7587 271.664 74.2649 269.906C75.7711 268.149 74.8387 265.71 71.0014 264.921C67.5586 264.24 65.0124 264.957 62.3586 263.881C60.0275 262.949 58.7365 257.749 58.7365 257.749L50.3806 259.757Z" fill="#B40000"/>
<path d="M46.5073 161.922L21.9769 163.428C21.9769 163.428 40.4464 207.468 42.9569 212.74C45.5032 218.048 49.4481 261.693 49.4481 261.693L60.745 259.864C60.745 259.864 58.3422 215.215 57.7684 211.521C53.7158 186.201 46.5073 161.922 46.5073 161.922Z" fill="#5B5B5B"/>
<path d="M38.1871 179.997C38.976 175.908 39.5499 170.565 40.4464 166.476C40.8051 164.862 43.0645 164.791 43.2438 163.141C42.8851 162.854 42.5265 162.531 42.2755 162.137L21.9769 163.392C21.9769 163.392 40.4464 207.432 42.9569 212.704C43.2079 213.242 43.5665 214.067 43.9969 215.178C43.9969 214.282 43.961 213.385 43.8893 212.525C43.3514 205.424 37.2905 184.659 38.1871 179.997Z" fill="#5B5B5B"/>
<path d="M39.6216 163.966H18.6416C18.6416 163.966 14.9477 171.569 16.2388 180.535C17.494 189.5 14.7684 206.93 14.6249 209.225C14.4815 211.52 3.61494 249.284 2.0011 257.892L11.6483 261.334C11.6483 261.334 27.4998 215.071 28.1454 214.138C28.755 213.278 39.6216 163.966 39.6216 163.966Z" fill="#5B5B5B"/>
<path d="M47.9058 153.349C47.9058 153.349 52.0659 159.338 54.9348 158.872C57.8038 158.406 77.9226 145.209 77.9226 145.209L73.6909 142.411C73.6909 142.411 57.6962 153.349 56.0824 152.883C55.2217 152.632 50.9541 141.658 47.5113 133.446C43.2437 123.333 40.8051 121.862 40.8051 121.862L47.9058 153.349Z" fill="white"/>
<path d="M47.9058 153.35C47.9058 153.35 52.0659 159.339 54.9348 158.873C57.8038 158.406 77.9226 145.209 77.9226 145.209L73.6909 142.412C73.6909 142.412 57.6962 153.35 56.0824 152.884C55.2935 152.668 50.6314 140.296 47.2244 132.801C42.5982 122.58 40.8051 121.898 40.8051 121.898L47.9058 153.35Z" fill="#E50000"/>
<path d="M49.5913 136.817C49.6272 136.781 47.87 132.98 47.2962 131.832C42.5982 122.615 40.8051 121.862 40.8051 121.862L44.8575 139.901C46.5072 139.005 48.7307 138.036 49.5913 136.817Z" fill="#E50000"/>
<path d="M49.5913 136.817C49.6272 136.781 47.87 132.98 47.2962 131.832C42.5982 122.615 40.8051 121.862 40.8051 121.862L44.8575 139.901C46.5072 139.005 48.7307 138.036 49.5913 136.817Z" fill="#B40000"/>
<path d="M14.6608 171.426C14.6608 171.426 33.489 176.16 49.5916 170.315C49.5916 170.315 46.1487 154.714 46.1487 146.322C46.1487 139.185 43.9252 123.944 40.1595 121.254C36.5732 118.672 34.1345 117.99 34.1345 117.99C34.1345 117.99 32.8793 121.11 29.9744 121.792C27.1053 122.473 21.5466 118.815 21.5466 118.815C21.5466 118.815 10.1779 123.262 8.67166 125.737C5.55157 130.829 13.836 145.246 15.665 152.742C17.5657 160.273 14.6608 171.426 14.6608 171.426Z" fill="#E50000"/>
<path d="M29.5799 173.183C28.7909 169.74 28.7192 166.19 28.2888 162.568C27.9661 159.483 27.7867 156.543 28.4323 153.674C28.2171 152.885 27.9661 152.131 27.7867 151.45C26.8184 148.043 26.8902 140.368 22.8376 136.495C20.5065 134.272 17.6375 130.793 14.1587 130.183C9.96273 129.466 12.0069 129.43 8.2413 128.569C8.42062 129.968 6.55573 132.586 7.1654 134.451C9.6041 140.44 14.4815 147.864 15.665 152.741C17.494 160.237 14.6249 171.426 14.6249 171.426C14.6249 171.426 21.0803 173.004 29.5799 173.183Z" fill="#B40000"/>
<path d="M142.657 156.578C165.968 145.568 175.902 117.775 164.928 94.4634C153.918 71.1524 126.124 61.2183 102.813 72.1924C81.5457 82.2341 71.4322 106.298 78.2104 128.139L10.6441 160.774C7.38058 162.317 6.01778 166.19 7.52404 169.453L7.59576 169.561C9.13788 172.825 13.0111 174.187 16.2747 172.681L83.8409 140.046C96.393 159.161 121.39 166.62 142.657 156.578ZM90.2246 129.753C81.7608 111.821 89.4356 90.375 107.367 81.9113C125.335 73.4476 146.745 81.1223 155.209 99.0539C163.672 116.986 155.998 138.432 138.066 146.895C120.134 155.395 98.7241 147.72 90.2246 129.753Z" fill="#5B5B5B"/>
<path d="M20.3631 142.198C20.3631 142.198 26.3522 154.535 27.6074 154.642C28.8626 154.75 50.7033 153.028 52.2813 152.096C53.2137 151.558 53.8951 150.733 54.72 150.052C55.0786 149.765 55.4731 149.406 55.8318 149.155C56.298 148.868 56.8359 148.725 57.2304 148.366C57.5532 148.079 58.7725 146.322 59.4181 146.465C59.956 146.609 59.9202 147.003 59.8126 147.434C59.705 147.972 58.916 148.51 58.5574 148.904C58.3422 149.119 57.7325 149.765 57.8401 150.123C57.9835 150.626 59.0594 149.765 59.3105 149.585C59.705 149.334 59.9919 149.083 60.3147 148.725C60.6374 148.33 60.9602 147.936 61.2471 147.505C61.4264 147.254 61.6057 146.967 61.7492 146.716C62.0361 146.286 62.2871 145.892 62.5382 145.461C62.7175 145.138 63.0403 144.744 63.4706 144.959C63.9368 145.21 63.4706 145.999 63.2913 146.358C63.0761 146.716 62.9327 147.075 62.7534 147.47C62.6458 147.721 62.2154 148.151 62.3589 148.438C62.8251 148.151 63.2196 147.505 63.5423 147.075C63.7575 146.788 64.8693 144.959 65.4072 145.318C66.2321 145.892 65.2638 147.075 64.8693 147.577C64.6182 147.9 64.3313 148.259 64.0444 148.51C63.901 148.617 63.2913 149.263 63.3989 149.263C64.152 149.191 64.7258 148.007 65.1921 147.47C65.479 147.147 66.4114 146.143 66.5549 147.111C66.6266 147.505 66.3755 147.828 66.1604 148.151C65.8735 148.617 65.4072 149.155 64.941 149.442C64.5824 149.693 64.152 150.339 64.152 150.339C64.7258 150.339 65.8735 148.868 66.3755 149.263C66.6983 149.514 66.3397 150.231 66.1604 150.41C64.8334 151.881 62.8251 152.885 61.1037 153.817C59.2388 154.821 57.2663 155.718 55.2938 156.507C52.4606 157.619 28.4681 165.15 25.5991 164.791C22.73 164.433 15.127 149.729 12.9394 145.461C10.7876 141.265 20.3631 142.198 20.3631 142.198Z" fill="white"/>
<path d="M12.1861 148.867C12.1861 148.867 19.7889 146.034 24.1642 142.089C24.1642 142.089 16.9558 119.532 9.71162 124.696C1.46327 130.613 12.1861 148.867 12.1861 148.867Z" fill="#E50000"/>
<path d="M73.7633 143.739C74.1578 143.488 74.6599 143.775 75.3054 144.313C74.4447 143.237 73.4406 142.125 74.4447 141.982C75.413 141.838 76.0944 143.345 76.8116 143.811C76.453 143.273 74.1937 141.731 75.0903 140.583C75.5923 139.902 77.9951 142.592 78.4972 143.129C78.031 142.699 76.0227 140.583 77.0985 140.153C78.0668 139.758 79.4296 141.587 80.111 142.161C80.6131 142.592 81.3303 142.95 81.4379 143.632C81.6531 144.994 79.7165 145.891 78.6765 146.178C77.3496 146.572 75.8434 146.214 74.6599 145.496C73.9068 145.102 73.3689 143.99 73.7633 143.739Z" fill="white"/>
</svg>
