<svg width="320" height="275" viewBox="0 0 320 275" fill="none" xmlns="http://www.w3.org/2000/svg">
<path d="M196.21 267.781H146.681L150.769 208.066H192.157L196.21 267.781Z" fill="#5B5B5B"/>
<path d="M202.717 258.208C202.103 257.322 201.116 256.777 200.026 256.777H172.604H170.321H142.9C141.81 256.777 140.822 257.322 140.209 258.208L132.714 269.381C131.284 271.527 132.817 274.423 135.406 274.423H170.321H172.604H207.52C210.109 274.423 211.641 271.527 210.211 269.381L202.717 258.208Z" fill="#B40000"/>
<path d="M292.715 223.94H50.2108C42.5122 223.94 36.2785 217.706 36.2785 210.007V56.6159C36.2785 48.9174 42.5122 42.6836 50.2108 42.6836H292.715C300.413 42.6836 306.647 48.9174 306.647 56.6159V209.973C306.647 217.706 300.413 223.94 292.715 223.94Z" fill="#B40000"/>
<path d="M294.179 54.708H48.7119V210.075H294.179V54.708Z" fill="#FEFEFE"/>
<path d="M288.048 71.6387H54.8435V210.076H288.048V71.6387Z" fill="#DFDFDF"/>
<path d="M288.048 71.6387H54.8435V83.0843H288.048V71.6387Z" fill="#DFDFDF"/>
<path d="M276.738 120.418H204.318V129.99H276.738V120.418Z" fill="#FEFEFE"/>
<path d="M276.738 137.314H204.318V146.887H276.738V137.314Z" fill="#FEFEFE"/>
<path d="M276.738 154.244H204.318V163.816H276.738V154.244Z" fill="#FEFEFE"/>
<path d="M148.793 94.5635H76.3722V104.136H148.793V94.5635Z" fill="#FEFEFE"/>
<path d="M148.793 111.459H76.3722V121.031H148.793V111.459Z" fill="#FEFEFE"/>
<path d="M145.42 114.422H8.6864C3.88333 114.422 0 118.305 0 123.074V167.153C0 171.956 3.88333 175.84 8.6864 175.84H94.3581L126.992 203.568L111.492 175.84H145.42C150.224 175.84 154.107 171.956 154.107 167.153V123.074C154.073 118.305 150.189 114.422 145.42 114.422Z" fill="#E50000"/>
<path d="M143.683 126.31H51.5393V131.624H143.683V126.31Z" fill="white"/>
<path d="M143.683 137.143H51.5393V142.457H143.683V137.143Z" fill="white"/>
<path d="M143.683 147.976H51.5393V153.29H143.683V147.976Z" fill="white"/>
<path d="M112.685 158.773H51.5393V164.087H112.685V158.773Z" fill="white"/>
<path d="M44.2155 144.194C44.2155 154.004 36.2444 161.975 26.4339 161.975C16.6234 161.975 8.65233 154.004 8.65233 144.194C8.65233 134.383 16.6234 126.412 26.4339 126.412C36.2444 126.412 44.2155 134.383 44.2155 144.194Z" fill="#181818"/>
<path d="M26.4339 144.091C29.1994 144.091 31.4413 141.773 31.4413 138.913C31.4413 136.054 29.1994 133.735 26.4339 133.735C23.6684 133.735 21.4264 136.054 21.4264 138.913C21.4264 141.773 23.6684 144.091 26.4339 144.091Z" fill="white"/>
<path d="M26.5361 144.841H26.3658C21.4605 144.841 17.475 148.826 17.475 153.732V159.42C20.132 160.987 23.1637 161.941 26.4679 161.941C29.7722 161.941 32.8039 160.987 35.4609 159.42V153.732C35.4609 148.86 31.4754 144.841 26.5361 144.841Z" fill="white"/>
<path d="M311.314 0H174.58C169.776 0 165.893 3.88333 165.893 8.6864V52.7656C165.893 57.5687 169.776 61.452 174.58 61.452H214.162L203.568 89.1803L231.297 61.452H311.314C316.117 61.452 320 57.5687 320 52.7656V8.6864C319.966 3.88333 316.083 0 311.314 0Z" fill="#DFDFDF"/>
<path d="M309.576 11.8877H217.432V17.2017H309.576V11.8877Z" fill="white"/>
<path d="M309.576 22.7207H217.432V28.0347H309.576V22.7207Z" fill="white"/>
<path d="M309.576 33.5537H217.432V38.8677H309.576V33.5537Z" fill="white"/>
<path d="M278.578 44.3516H217.432V49.6656H278.578V44.3516Z" fill="white"/>
<path d="M210.109 29.7718C210.109 39.5823 202.138 47.5534 192.327 47.5534C182.516 47.5534 174.545 39.5823 174.545 29.7718C174.545 19.9613 182.516 11.9902 192.327 11.9902C202.172 11.9902 210.109 19.9613 210.109 29.7718Z" fill="#181818"/>
<path d="M197.369 24.4922C197.369 27.3536 195.12 29.67 192.361 29.67C189.602 29.67 187.354 27.3536 187.354 24.4922C187.354 21.6308 189.602 19.3145 192.361 19.3145C195.12 19.3145 197.369 21.6308 197.369 24.4922Z" fill="white"/>
<path d="M192.429 30.4541H192.259C187.354 30.4541 183.368 34.4396 183.368 39.3449V45.0336C186.025 46.6006 189.057 47.5544 192.361 47.5544C195.665 47.5544 198.697 46.6006 201.354 45.0336V39.3449C201.354 34.4396 197.369 30.4541 192.429 30.4541Z" fill="white"/>
<path d="M272.957 201.591H218.727C214.298 201.591 210.756 198.015 210.756 193.586V187.284C210.756 182.856 214.333 179.279 218.727 179.279H272.957C277.386 179.279 280.962 182.856 280.962 187.284V193.586C280.962 198.015 277.386 201.591 272.957 201.591Z" fill="#E50000"/>
<path d="M179.723 108.631C176.078 109.346 172.263 109.414 168.755 109.107C167.46 109.005 166.166 108.699 164.905 108.256C165.076 112.82 165.11 123.517 161.874 127.979C161.874 127.979 163.032 133.259 172.536 133.395C182.04 133.566 183.096 126.378 183.096 126.378C183.096 126.378 179.928 115.341 179.723 108.631Z" fill="white"/>
<path d="M161.908 128.149C161.942 128.252 161.976 128.354 162.044 128.524C162.044 128.524 162.044 128.558 162.078 128.558C162.146 128.729 162.248 128.899 162.384 129.103C162.384 129.103 162.384 129.103 162.384 129.137C162.521 129.342 162.691 129.58 162.861 129.819C162.895 129.853 162.93 129.887 162.93 129.921C163.338 130.398 163.883 130.943 164.667 131.42C164.701 131.454 164.735 131.488 164.803 131.488C165.178 131.726 165.621 131.965 166.098 132.169C166.166 132.203 166.234 132.237 166.302 132.237C166.813 132.442 167.358 132.646 167.971 132.816C168.278 130.398 169.197 128.047 170.764 126.071C173.558 122.563 177.271 120.519 181.461 119.872C180.643 116.295 179.825 111.969 179.723 108.631C176.078 109.346 172.263 109.414 168.755 109.107C167.46 109.005 166.166 108.699 164.905 108.256C165.076 112.82 165.11 123.517 161.874 127.979C161.874 127.979 161.874 128.047 161.908 128.081C161.908 128.115 161.908 128.115 161.908 128.149Z" fill="#E50000"/>
<path d="M166.574 82.9804C166.574 82.9804 182.142 78.3817 184.628 82.1628C187.115 85.944 186.672 92.0415 187.694 94.6985C188.716 97.3896 192.6 100.217 193.008 101.273C193.417 102.363 190.419 104.407 190.011 105.224C189.602 106.076 188.035 114.865 185.31 116.84C182.619 118.782 168.107 113.604 164.496 106.757C160.92 99.9444 162.385 85.2286 166.574 82.9804Z" fill="white"/>
<path d="M173.66 85.7052C173.66 85.7052 174.137 89.5204 172.025 93.7444C171.105 95.6179 175.738 100.557 174.443 102.805C173.592 104.304 172.331 103.93 171.173 100.966C170.764 99.9441 169.674 99.2628 168.652 98.8199C164.837 97.1849 163.951 102.976 167.358 104.713C169.742 105.905 168.312 111.969 168.312 111.969C165.757 113.944 157.241 111.56 158.195 105.36C158.774 101.409 159.046 99.91 157.684 98.9562C155.163 97.2189 151.927 92.3818 156.049 88.2941C161.737 82.6394 156.56 80.8681 163.1 79.233C169.674 77.5979 175.09 81.6175 173.66 85.7052Z" fill="#181818"/>
<path d="M162.044 82.402C162.419 80.9713 165.007 79.1319 166.268 78.1781C168.244 76.7133 170.526 75.7595 172.978 75.1463C175.397 74.5332 178.02 74.431 180.473 74.9079C182.619 75.3167 184.39 76.2705 186.57 76.5089C188.58 76.7474 190.59 76.6452 191.986 75.4529C192.429 76.7814 192.429 79.4725 192.259 80.3922C191.918 82.3339 190.624 84.0712 189.466 85.8085C186.298 90.5093 177.713 93.1323 171.65 90.6456C168.72 89.4533 166.098 88.3974 164.667 85.8425C163.849 84.3437 163.202 83.6284 162.044 82.402Z" fill="#181818"/>
<path d="M245.161 92.5527L260.217 125.97C260.217 125.97 255.823 130.943 254.324 129.819C252.859 128.729 230.275 101.614 228.06 100.183C225.88 98.7865 245.161 92.5527 245.161 92.5527Z" fill="#181818"/>
<path d="M207.826 96.7081C207.826 96.7081 207.894 106.314 213.753 108.528C213.753 108.528 243.866 96.0609 249.93 94.8687C255.993 93.6764 278.033 93.472 278.033 93.472L255.823 53.7871C255.823 53.7871 245.161 75.0773 235.452 82.0605C225.71 89.0437 207.826 96.7081 207.826 96.7081Z" fill="#E50000"/>
<path d="M227.379 103.01C229.764 102.056 232.25 101.068 234.703 100.148C231.024 95.9924 229.082 90.2015 228.367 86.5566C226.085 87.8511 223.7 89.1115 221.418 90.3037C222.44 95.5156 224.62 99.8077 227.379 103.01Z" fill="#181818"/>
<path d="M286.242 64.0068C292.51 79.1314 290.296 94.4263 281.303 98.1733C272.31 101.92 259.911 92.6549 253.643 77.5304C247.375 62.4058 249.589 47.111 258.582 43.3639C267.575 39.6509 279.974 48.8823 286.242 64.0068Z" fill="#5B5B5B"/>
<path d="M285.016 64.517C290.364 77.3933 288.456 90.4059 280.792 93.5738C273.128 96.7418 262.602 88.907 257.254 76.0307C251.905 63.1544 253.813 50.1419 261.478 46.9739C269.142 43.7718 279.702 51.6407 285.016 64.517Z" fill="#181818"/>
<path d="M243.185 116.602C242.47 116.159 242.674 113.468 242.81 112.787C243.049 111.697 243.798 110.266 243.049 109.21C241.72 107.371 239.813 112.344 239.574 113.059C239.097 114.456 238.927 115.376 239.234 116.364C239.472 117.181 240.971 119.77 242.129 120.724C241.993 121.235 241.822 121.746 241.652 122.291C243.083 122.938 243.9 123.313 245.297 124.13C246.762 124.982 246.66 126.004 248.022 126.924L249.385 123.79C248.772 123.108 244.377 117.352 243.185 116.602Z" fill="white"/>
<path d="M252.825 105.667C251.531 104.271 249.487 104.816 247.92 105.94C246.762 106.791 243.458 109.448 244.343 111.39C245.093 112.991 249.351 109.414 249.351 109.414C247.784 110.777 244.854 111.833 245.604 113.195C246.421 114.694 250.134 112.548 250.952 111.969C250.1 112.173 245.944 114.694 247.613 116.023C248.738 116.908 251.803 115.035 252.723 114.388C251.497 114.762 249.828 115.852 250.168 117.556C250.713 118.475 252.553 117.862 253.575 117.453C255.142 116.806 256.606 116.568 256.709 114.626C256.743 114.251 256.777 113.945 256.777 113.57C256.709 112.173 256.061 110.572 255.414 109.346C254.699 108.052 253.847 106.757 252.825 105.667Z" fill="white"/>
<path d="M94.29 116.773C93.5406 115.649 92.9955 114.354 92.5527 113.06C92.178 111.936 91.9055 110.812 91.4967 109.721C91.122 108.665 90.6791 107.575 90.7473 106.451C90.7813 105.736 90.9517 105.157 91.1561 104.442C91.3945 103.59 91.7011 102.772 91.8714 101.887C92.0417 101.103 91.9736 100.388 92.1099 99.6044C92.3824 98.1737 92.723 96.6748 93.4384 95.3804C94.0175 94.3925 94.6306 93.575 95.38 92.7234C95.7888 92.2806 96.0613 91.9058 96.5382 91.4971C96.981 91.1224 97.3898 90.7477 97.5942 90.2026C97.8667 89.4192 97.4579 88.7379 96.7085 88.5335C95.38 88.1928 93.268 88.806 92.4505 89.9301C91.3264 91.4971 90.7813 93.4047 89.521 94.9035C85.6717 99.5022 82.0268 94.086 77.5303 92.1443C76.2359 91.5993 74.2942 90.1686 73.1701 89.351C72.3526 88.7379 68.9121 85.4677 67.277 86.3193C66.0847 86.9665 68.4352 89.7257 69.5593 90.373C70.0021 90.6455 73.8855 93.7794 74.3624 93.9156C73.2382 93.7113 70.2746 91.7696 67.8901 89.8961C66.1869 88.5675 64.5178 87.239 63.598 87.9885C60.7366 90.3389 71.9778 95.721 72.8635 96.1979C71.9097 96.2661 63.1211 90.0323 62.2695 92.3487C61.8267 93.6091 63.6321 94.8694 65.1309 95.687C67.0045 96.7089 70.1384 97.4243 70.8537 97.9693C69.5252 98.4121 63.7002 94.4607 63.7002 96.8792C63.7002 98.4803 67.311 99.6384 68.6736 100.081C70.0703 100.524 74.192 103.317 75.5205 103.931C79.8808 106.008 81.6862 105.77 83.3894 108.359C84.4794 110.028 86.4211 118.817 88.0221 122.155L94.29 116.773Z" fill="white"/>
<path d="M240.766 121.099C236.883 132.408 228.571 152.404 225.846 151.007C220.703 148.384 209.632 139.323 201.354 133.805C194.95 129.513 191.748 128.252 191.748 128.252L197.505 155.538C197.505 155.538 224.79 176.249 230.513 173.081C235.01 170.594 246.08 139.085 249.964 126.004C249.964 126.038 240.835 121.167 240.766 121.099Z" fill="#5B5B5B"/>
<path d="M213.753 160.034C210.688 156.049 198.935 144.535 195.768 142.116L196.687 155.061C196.687 155.061 224.177 175.738 230.275 173.149C225.029 169.776 217.466 164.905 213.753 160.034Z" fill="#5B5B5B"/>
<path d="M145.455 129.683C145.455 129.683 111.901 143.241 108.256 142.287C104.611 141.333 92.4505 106.724 92.4505 106.724L82.2993 110.845C82.2993 110.845 93.1658 160.75 100.149 163.066C107.132 165.382 148.793 153.358 148.793 153.358C148.793 153.358 149.406 141.299 145.455 129.683Z" fill="#5B5B5B"/>
<path d="M116.841 160C113.877 161.056 110.879 162.112 107.848 162.998C122.086 161.124 148.759 153.426 148.759 153.426C148.759 153.426 149.031 147.873 148.043 140.754C139.732 149.679 128.014 155.981 116.841 160Z" fill="#5B5B5B"/>
<path d="M269.142 73.7148C267.609 68.9799 262.976 66.2547 258.821 67.5832C257.39 68.0601 256.232 68.9458 255.346 70.104C255.823 72.0456 256.47 74.0214 257.288 75.9971C258.684 79.4035 260.49 82.4352 262.465 85.0241C263.113 84.9901 263.76 84.9219 264.373 84.7176C268.529 83.3891 270.675 78.4497 269.142 73.7148Z" fill="#DFDFDF"/>
<path d="M145.523 170.526C144.33 182.176 143.411 206.634 142.729 210.075H197.777C198.765 191.782 198.425 165.314 197.505 155.572C195.938 138.608 191.748 128.286 191.748 128.286C191.748 128.286 187.626 126.992 182.755 125.118C182.755 125.118 172.638 131.318 163.202 125.186C163.202 125.186 146.17 129.206 144.126 130.194C142.389 130.977 146.783 158.092 145.523 170.526Z" fill="#5B5B5B"/>
<path d="M160.068 186.467C160 181.017 158.978 175.635 156.934 170.594C156.457 169.435 156.083 168.277 155.912 167.017C155.435 163.372 154.652 160.953 153.596 158.875C152.336 157.002 151.109 155.162 149.883 153.289C149.202 152.369 148.486 151.415 147.703 150.257C146.681 148.758 145.148 146.033 144.33 144.296C144.978 152.846 146.136 164.258 145.489 170.491C144.296 182.141 143.377 206.599 142.695 210.04H168.312C165.007 205.816 163.032 200.638 161.124 194.336C160.341 191.816 160.102 189.159 160.068 186.467Z" fill="#5B5B5B"/>
</svg>
