<svg width="70" height="60" viewBox="0 0 70 60" fill="none" xmlns="http://www.w3.org/2000/svg">
<g clip-path="url(#clip0_575_349)">
<path d="M21.3694 33L23.52 35.2164L26.3132 33.8784L24.851 36.5992L27 38.8236L23.9438 38.284L22.48 41L22.0546 37.9444L19 37.4008L21.7948 36.0533L21.3694 33Z" fill="#E50000"/>
<path d="M36.6081 46.5837C31.7332 48.5707 26.4944 48.2385 22.1056 46.1026C18.2765 44.2398 15.0949 41.0026 13.368 36.7358C11.3026 31.6326 11.751 26.1329 14.1327 21.6185C16.0251 18.0277 19.1387 15.062 23.1817 13.4146C28.0566 11.4276 33.2953 11.7591 37.6834 13.8949L42.9451 3.01568C42.0075 2.56005 41.0469 2.15294 40.0675 1.796L36.89 5.26341C35.6811 4.90154 34.4444 4.62767 33.1888 4.44837L31.6586 0.052421C30.6259 -0.00926218 29.5867 -0.0166642 28.5442 0.0310375L26.9813 4.32336C25.6904 4.45742 24.3988 4.69017 23.1153 5.0282L20.1091 1.65783C19.6198 1.8289 19.1321 2.0123 18.6469 2.21051C18.1617 2.40872 17.6839 2.61844 17.2151 2.83803L17.3995 7.29567C16.1997 7.94622 15.0694 8.68313 14.013 9.4957L10.038 7.57448C9.25779 8.26944 8.51771 9.00224 7.82106 9.76875L9.6684 13.7535C8.80948 14.8243 8.03825 15.9601 7.36455 17.1469L3.00601 16.9043C2.55197 17.8451 2.14627 18.809 1.79139 19.7919L5.00334 22.7576C4.62551 24.0702 4.35177 25.4157 4.18621 26.781L0.0522387 28.2301C-0.00922997 29.2664 -0.0166062 30.3092 0.0309296 31.3554L4.17474 32.8744C4.33128 34.201 4.59355 35.5276 4.96482 36.8444L1.65288 39.82C1.82254 40.311 2.0053 40.8011 2.20282 41.288C2.39952 41.7749 2.60852 42.2536 2.82898 42.7248L7.33177 42.5373C7.98498 43.697 8.71932 44.7883 9.52415 45.8098L7.54814 49.9261C8.24069 50.7091 8.97094 51.4518 9.73479 52.1508L13.9425 50.186C14.9465 50.9641 16.0046 51.6623 17.1053 52.2791L16.8447 56.9819C17.7823 57.4383 18.7428 57.8446 19.7222 58.2015L22.962 54.6683C24.1316 54.9841 25.3265 55.2161 26.5362 55.3633L28.132 59.9476C29.1646 60.0093 30.2039 60.0167 31.2464 59.969L32.9355 55.3296C34.0821 55.1774 35.2287 54.9422 36.3679 54.6272L39.6815 58.3414C40.1708 58.1711 40.6593 57.9877 41.1445 57.7895C41.6297 57.5921 42.1075 57.3816 42.5763 57.1612L42.3673 52.1146C43.3606 51.5414 44.304 50.9089 45.194 50.2222L49.7534 52.4255C50.5336 51.7306 51.2737 50.9969 51.9703 50.2313L49.8197 45.5919C50.5033 44.7053 51.1253 43.7759 51.6851 42.812L56.7846 43.0957C57.2386 42.1549 57.6451 41.1918 58 40.209L46.8725 35.4939C45.3096 40.3529 41.6936 44.5112 36.6081 46.5837Z" fill="#E50000"/>
<path d="M16.7725 34.5958L24.2007 27.1569L30.0174 29.7916L32.6646 35.6034L25.1467 43.1354C30.0747 44.9519 35.8251 43.9087 39.8178 39.9807C45.3297 34.5585 45.4028 25.6942 39.9806 20.1822C34.5584 14.6702 25.6941 14.5972 20.1822 20.0194C16.2002 23.9366 15.0573 29.6487 16.7725 34.5958Z" fill="#E50000"/>
<path d="M64.7424 8L31 22.7708L36.2576 35L70 20.2292L64.7424 8ZM45.7854 26.5333L43.6364 21.5343L62.5934 13.2356L64.7424 18.2346L45.7854 26.5333Z" fill="#E50000"/>
<path d="M46.7528 19.8074L44 21L45.9923 25.5859L48.7451 24.3933L46.7528 19.8074Z" fill="#E50000"/>
<path d="M49.7528 18.8074L47 20L48.9923 24.5859L51.7451 23.3933L49.7528 18.8074Z" fill="#E50000"/>
<path d="M52.7528 16.8074L50 18L51.9923 22.5859L54.7451 21.3933L52.7528 16.8074Z" fill="#E50000"/>
<path d="M55.7528 15.8074L53 17L54.9923 21.5859L57.7451 20.3933L55.7528 15.8074Z" fill="#E50000"/>
</g>
<defs>
<clipPath id="clip0_575_349">
<rect width="70" height="60" fill="white"/>
</clipPath>
</defs>
</svg>
