<svg width="428" height="360" viewBox="0 0 428 360" fill="none" xmlns="http://www.w3.org/2000/svg">
<g filter="url(#filter0_d_1359_419)">
<path d="M227.99 280.327C198.558 292.303 166.948 290.274 140.483 277.457C117.382 266.223 98.1893 246.773 87.7517 221.089C75.2861 190.406 78.0068 157.298 92.3522 130.128C103.779 108.501 122.576 90.6855 146.964 80.7382C176.347 68.8114 208.006 70.7909 234.471 83.658L266.228 18.1842C260.589 15.4623 254.752 12.9879 248.865 10.8599L229.672 31.6947C222.351 29.5172 214.931 27.884 207.313 26.7953L198.112 0.318733C191.88 -0.0771784 185.597 -0.0771783 179.315 0.170266L169.867 26.0035C162.1 26.7953 154.285 28.2305 146.518 30.2595L128.364 9.96907C125.396 11.0083 122.477 12.0971 119.559 13.2848C116.64 14.4726 113.771 15.7593 110.902 17.046L112.04 43.869C104.818 47.7786 97.9914 52.2326 91.6102 57.0825L67.6187 45.5021C62.9194 49.7087 58.4179 54.1132 54.2627 58.7156L65.3927 82.6683C60.1987 89.1018 55.5488 95.9313 51.4925 103.107L25.1761 101.623C22.4555 107.264 19.9821 113.104 17.855 118.993L37.2461 136.859C34.9706 144.777 33.2887 152.844 32.2994 161.059L7.31859 169.868C6.92286 176.103 6.92286 182.388 7.17019 188.673L32.2004 197.829C33.1403 205.797 34.7232 213.814 36.9493 221.732L16.9646 239.647C18.0034 242.616 19.0917 245.536 20.2789 248.456C21.4661 251.376 22.7523 254.246 24.0384 257.117L51.1957 255.978C55.1531 262.956 59.5556 269.538 64.4528 275.675L52.5313 300.469C56.736 305.17 61.1386 309.674 65.739 313.831L91.1155 302.003C97.1505 306.705 103.581 310.911 110.21 314.573L108.627 342.881C114.266 345.652 120.103 348.077 125.99 350.205L145.529 328.925C152.603 330.806 159.776 332.241 167.097 333.132L176.743 360.697C182.975 361.043 189.258 361.093 195.54 360.845L205.73 332.934C212.656 331.993 219.581 330.608 226.457 328.727L246.442 351.096C249.41 350.057 252.328 348.968 255.247 347.78C258.165 346.593 261.034 345.306 263.903 344.019L262.667 313.633C268.652 310.169 274.341 306.358 279.733 302.251L307.236 315.514C311.936 311.307 316.388 306.902 320.592 302.3L307.632 274.388C311.738 269.043 315.497 263.451 318.911 257.661L349.679 259.344C352.4 253.702 354.873 247.862 357 241.973L289.824 213.616C280.475 242.864 258.66 267.856 227.99 280.327Z" fill="url(#paint0_radial_1359_419)"/>
</g>
<path d="M109.62 207.923L153.912 163.545L188.592 179.246L204.396 213.916L159.56 258.839C188.939 269.686 223.272 263.445 247.052 240.018C279.949 207.676 280.345 154.828 248.043 121.941C215.692 89.0533 162.829 88.6571 129.933 120.95C106.202 144.377 99.3649 178.404 109.62 207.923Z" fill="#E50000"/>
<path d="M396.136 45L192 133.074L223.814 206L428 117.926L396.136 45ZM281.437 155.524L268.433 125.722L383.133 76.2329L396.136 106.035L281.437 155.524Z" fill="#E50000"/>
<path d="M288.432 119.443L271 127L282.549 153.601L299.982 146.044L288.432 119.443Z" fill="#E50000"/>
<path d="M307.432 111.443L290 119L301.549 145.601L318.982 138.044L307.432 111.443Z" fill="#E50000"/>
<path d="M326.432 103.443L309 111L320.549 137.601L337.982 130.044L326.432 103.443Z" fill="#E50000"/>
<path d="M345.432 95.443L328 103L339.549 129.601L356.982 122.044L345.432 95.443Z" fill="#E50000"/>
<defs>
<filter id="filter0_d_1359_419" x="0" y="-1" width="364" height="375" filterUnits="userSpaceOnUse" color-interpolation-filters="sRGB">
<feFlood flood-opacity="0" result="BackgroundImageFix"/>
<feColorMatrix in="SourceAlpha" type="matrix" values="0 0 0 0 0 0 0 0 0 0 0 0 0 0 0 0 0 0 127 0" result="hardAlpha"/>
<feOffset dy="6"/>
<feGaussianBlur stdDeviation="3.5"/>
<feComposite in2="hardAlpha" operator="out"/>
<feColorMatrix type="matrix" values="0 0 0 0 0.898039 0 0 0 0 0 0 0 0 0 0 0 0 0 0.8 0"/>
<feBlend mode="normal" in2="BackgroundImageFix" result="effect1_dropShadow_1359_419"/>
<feBlend mode="normal" in="SourceGraphic" in2="effect1_dropShadow_1359_419" result="shape"/>
</filter>
<radialGradient id="paint0_radial_1359_419" cx="0" cy="0" r="1" gradientUnits="userSpaceOnUse" gradientTransform="translate(182.463 180.456) rotate(-13.187) scale(210.507 194.435)">
<stop offset="0.0762706" stop-color="white"/>
<stop offset="0.502132" stop-color="#9FA0A0"/>
<stop offset="0.835097" stop-color="#5B5B5B"/>
</radialGradient>
</defs>
</svg>
